<svg width="108" height="59" viewBox="0 0 108 59" fill="none" xmlns="http://www.w3.org/2000/svg">
<path d="M4.60079 39.7223V40.2777H0V39.7223L1.58611 39.4392L6.3571 26.1289H8.34878L13.2918 39.441L15.0662 39.7242V40.2795H9.15632V39.7242L11.0357 39.441L9.647 35.392H4.13365L2.72499 39.441L4.60079 39.7223ZM6.84596 27.6352L4.44508 34.4483H9.32108L6.84596 27.6352ZM22.1638 30.1797V32.8385H21.7148L21.11 31.6915C20.6943 31.6991 20.2802 31.7465 19.8734 31.8331C19.4493 31.9087 19.0346 32.0304 18.6367 32.196V39.5427L20.317 39.804V40.2741H15.6601V39.804L16.9022 39.5427V31.1724L15.6601 30.9111V30.441H18.5209L18.615 31.6661C19.1332 31.2565 19.7038 30.9184 20.3116 30.6606C21.0249 30.34 21.5905 30.1797 22.0081 30.1797H22.1638ZM31.1843 39.677C30.7581 39.9651 30.2795 40.1661 29.7757 40.2686C29.1736 40.412 28.5568 40.4838 27.9379 40.4828C24.7572 40.4828 23.1669 38.749 23.1669 35.2813C23.1669 33.6419 23.5725 32.3812 24.3837 31.4991C25.1948 30.6171 26.3554 30.1761 27.8655 30.1761C28.8995 30.1861 29.9301 30.2949 30.9435 30.5009V33.2432H30.3696L29.9205 31.51C29.2829 31.1675 28.5669 30.9979 27.8438 31.0182C25.9788 31.0182 25.0463 32.4416 25.0463 35.2886C25.0463 36.7671 25.33 37.8222 25.8973 38.4537C26.4647 39.0853 27.3434 39.4011 28.5336 39.4011C29.4299 39.4175 30.3237 39.3014 31.1862 39.0563L31.1843 39.677ZM36.6959 30.2214C37.7678 30.2214 38.556 30.441 39.0606 30.8802C39.5651 31.3194 39.8174 31.9928 39.8174 32.9002V39.5445L41.0396 39.8058V40.2759H38.3454L38.1462 39.2922C37.3531 40.0871 36.3404 40.4846 35.108 40.4846C33.4301 40.4846 32.5912 39.5082 32.5912 37.5554C32.5682 36.9865 32.6996 36.4219 32.9714 35.922C33.2563 35.4673 33.6845 35.1211 34.1882 34.9383C34.7446 34.7121 35.5522 34.5911 36.6108 34.5753L38.0828 34.5336V32.9946C38.0828 32.3182 37.9621 31.8191 37.7207 31.4973C37.4793 31.1755 37.0984 31.0151 36.5782 31.0164C35.9055 31.0077 35.2426 31.178 34.6571 31.51L34.295 32.7351H33.7102V30.588C34.6898 30.3611 35.6906 30.2382 36.6959 30.2214ZM38.0846 35.265L36.7176 35.3067C35.7845 35.3418 35.1526 35.5233 34.8219 35.8512C34.4911 36.1791 34.3258 36.7284 34.3258 37.4991C34.3258 38.7272 34.8237 39.3412 35.8195 39.3412C36.2339 39.3495 36.6472 39.295 37.0453 39.1797C37.4012 39.0669 37.7485 38.9286 38.0846 38.7659V35.265ZM54.755 40.4864C52.4857 40.4864 50.7179 39.8675 49.4517 38.6298C48.1855 37.392 47.5524 35.6564 47.5524 33.4229C47.5524 31.0091 48.1613 29.1833 49.3793 27.9456C50.5972 26.7078 52.403 26.089 54.7967 26.089C56.3735 26.1026 57.9446 26.2814 59.4844 26.6225L59.5477 29.6879H58.8579L58.5447 27.873C58.0174 27.5568 57.4454 27.3224 56.8481 27.1779C56.2048 27.0144 55.5436 26.9321 54.88 26.9329C53.0911 26.9329 51.7862 27.4598 50.9654 28.5136C50.1446 29.5675 49.7342 31.2009 49.7342 33.4138C49.7342 35.4513 50.1639 37.0073 51.0233 38.0817C51.8828 39.1561 53.1345 39.6879 54.7786 39.677C55.5364 39.6814 56.2915 39.5844 57.0237 39.3884C57.6257 39.2442 58.1936 38.9827 58.6949 38.6189L59.0806 36.5263H59.7596L59.6962 39.8222C58.0882 40.274 56.425 40.4975 54.755 40.4864ZM65.7998 30.2214C66.8717 30.2214 67.6599 30.441 68.1645 30.8802C68.6691 31.3194 68.9213 31.9928 68.9213 32.9002V39.5445L70.1435 39.8058V40.2759H67.4493L67.2501 39.2922C66.4571 40.0871 65.4443 40.4846 64.2119 40.4846C62.5341 40.4846 61.6951 39.5082 61.6951 37.5554C61.6721 36.9865 61.8036 36.4219 62.0754 35.922C62.3602 35.4673 62.7885 35.1211 63.2921 34.9383C63.8486 34.7121 64.6561 34.5911 65.7147 34.5753L67.1868 34.5336V32.9946C67.1868 32.3182 67.0661 31.8191 66.8246 31.4973C66.5832 31.1755 66.2024 31.0151 65.6821 31.0164C65.0133 31.009 64.3544 31.1787 63.7719 31.5082L63.4098 32.7332H62.825V30.588C63.8011 30.3619 64.7981 30.239 65.7998 30.2214ZM67.1886 35.265L65.8216 35.3067C64.8885 35.3418 64.2572 35.5233 63.9276 35.8512C63.5981 36.1791 63.4327 36.7266 63.4315 37.4937C63.4315 38.7217 63.9295 39.3358 64.9253 39.3358C65.3403 39.3442 65.7541 39.2897 66.1529 39.1743C66.5088 39.0615 66.8561 38.9232 67.1922 38.7605L67.1886 35.265ZM72.0139 31.1724L70.8967 30.9111V30.441H73.6525L73.6742 31.0164C74.0211 30.7369 74.4208 30.5307 74.8493 30.4102C75.3339 30.2576 75.8388 30.1799 76.3467 30.1797C77.5997 30.1797 78.5689 30.6159 79.2546 31.4882C79.9402 32.3606 80.283 33.6129 80.283 35.245C80.283 36.9123 79.9088 38.2027 79.1604 39.1162C78.412 40.0297 77.3317 40.4864 75.9194 40.4864C75.165 40.4896 74.4123 40.4124 73.6742 40.2559C73.7165 40.758 73.7376 41.1525 73.7376 41.4392V44.098L75.4504 44.3485V44.8403H70.7736V44.3485L72.0157 44.098L72.0139 31.1724ZM78.4036 35.2432C78.4036 33.9038 78.1863 32.9081 77.7517 32.2559C77.3172 31.6038 76.6575 31.2777 75.7727 31.2777C75.0783 31.2566 74.3865 31.3738 73.7376 31.6225V39.481C74.4088 39.6054 75.0902 39.6662 75.7727 39.6625C77.5266 39.6612 78.4036 38.1882 78.4036 35.2432ZM84.9707 39.5445L86.651 39.8058V40.2759H81.5667V39.8058L83.2379 39.5445V31.1724L81.8492 30.9111V30.441H84.9707V39.5445ZM85.0757 27.2287C85.0771 27.377 85.0483 27.5239 84.991 27.6606C84.9337 27.7973 84.8492 27.9208 84.7426 28.0236C84.6384 28.1314 84.5134 28.2166 84.3751 28.274C84.2368 28.3315 84.0883 28.3599 83.9386 28.3576C83.6405 28.3543 83.3555 28.2341 83.1447 28.0227C82.9338 27.8114 82.8139 27.5257 82.8106 27.2269C82.8083 27.0769 82.8366 26.928 82.8939 26.7894C82.9512 26.6508 83.0363 26.5255 83.1438 26.4211C83.2462 26.3139 83.3693 26.2288 83.5057 26.1711C83.6421 26.1134 83.7888 26.0842 83.9368 26.0853C84.2381 26.0863 84.5268 26.2067 84.7398 26.4202C84.9528 26.6337 85.0729 26.9231 85.0739 27.2251L85.0757 27.2287ZM90.5456 40.4864C89.8781 40.4864 89.379 40.2874 89.0482 39.8893C88.7175 39.4913 88.5521 38.9335 88.5521 38.216V31.3285H87.2684V30.8585L88.5738 30.4501L89.6276 28.2214H90.2849V30.4501H92.53V31.3285H90.2849V38.0436C90.2577 38.4118 90.3673 38.777 90.5927 39.069C90.694 39.1826 90.8191 39.2724 90.959 39.332C91.0988 39.3916 91.2501 39.4195 91.402 39.4138C91.8968 39.404 92.3896 39.3481 92.8741 39.2469V39.9274C92.5503 40.1274 92.1934 40.2675 91.8203 40.3412C91.4023 40.4383 90.9746 40.487 90.5456 40.4864ZM97.8478 30.2214C98.9197 30.2214 99.708 30.441 100.213 30.8802C100.717 31.3194 100.969 31.9928 100.969 32.9002V39.5445L102.192 39.8058V40.2759H99.4973L99.2981 39.2922C98.5051 40.0871 97.4924 40.4846 96.2599 40.4846C94.5821 40.4846 93.7432 39.5082 93.7432 37.5554C93.7202 36.9865 93.8516 36.4219 94.1234 35.922C94.4083 35.4673 94.8365 35.1211 95.3401 34.9383C95.8966 34.7121 96.7041 34.5911 97.7627 34.5753L99.2348 34.5336V32.9946C99.2348 32.3182 99.1141 31.8191 98.8727 31.4973C98.6312 31.1755 98.2504 31.0151 97.7302 31.0164C97.0613 31.009 96.4024 31.1787 95.82 31.5082L95.4578 32.7332H94.873V30.588C95.8491 30.3619 96.8462 30.239 97.8478 30.2214ZM99.2366 35.265L97.8696 35.3067C96.9365 35.3418 96.3052 35.5233 95.9757 35.8512C95.6461 36.1791 95.4808 36.7266 95.4796 37.4937C95.4796 38.7217 95.9775 39.3358 96.9733 39.3358C97.3883 39.3442 97.8022 39.2897 98.2009 39.1743C98.5568 39.0615 98.9041 38.9232 99.2402 38.7605L99.2366 35.265ZM106.32 39.5445L108 39.8058V40.2759H102.918V39.8058L104.589 39.5445V26.1289L102.918 25.8839V25.4138H106.322L106.32 39.5445Z" fill="black"/>
<path d="M37.2572 54.118C37.2572 51.3122 39.3847 49.2359 42.2382 49.2359C43.5962 49.2359 44.8184 49.6751 45.6549 50.5699L45.2167 51.0236C44.3929 50.2123 43.3916 49.882 42.2672 49.882C39.812 49.882 37.9597 51.6969 37.9597 54.118C37.9597 56.539 39.812 58.3539 42.2672 58.3539C42.8112 58.3707 43.353 58.2769 43.8599 58.0783C44.3668 57.8796 44.8284 57.5801 45.2167 57.1978L45.6549 57.6515C44.8184 58.5445 43.5962 59 42.2382 59C39.3847 59 37.2572 56.9183 37.2572 54.118ZM58.5936 58.2995V58.9328H51.9667V49.314H58.3872V49.9474H52.6656V53.7423H57.7824V54.3612H52.6656V58.3085L58.5936 58.2995ZM71.7369 58.2995V58.9328H65.11V49.314H71.5305V49.9474H65.8089V53.7423H70.9257V54.3612H65.8089V58.3085L71.7369 58.2995ZM37.1395 18.6588H39.3756V19.5917H37.1395V18.6588ZM52.5678 18.6588H71.2263V19.5917H52.5678V18.6588ZM58.2097 16.7931H71.2245V17.726H58.2097V16.7931ZM57.0817 14.9274H71.2263V15.8603H57.0817V14.9274ZM56.419 13.0617H71.2263V13.9946H56.419V13.0617ZM55.1516 11.196H71.2245V12.1289H55.1516V11.196ZM54.3784 9.33031H71.2263V10.2632H54.3784V9.33031ZM53.4876 7.46279H71.2263V8.39564H53.4876V7.46279ZM52.5678 5.5971H71.2263V6.52995H52.5678V5.5971ZM51.6154 3.7314H71.2263V4.66425H51.6154V3.7314ZM50.8333 1.8657H71.2263V2.79855H50.8333V1.8657ZM49.9587 0H71.2263V0.932849H49.9587V0ZM40.433 17.726H37.1395V16.7931H40.433V17.726ZM41.1012 15.8603H37.1395V14.9274H41.1012V15.8603ZM42.1296 13.9946H37.1395V13.0617H42.1296V13.9946ZM43.0204 12.1289H37.1395V11.196H43.0204V12.1289ZM43.8099 10.2613H37.1395V9.32849H43.8099V10.2613ZM44.8057 8.39564H37.1395V7.46279H44.8057V8.39564ZM46.0478 6.52995H37.1395V5.5971H46.0478V6.52995ZM46.696 4.66606H37.1395V3.73321H46.696V4.66606ZM47.8041 2.80036H37.1413V1.86751H47.8041V2.80036ZM48.4342 0.932849H37.1395V0H48.4342V0.932849Z" fill="#C5B358"/>
<path d="M40.4329 14.9275H50.7842V15.8603H40.4329V14.9275Z" fill="#C5B358"/>
<path d="M39.4915 19.5917L49.0734 0.284937L58.6533 19.5917H59.7234L50.0004 0H48.1463L38.4233 19.5917H39.4915Z" fill="#C5B358"/>
<path d="M53.2106 19.5917L46.1256 5.31766L45.2692 5.74597L52.1423 19.5917H53.2106ZM56.4498 19.5917L47.804 2.17065L46.9476 2.59715L55.3815 19.5917H56.4498Z" fill="#C5B358"/>
</svg>
