<svg width="133" height="15" viewBox="0 0 133 15" fill="none" xmlns="http://www.w3.org/2000/svg">
<path d="M61.8525 1.49993C61.8525 0.692241 61.3934 0.230713 60.5902 0.230713H54.9672C51.9836 0.230713 50.6066 1.49995 50.6066 4.61533V10.6153C50.6066 11.8846 50.0328 12.3461 48.7705 12.3461H41.541C40.7377 12.3461 40.2787 12.8076 40.2787 13.6153C40.2787 14.3076 40.7377 14.8845 41.541 14.8845H48.8852C51.8688 14.8845 53.2459 13.6153 53.2459 10.4999V4.49994C53.2459 3.23071 53.7049 2.76917 54.9672 2.76917H60.5902C61.3934 2.76917 61.8525 2.30762 61.8525 1.49993Z" fill="black"/>
<path d="M17.2131 0.230713H4.36066C1.72132 0.230713 0 2.07687 0 4.61533V10.6153C0 13.2692 1.72132 14.9999 4.36066 14.9999H14.6885C15.6066 14.9999 16.4098 14.0769 16.4098 13.2692V10.2692C16.4098 9.57686 15.8361 8.99993 15.1475 8.99993C14.3443 8.99993 13.8853 9.46147 13.8853 10.2692V12.3461H4.36066C3.44263 12.3461 2.63935 11.423 2.63935 10.6153V4.49994C2.63935 3.57686 3.55738 2.76917 4.36066 2.76917H17.2131C18.1311 2.76917 18.9344 3.69225 18.9344 4.49994V13.6153C18.9344 14.3076 19.3934 14.8845 20.1967 14.8845C20.8853 14.8845 21.459 14.423 21.459 13.6153V4.49994C21.459 1.96148 19.7377 0.230713 17.2131 0.230713Z" fill="black"/>
<path d="M64.4918 10.6154C64.4918 13.6154 65.7541 15 68.8525 15C74.1312 15 79.4099 15 84.6886 15C85.4918 15 85.9508 14.5384 85.9508 13.7308C85.9508 13.0384 85.4918 12.4615 84.6886 12.4615H68.8525C67.5902 12.4615 67.1312 12 67.1312 10.7308V4.49999C67.1312 3.23076 67.5902 2.76922 68.8525 2.76922H81.7049C82.9672 2.76922 83.4262 3.23076 83.4262 4.49999C83.4262 5.76922 82.9672 6.23076 81.7049 6.23076H70.9181C70 6.23076 69.6558 6.69231 69.6558 7.5C69.6558 8.30769 70.1148 8.76922 70.9181 8.76922H81.7049C84.6885 8.76922 86.0656 7.49998 86.0656 4.3846C86.0656 1.26922 84.8033 0 81.7049 0H68.8525C65.7541 0 64.4918 1.26922 64.4918 4.3846V10.6154Z" fill="black"/>
<path d="M88.5902 10.6153C88.5902 13.6153 89.8525 14.9999 92.9508 14.9999C98.2295 14.9999 102.016 14.9999 107.41 14.9999C108.213 14.9999 108.672 14.5383 108.672 13.7307C108.672 13.0383 108.213 12.4614 107.41 12.4614H92.9508C91.6885 12.4614 91.2295 11.9999 91.2295 10.7306C91.2295 8.65372 91.2295 6.69219 91.2295 4.73065C91.2295 3.46142 91.6885 2.99988 92.9508 2.99988C98.2295 2.99988 102.016 2.99988 107.41 2.99988C108.213 2.99988 108.672 2.53836 108.672 1.73066C108.672 1.03836 108.213 0.461426 107.41 0.461426H92.9508C89.9672 0.461426 88.5902 1.73066 88.5902 4.84604V10.6153C88.4754 10.6153 88.5902 10.6153 88.5902 10.6153Z" fill="black"/>
<path d="M111.426 10.6155C111.426 13.6155 112.689 15.0001 115.787 15.0001H128.639C131.623 15.0001 133 13.7309 133 10.6155V4.5001C133 1.5001 131.738 0.115479 128.639 0.115479H115.787C112.803 0.115479 111.426 1.38471 111.426 4.5001V10.6155ZM115.787 12.3463C114.525 12.3463 114.066 11.8847 114.066 10.6155V4.5001C114.066 3.23087 114.525 2.76933 115.787 2.76933H128.639C129.902 2.76933 130.361 3.23087 130.361 4.5001C130.361 6.57702 130.361 8.53855 130.361 10.5001C130.361 11.7693 129.902 12.2309 128.639 12.2309H115.787V12.3463Z" fill="black"/>
<path d="M45.5574 1.49993C45.5574 0.692241 45.0984 0.230713 44.2951 0.230713H38.6722C35.6886 0.230713 34.3115 1.49995 34.3115 4.61533V10.6153C34.3115 11.8846 33.7377 12.3461 32.4755 12.3461H25.1312C24.3279 12.3461 23.8689 12.8076 23.8689 13.6153C23.8689 14.3076 24.3279 14.8845 25.1312 14.8845H32.4755C35.4591 14.8845 36.8361 13.6153 36.8361 10.4999V4.49994C36.8361 3.23071 37.2951 2.76917 38.5574 2.76917H44.1804C45.0984 2.76917 45.5574 2.30762 45.5574 1.49993Z" fill="black"/>
</svg>
