<svg width="107" height="32" viewBox="0 0 107 32" fill="none" xmlns="http://www.w3.org/2000/svg">
<g clip-path="url(#clip0)">
<path d="M3.89148 7.33413C3.89148 10.4474 3.77258 13.3777 3.93132 16.2922C4.05023 18.4616 5.96106 20.0906 8.33919 20.459C9.4212 20.558 10.5067 20.3131 11.4467 19.758C12.3866 19.2029 13.1347 18.3649 13.5883 17.359C13.9746 16.3507 14.0465 15.2455 13.7943 14.194C13.542 13.1425 12.9779 12.1958 12.1787 11.4827C11.5967 11.0538 10.9864 10.6662 10.3523 10.3226C9.36476 9.71678 9.00685 8.78868 9.40757 7.85695C9.50152 7.62928 9.63992 7.42346 9.81434 7.25197C9.98877 7.08048 10.1956 6.94691 10.4222 6.85937C10.6489 6.77184 10.8906 6.73216 11.1328 6.74275C11.3749 6.75333 11.6124 6.81397 11.8309 6.92097C15.1906 8.28343 18.3517 11.3434 17.6656 16.9029C17.1989 20.688 13.4189 23.9448 9.55561 24.2029C8.30844 24.3037 7.05446 24.1343 5.8762 23.7057C4.69795 23.277 3.62216 22.599 2.71967 21.7161C1.81717 20.8332 1.10844 19.7656 0.640125 18.5835C0.171815 17.4013 -0.0454481 16.1315 0.00264063 14.8577C0.103117 10.7521 0.0056133 6.6423 0.0412853 2.53431C0.01891 1.90933 0.169293 1.29052 0.475295 0.748392C0.642677 0.503557 0.868924 0.30659 1.13238 0.176342C1.39585 0.0460931 1.6877 -0.0130783 1.98003 0.00448982C2.27235 0.0220579 2.55536 0.115778 2.80197 0.27668C3.04858 0.437583 3.25053 0.660284 3.38851 0.923471C4.21472 2.29695 5.30031 3.48962 6.58234 4.43231C6.75068 4.53386 6.89718 4.66896 7.01309 4.82953C7.12901 4.9901 7.21195 5.17284 7.25696 5.36682C7.30198 5.5608 7.30813 5.76205 7.27506 5.95851C7.242 6.15497 7.17038 6.34262 7.06451 6.51023C6.90104 6.89678 6.61513 7.21634 6.25248 7.41785C5.88982 7.61937 5.47134 7.69121 5.0639 7.62189C4.73929 7.56495 4.4224 7.4662 3.89148 7.33413Z" fill="#6F42C1"/>
<path d="M34.1678 22.2981C32.5209 23.5547 30.4592 24.1099 28.4181 23.8467C26.3769 23.5834 24.5161 22.5222 23.2284 20.8872C22.0442 19.2399 21.4491 17.2292 21.542 15.1895C21.6349 13.1497 22.4103 11.2039 23.7391 9.67546C25.0336 8.23635 26.8126 7.34706 28.7218 7.18483C30.631 7.02259 32.5301 7.59931 34.0406 8.80007C34.1256 8.76735 34.251 8.75948 34.2879 8.69708C34.8004 7.83865 35.4633 7.24314 36.5233 7.51454C37.6381 7.79927 38.0424 8.71404 38.0519 9.74149C38.0893 13.6011 38.0888 17.4619 38.0305 21.3209C38.0168 22.2454 37.7689 23.205 36.7225 23.566C36.3344 23.7092 35.9099 23.713 35.5193 23.577C35.1287 23.4409 34.7954 23.1731 34.5745 22.8179C34.4573 22.6658 34.3384 22.5162 34.1678 22.2981ZM29.7391 20.0124C30.3145 20.0255 30.8868 19.9228 31.4231 19.71C31.9594 19.4972 32.4492 19.1786 32.8643 18.7724C33.2795 18.3662 33.6118 17.8805 33.8422 17.3431C34.0726 16.8057 34.1966 16.2272 34.207 15.6409C34.1925 14.4304 33.7196 13.2725 32.887 12.409C32.0544 11.5455 30.9266 11.0432 29.7391 11.007C28.5532 11.0511 27.4285 11.5546 26.5944 12.4148C25.7604 13.2751 25.2799 14.4271 25.251 15.636C25.2957 16.8163 25.7889 17.9326 26.6264 18.7492C27.4638 19.5658 28.58 20.0187 29.7391 20.0124Z" fill="#6F42C1"/>
<path d="M79.1461 17.4952C79.3035 18.1758 79.6803 18.7831 80.2163 19.2198C80.7523 19.6566 81.4165 19.8976 82.1027 19.9045C83.3854 19.9234 84.6675 19.836 85.9363 19.6434C86.3126 19.6082 86.6747 19.4259 87.051 19.3847C87.4582 19.3064 87.8795 19.3851 88.2329 19.6055C88.5864 19.826 88.8468 20.1724 88.9636 20.5775C89.134 20.9656 89.1465 21.4066 88.9984 21.804C88.8503 22.2014 88.5537 22.5229 88.1735 22.6979C85.0819 24.345 81.897 24.4983 78.8149 22.7918C75.8215 21.1337 74.8435 18.2482 75.0165 14.9768C75.05 13.123 75.7226 11.3403 76.9165 9.94093C78.1103 8.54159 79.7492 7.61486 81.5462 7.32305C85.7603 6.5355 89.3976 9.23074 90.2413 13.4587C90.8858 16.687 90.2448 17.5449 87.0801 17.4176C84.9267 17.3316 82.7674 17.397 80.611 17.4055C80.1883 17.4067 79.7656 17.4558 79.1461 17.4952ZM86.3619 13.6447C85.9904 11.9975 84.7567 11.1003 82.9386 11.0088C82.1104 10.9412 81.2847 11.1664 80.6003 11.6465C79.916 12.1266 79.4148 12.8322 79.1812 13.6447H86.3619Z" fill="#6F42C1"/>
<path d="M99.6753 17.5687C100.53 15.5495 101.267 13.8163 101.998 12.0801C102.376 11.1822 102.735 10.2766 103.116 9.38057C103.819 7.73217 104.662 7.18028 105.776 7.61828C107.028 8.10898 107.337 9.22791 106.622 10.9575C105.879 12.758 105.077 14.5318 104.304 16.3195C102.385 20.7411 100.467 25.1635 98.5481 29.5867C98.3463 30.0831 98.1109 30.5647 97.8436 31.0279C97.743 31.2378 97.6019 31.4249 97.4286 31.5778C97.2554 31.7308 97.0536 31.8464 96.8353 31.9179C96.6171 31.9894 96.3869 32.0151 96.1587 31.9937C95.9304 31.9722 95.7088 31.904 95.5071 31.7931C95.0787 31.616 94.7357 31.2747 94.5517 30.8427C94.3677 30.4106 94.3574 29.9222 94.5231 29.4825C94.9827 28.2006 95.5671 26.9648 96.1028 25.712C96.246 25.3492 96.411 24.9957 96.5968 24.6536C97.5077 23.0906 97.4149 21.6282 96.6171 19.9689C95.1842 16.9901 93.9851 13.8944 92.6961 10.8448C92.3085 9.92822 91.9732 9.01164 92.7835 8.11867C93.5938 7.22571 94.6004 7.13484 95.406 8.02659C95.8054 8.5094 96.1249 9.05532 96.3519 9.64289C97.4381 12.177 98.4898 14.7305 99.6753 17.5687Z" fill="#6F42C1"/>
<path d="M60.9475 8.67477C62.4073 7.52493 64.2534 7.00835 66.0848 7.23718C69.4552 7.72546 71.3601 9.80036 71.5284 13.3631C71.6574 16.0953 71.5878 18.839 71.5563 21.5767C71.5765 21.834 71.5454 22.0927 71.4649 22.3375C71.3844 22.5822 71.2562 22.8079 71.088 23.0009C70.9198 23.1939 70.7151 23.3503 70.4861 23.4606C70.2571 23.571 70.0086 23.633 69.7555 23.6431C68.6633 23.6915 67.8435 22.91 67.7977 21.5773C67.7293 19.5745 67.7703 17.568 67.765 15.5628C67.765 15.2696 67.765 14.9764 67.762 14.6826C67.7293 12.1382 66.8542 11.0526 64.8191 11.0265C63.8258 11.0251 62.8698 11.4118 62.1478 12.1068C61.4259 12.8019 60.9929 13.7526 60.938 14.7631C60.8785 16.6193 60.9195 18.4792 60.9165 20.3366C60.9165 20.6789 60.9237 21.0217 60.9124 21.3664C60.8654 22.7544 60.1264 23.7115 59.0735 23.7558C58.0331 23.7988 57.1436 22.847 57.1294 21.467C57.0895 17.5553 57.1074 13.643 57.1222 9.73129C57.0902 9.28662 57.1965 8.84297 57.4261 8.4634C57.6557 8.08384 57.9968 7.78768 58.4011 7.61702C59.5158 7.12995 60.1841 7.94598 60.9475 8.67477Z" fill="#6F42C1"/>
<path d="M47.5525 9.26406C48.6531 8.61181 49.7914 8.02776 50.961 7.51509C51.2048 7.40548 51.4695 7.35271 51.7359 7.36064C52.0023 7.36858 52.2636 7.43701 52.5007 7.56095C52.7378 7.68489 52.9447 7.86121 53.1065 8.07704C53.2682 8.29287 53.3806 8.54276 53.4354 8.80849C53.7083 9.91773 53.0995 10.8216 51.8474 11.1639C48.6024 12.052 47.5317 13.3939 47.4152 16.83C47.3623 18.3906 47.4152 19.9542 47.392 21.5159C47.3694 22.9184 46.7261 23.7326 45.6637 23.778C44.6411 23.8216 43.7653 23.0226 43.6815 21.6898C43.5626 19.8415 43.6078 17.9829 43.6012 16.1285C43.5935 14.0778 43.5644 12.0259 43.6256 9.9771C43.6714 8.43168 44.3123 7.6938 45.4687 7.62656C46.4395 7.57264 46.8985 7.94522 47.5525 9.26406Z" fill="#6F42C1"/>
</g>
<defs>
<clipPath id="clip0">
<rect width="107" height="32" fill="white"/>
</clipPath>
</defs>
</svg>
