<svg width="60" height="60" viewBox="0 0 60 60" fill="none" xmlns="http://www.w3.org/2000/svg">
<path d="M16.3249 16.5001C16.3249 16.0801 16.0299 15.8701 15.4349 15.8701H13.8099V17.1301H15.4349C16.0299 17.1301 16.3249 16.9201 16.3249 16.5001ZM13.8249 12.9001V14.0901H15.0849C15.6699 14.0901 15.9649 13.8901 15.9649 13.4951C15.9649 13.1001 15.6699 12.9001 15.0849 12.9001H13.8249ZM18.6699 15.5951C18.9347 15.9438 19.0723 16.3725 19.0599 16.8101C19.0712 17.1336 18.9966 17.4544 18.8438 17.7398C18.691 18.0252 18.4654 18.2651 18.1899 18.4351C17.4306 18.867 16.5619 19.0685 15.6899 19.0151H11.1899V11.0151H15.4649C16.3004 10.9694 17.1305 11.173 17.8499 11.6001C18.1018 11.7609 18.3091 11.9827 18.4524 12.2449C18.5958 12.5071 18.6706 12.8013 18.6699 13.1001C18.6737 13.4533 18.5766 13.8002 18.3899 14.1001C18.1859 14.4129 17.8984 14.6623 17.5599 14.8201C17.9905 14.9653 18.3705 15.2308 18.6549 15.5851" fill="black"/>
<path d="M13 48.7599C12.4459 48.6443 11.9141 48.44 11.425 48.1549L12.31 46.1899C12.7189 46.4228 13.1557 46.6026 13.61 46.7249C14.0608 46.8526 14.5266 46.9198 14.995 46.9249C15.2696 46.9394 15.5443 46.9021 15.805 46.8149C15.8747 46.7931 15.9357 46.75 15.9796 46.6917C16.0236 46.6334 16.0482 46.5629 16.05 46.4899C16.05 46.3199 15.945 46.1949 15.73 46.1099C15.3877 45.9923 15.0366 45.9021 14.68 45.8399C14.1477 45.736 13.6232 45.5956 13.11 45.4199C12.6915 45.2714 12.3167 45.0205 12.02 44.6899C11.6945 44.3062 11.5281 43.8125 11.555 43.3099C11.5543 42.8176 11.7101 42.3378 12 41.9399C12.3243 41.5 12.7688 41.1631 13.28 40.9699C13.9421 40.718 14.6469 40.5974 15.355 40.6149C15.908 40.615 16.4594 40.6736 17 40.7899C17.4962 40.8887 17.9759 41.0571 18.425 41.2899L17.6 43.2449C16.9012 42.8743 16.1259 42.6706 15.335 42.6499C14.63 42.6499 14.275 42.8199 14.275 43.1499C14.275 43.3099 14.38 43.4299 14.59 43.5099C14.9277 43.6224 15.2738 43.7077 15.625 43.7649C16.1571 43.859 16.6818 43.991 17.195 44.1599C17.6184 44.308 17.9993 44.5568 18.305 44.8849C18.6349 45.2645 18.8035 45.7579 18.775 46.2599C18.7778 46.7487 18.6274 47.226 18.345 47.6249C18.017 48.0633 17.5715 48.3996 17.06 48.5949C16.407 48.8651 15.7068 49.0027 15 48.9999C14.3264 48.9961 13.6555 48.9155 13 48.7599Z" fill="black"/>
<path d="M48.495 46.7649V48.7949H41.35V40.7949H48.355V42.8299H44V43.7699H47.875V45.7099H44V46.7649H48.495Z" fill="black"/>
<path d="M60 60H0V0H60V60ZM3.175 56.825H56.825V3.175H3.175V56.825Z" fill="black"/>
<path d="M45.555 15.7249L44.865 13.7249L44.175 15.7249H45.555ZM46.215 17.6699H43.5L43 19.0649H40.605L43.71 11.0649H46.065L49.17 19.0649H46.67L46.215 17.6699Z" fill="black"/>
</svg>
