<svg width="141" height="24" viewBox="0 0 141 24" fill="none" xmlns="http://www.w3.org/2000/svg">
<path d="M0 6.42244L36.2638 0L14.2976 11.4319C9.8522 8.9761 5.01794 7.28233 0 6.42244H0Z" fill="#5BA644"/>
<path d="M22.6596 19.3954C20.7395 15.9751 17.8271 13.2014 14.2976 11.4314L36.2638 0L22.6596 19.3954Z" fill="#8BC43F"/>
<path d="M14.2976 15.7991L17.4044 13.3687C16.434 12.6258 15.3932 11.9772 14.2966 11.4319L14.2976 15.7991Z" fill="#5BA644"/>
<path d="M84.0975 4.91867C84.0975 9.26435 84.0975 13.3616 84.0975 17.4603C84.0975 17.9767 83.8596 18.2677 83.3222 18.2718C80.5523 18.2924 80.7513 18.4763 80.7717 16.0193C80.7911 13.7198 80.8087 11.4203 80.8092 9.12071C80.8187 8.365 80.7878 7.60933 80.7166 6.85684C80.5588 5.38526 80.0176 4.88711 78.541 4.84411C77.3889 4.81209 76.2349 4.83771 74.9491 4.83771C74.9491 5.3537 74.9491 5.77134 74.9491 6.18852C74.9416 9.76936 74.9339 13.3503 74.9259 16.9315C74.9227 18.1044 74.787 18.2315 73.621 18.2544C71.1492 18.3029 71.545 18.0412 71.5473 16.2192C71.5532 12.0471 71.5624 7.87465 71.5751 3.70189C71.5783 2.37531 71.6427 2.31219 73.0179 2.11549C75.9341 1.6983 78.835 1.56656 81.6947 2.51392C82.0504 2.57005 82.4149 2.52958 82.7491 2.39681C85.1535 1.70792 87.6918 1.60993 90.1433 2.11137C90.8738 2.2227 91.5506 2.55756 92.0786 3.06885C92.6065 3.58014 92.9589 4.24212 93.0863 4.96167C93.3088 5.92078 93.4329 6.89962 93.4566 7.88334C93.4839 10.9381 93.4376 13.9934 93.4061 17.0486C93.3946 18.1634 93.2552 18.2869 92.1351 18.2914C89.9132 18.3006 90.0715 18.4131 90.0766 16.2719C90.0831 13.6439 90.1058 11.0154 90.0882 8.38743C90.0757 7.69815 90.0037 7.01117 89.8729 6.33399C89.7401 5.60209 89.3212 4.97768 88.5306 4.93834C87.0192 4.86561 85.5024 4.91867 84.0975 4.91867Z" fill="#444444"/>
<path d="M99.8203 18.3963C99.8203 19.9539 99.8305 21.3934 99.8166 22.8335C99.8073 23.8398 99.6541 23.9944 98.6724 23.9954C96.2362 23.9954 96.4482 24.2003 96.4505 21.8509C96.4598 15.8127 96.4736 9.77373 96.4922 3.734C96.4954 2.56616 96.5847 2.47285 97.7521 2.2949C100.472 1.83535 103.245 1.77692 105.982 2.12153C108.132 2.42436 109.505 3.60912 109.903 5.7353C110.494 8.77269 110.467 11.8958 109.826 14.923C109.687 15.8134 109.245 16.6302 108.571 17.2377C107.898 17.8451 107.035 18.2067 106.125 18.2623C104.351 18.4452 102.551 18.3949 100.763 18.4416C100.504 18.4443 100.243 18.416 99.8203 18.3963ZM99.9083 15.3438C101.601 15.3438 103.214 15.3973 104.821 15.3237C105.262 15.3118 105.684 15.1443 106.011 14.8514C106.338 14.5586 106.548 14.1598 106.603 13.7272C107.033 11.4024 107.045 9.02069 106.638 6.69181C106.605 6.30761 106.442 5.94558 106.175 5.66425C105.908 5.38293 105.553 5.19876 105.168 5.14154C103.442 4.95857 101.701 4.91282 99.9087 4.80899L99.9083 15.3438Z" fill="#444444"/>
<path d="M65.3802 8.64565C65.4167 7.89876 65.411 7.15045 65.3631 6.40419C65.2608 5.54787 64.6179 5.02959 63.5171 4.90471C62.5293 4.79264 61.529 4.77754 60.5338 4.74186C59.8363 4.71716 59.1345 4.76702 58.4407 4.71304C57.9731 4.6769 57.1941 4.6243 57.1163 4.39283C56.9605 3.76351 56.9416 3.10868 57.0608 2.47159C57.0816 2.29776 57.4992 2.07591 57.7584 2.03885C60.3005 1.6729 62.8501 1.45974 65.3793 2.1125C67.6873 2.70717 68.7806 3.9601 68.8264 6.3246C68.8935 9.73984 68.8121 13.1578 68.8024 16.5744C68.8292 16.8571 68.7434 17.1391 68.5633 17.3603C68.3832 17.5815 68.1229 17.7246 67.8377 17.7592C67.0017 17.9691 66.1485 18.1051 65.2881 18.1654C63.1685 18.2526 61.0456 18.2193 58.9299 18.0657C56.9969 17.8781 56.0003 16.703 55.7916 14.7968C55.6965 13.9503 55.6936 13.0961 55.7828 12.2489C55.9939 10.3277 57.0562 9.16438 58.9818 8.87482C60.2999 8.72567 61.6256 8.65053 62.9524 8.64976C63.7393 8.62094 64.5304 8.64565 65.3802 8.64565ZM65.3316 15.2287V11.5659C63.6546 11.5659 62.0655 11.5504 60.4774 11.5742C60.1915 11.5618 59.9096 11.643 59.6752 11.8052C59.4409 11.9674 59.2672 12.2015 59.1813 12.4712C58.6318 13.9849 59.3049 15.1843 60.9069 15.2822C62.3507 15.37 63.8055 15.2547 65.3316 15.2277V15.2287Z" fill="#444444"/>
<path d="M123.18 15.5445C123.18 14.8126 123.18 14.1946 123.18 13.5775C123.192 10.1968 123.206 6.81567 123.22 3.43428C123.226 2.20514 123.29 2.14156 124.513 2.13744C126.708 2.12967 126.588 2.02629 126.581 4.15887C126.568 8.3609 126.556 12.5628 126.546 16.7645C126.542 17.9237 126.485 18.038 125.389 18.1926C122.435 18.6684 119.425 18.7076 116.46 18.3088C114.434 17.9978 113.412 16.9589 113.085 14.9627C112.913 13.8279 112.826 12.6821 112.826 11.5346C112.798 8.81011 112.83 6.0856 112.841 3.36109C112.846 2.22207 112.956 2.10817 114.084 2.10268C116.357 2.0917 116.218 1.96545 116.213 4.15841C116.206 6.84998 116.179 9.54201 116.213 12.2336C116.249 15.0898 116.733 15.5358 119.606 15.5436C120.728 15.5473 121.856 15.5445 123.18 15.5445Z" fill="#444444"/>
<path d="M132.96 15.5718C134.057 15.5718 135.154 15.5924 136.25 15.5631C136.817 15.548 137.407 15.4817 137.583 14.78C137.7 14.4329 137.698 14.0573 137.577 13.7116C137.456 13.3659 137.223 13.0694 136.913 12.8683C136.575 12.6612 136.217 12.4879 135.844 12.351C134.609 11.8684 133.359 11.4233 132.129 10.9288C131.502 10.679 130.933 10.307 130.455 9.83499C129.977 9.36298 129.6 8.80065 129.347 8.18157C129.094 7.56249 128.97 6.89936 128.982 6.23175C128.994 5.56415 129.142 4.90576 129.417 4.29591C129.629 3.80919 129.959 3.38136 130.377 3.04997C130.796 2.71858 131.29 2.49376 131.817 2.39525C134.45 1.78411 137.107 2.03387 139.745 2.36049C139.977 2.38885 140.202 2.75297 140.352 3.00593C140.441 3.15414 140.379 3.3911 140.381 3.58825C140.39 4.98115 140.338 5.03605 138.929 5.03513C137.366 5.03513 135.804 5.01089 134.241 5.0269C133.081 5.03925 132.668 5.29313 132.518 5.98752C132.387 6.40452 132.426 6.85549 132.626 7.24458C132.827 7.63366 133.173 7.9302 133.591 8.07115C134.979 8.69327 136.39 9.28566 137.823 9.80256C140.937 10.926 141.467 13.0961 140.664 16.2913C140.522 16.8262 140.215 17.3039 139.785 17.6579C139.355 18.012 138.824 18.2247 138.266 18.2666C136.621 18.4612 134.967 18.5647 133.311 18.5767C132.119 18.5941 130.925 18.428 129.731 18.3535C129.086 18.3132 128.751 18.0209 128.805 17.3508C128.823 17.0882 128.823 16.8247 128.805 16.5621C128.766 15.8847 129.114 15.6047 129.766 15.6075C130.83 15.6116 131.895 15.6075 132.96 15.6075L132.96 15.5718Z" fill="#444444"/>
<path d="M41.4319 10.1323C41.5578 8.67857 41.5911 7.39225 41.7934 6.13246C42.2623 3.2108 43.6556 1.91213 46.6491 1.77536C48.6316 1.68387 50.6266 1.86135 52.6161 1.90435C52.766 1.88352 52.9188 1.899 53.0613 1.94948C53.2037 1.99995 53.3317 2.0839 53.434 2.1941C53.5364 2.30429 53.6101 2.43743 53.6488 2.58203C53.6875 2.72663 53.69 2.87837 53.6562 3.02416C53.6451 3.22086 53.6599 3.41848 53.6562 3.61518C53.6271 4.57122 53.509 4.70205 52.5518 4.70983C51.3224 4.71989 50.0929 4.70205 48.864 4.69976C48.4983 4.69976 48.1317 4.69107 47.7679 4.71806C45.9163 4.85529 45.1604 5.49251 45.0479 7.32958C44.9386 9.13137 44.9397 10.9381 45.0512 12.7397C45.1558 14.4359 45.8608 15.0667 47.5869 15.1733C49.1764 15.2712 50.7734 15.2584 52.3671 15.2886C53.4822 15.3096 53.5775 15.3956 53.5914 16.4546C53.6113 17.9298 53.5683 18.0465 52.0607 18.0918C50.0088 18.1947 47.9527 18.1842 45.902 18.0602C43.5338 17.8681 42.2498 16.5991 41.8536 14.2698C41.6101 12.8513 41.5545 11.4017 41.4319 10.1323Z" fill="#444444"/>
</svg>
