<svg width="112" height="21" viewBox="0 0 112 21" fill="none" xmlns="http://www.w3.org/2000/svg">
<path d="M105.723 17.9117C105.723 16.2441 107.077 14.947 108.677 14.947C110.338 14.947 111.631 16.3058 111.631 17.9117C111.631 19.5176 110.277 20.8764 108.677 20.8764C107.077 20.8764 105.723 19.5794 105.723 17.9117Z" fill="#86BC25"/>
<path d="M16.9846 9.94412C16.9846 13.4029 16.1231 15.9971 14.2769 17.85C12.4308 19.7029 9.84615 20.6294 6.52308 20.6294H0V0.0617676H6.89231C10.1538 0.0617676 12.6154 0.864709 14.3385 2.59412C16.1231 4.26177 16.9846 6.73236 16.9846 9.94412ZM11.3231 10.1294C11.3231 8.21471 10.9538 6.85589 10.2154 5.92942C9.53846 5.06471 8.36923 4.57059 6.89231 4.57059H5.41538V16.0588H6.64615C8.30769 16.0588 9.47692 15.5647 10.2769 14.5765C10.9538 13.5882 11.3231 12.1059 11.3231 10.1294Z" fill="black"/>
<path d="M40 0H34.8923V20.6294H40V0Z" fill="black"/>
<path d="M56.8616 12.9088C56.8616 15.3794 56.2462 17.3559 54.8923 18.7765C53.5385 20.197 51.6923 20.8765 49.3539 20.8765C47.0769 20.8765 45.2923 20.197 43.9385 18.7147C42.5846 17.2323 41.9077 15.3176 41.9077 12.9088C41.9077 10.4382 42.5231 8.46175 43.8769 7.10293C45.2308 5.68234 47.0769 5.00293 49.4154 5.00293C50.8923 5.00293 52.1846 5.31175 53.2923 5.9294C54.4616 6.54705 55.2616 7.47352 55.8769 8.64705C56.6154 9.94411 56.8616 11.3029 56.8616 12.9088ZM47.2 12.9088C47.2 14.2676 47.3846 15.1941 47.6923 15.8735C48 16.5529 48.5539 16.8618 49.4154 16.8618C50.2769 16.8618 50.7692 16.5529 51.1385 15.8735C51.4462 15.1941 51.6308 14.1441 51.6308 12.9088C51.6308 11.55 51.4462 10.6235 51.1385 9.94411C50.8308 9.32646 50.2769 8.95587 49.4154 8.95587C48.6769 8.95587 48.0616 9.26469 47.6923 9.94411C47.3846 10.6235 47.2 11.55 47.2 12.9088Z" fill="black"/>
<path d="M64.0615 5.25H58.9539V20.5676H64.0615V5.25Z" fill="black"/>
<path d="M64.0615 0H58.9539V3.45882H64.0615V0Z" fill="black"/>
<path d="M74.4615 16.6765C75.1384 16.6765 76 16.4912 76.9231 16.1824V20.0736C76.2461 20.3824 75.5692 20.5677 74.9538 20.6912C74.3385 20.8147 73.6 20.8765 72.7384 20.8765C71.0154 20.8765 69.7846 20.4441 68.9846 19.5177C68.2461 18.653 67.8154 17.2941 67.8154 15.503V9.20297H66.0308V5.25003H67.8154V1.42061L72.9846 0.555908V5.37356H76.3077V9.26473H72.9846V15.1941C73.1077 16.2441 73.5385 16.6765 74.4615 16.6765Z" fill="black"/>
<path d="M86.4 16.6765C87.0769 16.6765 87.9385 16.4912 88.8616 16.1824V20.0736C88.1846 20.3824 87.5077 20.5677 86.8923 20.6912C86.2769 20.8147 85.5385 20.8765 84.6769 20.8765C82.9539 20.8765 81.7231 20.4441 80.9231 19.5177C80.1846 18.653 79.7539 17.2941 79.7539 15.503V9.20297H77.9692V5.25003H79.7539V1.35885L84.9231 0.555908V5.37356H88.2462V9.26473H84.9231V15.1941C84.9846 16.2441 85.4769 16.6765 86.4 16.6765Z" fill="black"/>
<path d="M102.646 6.79411C101.415 5.55881 99.6923 5.00293 97.4769 5.00293C95.1384 5.00293 93.2923 5.68234 92 7.10293C90.7077 8.52352 90.0923 10.5 90.0923 13.0941C90.0923 15.5647 90.7692 17.5412 92.1231 18.9C93.5384 20.2588 95.4461 20.9382 97.9077 20.9382C99.1384 20.9382 100.123 20.8765 100.985 20.6912C101.785 20.5059 102.708 20.2588 103.446 19.8265L102.708 16.3676C102.154 16.6147 101.538 16.8 101.046 16.9235C100.308 17.1088 99.4461 17.1706 98.5846 17.1706C97.6 17.1706 96.8 16.9235 96.2461 16.4912C95.6923 15.997 95.3846 15.3176 95.3846 14.4529H104.554V12.0441C104.492 9.75881 103.815 8.0294 102.646 6.79411ZM95.3846 11.0559C95.4461 10.2529 95.6923 9.57352 96.0615 9.20293C96.4308 8.83234 96.9231 8.64705 97.6 8.64705C98.2154 8.64705 98.8307 8.83234 99.2 9.26469C99.5692 9.69705 99.7538 10.2529 99.8154 11.0559H95.3846Z" fill="black"/>
<path d="M31.0769 6.79411C29.7846 5.55881 28.1231 5.00293 25.9077 5.00293C23.5692 5.00293 21.7231 5.68234 20.4308 7.10293C19.1385 8.52352 18.5231 10.5 18.5231 13.0941C18.5231 15.5647 19.2 17.5412 20.5538 18.9C21.9692 20.2588 23.8769 20.9382 26.3385 20.9382C27.5692 20.9382 28.5538 20.8765 29.4154 20.6912C30.2154 20.5059 31.1385 20.2588 31.8769 19.8265L31.1385 16.3059C30.5846 16.5529 29.9692 16.7382 29.4769 16.8618C28.7385 17.047 27.8769 17.1088 27.0154 17.1088C26.0308 17.1088 25.2308 16.8618 24.6769 16.4294C24.1231 15.9353 23.8154 15.2559 23.8154 14.3912H32.9846V12.0441C32.9231 9.75881 32.2461 8.0294 31.0769 6.79411ZM23.7538 11.0559C23.8154 10.2529 24.0615 9.57352 24.4308 9.20293C24.8 8.83234 25.2923 8.64705 25.9692 8.64705C26.6461 8.64705 27.2 8.83234 27.5692 9.26469C27.9385 9.69705 28.1231 10.2529 28.1846 11.0559H23.7538Z" fill="black"/>
</svg>
