<svg width="64" height="75" viewBox="0 0 64 75" fill="none" xmlns="http://www.w3.org/2000/svg">
<path fill-rule="evenodd" clip-rule="evenodd" d="M8.25277 46.0504H21.1793V51.9873H0.49966V26.1777H15.1629L18.5926 32.1137H8.25277V36.373H17.6005V41.7916H8.25277V46.0504ZM34.9427 26.1777L30.5522 34.6004L26.17 26.1777H17.6L26.6299 41.7916V51.9873H34.3607V41.7916L43.4032 26.1777H34.9427ZM3.15393 64.5553H0.49966V58.2736H3.18096C4.42235 58.2736 5.13438 58.8701 5.13438 59.9108C5.13438 60.4305 4.84919 60.919 4.41815 61.1511C4.74481 61.294 5.34873 61.6759 5.34873 62.5473C5.34873 63.8044 4.52813 64.5553 3.15393 64.5553ZM4.11247 62.5934C4.11247 62.003 3.79187 61.7038 3.15766 61.7038H1.66789V63.4917H3.15766C3.76437 63.4917 4.11247 63.1647 4.11247 62.5934ZM3.91582 60.015C3.91582 59.5605 3.64461 59.339 3.08589 59.339H1.66743V60.6803H3.14834C3.78301 60.6803 3.91582 60.3183 3.91582 60.015ZM7.8865 64.653C8.33665 64.653 8.70571 64.4967 8.9853 64.1882V64.5553H10.1205V59.9666H8.9853V62.5013C8.9853 63.2401 8.69779 63.6146 8.13115 63.6146C7.55425 63.6146 7.28584 63.2587 7.28584 62.4938V59.9666H6.15023V62.5599C6.15023 63.3415 6.37624 64.653 7.8865 64.653ZM23.4705 62.0193C23.4705 61.2912 23.772 60.9059 24.3424 60.9059C24.9072 60.9059 25.17 61.2619 25.17 62.0267V64.5553H26.3047V61.9606C26.3047 60.591 25.7227 59.8675 24.622 59.8675C24.1537 59.8675 23.7487 60.0397 23.4705 60.3532V59.9666H22.3349V64.5553H23.4705V62.0193ZM11.141 64.5553H12.2766V59.9666H11.141V64.5553ZM13.2878 64.5553H14.4234V58.0582L13.2878 58.6253V64.5553ZM18.0343 58.6253L19.1681 58.0587V64.5553H18.0343V64.2045C17.73 64.5111 17.3731 64.653 16.9914 64.653C15.8787 64.653 15.2137 63.7411 15.2137 62.2142C15.2137 60.7673 15.9038 59.8685 17.0152 59.8685C17.401 59.8685 17.7575 60.0034 18.0343 60.2895V58.6253ZM18.0343 63.1568V61.3544C17.9015 61.16 17.6466 60.9069 17.2207 60.9069C16.833 60.9069 16.3703 61.1288 16.3703 62.1877C16.3703 63.3624 16.8409 63.609 17.2356 63.609C17.6569 63.609 17.8656 63.3754 18.0343 63.1568ZM44.5984 62.2142C44.5984 63.7639 43.9502 64.653 42.8184 64.653C42.4148 64.653 42.056 64.5013 41.775 64.2119V64.5553H40.6408V58.7412L41.775 58.1764V60.2942C42.0639 60.0271 42.4404 59.8685 42.7946 59.8685C43.9078 59.8685 44.5984 60.7673 44.5984 62.2142ZM41.775 61.373V63.1772C41.8976 63.3257 42.1804 63.609 42.6063 63.609C43.1669 63.609 43.4395 63.1437 43.4395 62.1877C43.4395 61.2432 42.9973 60.9069 42.583 60.9069C42.2494 60.9069 41.9623 61.0837 41.775 61.373ZM29.8905 59.9652H31.0242V64.1273C31.0242 65.6477 30.2949 66.3986 28.7945 66.4223L28.7721 66.4227L28.3699 65.5323L28.4217 65.5309C29.8891 65.5053 29.8905 64.8172 29.8905 64.3148V64.2077C29.5983 64.5018 29.2469 64.6511 28.8471 64.6511C27.732 64.6511 27.0661 63.7388 27.0661 62.2123C27.0661 60.7654 27.7581 59.8666 28.8709 59.8666C29.2567 59.8666 29.6169 60.0155 29.8905 60.2876V59.9652ZM29.0764 60.9045C28.6882 60.9045 28.2259 61.1269 28.2259 62.1854C28.2259 63.3601 28.6933 63.6071 29.0852 63.6071C29.492 63.6071 29.7097 63.3899 29.8905 63.1544V61.3521C29.7577 61.1581 29.5028 60.9045 29.0764 60.9045ZM34.1081 60.3118C34.6407 60.0094 35.1976 59.8685 35.8257 59.8685C36.9879 59.8685 37.6818 60.464 37.6818 61.4619V64.5553H36.5471V64.1794C36.2363 64.5278 35.7656 64.653 35.4422 64.653C34.6557 64.653 33.7377 64.2291 33.7377 63.0326C33.7377 61.9225 34.7251 61.5289 35.5704 61.5289C35.9082 61.5289 36.2843 61.6131 36.5471 61.7462V61.4349C36.5471 61.0032 36.2624 60.7757 35.7265 60.7757C35.2517 60.7757 34.9124 60.8901 34.5513 61.0925L34.1081 60.3118ZM35.6561 63.7188C36.0732 63.7188 36.4026 63.4759 36.5471 63.2354V62.6073C36.2838 62.4464 35.9926 62.3812 35.6561 62.3812C35.1664 62.3812 34.8737 62.6245 34.8737 63.0326C34.8737 63.4564 35.1734 63.7188 35.6561 63.7188ZM48.9606 63.9328C48.5295 64.4166 47.9442 64.653 47.3385 64.653C46.016 64.653 45.1618 63.716 45.1618 62.2649C45.1618 60.8766 46.0281 59.8685 47.2215 59.8685C48.3925 59.8685 49.1484 60.8092 49.1484 62.2649C49.1484 62.3798 49.1423 62.5138 49.1353 62.6087H46.3184C46.3739 63.5364 47.1115 63.609 47.3385 63.609C47.7564 63.609 48.0393 63.4089 48.2443 63.2224L48.9606 63.9328ZM48.0547 61.7792C48.0281 61.3135 47.7881 60.8297 47.1884 60.8297C46.7094 60.8297 46.3617 61.2181 46.3342 61.7792H48.0547ZM59.9155 63.9328C59.4737 64.4166 58.8992 64.653 58.2938 64.653C56.9709 64.653 56.1158 63.716 56.1158 62.2649C56.1158 60.8766 56.9821 59.8685 58.1764 59.8685C59.3465 59.8685 60.1037 60.8092 60.1037 62.2649C60.1037 62.3798 60.0967 62.5138 60.0902 62.6087H57.2729C57.3283 63.5364 58.0655 63.609 58.2938 63.609C58.7114 63.609 58.9937 63.4089 59.1988 63.2224L59.9155 63.9328ZM59.0087 61.7792C58.983 61.3135 58.7416 60.8297 58.1424 60.8297C57.6647 60.8297 57.3171 61.2181 57.2887 61.7792H59.0087ZM54.5501 61.0288H55.5836V59.9666H54.5505V58.2229L53.4154 58.7891V59.9666H52.709V61.0288H53.4154V63.2461C53.4154 63.8951 53.7365 64.653 54.6405 64.653C54.9998 64.653 55.3301 64.579 55.5948 64.4413L55.7286 63.3717C55.5193 63.4838 55.2798 63.5797 55.0417 63.5797C54.7048 63.5797 54.5501 63.3703 54.5501 62.9618V61.0288ZM52.483 63.3717C52.2742 63.4838 52.0342 63.5797 51.7956 63.5797C51.4587 63.5797 51.3049 63.3703 51.3049 62.9618V61.0288H52.2737V59.9666H51.3049V58.2229L50.1698 58.7891V59.9666H49.4601V61.0288H50.1698V63.2461C50.1698 63.8951 50.4904 64.653 51.3953 64.653C51.7551 64.653 52.085 64.579 52.3492 64.4413L52.483 63.3717ZM63.8405 60.1453C63.6229 59.9764 63.2874 59.8685 62.9845 59.8685C62.5828 59.8685 62.2417 60.0197 61.9691 60.3644V59.9666H60.8339V64.5553H61.9691V62.0686C61.9691 61.3409 62.23 61.0018 62.7892 61.0018C63.0567 61.0018 63.313 61.0958 63.5413 61.2507L63.8405 60.1453ZM11.141 59.3102H12.2752V58.1783H11.141V59.3102ZM20.1811 64.5553H21.3163V59.9666H20.1811V64.5553ZM20.1807 59.3102H21.3144V58.1783H20.1807V59.3102ZM52.4988 66.6405L53.6326 66.0738V72.5704H52.4988V72.2206C52.194 72.5262 51.8371 72.6681 51.4555 72.6681C50.3422 72.6681 49.6772 71.7567 49.6772 70.2298C49.6772 68.7829 50.3678 67.8836 51.4788 67.8836C51.8651 67.8836 52.222 68.0185 52.4988 68.3056V66.6405ZM52.4988 71.1719V69.3696C52.366 69.1756 52.1111 68.9225 51.6852 68.9225C51.2966 68.9225 50.8343 69.1439 50.8343 70.2033C50.8343 71.3775 51.3045 71.6241 51.6996 71.6241C52.1214 71.6241 52.3301 71.391 52.4988 71.1719ZM14.2328 68.1613C14.0152 67.992 13.6792 67.8841 13.3763 67.8841C12.9746 67.8841 12.634 68.0353 12.3614 68.38V67.9822H11.2262V72.5709H12.3614V70.0846C12.3614 69.3565 12.6219 69.0169 13.1815 69.0169C13.4499 69.0169 13.7053 69.1118 13.9336 69.2668L14.2328 68.1613ZM4.58498 69.6701C4.48805 70.1028 4.39392 70.5308 4.34127 70.8253C4.27323 70.4703 4.14974 69.973 4.0682 69.6706L3.58916 67.9813H2.62317L2.14413 69.671C2.05979 69.9855 1.93537 70.4796 1.87153 70.8202C1.81468 70.4754 1.70517 69.9637 1.64087 69.6957L1.21868 67.9813H0.048584L1.33937 72.5458L1.34636 72.5699H2.3282L2.8324 70.7025C2.91627 70.4196 3.04442 69.8534 3.08776 69.6673C3.14927 69.9274 3.25225 70.3298 3.33753 70.6653L3.84825 72.5699H4.82356L6.12181 67.9813H4.99971L4.58498 69.6701ZM10.5263 70.2749C10.5263 71.6637 9.64747 72.6718 8.4373 72.6718C7.22713 72.6718 6.34874 71.6637 6.34874 70.2749C6.34874 68.8862 7.22713 67.878 8.4373 67.878C9.64747 67.878 10.5263 68.8862 10.5263 70.2749ZM9.36835 70.2749C9.36835 69.4687 9.00301 68.9485 8.4373 68.9485C7.87159 68.9485 7.50579 69.4687 7.50579 70.2749C7.50579 71.0807 7.87159 71.6018 8.4373 71.6018C9.00301 71.6018 9.36835 71.0807 9.36835 70.2749ZM47.208 68.1613C46.9904 67.992 46.6548 67.8841 46.352 67.8841C45.9503 67.8841 45.6096 68.0353 45.337 68.38V67.9822H44.2014V72.5709H45.337V70.0846C45.337 69.3565 45.5975 69.0169 46.1567 69.0169C46.4246 69.0169 46.6805 69.1118 46.9088 69.2668L47.208 68.1613ZM37.5606 69.6701C37.4637 70.1028 37.3696 70.5308 37.3169 70.8253C37.2484 70.4703 37.1254 69.973 37.0443 69.6706L36.5648 67.9813H35.5988L35.1198 69.671C35.035 69.9855 34.911 70.4796 34.8472 70.8202C34.7899 70.4754 34.6808 69.9637 34.6165 69.6957L34.1943 67.9813H33.0242L34.315 72.5458L34.3225 72.5699H35.3038L35.808 70.7025C35.8915 70.4196 36.0196 69.8534 36.0629 69.6673C36.1249 69.9274 36.2274 70.3298 36.3136 70.6653L36.8239 72.5699H37.7997L39.0975 67.9813H37.9749L37.5606 69.6701ZM43.4931 70.2773C43.4931 71.666 42.6143 72.6737 41.4036 72.6737C40.1939 72.6737 39.3151 71.666 39.3151 70.2773C39.3151 68.8885 40.1939 67.8803 41.4036 67.8803C42.6143 67.8803 43.4931 68.8885 43.4931 70.2773ZM42.3351 70.2773C42.3351 69.471 41.9693 68.9509 41.4036 68.9509C40.8379 68.9509 40.473 69.471 40.473 70.2773C40.473 71.083 40.8379 71.6036 41.4036 71.6036C41.9693 71.6036 42.3351 71.083 42.3351 70.2773ZM18.5409 67.9813H17.2286L16.3228 69.1583C16.2016 69.3137 16.0338 69.5315 15.8926 69.7338V66.0799L14.7626 66.6465V72.5699H15.8926V71.1952L16.4928 70.4401L17.4593 72.5699H18.7142L17.3148 69.4929L18.5409 67.9813ZM22.7054 70.0349C22.7054 69.3068 23.0069 68.922 23.5773 68.922C24.142 68.922 24.4048 69.2775 24.4048 70.0428V72.5709H25.54V69.9767C25.54 68.607 24.958 67.8831 23.8568 67.8831C23.389 67.8831 22.984 68.0553 22.7054 68.3693V67.9822H21.5698V72.5709H22.7054V70.0349ZM29.1253 67.9808H30.2595V72.1429C30.2595 73.6637 29.5298 74.4142 28.0293 74.4379L28.0074 74.4383L27.6053 73.5483L27.6565 73.5469C29.1244 73.5209 29.1253 72.8328 29.1253 72.3308V72.2238C28.8331 72.5183 28.4818 72.6663 28.0824 72.6663C26.9673 72.6663 26.3014 71.7549 26.3014 70.2279C26.3014 68.781 26.9929 67.8822 28.1057 67.8822C28.492 67.8822 28.8513 68.0311 29.1253 68.3037V67.9808ZM28.3117 68.9211C27.9235 68.9211 27.4608 69.1421 27.4608 70.2014C27.4608 71.3757 27.9282 71.6227 28.3205 71.6227C28.7269 71.6227 28.945 71.4055 29.1253 71.17V69.3677C28.9925 69.1737 28.7376 68.9211 28.3117 68.9211ZM19.416 72.5709H20.5511V67.9822H19.416V72.5709ZM19.416 67.3253H20.5497V66.1938H19.416V67.3253ZM47.7462 72.5699H48.8813V66.0799L47.7462 66.6465V72.5699Z" fill="#161D23"/>
<path fill-rule="evenodd" clip-rule="evenodd" d="M51.1058 0L0 18.6226L51.1058 9.60904V0Z" fill="#FFE600"/>
</svg>
