<svg width="140" height="52" viewBox="0 0 140 52" fill="none" xmlns="http://www.w3.org/2000/svg">
<path fill-rule="evenodd" clip-rule="evenodd" d="M75.7264 22.2762C73.9964 22.0937 72.4996 22.6116 71.2343 24.1149V14.8948L66.6527 15.4429V36.7837H71.2343V35.5169C71.8522 35.9527 72.4532 36.4774 73.1564 36.7259C75.8259 37.6713 79.3459 36.9007 80.5774 33.373C81.368 31.1099 81.3475 28.7897 80.7522 26.5012C80.0922 23.9589 78.3796 22.5554 75.7264 22.2762ZM76.4111 31.5187C76.2096 32.9258 75.0759 33.6631 73.7301 33.5597C73.3938 33.5337 73.0896 33.4655 72.8164 33.36C71.7317 32.7448 71.4038 31.7147 71.3085 31.0678C71.3074 31.0683 71.3064 31.0683 71.3064 31.0689C71.2322 30.0679 71.1522 27.9749 71.6464 26.9858C72.0659 26.2277 72.798 25.8148 73.769 25.7831C75.1485 25.7383 76.1922 26.4143 76.3974 27.7975C76.5796 29.0164 76.588 30.3008 76.4111 31.5187Z" fill="#3B5998"/>
<path fill-rule="evenodd" clip-rule="evenodd" d="M91.9632 22.5398C90.3711 22.1191 88.7632 22.1243 87.1748 22.5424C84.7959 23.168 83.2016 24.6552 82.688 27.0206C82.4074 28.3113 82.3516 29.6836 82.4259 31.007C82.5953 34.0344 84.4901 36.1908 87.4311 36.8606C87.4722 36.8705 87.5153 36.8778 87.5574 36.8871H87.5564C87.5564 36.8871 87.5648 36.8887 87.578 36.8913C87.6911 36.9136 87.8043 36.9344 87.918 36.9516C87.9559 36.9547 87.9948 36.9578 88.0322 36.9615H88.0353C88.178 36.9875 88.349 37.0067 88.529 37.0208C89.1048 37.0811 89.8374 37.1242 90.449 37.053C90.4532 37.053 90.4553 37.052 90.4585 37.0514C90.4895 37.0509 90.5211 37.0509 90.5522 37.0488C93.589 36.8928 95.8932 35.0011 96.5659 32.099C96.9348 30.5072 96.9348 28.9077 96.578 27.315C96.0195 24.8148 94.4848 23.2064 91.9632 22.5398ZM92.1569 31.2893C92.1416 31.3834 92.1259 31.4765 92.1043 31.5691C91.8001 32.9044 90.8185 33.6272 89.5095 33.5669C88.1022 33.5035 87.1369 32.6907 87.0011 31.3013C86.9032 30.2862 86.8953 29.2499 86.9806 28.2343C87.1143 26.6312 88.129 25.7544 89.6511 25.7841C90.9022 25.808 91.7932 26.5084 92.1111 27.6966C92.3995 28.8921 92.1853 31.0174 92.1569 31.2893Z" fill="#3B5998"/>
<path fill-rule="evenodd" clip-rule="evenodd" d="M23.1864 22.4649H19.9164V20.3163C20.1553 18.2852 23.5511 18.671 23.5511 18.671L23.5522 18.5322L23.5511 18.5166V15.1802H23.5506V15.1797H23.548C23.4311 15.1522 16.7932 13.5958 15.4748 18.5873C15.4748 18.5883 15.4748 18.5899 15.4732 18.5909C15.4706 18.6018 15.4674 18.6128 15.4648 18.6237C15.2574 19.2477 15.2716 22.1056 15.2743 22.4649H12.4401V26.2864H15.4501V36.6812H19.8332V26.2864H23.1859L23.5632 22.4649H23.1864Z" fill="#3B5998"/>
<path fill-rule="evenodd" clip-rule="evenodd" d="M33.6396 24.2933C33.5859 24.2346 33.5328 24.1779 33.487 24.1306V24.13C33.4796 24.1228 33.4738 24.1165 33.4664 24.1092C33.4028 24.0437 33.358 24 33.358 24C32.3259 22.9632 31.9364 22.7052 31.128 22.4697C28.0191 21.5649 24.9922 23.1732 24.0338 26.2636C23.4449 28.1626 23.4364 30.1173 23.7817 32.0403C24.5275 36.205 27.6628 37.5996 31.0043 36.9122C32.0296 36.701 32.7917 36.0703 33.4985 35.192C33.4985 35.192 33.5622 35.115 33.6401 34.9653V36.7978H37.9159V22.4811H33.6401V24.2933H33.6396ZM33.2633 31.4979C33.1201 32.8218 32.0359 33.6169 30.7543 33.567C29.4412 33.5166 28.5722 32.8218 28.2885 31.577C27.9485 29.8058 28.3464 27.7014 28.3801 27.5308C28.7233 26.3421 29.5985 25.754 30.8828 25.7836C32.1438 25.8117 33.1159 26.5491 33.258 27.8397C33.3912 29.0472 33.3943 30.29 33.2633 31.4979Z" fill="#3B5998"/>
<path fill-rule="evenodd" clip-rule="evenodd" d="M50.9748 35.7716C50.7764 35.0546 50.5506 34.3474 50.3322 33.6641L50.1259 32.9044C50.1259 32.9044 44.7669 35.4461 43.9311 30.6164C43.8538 29.8192 43.8775 28.9966 43.9885 28.2098C44.1969 26.7252 45.1138 25.9301 46.5722 25.7939C47.0648 25.7476 47.5775 25.771 48.0654 25.8526C48.7296 25.9634 49.378 26.161 50.1048 26.3383C50.3575 25.5744 50.6159 24.8189 50.8564 24.0581C50.8943 23.939 50.9259 23.8361 50.9506 23.744H50.9511L51.0717 23.287C51.0417 23.2261 50.9685 23.1632 50.8706 23.1018V23.1024C50.7475 23.0004 50.5375 22.9157 50.2096 22.7971C50.0785 22.7498 49.9469 22.7077 49.8154 22.6671C49.6975 22.6302 49.6206 22.6084 49.6206 22.6084H49.6211C48.2133 22.2106 46.768 22.1799 45.2996 22.3328C42.2048 22.6557 40.1043 24.4601 39.5217 27.4386C39.2159 29.0059 39.2301 30.5924 39.5811 32.1644C40.1069 34.5184 41.5511 36.0394 43.899 36.7196C45.4311 37.1632 47.0011 37.1855 48.5632 36.9448C49.2201 36.8434 50.1622 36.5069 50.8385 36.2672L51.0959 36.1778L50.9743 35.7706L50.9748 35.7716Z" fill="#3B5998"/>
<path fill-rule="evenodd" clip-rule="evenodd" d="M65.0843 30.1709C65.0637 29.1798 65.0774 28.184 64.9353 27.21C64.5443 24.5393 62.8985 22.8493 60.2369 22.4078C59.2211 22.2398 58.1469 22.2622 57.1148 22.3594C54.29 22.6257 52.1458 24.364 51.7064 26.9802C51.4395 28.5672 51.4053 30.2515 51.6211 31.8453C51.9469 34.243 53.1285 35.7702 55.1727 36.5034H55.1737C55.1827 36.504 55.1916 36.5055 55.2006 36.5066C55.1995 36.5076 55.2 36.5076 55.1995 36.5081C56.1327 36.7837 60.6995 37.9636 64.7253 35.9653L64.5637 35.3797C64.5622 35.3808 64.5595 35.3808 64.5579 35.3808C64.3716 34.5997 64.1474 33.827 63.9364 33.0527L63.9137 32.9768C63.9137 32.9768 63.8301 33.0064 63.6816 33.0532C63.6785 33.0538 63.6743 33.0538 63.6711 33.0543C63.4953 33.0995 63.3216 33.1526 63.149 33.2098C63.1169 33.2202 63.0853 33.23 63.0532 33.2394C62.4437 33.4089 61.5727 33.618 60.6527 33.735C59.8806 33.8119 59.1006 33.815 58.3132 33.7485C57.0348 33.5394 56.0564 32.8629 56.1032 31.2634H56.8337C59.3401 31.2634 61.8458 31.2634 64.3527 31.2629C64.4122 31.2629 64.4727 31.2634 64.5322 31.2624L64.5316 31.2634C64.5316 31.2634 65.0701 31.2566 65.0927 31.2514C65.0927 31.2514 65.0922 31.111 65.0927 31.0939L65.0843 30.1709ZM60.9632 28.2188H56.0127C56.0385 27.2459 56.1616 26.3416 57.0369 25.7909C57.9664 25.2075 58.9932 25.1856 59.949 25.7088C60.9153 26.236 60.9911 27.1887 60.9632 28.2188Z" fill="#3B5998"/>
<path fill-rule="evenodd" clip-rule="evenodd" d="M127.558 22.6302H122.7L118.479 29.15V15.5458V15.4563V14.9077L113.895 15.4563V36.7976H118.479V30.2664L122.7 36.807H127.558L122.979 29.7069L127.558 22.6302Z" fill="#3B5998"/>
<path fill-rule="evenodd" clip-rule="evenodd" d="M107.59 22.5378C105.997 22.1166 104.389 22.1218 102.8 22.5399C100.422 23.166 98.828 24.6527 98.3143 27.0176C98.0338 28.3088 97.978 29.6805 98.0522 31.0045C98.2206 34.0319 100.116 36.1889 103.056 36.8581C103.099 36.868 103.142 36.8753 103.184 36.8846H103.183C103.183 36.8846 103.19 36.8862 103.203 36.8888C103.316 36.9111 103.431 36.9319 103.544 36.9486C103.582 36.9522 103.621 36.9559 103.659 36.9579C103.66 36.959 103.661 36.959 103.662 36.959C103.805 36.985 103.975 37.0047 104.154 37.0188C104.731 37.0791 105.465 37.1223 106.075 37.051C106.079 37.05 106.081 37.05 106.085 37.0489C106.117 37.0484 106.147 37.0484 106.177 37.0469C109.215 36.8903 111.52 34.9981 112.192 32.097C112.561 30.5053 112.561 28.9052 112.205 27.3125C111.645 24.8123 110.111 23.2039 107.59 22.5378ZM107.783 31.2868C107.767 31.3815 107.752 31.474 107.73 31.5671C107.425 32.9025 106.444 33.6242 105.135 33.5649C103.728 33.4999 102.763 32.6877 102.627 31.2988C102.529 30.2843 102.52 29.2479 102.605 28.2323C102.741 26.6287 103.755 25.7519 105.278 25.7816C106.527 25.8055 107.419 26.5059 107.737 27.6941C108.024 28.8891 107.812 31.0154 107.783 31.2868Z" fill="#3B5998"/>
</svg>
