<svg width="197" height="27" viewBox="0 0 197 27" fill="none" xmlns="http://www.w3.org/2000/svg">
<path d="M4.4782 19.0203C3.11723 18.2293 1.98887 17.0841 1.2096 15.7027C0.401018 14.2853 -0.0168283 12.6731 -0.000107575 11.0353C-0.017177 9.39666 0.400677 7.78353 1.2096 6.36526C1.99473 4.98101 3.12781 3.83311 4.49309 3.03881C5.85837 2.24451 7.40692 1.83229 8.98054 1.84425C10.2121 1.83609 11.4336 2.06987 12.5776 2.5327C13.6392 2.94901 14.589 3.61395 15.3495 4.47337L13.8861 5.96411C13.324 5.26661 12.6 4.72176 11.7791 4.37851C10.9044 4.00976 9.96501 3.82533 9.01792 3.83642C7.81532 3.82742 6.63104 4.13564 5.58108 4.73086C4.52482 5.32735 3.64657 6.2019 3.03884 7.26241C2.38651 8.40777 2.05587 9.71267 2.08282 11.0353C2.05595 12.3572 2.3866 13.6612 3.03884 14.8056C3.64616 15.8729 4.52881 16.7519 5.59177 17.348C6.63437 17.9401 7.80987 18.2491 9.00457 18.2451C10.0047 18.2808 11.0005 18.0958 11.9233 17.703C12.6824 17.3506 13.3684 16.8548 13.9449 16.2421C14.3791 15.7488 14.7212 15.1794 14.9543 14.5616C15.2207 13.8729 15.3837 13.1474 15.4376 12.4095H9.0286V10.4689H17.3577C17.4349 10.89 17.476 11.3171 17.4805 11.7455C17.4817 12.821 17.3094 13.8895 16.9705 14.9086C16.6392 15.9186 16.0848 16.8383 15.3495 17.5973C13.7472 19.3501 11.6243 20.2264 8.98054 20.2264C7.40067 20.2389 5.84624 19.8225 4.4782 19.0203Z" fill="#757575"/>
<path d="M19.6329 7.30027H21.5957V9.31413H21.6918C21.9572 8.5964 22.4517 7.98952 23.0965 7.59029C23.7402 7.14839 24.4984 6.90978 25.2756 6.90455C25.773 6.89287 26.2675 6.98513 26.7283 7.17559V9.41171C26.1851 9.14465 25.588 9.01007 24.9845 9.01869C24.396 9.01628 23.821 9.19695 23.3368 9.53639C22.828 9.89013 22.4162 10.3696 22.1405 10.9296C21.839 11.5148 21.6849 12.1665 21.6918 12.8269V19.8306H19.6329V7.30027Z" fill="#757575"/>
<path d="M30.4081 19.3402C29.4516 18.762 28.6686 17.9298 28.1436 16.9333C27.602 15.8964 27.3265 14.7377 27.3425 13.5642C27.3268 12.3916 27.6023 11.2339 28.1436 10.1979C28.6686 9.20139 29.4516 8.36921 30.4081 7.791C31.403 7.21207 32.5299 6.90747 33.6767 6.90747C34.8235 6.90747 35.9504 7.21207 36.9453 7.791C37.9011 8.36927 38.6832 9.20149 39.2072 10.1979C39.7496 11.2335 40.0252 12.3915 40.0083 13.5642C40.0255 14.7379 39.7499 15.8968 39.2072 16.9333C38.6832 17.9297 37.9011 18.7619 36.9453 19.3402C35.9504 19.9191 34.8235 20.2237 33.6767 20.2237C32.5299 20.2237 31.403 19.9191 30.4081 19.3402ZM35.7837 17.7546C36.4481 17.3587 36.9923 16.7848 37.3566 16.0958C37.7712 15.3156 37.9791 14.4396 37.9601 13.5534C37.9802 12.6727 37.776 11.8017 37.3672 11.0245C36.9985 10.3381 36.4506 9.76793 35.7837 9.3766C35.1416 8.99494 34.4101 8.79553 33.666 8.79928C32.916 8.79558 32.1786 8.99486 31.5297 9.3766C30.8597 9.76959 30.3105 10.3439 29.9434 11.0354C29.5448 11.8115 29.349 12.6785 29.3746 13.5534C29.3542 14.435 29.5584 15.307 29.9675 16.0849C30.3345 16.7764 30.8837 17.3507 31.5537 17.7437C32.2026 18.1255 32.94 18.3248 33.6901 18.321C34.425 18.3237 35.1475 18.1282 35.7837 17.7546Z" fill="#757575"/>
<path d="M40.8174 7.30029H42.9244L45.8779 17.2015H45.9019L48.9996 7.30029H51.136L54.2604 17.1771H54.2844L57.2219 7.30029H59.2834L55.2778 19.8307H53.1975L49.993 9.83184L46.8446 19.8307H44.7884L40.8174 7.30029Z" fill="#757575"/>
<path d="M65.2438 7.30029H67.3507L70.3042 17.2015H70.3283L73.4366 7.30029H75.573L78.6974 17.1771H78.7214L81.6589 7.30029H83.7418L79.7362 19.8307H77.6532L74.4487 9.83184L71.2736 19.8307H69.2147L65.2438 7.30029Z" fill="#757575"/>
<path d="M85.5818 4.57086C85.4424 4.43598 85.3316 4.2736 85.2563 4.09368C85.181 3.91376 85.1427 3.72011 85.1438 3.52463C85.1409 3.32889 85.1784 3.13469 85.2538 2.95452C85.3292 2.77434 85.441 2.61216 85.5818 2.4784C85.8604 2.20371 86.2335 2.05005 86.6219 2.05005C87.0103 2.05005 87.3834 2.20371 87.662 2.4784C87.8029 2.61216 87.9146 2.77434 87.99 2.95452C88.0654 3.13469 88.1029 3.32889 88.1 3.52463C88.1028 3.72034 88.0667 3.91462 87.9937 4.09581C87.9208 4.27699 87.8125 4.44134 87.6754 4.57899C87.5387 4.71995 87.3758 4.83189 87.1961 4.9083C87.0163 4.98471 86.8234 5.02406 86.6286 5.02406C86.4337 5.02406 86.2408 4.98471 86.0611 4.9083C85.8814 4.83189 85.7185 4.71995 85.5818 4.57899V4.57086ZM85.6058 7.30027H87.638V19.8306H85.6058V7.30027Z" fill="#757575"/>
<path d="M94.1165 19.9741C93.7195 19.8239 93.3563 19.5944 93.0483 19.2992C92.7306 18.99 92.4828 18.6146 92.3219 18.1988C92.149 17.7097 92.0666 17.1923 92.0789 16.6728V9.19197H89.9266V7.29467H92.0789V3.76025H94.1378V7.30009H97.1394V9.19739H94.1272V16.1741C94.1272 16.8761 94.2553 17.3965 94.5144 17.7299C94.6821 17.9168 94.8894 18.0627 95.1206 18.1566C95.3519 18.2504 95.6011 18.2899 95.8496 18.2719C96.33 18.2713 96.8001 18.1301 97.2035 17.8654V19.9036C96.9691 20.0173 96.7214 20.1002 96.4664 20.1503C96.1507 20.2044 95.8306 20.2289 95.5104 20.2235C95.0346 20.2281 94.5621 20.1436 94.1165 19.9741Z" fill="#757575"/>
<path d="M99.7431 2.2373H101.802V7.42237L101.703 9.1435H101.802C102.177 8.46776 102.732 7.91337 103.404 7.54434C104.136 7.12029 104.965 6.90052 105.808 6.90739C107.308 6.90739 108.454 7.35371 109.244 8.24635C110.035 9.13899 110.43 10.3225 110.43 11.797V19.8308H108.374V12.1169C108.374 10.9839 108.091 10.1482 107.525 9.6097C106.925 9.05338 106.133 8.76097 105.322 8.79657C104.682 8.79439 104.059 9.00055 103.543 9.38473C103.004 9.78356 102.565 10.3048 102.261 10.9068C101.956 11.5087 101.794 12.1747 101.789 12.8514V19.8308H99.7297L99.7431 2.2373Z" fill="#757575"/>
<path d="M145.37 7.20557C141.81 7.20557 138.908 9.95395 138.908 13.7404C138.942 15.4573 139.638 17.0921 140.846 18.294C142.055 19.4959 143.679 20.169 145.371 20.169C147.063 20.169 148.688 19.4959 149.896 18.294C151.105 17.0921 151.801 15.4573 151.835 13.7404C151.835 9.95395 148.932 7.20557 145.37 7.20557ZM145.37 17.6516C143.421 17.6516 141.786 16.066 141.786 13.7404C141.786 11.4149 143.421 9.80488 145.37 9.80488C147.319 9.80488 148.956 11.3851 148.956 13.7404C148.956 16.0958 147.322 17.6516 145.37 17.6516Z" fill="#E53A3B"/>
<path d="M159.376 7.20557C155.814 7.20557 152.911 9.95395 152.911 13.7404C152.946 15.4573 153.642 17.0921 154.85 18.294C156.059 19.4959 157.683 20.169 159.375 20.169C161.067 20.169 162.691 19.4959 163.9 18.294C165.108 17.0921 165.804 15.4573 165.839 13.7404C165.833 9.95395 162.936 7.20557 159.376 7.20557ZM159.376 17.6516C157.424 17.6516 155.79 16.066 155.79 13.7404C155.79 11.4149 157.424 9.80488 159.376 9.80488C161.328 9.80488 162.96 11.3851 162.96 13.7404C162.96 16.0958 161.326 17.6516 159.376 17.6516Z" fill="#F5BE28"/>
<path d="M137.997 10.9677C137.997 13.0385 137.431 15.6269 135.631 17.4538C133.887 19.305 131.625 20.2997 128.656 20.2997C123.133 20.2997 118.508 15.757 118.508 10.1518C118.508 4.54665 123.133 0.00123905 128.656 0.00123905C129.924 -0.0193761 131.184 0.217437 132.361 0.697777C133.538 1.17812 134.609 1.8923 135.511 2.79841L133.583 4.75535C132.262 3.46146 130.491 2.74937 128.656 2.77402C127.706 2.77574 126.767 2.96849 125.891 3.34111C125.015 3.71373 124.221 4.25884 123.554 4.94491C122.888 5.63099 122.362 6.44441 122.006 7.33815C121.651 8.23189 121.474 9.18822 121.486 10.1518C121.474 11.1153 121.651 12.0715 122.006 12.9651C122.362 13.8587 122.888 14.6719 123.555 15.3578C124.221 16.0437 125.016 16.5885 125.891 16.9608C126.767 17.3332 127.706 17.5256 128.656 17.5269C131.275 17.5269 132.749 16.4699 133.705 15.4968C134.507 14.6837 135.022 13.5318 135.204 11.919H128.68V9.14626H137.853C137.95 9.74829 137.999 10.3575 137.997 10.9677Z" fill="#547DF0"/>
<path d="M191.512 17.6025C190.073 17.6025 189.109 17.0089 188.439 15.7052L197 12.1165L196.706 11.3739C196.172 9.91295 194.535 7.21606 191.194 7.21606C187.854 7.21606 185.122 9.86416 185.122 13.7509C185.122 17.4236 187.854 20.2858 191.512 20.2858C192.573 20.2914 193.618 20.0299 194.554 19.5247C195.49 19.0195 196.289 18.2864 196.877 17.3911L194.674 15.8949C194.317 16.4138 193.843 16.8392 193.292 17.1361C192.741 17.4329 192.128 17.5928 191.504 17.6025H191.512ZM191.291 9.75846C192.415 9.75846 193.366 10.3005 193.694 11.1137L187.985 13.5151C187.883 10.9998 189.849 9.75846 191.291 9.75846Z" fill="#E53A3B"/>
<path d="M181.055 0.67334V19.8849H183.848V0.67334H181.055Z" fill="#35AB56"/>
<path d="M176.574 7.59055V8.67473H176.478C176.047 8.20102 175.522 7.82577 174.937 7.57389C174.352 7.32201 173.721 7.19926 173.086 7.2138C169.882 7.2138 166.918 10.0842 166.918 13.7731C166.918 17.462 169.868 20.2781 173.086 20.2781C173.724 20.2942 174.357 20.1697 174.943 19.9133C175.528 19.6569 176.052 19.2746 176.478 18.7928H176.574V19.7333C176.574 22.2242 175.257 23.5279 173.137 23.5279C172.433 23.5233 171.748 23.3036 171.169 22.8975C170.59 22.4914 170.145 21.9176 169.892 21.2512L167.436 22.2811C167.901 23.4285 168.692 24.4089 169.709 25.0969C170.727 25.785 171.923 26.1494 173.145 26.1435C176.459 26.1435 179.266 24.1676 179.266 19.3295V7.59055H176.574ZM173.332 17.6761C171.38 17.6761 169.77 16.0498 169.77 13.7649C169.77 11.48 171.372 9.80498 173.332 9.80498C175.292 9.80498 176.782 11.4638 176.782 13.7649C176.782 16.0661 175.257 17.6761 173.332 17.6761Z" fill="#547DF0"/>
</svg>
