<svg width="42" height="56" viewBox="0 0 42 56" fill="none" xmlns="http://www.w3.org/2000/svg">
<g clip-path="url(#clip0)">
<path d="M24.2866 26.7254C23.0603 27.1927 21.7368 27.3427 20.4378 27.1613C17.1689 26.6715 14.8025 24.9256 13.3915 21.9154C12.5384 20.0952 12.4711 18.1641 12.7545 16.2142C13.1378 13.4122 14.3902 10.8033 16.3334 8.75854C18.5202 6.43067 21.1881 4.97723 24.3508 4.58662C30.9005 3.7775 36.9956 6.97038 40.1482 12.8212C41.2743 14.9092 41.9028 17.2316 41.9843 19.6055C42.3736 29.5227 35.8228 38.3314 26.3684 40.857C24.2987 41.4263 22.1514 41.6572 20.0088 41.541C14.9061 41.2327 10.4261 39.3905 6.68194 35.8539C2.93131 32.3124 0.722446 27.9549 0.150028 22.8207C-0.537923 16.6615 1.14348 11.188 5.28343 6.57851C8.69321 2.78199 12.9885 0.61439 18.0625 0.0518279C18.4712 -0.00182868 18.8843 -0.0122266 19.2951 0.0208047C18.977 0.108725 18.6581 0.195891 18.3408 0.285444C15.5143 1.06576 12.9275 2.54596 10.8165 4.59076C7.49204 7.7967 5.67424 11.7248 5.26032 16.3244C4.55676 24.1429 9.85741 31.5095 17.4831 33.2229C22.1419 34.2695 26.3965 33.3687 30.0492 30.1919C32.797 27.802 34.3394 24.7432 34.74 21.1019C34.9888 18.8411 34.6526 16.7035 33.3395 14.8205C31.2162 11.7755 28.2621 10.415 24.6225 11.0681C20.9708 11.7235 18.6314 14.0234 17.6945 17.637C16.8129 21.0377 18.203 24.2828 21.1158 25.8785C22.0406 26.403 23.0808 26.6879 24.1424 26.7074C24.1908 26.7107 24.2389 26.7167 24.2866 26.7254Z" fill="url(#paint0_linear)"/>
<path d="M32.7739 50.6897C32.7739 51.3158 32.8223 51.9466 32.7643 52.5673C32.6236 54.077 31.8515 55.1384 30.4122 55.6539C29.1709 56.1073 27.8118 56.1146 26.5659 55.6744C25.2081 55.2105 24.3222 54.2656 24.1974 52.8195C24.0734 51.469 24.0621 50.1105 24.1636 48.7581C24.3099 46.958 25.4205 45.8511 27.1886 45.5088C28.3084 45.292 29.4196 45.3168 30.4971 45.7304C31.8742 46.2589 32.6244 47.2908 32.7616 48.7494C32.8218 49.3907 32.7717 50.0431 32.7717 50.6896L32.7739 50.6897ZM26.8236 50.6718H26.8273C26.8273 51.1933 26.7996 51.7166 26.8339 52.2358C26.8819 52.96 27.2749 53.395 27.9878 53.4975C28.3357 53.5476 28.6896 53.5377 29.0343 53.4682C29.6572 53.3381 30.028 52.9237 30.0494 52.2876C30.0852 51.225 30.0868 50.1594 30.0509 49.0973C30.0281 48.4144 29.606 47.9815 28.9332 47.8707C28.6468 47.8257 28.3555 47.8205 28.0676 47.8554C27.2959 47.9457 26.8756 48.3884 26.829 49.1712C26.7989 49.6692 26.8231 50.1712 26.8231 50.6718H26.8236Z" fill="url(#paint1_linear)"/>
<path d="M38.2541 45.6658H40.8136C40.863 45.92 40.8967 46.1771 40.9143 46.4356C40.9212 48.3779 40.9297 50.3203 40.9071 52.2622C40.9028 52.7419 40.835 53.2189 40.7054 53.6806C40.5893 54.1172 40.3716 54.5199 40.0704 54.8555C39.7692 55.191 39.3931 55.4498 38.9729 55.6105C37.7919 56.1123 36.4626 56.1296 35.269 55.6589C34.3157 55.2901 33.7114 54.5761 33.3705 53.6272C33.2226 53.2162 33.2895 53.0316 33.6689 52.8736C34.1665 52.6663 34.6784 52.4926 35.1887 52.3179C35.5066 52.2092 35.7486 52.2973 35.9044 52.623C35.9998 52.8312 36.1245 53.0244 36.2746 53.1969C36.6017 53.5574 37.0261 53.6297 37.4745 53.4893C37.9 53.356 38.0898 53.012 38.1425 52.5912C38.1655 52.3627 38.1744 52.133 38.1692 51.9033C38.1713 50.1072 38.1676 48.3112 38.1743 46.5151C38.1747 46.2524 38.2222 45.9899 38.2541 45.6658Z" fill="url(#paint2_linear)"/>
<path d="M23.0079 45.6127C23.044 46.0032 23.0856 46.2473 23.0864 46.4919C23.0919 48.3493 23.1102 50.207 23.0773 52.0637C23.0679 52.6661 22.9781 53.2645 22.8102 53.8427C22.5537 54.7094 21.9387 55.3012 21.1001 55.6278C19.9344 56.1064 18.6307 56.118 17.4567 55.6601C16.5014 55.2938 15.9019 54.5766 15.5508 53.6354C15.3991 53.2287 15.4698 53.0348 15.8453 52.8783C16.3425 52.6711 16.8539 52.4972 17.3636 52.3222C17.6818 52.213 17.9281 52.3009 18.0789 52.6272C18.1567 52.7976 18.2531 52.9588 18.3661 53.1079C18.68 53.5159 19.1069 53.6305 19.5893 53.512C20.0538 53.3979 20.253 53.0366 20.3212 52.5975C20.3481 52.3696 20.3577 52.14 20.3499 51.9106C20.3521 50.0741 20.3487 48.2376 20.3528 46.4012C20.3544 45.6815 20.4168 45.6225 21.1423 45.6142C21.7378 45.6077 22.3331 45.6127 23.0079 45.6127Z" fill="url(#paint3_linear)"/>
<path d="M10.5144 55.6647C9.81747 52.3624 9.12053 49.0602 8.40735 45.6816L8.99513 45.6439C9.63524 48.7617 10.2656 51.8321 10.9186 55.0103C11.0612 54.8068 11.1504 54.7012 11.2162 54.5825C12.7926 51.7399 14.3671 48.8963 15.9397 46.0516C16.0997 45.7627 16.2608 45.4981 16.6855 45.7116C16.6239 45.8455 16.5731 45.9794 16.5041 46.1026C14.7805 49.1735 13.0563 52.2442 11.3316 55.3145C11.1661 55.6088 10.9934 55.8512 10.5144 55.6647Z" fill="url(#paint4_linear)"/>
<path d="M1.1132 46.1204C1.00503 45.7223 1.16128 45.6347 1.40971 45.632C1.78291 45.6281 2.15612 45.6276 2.52932 45.6275C4.188 45.6268 5.84671 45.6268 7.50547 45.6275C7.7243 45.6275 7.94263 45.6467 8.15646 45.6568C8.20717 46.1122 7.94313 46.1089 7.6877 46.1089C7.0035 46.1111 6.3193 46.1106 5.63497 46.1111C5.40915 46.1111 5.18345 46.1111 4.9018 46.1111C4.8366 46.3575 4.76441 46.567 4.72694 46.7827C4.22992 49.5943 3.73611 52.4066 3.2455 55.2194C3.19366 55.5157 3.16556 55.8223 2.62687 55.6842C3.17193 52.5332 3.71625 49.3858 4.28117 46.1201L1.1132 46.1204Z" fill="url(#paint5_linear)"/>
</g>
<defs>
<linearGradient id="paint0_linear" x1="0.000147709" y1="20.7875" x2="42.0001" y2="20.7875" gradientUnits="userSpaceOnUse">
<stop stop-color="#E8314F"/>
<stop offset="1" stop-color="#E5334F"/>
</linearGradient>
<linearGradient id="paint1_linear" x1="1701.92" y1="4333.29" x2="2307.66" y2="4333.29" gradientUnits="userSpaceOnUse">
<stop stop-color="#E8314F"/>
<stop offset="1" stop-color="#E5334F"/>
</linearGradient>
<linearGradient id="paint2_linear" x1="2065.78" y1="4228.06" x2="2531.21" y2="4228.06" gradientUnits="userSpaceOnUse">
<stop stop-color="#E8314F"/>
<stop offset="1" stop-color="#E5334F"/>
</linearGradient>
<linearGradient id="paint3_linear" x1="959.686" y1="4245.94" x2="1424.6" y2="4245.94" gradientUnits="userSpaceOnUse">
<stop stop-color="#E8314F"/>
<stop offset="1" stop-color="#E5334F"/>
</linearGradient>
<linearGradient id="paint4_linear" x1="565.626" y1="4119.59" x2="1114.26" y2="4119.59" gradientUnits="userSpaceOnUse">
<stop stop-color="#E8314F"/>
<stop offset="1" stop-color="#E5334F"/>
</linearGradient>
<linearGradient id="paint5_linear" x1="62.245" y1="4116.9" x2="464.079" y2="4116.9" gradientUnits="userSpaceOnUse">
<stop stop-color="#E8314F"/>
<stop offset="1" stop-color="#E5334F"/>
</linearGradient>
<clipPath id="clip0">
<rect width="42" height="56" fill="white"/>
</clipPath>
</defs>
</svg>
