<svg width="149" height="32" viewBox="0 0 149 32" fill="none" xmlns="http://www.w3.org/2000/svg">
<path d="M149 14.4762V11.8401H145.746V7.7421L145.636 7.77603L142.58 8.71677L142.52 8.73518V11.8403H137.696V10.1105C137.696 9.30502 137.875 8.68864 138.228 8.27757C138.578 7.87144 139.079 7.66496 139.718 7.66496C140.178 7.66496 140.654 7.77386 141.132 7.9886L141.252 8.04253V5.26643L141.196 5.24555C140.749 5.08403 140.142 5.00269 139.389 5.00269C138.44 5.00269 137.577 5.21047 136.825 5.62226C136.073 6.03463 135.481 6.62331 135.066 7.37178C134.653 8.11938 134.443 8.98284 134.443 9.93836V11.8401H132.177V14.4762H134.443V25.5813H137.696V14.4762H142.52V21.5333C142.52 24.4397 143.883 25.9126 146.57 25.9126C147.012 25.9126 147.477 25.8606 147.951 25.7586C148.434 25.6539 148.764 25.5494 148.957 25.4377L149 25.4122V22.7518L148.868 22.8398C148.691 22.9582 148.471 23.0549 148.214 23.1268C147.955 23.2 147.739 23.2367 147.571 23.2367C146.942 23.2367 146.476 23.066 146.187 22.7292C145.894 22.3893 145.746 21.795 145.746 20.9636V14.4762H149ZM124.913 23.2371C123.733 23.2371 122.802 22.8433 122.146 22.0676C121.486 21.288 121.151 20.1764 121.151 18.7641C121.151 17.3071 121.486 16.1667 122.146 15.3733C122.803 14.5851 123.724 14.185 124.887 14.185C126.015 14.185 126.912 14.5671 127.556 15.3212C128.202 16.0792 128.53 17.2105 128.53 18.6845C128.53 20.1767 128.221 21.3229 127.613 22.0896C127.009 22.8506 126.101 23.2371 124.913 23.2371ZM125.058 11.5091C122.805 11.5091 121.016 12.173 119.741 13.4825C118.466 14.7921 117.82 16.6044 117.82 18.8696C117.82 21.021 118.451 22.7515 119.695 24.0123C120.94 25.2735 122.633 25.9123 124.728 25.9123C126.912 25.9123 128.665 25.2391 129.94 23.9115C131.215 22.5854 131.861 20.7902 131.861 18.578C131.861 16.3929 131.255 14.6494 130.059 13.3971C128.863 12.1442 127.18 11.5091 125.058 11.5091ZM112.575 11.5091C111.043 11.5091 109.776 11.9034 108.808 12.6807C107.834 13.4626 107.339 14.4882 107.339 15.7292C107.339 16.3743 107.446 16.9473 107.656 17.4334C107.867 17.921 108.194 18.3503 108.628 18.7106C109.059 19.0681 109.724 19.4424 110.605 19.8233C111.346 20.13 111.898 20.3894 112.249 20.5939C112.592 20.7942 112.836 20.9956 112.973 21.1918C113.107 21.3838 113.175 21.6465 113.175 21.9707C113.175 22.8939 112.488 23.3431 111.073 23.3431C110.549 23.3431 109.951 23.2329 109.295 23.0157C108.645 22.8018 108.03 22.4885 107.474 22.0869L107.339 21.9894V25.1398L107.389 25.163C107.849 25.3767 108.429 25.5569 109.113 25.6987C109.796 25.8407 110.416 25.9129 110.955 25.9129C112.617 25.9129 113.956 25.5168 114.933 24.7348C115.916 23.9475 116.415 22.8977 116.415 21.6138C116.415 20.6875 116.146 19.8932 115.618 19.2526C115.093 18.6173 114.181 18.0339 112.91 17.5183C111.897 17.1094 111.249 16.77 110.981 16.5095C110.723 16.2577 110.592 15.9018 110.592 15.451C110.592 15.0514 110.754 14.7312 111.086 14.472C111.42 14.2114 111.886 14.0789 112.47 14.0789C113.012 14.0789 113.566 14.165 114.118 14.3338C114.669 14.5026 115.153 14.7286 115.557 15.0051L115.69 15.0965V12.1081L115.639 12.086C115.266 11.9252 114.775 11.7876 114.178 11.676C113.583 11.5651 113.044 11.5091 112.575 11.5091ZM98.8598 23.2371C97.6795 23.2371 96.7483 22.8433 96.0925 22.0676C95.4324 21.288 95.0986 20.1767 95.0986 18.7641C95.0986 17.3071 95.4328 16.1667 96.0932 15.3733C96.7491 14.5851 97.6708 14.185 98.8337 14.185C99.9611 14.185 100.859 14.5671 101.502 15.3212C102.149 16.0792 102.477 17.2105 102.477 18.6845C102.477 20.1767 102.168 21.3229 101.56 22.0896C100.956 22.8506 100.048 23.2371 98.8598 23.2371ZM99.0048 11.5091C96.7518 11.5091 94.9626 12.173 93.6878 13.4825C92.413 14.7921 91.7663 16.6044 91.7663 18.8696C91.7663 21.0219 92.3976 22.7515 93.6421 24.0123C94.8865 25.2735 96.58 25.9123 98.6753 25.9123C100.858 25.9123 102.612 25.2391 103.887 23.9115C105.162 22.5854 105.808 20.7902 105.808 18.578C105.808 16.3929 105.202 14.6494 104.006 13.3971C102.809 12.1442 101.126 11.5091 99.0048 11.5091ZM86.8288 14.2198V11.8401H83.6157V25.581H86.8288V18.552C86.8288 17.3568 87.0982 16.3749 87.6297 15.6332C88.1545 14.9004 88.8539 14.5291 89.7077 14.5291C89.9972 14.5291 90.322 14.5771 90.6739 14.6721C91.0221 14.7665 91.2743 14.869 91.4231 14.9768L91.5582 15.0753V11.8166L91.5061 11.7942C91.2069 11.6663 90.7836 11.6018 90.248 11.6018C89.4405 11.6018 88.7179 11.8628 88.099 12.3766C87.5558 12.8283 87.1632 13.4476 86.8629 14.2198H86.8288ZM77.8616 11.5091C76.3876 11.5091 75.0727 11.8271 73.9544 12.4539C72.8337 13.0822 71.9671 13.9791 71.3774 15.1197C70.7903 16.2574 70.4922 17.5865 70.4922 19.0686C70.4922 20.3669 70.7812 21.5584 71.3525 22.6084C71.924 23.6602 72.7328 24.4831 73.7568 25.0538C74.7793 25.6238 75.9611 25.9128 77.2695 25.9128C78.7965 25.9128 80.1002 25.6057 81.1455 25L81.1877 24.9756V22.0144L81.0527 22.1136C80.5792 22.4605 80.0501 22.7375 79.4807 22.937C78.9128 23.1364 78.3951 23.2371 77.9411 23.2371C76.6803 23.2371 75.6682 22.8403 74.9335 22.0579C74.1973 21.2745 73.8239 20.1744 73.8239 18.7901C73.8239 17.3971 74.2133 16.2688 74.9805 15.4362C75.7454 14.6061 76.7594 14.185 77.9941 14.185C79.0502 14.185 80.0793 14.5448 81.0529 15.2552L81.1877 15.3537V12.2335L81.1442 12.2089C80.7778 12.0025 80.2781 11.8322 79.6577 11.703C79.0399 11.5741 78.4357 11.5091 77.8616 11.5091ZM68.2793 11.8403H65.0663V25.581H68.2793V11.8403ZM66.7057 5.98663C66.1768 5.98663 65.7156 6.16773 65.3367 6.5266C64.9561 6.88648 64.7631 7.33959 64.7631 7.87434C64.7631 8.40068 64.9538 8.84552 65.3307 9.19584C65.7052 9.54513 66.1679 9.72217 66.7058 9.72217C67.2436 9.72217 67.708 9.54513 68.0869 9.19642C68.4683 8.84552 68.6617 8.40082 68.6617 7.87434C68.6617 7.3583 68.4735 6.90982 68.1026 6.5411C67.732 6.1731 67.2619 5.98663 66.7057 5.98663ZM58.6888 10.8265V25.581H61.9679V6.40727H57.4295L51.6609 20.649L46.0628 6.40727H41.3396V25.5809H44.4211V10.825H44.5269L50.4383 25.581H52.7638L58.583 10.8265H58.6888Z" fill="#706D6E"/>
<path d="M15.1152 15.2055H0V0H15.1152V15.2055Z" fill="#F1511B"/>
<path d="M31.8042 15.2055H16.6892V0H31.8042V15.2055Z" fill="#80CC28"/>
<path d="M15.1148 32H0V16.7947H15.1148V32Z" fill="#00ADEF"/>
<path d="M31.8042 32H16.6892V16.7947H31.8042V32Z" fill="#FBBC09"/>
</svg>
