<svg width="117" height="26" viewBox="0 0 117 26" fill="none" xmlns="http://www.w3.org/2000/svg">
<path d="M0 0V26H117V0H0ZM22.0782 19.765C20.6243 20.0665 19.5085 19.8359 18.469 18.6466C16.4178 16.3004 14.1854 14.1164 12.0241 11.8676C11.8607 11.6977 11.6754 11.5475 11.3811 11.2767V19.8223H8.38849V6.08676C9.73335 5.9079 10.8207 5.94759 11.8483 7.11069C13.9518 9.49113 16.2525 11.6947 18.473 13.9682C18.6369 14.1355 18.8217 14.2797 19.1255 14.5454V6.09028H22.0763L22.0782 19.765ZM35.0931 19.8705H23.1387V6.06365H35.0811V9.19872H26.2717V16.6978H35.0931V19.8705ZM34.6861 11.4772V14.2239H26.8974V11.4772H34.6861ZM53.4196 19.9369C52.0748 19.9369 50.7299 19.9695 49.3885 19.9087C49.122 19.8967 48.8516 19.547 48.6175 19.3174C47.1565 17.8855 45.7051 16.4441 44.2292 14.9845C43.0457 16.1557 41.7556 17.2811 40.6539 18.5698C39.7359 19.6439 38.7441 20.173 37.3425 19.964C36.6906 19.9166 36.0364 19.9121 35.384 19.9504C37.7489 17.4454 39.9406 15.1247 42.1158 12.8216L35.5822 6.02899C37.0765 6.02899 38.4288 6.00186 39.7762 6.0536C40.0203 6.06265 40.2783 6.36711 40.4855 6.57913C41.7865 7.90601 43.0756 9.24595 44.296 10.5085C45.7175 9.12738 47.0071 7.82613 48.3589 6.59521C48.7367 6.27373 49.2035 6.07743 49.6959 6.03301C50.7204 5.95011 51.7565 6.00688 52.8274 6.00688L46.3113 12.4599L53.4874 19.7108L53.4196 19.9369ZM59.9607 19.8962H58.0181V9.25047H53.3768V6.08526H59.9627L59.9607 19.8962ZM67.5273 9.24495H62.8556V19.871H60.8871V6.08827H67.5273V9.24495ZM80.5904 9.19471H71.7372V16.6802H80.5775V19.8957H68.5942V6.07621H80.5924L80.5904 9.19471ZM80.1018 11.4691V14.2324H72.3315V11.4691H80.1018ZM94.6961 19.96H91.4898C90.3333 19.96 89.1722 19.8931 88.0211 19.972C83.8415 20.2579 80.4141 16.6787 81.0362 11.7721C81.494 8.15923 84.0248 6.00788 87.661 6.00085C89.9716 5.99583 92.2818 6.00085 94.6652 6.00085V9.255H91.2109C90.0239 9.255 88.837 9.24947 87.65 9.255C85.5475 9.26705 84.1534 10.702 84.123 12.8769C84.0921 15.0916 85.4858 16.6696 87.5688 16.7033C89.6987 16.7375 91.8296 16.7108 93.9599 16.7139C94.1706 16.7139 94.3808 16.738 94.6941 16.7571L94.6961 19.96ZM98.6137 19.9268H95.5892V6.04104H98.6137V19.9268ZM108.617 19.9745H105.541V14.4133H99.324V11.4089H105.456V6.06667H108.618L108.617 19.9745Z" fill="#CC2A33"/>
</svg>
