<svg width="123" height="20" viewBox="0 0 123 20" fill="none" xmlns="http://www.w3.org/2000/svg">
<path d="M25.1365 19.5675C26.3779 19.5802 27.6094 19.3402 28.7599 18.8613C29.9103 18.3825 30.9569 17.6744 31.839 16.7779C32.7212 15.8814 33.4215 14.8143 33.8994 13.6383C34.3773 12.4624 34.6233 11.2008 34.6232 9.92665C34.6166 7.36085 33.6171 4.90286 31.8446 3.09341C30.0722 1.28395 27.672 0.271262 25.1721 0.278111C22.6722 0.284959 20.2773 1.31079 18.5143 3.12993C16.7514 4.94906 15.7647 7.4125 15.7713 9.9783C15.777 12.5237 16.7663 14.9628 18.522 16.7605C20.2777 18.5582 22.6565 19.5677 25.1365 19.5675ZM61.9404 19.5675C63.9033 19.5842 65.8184 18.9463 67.3977 17.7499C68.3897 16.9819 68.4368 16.3655 67.5565 15.4614C65.9405 13.802 64.3329 12.134 62.6907 10.5028C62.2084 10.0239 62.1679 9.708 62.6789 9.21369C64.3198 7.62007 65.9261 5.98756 67.5343 4.35839C68.3924 3.48982 68.3427 2.86539 67.3494 2.14504C66.34 1.3852 65.1885 0.847558 63.9672 0.565829C62.7458 0.2841 61.4809 0.264355 60.2518 0.50783C55.3343 1.42402 52.157 5.94061 52.6576 11.2299C53.0941 15.8289 57.2575 19.5682 61.9404 19.5655V19.5675ZM36.6549 9.91928V17.3528C36.6549 17.4058 36.6549 17.4594 36.6549 17.5124C36.6941 18.7385 37.0307 19.0846 38.1985 19.0873C39.7041 19.0899 41.2098 19.0899 42.7154 19.0873C43.874 19.0873 44.2668 18.7009 44.2805 17.5319C44.2916 16.5198 44.2805 15.507 44.2805 14.4949C44.2805 13.2313 44.2805 13.2339 45.4712 13.1239C45.6777 13.1052 45.8803 13.0515 46.0848 13.02C47.5898 12.8008 48.9604 12.0116 49.9271 10.8077C50.8938 9.60373 51.3867 8.07213 51.3088 6.51407C51.1921 4.94304 50.4994 3.47586 49.3703 2.4083C48.2413 1.34075 46.7599 0.752216 45.2248 0.76136C42.9663 0.746604 40.7079 0.756665 38.4494 0.756665C36.9751 0.756665 36.6569 1.06922 36.6523 2.56759C36.6491 5.01703 36.6543 7.46782 36.6549 9.91928Z" fill="white"/>
<path d="M82.6234 0C83.7971 0.344528 84.8749 0.96895 85.7687 1.82233C86.9394 3.03822 87.5933 4.68043 87.5874 6.38982C87.5815 8.09921 86.9163 9.73665 85.7373 10.944C85.3745 11.3263 84.9371 11.6255 84.4537 11.822C83.9704 12.0185 83.4519 12.1079 82.9325 12.0842C82.6535 12.0782 82.3745 12.0842 81.9869 12.0842C82.5971 12.7776 83.4129 13.245 84.3081 13.4143C85.1368 13.537 85.2962 14.0239 85.2374 14.7336C85.204 15.8469 84.8416 16.9235 84.1983 17.8206C83.555 18.7177 82.6612 19.3928 81.6354 19.7565C81.4439 19.8337 81.255 19.9168 81.0649 19.9973H78.726C75.9696 19.1147 74.5437 17.1944 74.4528 14.036C74.3006 14.3026 74.1772 14.5856 74.0849 14.8798C73.9542 15.7001 73.4393 15.7792 72.778 15.6846C71.3705 15.4918 70.093 14.7398 69.2203 13.5902C68.3476 12.4406 67.9494 10.9854 68.1114 9.53754C68.1964 8.82082 68.4184 8.12837 68.7648 7.49991C69.1111 6.87145 69.5749 6.31934 70.1295 5.87524C70.6842 5.43114 71.3188 5.10379 71.997 4.91196C72.6752 4.72013 73.3836 4.66759 74.0817 4.75737C75.4403 4.91297 76.2813 5.85533 77.1531 7.11493C77.1625 5.979 76.8704 4.86188 76.3081 3.88343C76.1333 3.64273 76.0535 3.34313 76.0848 3.04463C76.116 2.74613 76.256 2.47078 76.4767 2.27372C77.4136 1.19681 78.6246 0.409414 79.9735 0L82.6234 0Z" fill="#FEBD14"/>
<path d="M123 18.7202C122.537 19.1267 122.115 18.9738 121.66 18.6679C119.509 17.2232 117.347 15.7973 115.19 14.3653C114.958 14.211 114.722 14.0615 114.341 13.816C114.341 15.1655 114.345 16.3519 114.341 17.5384C114.337 18.7249 114 19.0697 112.865 19.0737C111.306 19.0791 109.748 19.0791 108.19 19.0737C107.175 19.0683 106.769 18.6632 106.768 17.6203C106.761 12.4229 106.757 7.22421 106.782 2.02819C106.781 1.83973 106.817 1.65299 106.89 1.4798C106.962 1.30662 107.069 1.15077 107.203 1.02212C107.399 0.887979 107.896 1.05901 108.172 1.23675C110.172 2.52586 112.15 3.85253 114.137 5.16378C114.571 5.45084 115.012 5.72717 115.618 6.11686C115.618 5.37438 115.618 4.77879 115.618 4.18319C115.618 3.49035 115.622 2.7975 115.618 2.10398C115.595 1.94303 115.607 1.77899 115.654 1.62345C115.7 1.4679 115.779 1.32464 115.884 1.20376C115.99 1.08288 116.121 0.987325 116.267 0.92384C116.413 0.860355 116.57 0.830484 116.728 0.836334C118.467 0.792066 120.209 0.788042 121.947 0.849748C122.303 0.862491 122.647 1.2334 122.997 1.4393L123 18.7202Z" fill="#FEBD14"/>
<path d="M0 1.27958C0.441626 1.04016 0.916314 0.871431 1.40762 0.779232C3.74189 0.727587 6.07746 0.747038 8.41238 0.759782C9.94698 0.738785 11.4321 1.31671 12.5674 2.37668C13.7026 3.43666 14.4033 4.89957 14.5278 6.46956C14.619 8.03964 14.129 9.58713 13.1558 10.8021C12.1826 12.0171 10.7981 12.8099 9.27957 13.0218C9.07502 13.054 8.87179 13.1069 8.66659 13.1251C7.48051 13.2304 7.47985 13.2277 7.4792 14.4249C7.4792 15.49 7.49488 16.5551 7.47267 17.6202C7.44979 18.7128 7.0577 19.0877 5.98728 19.091C4.45615 19.0964 2.92372 19.1333 1.39586 19.0682C0.908651 18.9705 0.438253 18.7992 0 18.5598L0 1.27958Z" fill="black"/>
<path d="M25.1365 19.5675C22.6562 19.5677 20.2771 18.5579 18.5213 16.7598C16.7655 14.9617 15.7765 12.522 15.7713 9.97634C15.7553 8.05682 16.296 6.1758 17.3246 4.57261C18.3533 2.96943 19.8233 1.71655 21.5478 0.973401C23.2722 0.230251 25.1731 0.0304261 27.0085 0.399351C28.8439 0.768276 30.531 1.68927 31.8549 3.04515C33.1788 4.40103 34.0798 6.1305 34.4432 8.0135C34.8067 9.89649 34.6161 11.8479 33.8957 13.6194C33.1754 15.3909 31.9579 16.9024 30.3981 17.9616C28.8383 19.0208 27.0068 19.5798 25.1365 19.5675Z" fill="black"/>
<path d="M61.9404 19.5655C57.2575 19.5655 53.0941 15.829 52.6609 11.2299C52.1583 5.93997 55.3356 1.42406 60.2518 0.507863C61.481 0.264577 62.746 0.28454 63.9673 0.5665C65.1886 0.848461 66.3401 1.38634 67.3494 2.14642C68.3427 2.86609 68.395 3.48784 67.5343 4.35977C65.9261 5.98893 64.3198 7.62145 62.6789 9.21506C62.1698 9.70938 62.2084 10.0253 62.6906 10.5042C64.3329 12.1353 65.9405 13.8034 67.5565 15.4628C68.4368 16.3669 68.3897 16.9833 67.3977 17.7512C65.818 18.9465 63.9029 19.5831 61.9404 19.5655Z" fill="black"/>
<path d="M36.655 9.91919C36.655 7.46774 36.6491 5.01695 36.655 2.5655C36.6595 1.06846 36.9778 0.754569 38.4521 0.754569C40.7105 0.754569 42.969 0.744509 45.2274 0.759264C46.7625 0.75012 48.2439 1.33865 49.373 2.40621C50.502 3.47376 51.1947 4.94095 51.3114 6.51197C51.3893 8.07003 50.8965 9.60163 49.9297 10.8056C48.963 12.0095 47.5924 12.7987 46.0874 13.0179C45.8829 13.0494 45.6803 13.1031 45.4738 13.1219C44.2838 13.2318 44.2838 13.2292 44.2831 14.4928C44.2831 15.5049 44.2916 16.5177 44.2831 17.5298C44.2694 18.6988 43.8767 19.0831 42.718 19.0852C41.2124 19.0878 39.7068 19.0878 38.2011 19.0852C37.0333 19.0852 36.6981 18.7364 36.6576 17.5103C36.6576 17.4573 36.6576 17.4037 36.6576 17.3507L36.655 9.91919Z" fill="black"/>
<path d="M98.8731 11.6597C99.8154 12.714 100.669 13.6718 101.526 14.6269C102.244 15.4318 102.963 16.2366 103.696 17.0327C104.076 17.4466 104.421 17.961 104.062 18.4412C103.907 18.6373 103.715 18.7999 103.498 18.9197C103.281 19.0395 103.043 19.1142 102.797 19.1395C100.072 19.2065 97.3433 19.1757 94.6163 19.1763C93.4217 19.1763 92.2265 19.1945 91.0319 19.167C90.0013 19.1435 89.6158 18.7364 89.6145 17.6914C89.6079 12.5461 89.6079 7.40108 89.6145 2.25626C89.6145 1.31726 89.9771 0.84776 90.8384 0.843736C93.7981 0.831663 96.7623 0.776665 99.7155 0.929587C100.833 0.945668 101.907 1.382 102.732 2.15594C103.558 2.92987 104.078 3.98766 104.194 5.12892C104.357 8.46505 102.863 10.8005 100.185 11.3914C99.8069 11.4806 99.4253 11.5497 98.8731 11.6597Z" fill="#FEBD14"/>
</svg>
