<svg width="70" height="32" viewBox="0 0 70 32" fill="none" xmlns="http://www.w3.org/2000/svg">
<path d="M55.4378 5.97588C54.5641 5.97588 53.836 6.56118 53.5447 7.43914L47.283 18.2672C47.283 18.4135 47.1374 18.4135 47.1374 18.2672C46.4093 16.9503 42.0406 7.73179 41.7494 7.00016C41.4581 6.26853 40.73 5.82956 39.8563 5.97588H26.7503L27.3328 1.14714C27.3328 1.00082 27.3328 0.854492 27.1872 0.854492H27.0415H23.1097C21.6535 1.00082 20.3429 2.17142 20.1973 3.63468L19.9061 5.97588H15.3918C5.63512 5.97588 2.14019 12.9995 1.84895 16.804L0.101483 30.4122C-0.0441387 30.7049 0.101483 30.9975 0.538349 31.1439H0.683971H5.19825C6.2176 31.1439 7.09134 30.2659 7.09134 29.2416L8.54755 17.5356C8.69318 16.6576 9.56691 12.7069 15.3918 12.7069H19.0323L18.3042 18.7062C17.7217 21.9254 18.5955 25.1445 20.4886 27.632C22.6729 29.9732 25.7309 31.2902 28.9346 31.1439H29.0802H31.9927C32.2839 31.1439 32.4296 30.8512 32.5752 30.5586C32.5752 30.5586 32.5752 30.2659 32.8664 28.071C33.1577 26.4614 32.2839 24.9982 30.6821 24.5592C30.3908 24.4129 29.954 24.4129 29.6627 24.5592C27.3328 24.5592 28.9346 24.5592 28.9346 24.5592C27.7696 24.7055 26.4591 24.2666 25.5853 23.3886C25.0028 22.3643 24.7116 21.0474 25.0028 19.8768L25.8766 12.8532H36.7982C36.7982 12.8532 44.5162 27.9247 45.3899 29.6806C46.2636 31.4365 47.283 31.7292 48.3023 29.8269C49.3217 27.9247 59.3696 10.6583 61.5539 6.70751C62.1364 5.97588 61.2627 5.97588 61.2627 5.97588H55.4378Z" fill="#DE1760"/>
<path d="M66.3594 16.3649C68.3981 16.3649 70 14.7553 70 12.7067C70 10.6582 68.3981 9.04858 66.3594 9.04858C64.3207 9.04858 62.7189 10.6582 62.7189 12.7067C62.7189 14.7553 64.3207 16.3649 66.3594 16.3649Z" fill="#DE1760"/>
<path d="M66.3594 28.0709C68.3981 28.0709 70 26.4613 70 24.4128C70 22.3642 68.3981 20.7546 66.3594 20.7546C64.3207 20.7546 62.7189 22.3642 62.7189 24.4128C62.7189 26.4613 64.3207 28.0709 66.3594 28.0709Z" fill="#DE1760"/>
</svg>
