<svg width="124" height="18" viewBox="0 0 124 18" fill="none" xmlns="http://www.w3.org/2000/svg">
<g clip-path="url(#clip0)">
<path d="M8.19227 12.582C8.37531 12.9904 8.31509 13.5146 8.22297 13.8353C8.06945 14.3888 7.67265 14.9715 6.51059 14.9715C5.41112 14.9715 4.73916 14.3595 4.73916 13.4561V11.8249H0V13.1074C0 16.8637 3.08701 18 6.41966 18C9.59878 18 12.2276 16.9515 12.6551 14.1559C12.8688 12.699 12.7165 11.7675 12.6244 11.3884C11.8922 7.86375 5.19619 6.81525 4.67657 4.86337C4.58564 4.51463 4.61634 4.16587 4.64587 3.99038C4.76869 3.46613 5.16548 2.85412 6.26613 2.85412C7.30537 2.85412 7.9171 3.46613 7.9171 4.36838V5.418H12.3197V4.22325C12.3197 0.5535 8.86541 0 6.35825 0C3.20983 0 0.671962 0.99 0.183047 3.72825C0.0614092 4.48537 0.0295235 5.15587 0.213752 6.00075C1.00853 9.40725 7.27585 10.3984 8.19227 12.582ZM65.5086 12.5539C65.6917 12.9611 65.6302 13.4854 65.5393 13.7768C65.3858 14.3303 64.989 14.8837 63.8269 14.8837C62.7263 14.8837 62.085 14.2717 62.085 13.3684V11.7675H57.4085V13.0489C57.4085 16.7479 60.4648 17.883 63.7655 17.883C66.9151 17.883 69.5132 16.8637 69.9419 14.0681C70.1545 12.6405 70.0009 11.6797 69.91 11.3299C69.1766 7.8345 62.5432 6.81525 62.0543 4.8645C61.9622 4.51463 61.9929 4.16475 62.0236 3.99038C62.1464 3.46613 62.5125 2.88337 63.6132 2.88337C64.6217 2.88337 65.2334 3.49538 65.2334 4.39763V5.418H69.6041V4.2525C69.6041 0.64125 66.1806 0.0585001 63.7053 0.0585001C60.6171 0.0585001 58.0804 1.0485 57.5915 3.7575C57.4687 4.48538 57.438 5.15588 57.6222 5.99963C58.417 9.40837 64.6217 10.3984 65.5086 12.5539ZM102.099 14.0389L101.855 0.52425H106.225V17.1259H99.9286L95.4965 3.17475L95.741 17.1259H91.3998V0.52425H97.9423L102.099 14.0389ZM22.8337 1.74713L20.3891 17.3014H15.6205L18.861 0.52425H26.7167L29.9572 17.3014H25.2192L22.8337 1.74713ZM48.5737 1.74713L45.5163 17.3025H41.0534L38.0278 1.74713L37.905 17.3014H33.5036L33.8697 0.52425H41.0534L43.2854 13.6305L45.5174 0.52425H52.7L53.098 17.3014H48.6954L48.5737 1.74713ZM80.3036 14.7971C81.5259 14.7971 81.9238 13.9804 81.9852 13.5731C82.016 13.3976 82.016 13.1355 82.016 12.9319V0.495H86.4788V12.555C86.4788 12.8745 86.4481 13.4865 86.4481 13.6609C86.1422 16.8075 83.5429 17.8268 80.3036 17.8268C77.063 17.8268 74.4649 16.8075 74.1591 13.6609C74.1284 13.4865 74.0977 12.8745 74.1284 12.555V0.495H78.5924V12.9319C78.5924 13.1355 78.5924 13.3976 78.6219 13.5731C78.714 14.0096 79.0813 14.796 80.3036 14.796V14.7971ZM117.108 14.6216C118.392 14.6216 118.82 13.8341 118.911 13.3976C118.942 13.1951 118.973 12.9611 118.942 12.7564V10.3106H117.139V7.86375H123.374V12.3784C123.374 12.699 123.374 12.9319 123.314 13.4854C123.008 16.5443 120.226 17.6209 117.108 17.6209C113.99 17.6209 111.208 16.5443 110.903 13.4854C110.842 12.9319 110.842 12.699 110.842 12.3784V5.301C110.842 5.00962 110.873 4.48537 110.903 4.194C111.3 1.0485 113.96 0.0585001 117.108 0.0585001C120.226 0.0585001 122.977 1.0485 123.283 4.194C123.345 4.71825 123.314 5.301 123.314 5.301V5.8545H118.85V4.92188C118.85 4.92188 118.85 4.51463 118.79 4.28063C118.698 3.90263 118.362 3.05775 117.017 3.05775C115.732 3.05775 115.366 3.87337 115.274 4.28175C115.213 4.51462 115.213 4.806 115.213 5.06813V12.7575C115.213 12.9611 115.213 13.194 115.243 13.3988C115.366 13.8645 115.824 14.6216 117.109 14.6216H117.108Z" fill="black"/>
</g>
<defs>
<clipPath id="clip0">
<rect width="124" height="18" fill="white"/>
</clipPath>
</defs>
</svg>
