<svg width="121" height="35" viewBox="0 0 121 35" fill="none" xmlns="http://www.w3.org/2000/svg">
<g clip-path="url(#clip0)">
<path d="M48.4039 27.1391C48.4039 28.4789 48.3074 29.7875 48.4312 31.0751C48.4968 31.6894 48.7795 32.2607 49.2291 32.6873C49.6788 33.114 50.2661 33.3683 50.8867 33.4052C51.3385 33.4608 51.7959 33.4517 52.3295 33.4747C52.3295 33.8951 52.3393 34.3475 52.319 34.7985C52.319 34.868 52.1791 34.9548 52.091 34.9819C51.9774 35.0014 51.8615 35.0044 51.7469 34.991H38.5469C37.9552 34.991 37.9552 34.991 37.9531 34.4114C37.9531 33.5011 37.9531 33.5011 38.807 33.3461C39.322 33.2869 39.7991 33.0483 40.1539 32.6728C40.5086 32.2973 40.7181 31.8091 40.745 31.2947C40.8007 30.8978 40.8292 30.4975 40.8303 30.0967C40.8359 25.0062 40.8371 19.9158 40.8338 14.8253C40.8338 14.6536 40.8296 14.4778 40.8282 14.3097C40.854 13.9632 40.7558 13.6188 40.5512 13.3371C40.3465 13.0554 40.0483 12.8545 39.7092 12.7697C39.2295 12.6182 38.7651 12.4223 38.2846 12.2708C37.7825 12.1165 37.9993 11.7197 37.9622 11.4112C37.923 11.0846 38.1972 11.0832 38.3958 11.0637C41.4172 10.7395 44.3855 10.0391 47.231 8.97898C47.357 8.9448 47.489 8.93832 47.6178 8.95998C47.7466 8.98165 47.869 9.03094 47.9767 9.10443C48.0843 9.17792 48.1746 9.27383 48.2411 9.3855C48.3076 9.49717 48.3489 9.62191 48.3619 9.75103C48.3619 10.4397 48.3619 11.1277 48.3619 11.8163C48.3619 11.9699 48.3794 12.1235 48.3948 12.3792C48.5788 12.2402 48.6914 12.1443 48.8102 12.0595C49.8488 11.3153 50.8573 10.5238 51.9344 9.83928C54.9788 7.90395 58.7771 9.11796 60.6598 11.833C61.965 13.7344 62.5179 16.0476 62.2124 18.329C62.0758 19.9015 61.6134 21.429 60.8542 22.8154C60.175 24.012 59.232 25.0404 58.0961 25.8236C56.9601 26.6067 55.6606 27.1244 54.2948 27.3379C52.4698 27.7234 50.579 27.6758 48.776 27.1989C48.6532 27.172 48.529 27.1521 48.4039 27.1391ZM48.3207 19.4951V23.4561C48.3207 25.0773 48.3647 25.1399 49.9216 25.7048C50.0702 25.7599 50.222 25.8063 50.3762 25.8438C51.0356 26.0404 51.7445 25.9924 52.371 25.7086C52.9975 25.4249 53.4989 24.9247 53.7821 24.3011C54.1065 23.6317 54.3502 22.9266 54.5081 22.2004C54.8441 20.5252 54.9009 18.8064 54.6759 17.1129C54.6109 15.9796 54.2942 14.8747 53.7485 13.8774C53.5837 13.5646 53.358 13.2874 53.0845 13.0618C52.8111 12.8363 52.4953 12.6669 52.1554 12.5634C51.8156 12.46 51.4585 12.4246 51.1048 12.4593C50.7512 12.494 50.4079 12.5981 50.095 12.7656C49.5572 13.0664 49.0645 13.4407 48.6312 13.8774C48.4444 14.0843 48.3396 14.3514 48.3361 14.6293C48.3081 16.2526 48.3207 17.8732 48.3207 19.493V19.4951Z" fill="black"/>
<path d="M28.087 25.3484C27.6597 25.7007 27.1687 26.1169 26.6659 26.5193C25.6612 27.231 24.453 27.603 23.2193 27.5804C21.9805 27.6759 20.7348 27.5344 19.5497 27.1635C18.7363 26.9339 18.023 26.4417 17.5224 25.7646C17.0218 25.0875 16.7624 24.264 16.7851 23.4242C16.7794 22.7094 16.8438 21.9959 16.9774 21.2936C17.1059 20.6779 17.3887 20.1044 17.7996 19.6261C18.2105 19.1479 18.7362 18.7804 19.328 18.5577C20.6135 17.9892 21.9542 17.541 23.2795 17.0657C24.7412 16.5408 26.2099 16.0335 27.6856 15.5438C27.9954 15.4403 28.1276 15.3027 28.115 14.9698C28.0765 13.9831 28.115 12.9914 28.0311 12.0088C27.9387 10.897 27.4911 10.4474 26.6022 10.3911C26.1243 10.3334 25.6415 10.4499 25.2434 10.719C24.8454 10.9882 24.5591 11.3916 24.4377 11.8546C24.2995 12.5122 24.4066 13.1973 24.7391 13.7822L18.4097 16.3374C18.149 15.6353 18.0767 14.8778 18.1999 14.1394C18.3187 13.4149 18.6033 12.7272 19.0318 12.1293C19.4604 11.5313 20.0213 11.0391 20.6715 10.6906C22.0378 9.88433 23.5555 9.36408 25.1314 9.16176C26.8739 8.8184 28.6643 8.78874 30.4173 9.0742C31.2228 9.21769 32.0061 9.46436 32.7477 9.80803C33.5827 10.203 34.2814 10.8347 34.7559 11.6235C35.2303 12.4124 35.4592 13.3231 35.4137 14.2409C35.4556 17.1651 35.4179 20.09 35.4326 23.0149C35.4357 23.4574 35.4952 23.8978 35.6095 24.3255C35.7543 24.8647 36.0991 25.0072 36.6439 24.8307C36.7802 24.7852 36.9134 24.7309 37.0425 24.6681C37.7244 24.3428 37.7244 24.3414 38.2399 24.8883C38.3364 24.9912 38.4301 25.0968 38.5595 25.2358C38.3343 25.4631 38.0961 25.6772 37.8461 25.8772C36.3669 27.0205 34.5503 27.6486 32.6763 27.6645C31.4836 27.6892 30.315 27.3283 29.3466 26.6361C28.8936 26.24 28.4725 25.8095 28.087 25.3484ZM28.108 20.4298C28.108 19.2846 28.101 18.1366 28.1122 16.9948C28.1122 16.6474 28.0227 16.5334 27.6555 16.6314C27.0949 16.7683 26.5675 17.015 26.1042 17.3572C25.6408 17.6993 25.2509 18.1299 24.9573 18.6237C24.2096 19.9435 23.9139 21.469 24.1145 22.9704C24.0973 23.415 24.2448 23.8504 24.5292 24.194C24.8136 24.5377 25.215 24.7657 25.6574 24.8348C26.1377 24.9171 26.6294 24.9068 27.1058 24.8043C27.2621 24.7991 27.4155 24.7601 27.555 24.6898C27.6946 24.6196 27.8169 24.5198 27.9136 24.3976C28.0102 24.2753 28.0788 24.1336 28.1144 23.9822C28.15 23.8309 28.1519 23.6736 28.1199 23.5215C28.0702 22.4923 28.108 21.4603 28.108 20.4305V20.4298Z" fill="black"/>
<path d="M96.6323 17.4424H84.7954C84.8678 18.2352 84.9811 19.0238 85.1345 19.8051C85.3312 20.755 85.6316 21.6808 86.0305 22.566C87.3418 25.2004 90.2701 25.8064 92.6703 24.5569C93.7836 23.9423 94.7561 23.1043 95.5259 22.0962C95.5895 22.0184 95.6497 21.9378 95.7147 21.862C95.7315 21.8426 95.7623 21.8349 95.9043 21.7043C96.1721 22.0205 96.4512 22.3297 96.6973 22.6605C96.7268 22.7155 96.7422 22.7768 96.7422 22.8391C96.7422 22.9014 96.7268 22.9627 96.6973 23.0177C94.6118 25.7077 92.0297 27.5027 88.4804 27.7167C86.1898 27.9521 83.8798 27.5202 81.8321 26.4735C80.4638 25.7877 79.314 24.738 78.5108 23.4413C77.7075 22.1445 77.2824 20.6516 77.2826 19.1289C77.1245 16.7745 77.8268 14.4425 79.2605 12.5613C80.7427 10.7334 82.859 9.52187 85.194 9.16459C87.0314 8.76658 88.934 8.77109 90.7694 9.17779C92.1192 9.46908 93.3522 10.15 94.3139 11.1351C95.2756 12.1201 95.923 13.3655 96.1749 14.7149C96.3882 15.5779 96.475 16.4751 96.6323 17.4424ZM89.6246 16.0991C89.6413 14.755 89.4652 13.4154 89.1014 12.1207C88.9862 11.8131 88.8348 11.5202 88.6503 11.2479C88.5132 10.9958 88.3089 10.786 88.0598 10.6416C87.8107 10.4971 87.5263 10.4237 87.238 10.4292C86.9496 10.4347 86.6683 10.519 86.4249 10.6729C86.1816 10.8268 85.9856 11.0442 85.8584 11.3014C85.7222 11.4862 85.618 11.6921 85.55 11.9109C85.3325 12.8233 85.1227 13.7392 84.9527 14.6613C84.8882 15.1383 84.8482 15.6182 84.8331 16.0991H89.6246Z" fill="black"/>
<path d="M0.340597 27.5915L0 22.0843H1.53863C1.5764 22.2233 1.61556 22.3838 1.66452 22.543C1.86742 23.3238 2.26969 24.0395 2.83242 24.6206C3.39515 25.2018 4.0993 25.6289 4.87676 25.8605C5.63614 26.1188 6.46595 26.0805 7.19799 25.7535C7.45857 25.6602 7.69203 25.5047 7.87778 25.3006C8.06352 25.0965 8.19583 24.85 8.26301 24.5831C8.3302 24.3161 8.3302 24.0368 8.26302 23.7698C8.19583 23.5029 8.06353 23.2565 7.87779 23.0523C7.49501 22.605 7.05943 22.2051 6.58044 21.8613C5.27331 20.8731 3.90462 19.9621 2.62966 18.9357C1.43162 18.0348 0.607317 16.729 0.312622 15.2651C0.0671885 14.0894 0.236627 12.8656 0.792452 11.7994C1.34828 10.7332 2.2566 9.88959 3.3647 9.4105C4.73496 8.82854 6.23189 8.60324 7.71413 8.75589C9.60578 8.93439 11.4706 9.32773 13.2721 9.92821C13.345 9.93929 13.415 9.96461 13.4781 10.0027C13.5411 10.0408 13.596 10.0909 13.6395 10.1501C13.683 10.2093 13.7142 10.2765 13.7315 10.3478C13.7487 10.4191 13.7516 10.493 13.74 10.5654C13.7106 11.7829 13.7169 13.0018 13.7064 14.22C13.7064 14.3305 13.6847 14.441 13.6679 14.5973C13.2767 14.6155 12.8848 14.6095 12.4944 14.5793C12.3818 14.5654 12.2363 14.3444 12.209 14.1991C12.0063 13.0754 11.4418 12.0475 10.6005 11.2701C10.3412 11.0092 10.0313 10.8035 9.68941 10.6655C9.34757 10.5275 8.98103 10.4601 8.61213 10.4675C8.28579 10.4535 7.96229 10.5331 7.68014 10.6966C7.398 10.8602 7.1691 11.1009 7.0207 11.39C6.87229 11.6791 6.81063 12.0045 6.84306 12.3275C6.87548 12.6505 7.00062 12.9574 7.20359 13.2117C7.42759 13.5283 7.69852 13.8095 8.00717 14.0456C8.97371 14.769 9.97592 15.4444 10.9446 16.1657C11.7829 16.746 12.5827 17.3792 13.3392 18.0615C15.5919 20.2442 15.1856 23.8883 12.9301 25.8751C11.7029 26.9395 10.1425 27.5487 8.51422 27.5992C6.81407 27.618 5.11773 27.4351 3.46122 27.0543C2.86815 26.948 2.30795 26.8966 1.92259 27.4998C1.89342 27.5286 1.85867 27.5512 1.82044 27.5663C1.7822 27.5813 1.74129 27.5885 1.70019 27.5873C1.27077 27.5957 0.839253 27.5915 0.340597 27.5915Z" fill="black"/>
<path d="M76.4699 27.1573C72.0257 26.6726 67.5414 26.6726 63.0971 27.1573V25.6215C63.5578 25.6023 64.0151 25.535 64.4616 25.4207C64.9632 25.2384 65.3929 24.9016 65.6881 24.4594C65.9833 24.0172 66.1284 23.4928 66.1024 22.9628C66.1555 20.1421 66.1184 17.3201 66.1093 14.4987C66.1006 14.2556 66.0659 14.014 66.0058 13.7781C65.9403 13.331 65.7118 12.9233 65.3637 12.6326C65.0156 12.3419 64.5721 12.1885 64.1175 12.2013C63.9462 12.1812 63.7741 12.1638 63.6035 12.1416C63.1013 12.0756 62.8754 11.7392 63.088 11.2868C63.1482 11.159 63.4076 11.0839 63.5867 11.0561C64.4385 10.9248 65.2995 10.8477 66.1478 10.6976C68.2759 10.3336 70.366 9.77676 72.3919 9.03393C72.5257 8.96459 72.6759 8.93269 72.8266 8.94167C72.9772 8.95064 73.1225 9.00015 73.2471 9.08488C73.3716 9.16961 73.4705 9.28639 73.5334 9.42271C73.5962 9.55903 73.6206 9.70977 73.6039 9.85879C73.6039 13.9866 73.5948 18.1137 73.6144 22.2415C73.6297 22.7974 73.709 23.3497 73.8508 23.8877C73.9492 24.3107 74.1852 24.6898 74.5222 24.9661C74.8593 25.2425 75.2786 25.4008 75.7153 25.4165C76.5993 25.543 76.4524 25.347 76.4692 26.2351C76.4748 26.5305 76.4699 26.8237 76.4699 27.1573Z" fill="black"/>
<path d="M111.659 5.8457C111.68 5.59414 111.707 5.41624 111.707 5.23834C111.711 3.71926 111.699 2.19949 111.721 0.680407C111.716 0.559899 111.736 0.439702 111.781 0.327718C111.827 0.215734 111.895 0.114497 111.982 0.0306629C112.1 0.00723213 112.222 0.00937995 112.34 0.0369602C112.457 0.0645404 112.567 0.116906 112.662 0.190493C115.309 2.02784 117.949 3.87562 120.581 5.73382C121.134 6.12227 121.141 6.44819 120.594 6.83178C117.946 8.6909 115.293 10.544 112.636 12.3911C112.459 12.5134 112.12 12.6287 111.993 12.544C111.906 12.4601 111.837 12.3593 111.79 12.2478C111.743 12.1363 111.72 12.0164 111.721 11.8956C111.698 10.3765 111.711 8.85676 111.707 7.33768C111.707 7.15908 111.682 6.98118 111.661 6.72337C111.391 6.90544 111.189 7.03608 110.992 7.17368C108.529 8.89776 106.07 10.6274 103.598 12.339C103.391 12.4956 103.132 12.57 102.872 12.5474C102.539 12.4717 102.57 12.1138 102.571 11.8226C102.571 8.12432 102.571 4.42622 102.571 0.728356C102.571 0.436492 102.541 0.0800017 102.875 0.00495111C103.135 -0.0144909 103.394 0.0611151 103.602 0.217595C104.604 0.89305 105.585 1.59908 106.573 2.294C108.103 3.36879 109.634 4.44313 111.165 5.517C111.303 5.62054 111.448 5.7081 111.659 5.8457Z" fill="black"/>
<path d="M69.2125 8.58372C68.0294 8.61751 66.8701 8.24986 65.9254 7.54135C65.4869 7.21529 65.1344 6.78853 64.898 6.29756C64.6617 5.80659 64.5486 5.26604 64.5684 4.72216C64.5882 4.17828 64.7403 3.64726 65.0117 3.17454C65.2831 2.70182 65.6657 2.30147 66.1269 2.00775C67.2226 1.29622 68.5405 1.00273 69.8371 1.1815C70.9274 1.2321 71.9634 1.66892 72.7577 2.41289C73.1375 2.76238 73.4321 3.19339 73.619 3.6731C73.8059 4.15281 73.8801 4.66857 73.8361 5.18109C73.792 5.69362 73.6308 6.18941 73.3648 6.63069C73.0988 7.07198 72.7349 7.44713 72.301 7.72758C71.3828 8.31793 70.3056 8.61655 69.2125 8.58372Z" fill="black"/>
</g>
<defs>
<clipPath id="clip0">
<rect width="121" height="35" fill="white"/>
</clipPath>
</defs>
</svg>
