<svg width="148" height="30" viewBox="0 0 148 30" fill="none" xmlns="http://www.w3.org/2000/svg">
<mask id="mask0" mask-type="alpha" maskUnits="userSpaceOnUse" x="0" y="0" width="148" height="30">
<path d="M0 0H148V30H0V0Z" fill="white"/>
</mask>
<g mask="url(#mask0)">
<path fill-rule="evenodd" clip-rule="evenodd" d="M86.1714 6.23887C85.4742 6.57949 84.9514 7.09509 84.6029 7.78586H84.5739V5.98699L77.5733 6.01573V9.08118H81.0301V17.5147H77.0792V20.6089H88.6406V17.5147H84.5739V13.298C84.5739 11.7724 84.8498 10.6787 85.4015 10.0166C85.9536 9.35461 86.8346 9.0235 88.0452 9.0235H92.9832V5.72793H88.9745C87.8027 5.72793 86.8687 5.89824 86.1714 6.23887ZM67.1737 6.23887C66.4768 6.57949 65.9539 7.09509 65.6053 7.78586H65.5763V5.98699L58.5757 6.01573V9.08118H62.0325V17.5147H58.0818V20.6089H69.643V17.5147H65.5763V13.298C65.5763 11.7724 65.8522 10.6787 66.4041 10.0166C66.956 9.35461 67.837 9.0235 69.0476 9.0235H73.9856V5.72793H69.9769C68.8053 5.72793 67.871 5.89824 67.1737 6.23887ZM103.745 6.01573H96.7885V9.10992H100.202V17.5434H96.2511V20.6089H107.827V17.5434H103.745V6.01573ZM143.149 16.7591C142.258 17.6468 141.149 18.0903 139.823 18.0903C138.506 18.0903 137.397 17.6419 136.497 16.7447C135.596 15.8477 135.146 14.6939 135.146 13.2833H135.146C135.146 11.8538 135.592 10.6952 136.482 9.80768C137.373 8.92038 138.482 8.47644 139.808 8.47644C141.125 8.47644 142.234 8.92504 143.134 9.82224C144.035 10.7193 144.485 11.873 144.485 13.2833H144.485C144.485 14.7132 144.04 15.872 143.149 16.7591ZM145.107 19.2757L145.102 19.2759C145.88 18.662 146.511 17.9373 146.991 17.0974C147.663 15.9172 148 14.646 148 13.2833C148 12.2855 147.801 11.3164 147.404 10.3763C147.007 9.43579 146.46 8.60597 145.763 7.88646C145.066 7.16695 144.199 6.58881 143.163 6.15225C142.128 5.71589 141.009 5.4976 139.808 5.4976C139.808 5.4976 136.887 5.4976 135.901 3.79874C135.698 3.4486 135.596 3 135.596 2.45313C135.596 2.1797 135.635 1.92452 135.704 1.68371H132.09C132.066 1.93132 132.052 2.18727 132.052 2.45313C132.052 3.59503 132.232 4.54952 132.59 5.31719C132.922 6.02874 133.684 6.78573 134.524 7.29104H134.53C133.751 7.90491 133.12 8.62966 132.641 9.46977C131.968 10.6497 131.631 11.921 131.631 13.2833C131.631 14.2815 131.83 15.2503 132.227 16.1906C132.624 17.131 133.171 17.9608 133.868 18.6803C134.565 19.4 135.432 19.9781 136.468 20.4147C137.504 20.851 138.622 21.0695 139.823 21.0695C139.823 21.0695 142.745 21.0695 143.73 22.7682C143.933 23.1183 144.035 23.5669 144.035 24.1138C144.035 24.9772 143.689 25.6775 142.996 26.215C142.304 26.7522 141.246 27.021 139.823 27.021V27.0198H131.631V30H139.823C142.225 30 144.117 29.518 145.502 28.5536C146.887 27.5894 147.579 26.1092 147.579 24.1138C147.579 22.9719 147.4 22.0174 147.041 21.2497C146.709 20.538 145.947 19.781 145.107 19.2757ZM121.087 5.58402C119.741 5.58402 118.516 5.8862 117.412 6.49055C116.309 7.09509 115.519 7.77149 115.045 8.51994H114.958V6.01573H111.559V20.6089H115.103V13.6002C115.103 12.6024 115.362 11.7101 115.88 10.9234C116.398 10.1367 117.049 9.54434 117.834 9.14584C118.618 8.74774 119.441 8.54868 120.303 8.54868C121.726 8.54868 122.762 8.91805 123.411 9.65678C124.059 10.3957 124.384 11.6093 124.384 13.298V20.6089H127.899V12.7941C127.899 10.3957 127.323 8.59432 126.171 7.39028C125.018 6.18624 123.324 5.58402 121.087 5.58402ZM47.3487 16.7375C46.4191 17.6299 45.2863 18.0759 43.9499 18.0759C42.6523 18.0759 41.5755 17.6275 40.7183 16.7303C39.8614 15.8333 39.433 14.6796 39.433 13.2691C39.433 11.8206 39.8565 10.6666 40.7038 9.80787C41.551 8.94931 42.6331 8.51994 43.9499 8.51994C45.2667 8.51994 46.3948 8.9565 47.3342 9.82943C48.2731 10.7026 48.7429 11.8493 48.7429 13.2691C48.7429 14.6893 48.278 15.8452 47.3487 16.7375ZM52.2577 6.01573H48.9463V7.75712H48.8591C48.5105 7.14326 47.8615 6.62008 46.913 6.18837C45.9638 5.75667 44.9763 5.54072 43.9499 5.54072C42.7589 5.54072 41.6502 5.76385 40.624 6.20993C39.5974 6.65601 38.7476 7.24618 38.075 7.98006C37.4018 8.71414 36.8744 9.53949 36.4921 10.4555C36.1093 11.372 35.9182 12.3099 35.9182 13.2691C35.9182 14.2671 36.1093 15.2313 36.4921 16.1619C36.8744 17.0927 37.4044 17.9227 38.0823 18.6515C38.76 19.381 39.6096 19.9638 40.6313 20.4001C41.6527 20.8367 42.7589 21.055 43.9499 21.055C45.1021 21.055 46.1139 20.8608 46.9855 20.4722C47.857 20.0836 48.4909 19.5682 48.8881 18.9252H48.9463V20.6089H55.2351V17.6299H52.2577V6.01573ZM11.8081 13.1396C10.8399 12.4008 9.29068 11.8924 7.16052 11.6141L6.53611 11.5275C5.55794 11.3648 4.89238 11.1679 4.53902 10.9377C4.18546 10.7074 4.00888 10.367 4.00888 9.91585C4.00888 9.47462 4.24857 9.13167 4.72775 8.88678C5.20713 8.64209 5.93071 8.51994 6.89907 8.51994C7.50917 8.51994 8.17944 8.64209 8.91066 8.88678C9.64169 9.13167 10.259 9.45054 10.7623 9.8438L12.7669 7.46912C11.1982 6.18371 9.24247 5.54072 6.89907 5.54072C4.92374 5.54072 3.36467 5.94155 2.22247 6.74243C1.07968 7.5437 0.508386 8.63024 0.508386 10.0023C0.508386 10.6738 0.578744 11.2279 0.71907 11.6644C0.859591 12.1012 1.13064 12.5063 1.53241 12.8805C1.93437 13.2547 2.50783 13.5666 3.25355 13.816C3.99908 14.0657 4.96744 14.2861 6.15825 14.478L6.75385 14.5644C7.87704 14.7468 8.65412 14.9771 9.08509 15.2552C9.51567 15.5335 9.73125 15.9413 9.73125 16.4784C9.73125 17.5434 8.61767 18.0759 6.39069 18.0759C5.55794 18.0759 4.72775 17.9153 3.89991 17.5939C3.07187 17.2725 2.40631 16.8624 1.90282 16.3633L0 18.8387C0.629308 19.5777 1.52731 20.1317 2.6944 20.5009C3.8613 20.8703 5.09307 21.055 6.39069 21.055C8.55946 21.055 10.2469 20.6209 11.4524 19.7527C12.6579 18.8844 13.2608 17.7068 13.2608 16.2194C13.2608 14.905 12.7763 13.8785 11.8081 13.1396ZM100.202 3.36762H103.745V0H100.202V3.36762ZM28.0823 16.8167C27.2351 17.6755 26.153 18.1049 24.8362 18.1049C23.529 18.1049 22.4037 17.6683 21.4594 16.795C20.5153 15.9221 20.0434 14.7755 20.0434 13.3555C20.0434 11.9355 20.5128 10.7793 21.4521 9.8871C22.3913 8.99476 23.5194 8.54868 24.8362 8.54868C26.1336 8.54868 27.211 8.99728 28.0678 9.89429C28.9247 10.7915 29.3533 11.945 29.3533 13.3555C29.3533 14.8042 28.9296 15.9582 28.0823 16.8167ZM30.7038 7.98006C30.0259 7.25589 29.1765 6.67543 28.155 6.23887C27.1334 5.8023 26.0272 5.58402 24.8362 5.58402C23.6936 5.58402 22.6867 5.77589 21.8153 6.15963C20.9438 6.54337 20.3145 7.05684 19.9272 7.69944H19.869V6.01573H16.5286V26.6246H19.8402V18.8675H19.8982C20.2368 19.472 20.8905 19.9925 21.859 20.4291C22.827 20.8654 23.8195 21.0839 24.8362 21.0839C26.0368 21.0839 27.1479 20.8679 28.1695 20.4362C29.191 20.0045 30.0406 19.4287 30.7185 18.7092C31.3962 17.9895 31.924 17.1671 32.3017 16.2409C32.6794 15.3152 32.8681 14.3535 32.8681 13.3555C32.8681 12.3577 32.6768 11.3935 32.2944 10.4627C31.9119 9.53211 31.3815 8.70462 30.7038 7.98006Z" fill="#FF7175"/>
</g>
</svg>
