<svg width="107" height="44" viewBox="0 0 107 44" fill="none" xmlns="http://www.w3.org/2000/svg">
<g clip-path="url(#clip0)">
<path d="M84.7962 0C75.5764 0 67.6538 5.5945 64.2966 13.5578H66.6746C69.8793 6.81672 76.81 2.15464 84.8089 2.15464C95.8599 2.15464 104.838 11.0504 104.838 22C104.838 32.9496 95.8599 41.8454 84.8089 41.8454C76.8608 41.8454 69.9683 37.2337 66.7382 30.5682H64.3474C67.7301 38.4559 75.6146 44 84.7962 44C97.0298 44 107 34.1214 107 22C107 9.87858 97.0425 0 84.7962 0Z" fill="#EF433C"/>
<path d="M0.190615 27.4055C-0.00013817 27.2543 -0.0764396 27.1409 0.0888801 26.8385L0.775593 25.6666C0.928196 25.402 1.25883 25.402 1.42415 25.5406C2.2126 26.1328 3.06464 26.7125 4.32361 26.7125C5.31553 26.7125 6.06582 26.0698 6.06582 25.2508C6.06582 24.2806 5.23922 23.6254 3.62418 22.9702C1.8311 22.252 0.0252956 21.118 0.0252956 18.8751C0.0252956 17.1867 1.28427 15.2336 4.33632 15.2336C6.29473 15.2336 7.7826 16.2165 8.16411 16.5063C8.35487 16.6197 8.41845 16.9473 8.27856 17.1363L7.5537 18.2199C7.4011 18.4467 7.10861 18.5979 6.8797 18.4467C6.05311 17.9301 5.27738 17.4009 4.20916 17.4009C3.1155 17.4009 2.53052 18.0057 2.53052 18.7239C2.53052 19.6185 3.24267 20.2233 4.79413 20.8533C6.6508 21.5968 8.79996 22.693 8.79996 25.1374C8.79996 27.1031 7.09589 28.8923 4.39991 28.8923C1.99642 28.8923 0.750159 27.8843 0.190615 27.4055Z" fill="black"/>
<path d="M13.3528 17.7032H10.4152C10.199 17.7032 10.0464 17.5268 10.0464 17.3378V15.788C10.0464 15.599 10.199 15.4226 10.4152 15.4226H18.7829C18.9991 15.4226 19.1517 15.599 19.1517 15.788V17.3378C19.1517 17.5268 18.9991 17.7032 18.7829 17.7032H15.8453V28.3504C15.8453 28.5394 15.6673 28.7158 15.4765 28.7158H13.6961C13.5054 28.7158 13.3273 28.552 13.3273 28.3504V17.7032H13.3528Z" fill="black"/>
<path d="M18.8335 28.1993L24.7978 15.4352C24.8613 15.3218 24.9504 15.2336 25.1284 15.2336H25.3192C25.5099 15.2336 25.5862 15.3344 25.6498 15.4352L31.5377 28.1993C31.6522 28.4513 31.4996 28.6907 31.2198 28.6907H29.5539C29.2614 28.6907 29.1342 28.5773 28.9943 28.3127L28.0533 26.2588H22.318L21.3769 28.3127C21.3006 28.5017 21.1226 28.6907 20.8174 28.6907H19.1514C18.8717 28.7033 18.7191 28.4639 18.8335 28.1993ZM27.0995 24.1672L25.1793 19.9965H25.1157L23.2463 24.1672H27.0995Z" fill="black"/>
<path d="M33.2165 15.788C33.2165 15.599 33.3691 15.4226 33.5852 15.4226H39.0535C41.3553 15.4226 43.2247 17.237 43.2247 19.5051C43.2247 21.2439 42.0547 22.6803 40.3888 23.3355L43.0212 28.1488C43.1483 28.4008 43.0212 28.7032 42.6905 28.7032H40.6686C40.4905 28.7032 40.4015 28.6024 40.3633 28.5394L37.8073 23.5119H35.6835V28.3504C35.6835 28.5394 35.5055 28.7158 35.3147 28.7158H33.5725C33.3563 28.7158 33.2037 28.552 33.2037 28.3504V15.788H33.2165ZM38.8373 21.4833C39.8547 21.4833 40.7321 20.6139 40.7321 19.5429C40.7321 18.5349 39.8547 17.7032 38.8373 17.7032H35.709V21.4833H38.8373Z" fill="black"/>
<path d="M48.0063 17.7032H45.0687C44.8525 17.7032 44.6999 17.5268 44.6999 17.3378V15.788C44.6999 15.599 44.8525 15.4226 45.0687 15.4226H53.4364C53.6399 15.4226 53.7925 15.599 53.7925 15.788V17.3378C53.7925 17.5268 53.6399 17.7032 53.4364 17.7032H50.4988V28.3504C50.4988 28.5394 50.3208 28.7158 50.13 28.7158H48.3496C48.1589 28.7158 47.9808 28.552 47.9808 28.3504V17.7032H48.0063Z" fill="black"/>
<path d="M55.9288 15.788C55.9288 15.599 56.0942 15.4226 56.2849 15.4226H58.0653C58.256 15.4226 58.4341 15.599 58.4341 15.788V28.3378C58.4341 28.5268 58.256 28.7032 58.0653 28.7032H56.2849C56.0942 28.7032 55.9288 28.5394 55.9288 28.3378V15.788Z" fill="black"/>
<path d="M63.8514 17.7032H60.9137C60.7103 17.7032 60.5577 17.5268 60.5577 17.3378V15.788C60.5577 15.599 60.7103 15.4226 60.9137 15.4226H69.2815C69.4849 15.4226 69.6375 15.599 69.6375 15.788V17.3378C69.6375 17.5268 69.4849 17.7032 69.2815 17.7032H66.3439V28.3504C66.3439 28.5394 66.1786 28.7158 65.9878 28.7158H64.2074C64.0167 28.7158 63.8514 28.552 63.8514 28.3504V17.7032Z" fill="black"/>
<path d="M71.7869 18.2704L74.2922 14.377L76.8228 18.2704H71.7869Z" fill="#EF433C"/>
<path d="M72.8551 19.7571C72.8551 19.5555 73.0458 19.3665 73.2493 19.3665H75.2331C75.462 19.3665 75.6274 19.5555 75.6274 19.7571V24.016C75.6274 25.7674 76.8355 26.9896 78.654 26.9896C80.4725 26.9896 81.706 25.78 81.706 24.0286V15.3974C81.706 15.1958 81.8714 15.0068 82.1003 15.0068H84.0841C84.2876 15.0068 84.4783 15.1958 84.4783 15.3974V24.1546C84.4783 27.3046 81.9477 29.6735 78.654 29.6735C75.373 29.6735 72.8423 27.292 72.8423 24.1546V19.7571H72.8551Z" fill="black"/>
<path d="M87.8737 15.4101C87.8737 15.2085 88.039 15.0195 88.2679 15.0195H93.1639C95.7327 15.0195 97.831 17.0986 97.831 19.5808C97.831 22.1513 95.72 24.2303 93.1766 24.2303H90.5697V29.2956C90.5697 29.4972 90.3789 29.6862 90.1754 29.6862H88.2552C88.0263 29.6862 87.861 29.4972 87.861 29.2956V15.4101H87.8737ZM93.1003 21.7102C94.2703 21.7102 95.1732 20.7778 95.1732 19.5556C95.1732 18.4216 94.283 17.5396 93.1003 17.5396H90.5951V21.6976H93.1003V21.7102Z" fill="black"/>
</g>
<defs>
<clipPath id="clip0">
<rect width="107" height="44" fill="white"/>
</clipPath>
</defs>
</svg>
