<svg width="106" height="23" viewBox="0 0 106 23" fill="none" xmlns="http://www.w3.org/2000/svg">
<g clip-path="url(#clip0)">
<path d="M1.73695 13.2723C2.08008 13.272 2.41543 13.168 2.70063 12.9734C2.98583 12.7788 3.20807 12.5024 3.33928 12.1791C3.47049 11.8557 3.50477 11.5 3.43779 11.1567C3.37082 10.8135 3.20559 10.4983 2.96299 10.2508C2.72039 10.0033 2.41131 9.83471 2.07479 9.76631C1.73828 9.69792 1.38944 9.73279 1.07235 9.86652C0.755259 10.0002 0.484152 10.2268 0.293286 10.5176C0.102419 10.8085 0.000358433 11.1504 5.90871e-08 11.5004C-5.94447e-05 11.733 0.0448241 11.9634 0.132087 12.1784C0.21935 12.3934 0.347284 12.5887 0.50858 12.7533C0.669876 12.9178 0.861376 13.0483 1.07214 13.1374C1.28291 13.2264 1.50881 13.2723 1.73695 13.2723Z" fill="#831135"/>
<path d="M1.73695 23C2.08049 22.9999 2.41629 22.8958 2.70185 22.7011C2.98742 22.5063 3.20991 22.2295 3.3412 21.9057C3.47248 21.582 3.50664 21.2258 3.43937 20.8822C3.37209 20.5386 3.2064 20.2231 2.96326 19.9756C2.72012 19.7281 2.41045 19.5596 2.07343 19.4917C1.73642 19.4237 1.38721 19.4592 1.06998 19.5937C0.75275 19.7281 0.481762 19.9556 0.291301 20.2471C0.100839 20.5387 -0.000535625 20.8814 2.12837e-06 21.2318C0.000482518 21.7011 0.183737 22.1511 0.509465 22.4827C0.835193 22.8142 1.27672 23.0003 1.73695 23Z" fill="#831135"/>
<path d="M11.2774 13.2723C11.6206 13.2719 11.9559 13.1678 12.241 12.9732C12.5261 12.7786 12.7483 12.5021 12.8794 12.1787C13.0106 11.8554 13.0448 11.4996 12.9778 11.1565C12.9108 10.8133 12.7455 10.498 12.5029 10.2506C12.2603 10.0032 11.9512 9.83464 11.6147 9.76628C11.2782 9.69792 10.9293 9.73282 10.6123 9.86656C10.2952 10.0003 10.0241 10.2269 9.8333 10.5177C9.64245 10.8085 9.5404 11.1505 9.54004 11.5004C9.53968 11.7332 9.58438 11.9637 9.67156 12.1789C9.75875 12.394 9.88671 12.5895 10.0481 12.7541C10.2095 12.9187 10.4012 13.0492 10.6121 13.1381C10.8231 13.2271 11.0492 13.2726 11.2774 13.2723Z" fill="#831135"/>
<path d="M11.2774 23C11.621 22.9998 11.9567 22.8957 12.2422 22.7008C12.5277 22.506 12.7502 22.2292 12.8814 21.9054C13.0126 21.5816 13.0467 21.2254 12.9794 20.8819C12.912 20.5383 12.7463 20.2229 12.5031 19.9754C12.26 19.7279 11.9503 19.5596 11.6133 19.4916C11.2763 19.4237 10.9271 19.4592 10.6099 19.5937C10.2927 19.7282 10.0217 19.9556 9.83131 20.2472C9.64087 20.5388 9.5395 20.8814 9.54004 21.2318C9.53998 21.4643 9.58491 21.6945 9.67224 21.9093C9.75958 22.1241 9.88761 22.3193 10.049 22.4835C10.2104 22.6478 10.402 22.7779 10.6128 22.8665C10.8236 22.9552 11.0494 23.0005 11.2774 23Z" fill="#831135"/>
<path d="M20.8144 13.2723C21.1577 13.2728 21.4935 13.1695 21.7792 12.9754C22.0649 12.7814 22.2878 12.5052 22.4196 12.1819C22.5515 11.8587 22.5863 11.5028 22.5198 11.1593C22.4533 10.8158 22.2884 10.5001 22.046 10.2522C21.8035 10.0044 21.4945 9.83535 21.1578 9.76662C20.8212 9.69789 20.4722 9.73251 20.1548 9.86612C19.8375 9.99973 19.5662 10.2263 19.3751 10.5172C19.1841 10.8081 19.0819 11.1503 19.0815 11.5004C19.0812 11.9696 19.2635 12.4198 19.5884 12.7521C19.9133 13.0843 20.3543 13.2714 20.8144 13.2723Z" fill="#831135"/>
<path d="M1.73695 3.54205C2.08016 3.54178 2.41558 3.43773 2.70082 3.24307C2.98606 3.04841 3.2083 2.77187 3.33945 2.44841C3.47061 2.12495 3.50478 1.7691 3.43766 1.42583C3.37054 1.08257 3.20513 0.767306 2.96235 0.519899C2.71957 0.272492 2.41032 0.104049 2.07369 0.0358636C1.73705 -0.0323218 1.38815 0.00281191 1.07109 0.136823C0.754036 0.270835 0.483054 0.497707 0.292405 0.78876C0.101756 1.07981 1.05232e-07 1.42198 0 1.772C0.000480188 2.24154 0.183677 2.69168 0.509353 3.02356C0.835029 3.35545 1.27655 3.54193 1.73695 3.54205Z" fill="#831135"/>
<path d="M11.2774 3.54156C11.6206 3.5412 11.956 3.43707 12.2412 3.24236C12.5264 3.04764 12.7485 2.77107 12.8796 2.4476C13.0107 2.12414 13.0448 1.7683 12.9776 1.42506C12.9105 1.08183 12.745 0.766609 12.5022 0.519248C12.2594 0.271887 11.9502 0.10349 11.6136 0.0353417C11.2769 -0.0328064 10.9281 0.00235424 10.611 0.136379C10.294 0.270404 10.023 0.497276 9.83241 0.788319C9.64178 1.07936 9.54004 1.42151 9.54004 1.77151C9.53998 2.00413 9.58489 2.23448 9.6722 2.44938C9.75952 2.66428 9.88752 2.85951 10.0489 3.02392C10.2103 3.18832 10.4018 3.31866 10.6126 3.40748C10.8234 3.4963 11.0493 3.54186 11.2774 3.54156Z" fill="#831135"/>
<path d="M20.8144 3.54156C21.1578 3.54211 21.4936 3.43876 21.7794 3.2446C22.0652 3.05044 22.288 2.77419 22.4198 2.4508C22.5516 2.12742 22.5864 1.77143 22.5197 1.42789C22.453 1.08436 22.288 0.768705 22.0453 0.520882C21.8027 0.273059 21.4935 0.104203 21.1567 0.03568C20.82 -0.0328427 20.4709 0.00204791 20.1536 0.135937C19.8363 0.269826 19.5651 0.496695 19.3742 0.787838C19.1834 1.07898 19.0815 1.42131 19.0815 1.77151C19.0818 2.2404 19.2643 2.69006 19.5892 3.02188C19.914 3.35369 20.3547 3.54058 20.8144 3.54156Z" fill="#831135"/>
<path d="M20.8144 22.9999C21.1581 23.0007 21.4943 22.8974 21.7804 22.7031C22.0665 22.5088 22.2897 22.2323 22.4216 21.9086C22.5535 21.5849 22.5882 21.2286 22.5214 20.8847C22.4546 20.5409 22.2892 20.225 22.0462 19.977C21.8033 19.7291 21.4936 19.5603 21.1565 19.492C20.8194 19.4236 20.4699 19.4589 20.1525 19.5933C19.835 19.7276 19.5638 19.955 19.3731 20.2467C19.1825 20.5384 19.081 20.8812 19.0815 21.2317C19.0818 21.7005 19.2644 22.1499 19.5893 22.4815C19.9142 22.813 20.3548 22.9995 20.8144 22.9999Z" fill="#831135"/>
<path d="M30.3563 13.2723C30.6995 13.2725 31.0351 13.1688 31.3206 12.9745C31.6061 12.7802 31.8287 12.504 31.9602 12.1807C32.0918 11.8574 32.1264 11.5015 32.0597 11.1582C31.9929 10.8148 31.8279 10.4993 31.5854 10.2516C31.3429 10.0039 31.0338 9.83506 30.6972 9.76648C30.3606 9.6979 30.0117 9.73264 29.6945 9.8663C29.3772 9.99996 29.106 10.2265 28.915 10.5174C28.7241 10.8083 28.6219 11.1503 28.6216 11.5004C28.6213 11.9699 28.8039 12.4203 29.1292 12.7526C29.4545 13.0849 29.8959 13.2718 30.3563 13.2723Z" fill="#831135"/>
<path d="M30.3563 22.9999C30.6999 23.0003 31.0359 22.8967 31.3218 22.7022C31.6077 22.5077 31.8305 22.2311 31.9621 21.9073C32.0938 21.5836 32.1282 21.2273 32.0612 20.8836C31.9942 20.5399 31.8287 20.2241 31.5856 19.9764C31.3426 19.7286 31.0329 19.56 30.6959 19.4918C30.3588 19.4237 30.0094 19.459 29.6921 19.5934C29.3747 19.7278 29.1036 19.9553 28.913 20.2469C28.7225 20.5385 28.621 20.8813 28.6216 21.2318C28.6219 21.7008 28.8048 22.1504 29.1301 22.482C29.4554 22.8135 29.8964 22.9998 30.3563 22.9999Z" fill="#831135"/>
<path d="M30.3563 3.54146C30.6997 3.54182 31.0356 3.4383 31.3214 3.24399C31.6071 3.04967 31.83 2.7733 31.9617 2.44981C32.0935 2.12632 32.1282 1.77025 32.0615 1.42663C31.9948 1.08301 31.8297 0.767277 31.5871 0.519362C31.3444 0.271448 31.0352 0.102486 30.6983 0.0338462C30.3615 -0.0347935 30.0123 -2.81819e-05 29.6949 0.133745C29.3775 0.267519 29.1061 0.494292 28.915 0.785385C28.724 1.07648 28.6219 1.41881 28.6216 1.7691C28.6215 2.23863 28.8041 2.68902 29.1293 3.02134C29.4546 3.35365 29.8959 3.54072 30.3563 3.54146Z" fill="#831135"/>
<path d="M41.1458 21.3307L42.2784 18.68C42.2908 18.6328 42.3139 18.5892 42.3458 18.5526C42.3777 18.5161 42.4174 18.4876 42.462 18.4695C42.5065 18.4513 42.5545 18.444 42.6023 18.448C42.6501 18.4521 42.6963 18.4674 42.7373 18.4929C44.1656 19.2332 45.7525 19.5985 47.3542 19.5555C49.4336 19.5555 50.6876 18.5576 50.6876 16.9044C50.6876 15.3455 49.9841 14.4723 46.8042 12.9771C42.89 11.1373 41.4221 9.17228 41.4221 6.08544C41.4207 2.67979 43.8368 0 48.2399 0C50.9613 0 52.3983 0.21808 54.4166 1.12274C54.6309 1.21515 54.6916 1.37224 54.6001 1.62174L53.438 3.9915C53.4256 4.0424 53.4013 4.08945 53.367 4.12861C53.3328 4.16777 53.2898 4.19785 53.2416 4.21626C53.1935 4.23468 53.1417 4.24088 53.0906 4.23432C53.0396 4.22776 52.9909 4.20865 52.9488 4.17863C51.6506 3.62921 50.2569 3.35339 48.8515 3.36776C46.6497 3.36776 45.6712 4.52284 45.6712 5.98749C45.6712 7.39068 46.1604 8.10822 49.4631 9.6052C53.438 11.5074 54.9367 13.2553 54.9367 16.5283C54.9367 20.5198 52.2148 22.9506 47.6586 22.9506C45.1216 22.9506 43.2864 22.7011 41.2984 21.6717C41.1458 21.5793 41.0846 21.4845 41.1458 21.3288" fill="#831135"/>
<path d="M70.3776 22.7321C70.1633 22.7321 70.041 22.6074 70.041 22.3579V3.77351C70.041 3.61734 69.9798 3.52401 69.8272 3.52401H64.629C64.5792 3.53127 64.5283 3.52659 64.4806 3.51035C64.4328 3.49411 64.3894 3.46675 64.3538 3.43044C64.3182 3.39413 64.2914 3.34986 64.2754 3.30114C64.2595 3.25243 64.2549 3.2006 64.262 3.14976V0.592411C64.2549 0.541574 64.2595 0.489746 64.2754 0.44103C64.2914 0.392315 64.3182 0.348049 64.3538 0.311737C64.3894 0.275426 64.4328 0.248067 64.4806 0.231825C64.5283 0.215584 64.5792 0.210907 64.629 0.218164H79.4592C79.673 0.218164 79.7954 0.342913 79.7954 0.592411V3.14976C79.7954 3.39926 79.673 3.52401 79.4592 3.52401H74.1994C74.0468 3.52401 73.9861 3.61642 73.9861 3.77351V22.3597C73.9932 22.4106 73.9886 22.4625 73.9726 22.5112C73.9567 22.56 73.9298 22.6043 73.8942 22.6406C73.8585 22.6769 73.815 22.7043 73.7672 22.7205C73.7194 22.7367 73.6685 22.7413 73.6186 22.734L70.3776 22.7321Z" fill="#831135"/>
<path d="M106 15.7799C106 20.1771 104.043 22.9525 98.0188 22.9525C91.9947 22.9525 90.038 20.1771 90.038 15.7799V0.592899C90.0309 0.542062 90.0355 0.490235 90.0514 0.441519C90.0674 0.392803 90.0942 0.348537 90.1298 0.312226C90.1654 0.275914 90.2088 0.248555 90.2566 0.232314C90.3043 0.216072 90.3552 0.211395 90.405 0.218652H93.646C93.8603 0.218652 93.9826 0.343401 93.9826 0.592899V16.0604C93.9826 18.5868 95.3277 19.6467 98.0188 19.6467C100.71 19.6467 102.055 18.5554 102.055 16.0604V0.592899C102.055 0.343401 102.177 0.218652 102.391 0.218652H105.694C105.908 0.218652 105.999 0.343401 105.999 0.592899L106 15.7799Z" fill="#831135"/>
</g>
<defs>
<clipPath id="clip0">
<rect width="106" height="23" fill="white"/>
</clipPath>
</defs>
</svg>
