<svg width="72" height="75" viewBox="0 0 72 75" fill="none" xmlns="http://www.w3.org/2000/svg">
<path d="M3.11828 71.5437L1.76765 74.0381L1.02271 71.6103L0 74.7911H0.446591L1.03618 72.8975L1.67032 75L2.81319 72.8975L2.94496 74.7911H3.36197L3.11828 71.5437ZM5.67841 74.037L5.68328 73.8864C5.69851 73.7638 5.68731 73.6392 5.65042 73.5213C5.61353 73.4034 5.55182 73.2948 5.46949 73.203C5.38716 73.1113 5.28614 73.0384 5.1733 72.9893C5.06046 72.9403 4.93844 72.9163 4.81555 72.9189C4.68513 72.9191 4.55611 72.9459 4.43629 72.9977C4.31647 73.0495 4.20834 73.1252 4.11844 73.2202C4.02855 73.3152 3.95875 73.4276 3.91327 73.5505C3.86779 73.6734 3.84758 73.8044 3.85386 73.9354C3.84635 74.0581 3.865 74.1809 3.90856 74.2958C3.95211 74.4107 4.01957 74.5148 4.10641 74.6013C4.19325 74.6879 4.29747 74.7547 4.41209 74.7974C4.5267 74.8401 4.64907 74.8577 4.771 74.849C4.92404 74.8584 5.07676 74.8262 5.21316 74.7558C5.34956 74.6854 5.46462 74.5794 5.54627 74.4489L5.23182 74.2693C5.18116 74.3417 5.11317 74.4001 5.03413 74.4391C4.9551 74.4781 4.86757 74.4965 4.77961 74.4925C4.7167 74.4984 4.65326 74.491 4.59335 74.4708C4.53345 74.4506 4.47841 74.418 4.43175 74.3751C4.38509 74.3323 4.34784 74.2801 4.3224 74.222C4.29695 74.1638 4.28387 74.1009 4.28398 74.0374L5.67841 74.037ZM4.31056 73.6948C4.32293 73.5764 4.37965 73.4672 4.46921 73.3894C4.55878 73.3116 4.67445 73.2709 4.79271 73.2758C4.85065 73.2713 4.90888 73.2788 4.96385 73.2977C5.01883 73.3166 5.0694 73.3466 5.11248 73.3858C5.15557 73.425 5.19026 73.4726 5.21444 73.5257C5.23863 73.5789 5.2518 73.6364 5.25316 73.6948H4.31056ZM6.69737 72.9795H6.25901L6.0374 74.7926H6.45817L6.58245 73.7818C6.59235 73.6559 6.6334 73.5345 6.70186 73.4286C6.73763 73.3856 6.78228 73.351 6.83269 73.3271C6.88311 73.3031 6.9381 73.2905 6.99385 73.2901C7.02553 73.2855 7.05783 73.2881 7.08837 73.2978C7.11891 73.3074 7.14691 73.3238 7.1703 73.3458C7.19369 73.3677 7.21187 73.3947 7.22351 73.4247C7.23515 73.4547 7.23995 73.4869 7.23755 73.519C7.23755 73.5499 7.22969 73.6383 7.2207 73.7193L7.08744 74.7926H7.51269L7.6366 73.7818C7.63817 73.6491 7.67982 73.52 7.75601 73.4117C7.79364 73.3732 7.8385 73.3427 7.88799 73.3218C7.93747 73.3009 7.99059 73.2901 8.04426 73.2901C8.20298 73.2901 8.2917 73.3752 8.28384 73.5269C8.28009 73.5804 8.27523 73.6519 8.261 73.746L8.13298 74.7926H8.55823L8.67727 73.7949C8.69876 73.674 8.71041 73.5515 8.71208 73.4286C8.71208 73.1083 8.52753 72.9355 8.17715 72.9355C8.06481 72.9351 7.95392 72.961 7.85326 73.0112C7.75261 73.0614 7.66497 73.1344 7.59729 73.2246C7.57369 73.1323 7.51767 73.0517 7.43958 72.9976C7.36149 72.9436 7.26659 72.9198 7.17241 72.9306C7.07863 72.9268 6.98522 72.9444 6.89914 72.982C6.81306 73.0196 6.73654 73.0763 6.67528 73.1478L6.69737 72.9795ZM9.95415 71.5452H9.53302L9.13397 74.7911H9.55436L9.58655 74.546C9.66551 74.6403 9.7648 74.7153 9.87688 74.7653C9.98897 74.8152 10.1109 74.8389 10.2334 74.8344C10.361 74.8317 10.4869 74.8035 10.6035 74.7513C10.7201 74.6991 10.8252 74.624 10.9126 74.5304C11 74.4368 11.0679 74.3266 11.1123 74.2062C11.1568 74.0859 11.1769 73.9578 11.1715 73.8296C11.1784 73.714 11.1616 73.5983 11.1221 73.4895C11.0827 73.3807 11.0214 73.2813 10.9422 73.1973C10.8629 73.1133 10.7673 73.0466 10.6614 73.0013C10.5554 72.956 10.4414 72.9331 10.3263 72.934C10.1186 72.9338 9.91766 73.0077 9.75912 73.1425L9.95415 71.5452ZM10.2293 73.2901C10.3005 73.2886 10.3712 73.3022 10.4368 73.3298C10.5025 73.3575 10.5617 73.3988 10.6105 73.4509C10.6593 73.503 10.6967 73.5649 10.7203 73.6324C10.7439 73.7 10.7531 73.7718 10.7474 73.8431C10.7505 73.924 10.7378 74.0046 10.7098 74.0805C10.6819 74.1563 10.6393 74.2259 10.5846 74.2852C10.5298 74.3444 10.464 74.3922 10.3908 74.4258C10.3176 74.4594 10.2386 74.4781 10.1582 74.4809C10.089 74.4819 10.0203 74.4684 9.95652 74.4413C9.89276 74.4142 9.83532 74.374 9.78785 74.3233C9.74038 74.2726 9.70392 74.2126 9.6808 74.1469C9.65768 74.0813 9.6484 74.0116 9.65356 73.9421C9.64682 73.8609 9.65655 73.7791 9.68217 73.7018C9.70778 73.6244 9.74874 73.5531 9.80257 73.4921C9.8564 73.4312 9.92198 73.3818 9.99533 73.3471C10.0687 73.3124 10.1483 73.293 10.2293 73.2901ZM13.3479 74.0385L13.3517 73.8879C13.3669 73.7652 13.3557 73.6407 13.3188 73.5227C13.2819 73.4048 13.2202 73.2962 13.1378 73.2044C13.0554 73.1126 12.9543 73.0397 12.8415 72.9907C12.7286 72.9417 12.6065 72.9177 12.4836 72.9204C12.3532 72.9207 12.2242 72.9475 12.1045 72.9993C11.9847 73.0511 11.8766 73.1268 11.7867 73.2218C11.6969 73.3169 11.6271 73.4292 11.5817 73.5521C11.5362 73.675 11.516 73.8059 11.5223 73.9369C11.5266 74.1341 11.5929 74.3248 11.7115 74.4818C11.8302 74.6388 11.9953 74.7541 12.183 74.8111C12.3708 74.8681 12.5716 74.8639 12.7569 74.7991C12.9421 74.7343 13.1022 74.6122 13.2143 74.4504L12.8999 74.2708C12.8495 74.3433 12.7817 74.4018 12.7027 74.4409C12.6238 74.4799 12.5363 74.4982 12.4484 74.494C12.3855 74.4999 12.322 74.4925 12.262 74.4723C12.2021 74.4521 12.147 74.4195 12.1003 74.3767C12.0536 74.3338 12.0163 74.2817 11.9907 74.2235C11.9652 74.1654 11.952 74.1025 11.952 74.0389L13.3479 74.0385ZM11.979 73.6948C11.9913 73.5762 12.0481 73.4669 12.1378 73.389C12.2276 73.3111 12.3435 73.2707 12.4619 73.2758C12.5198 73.2714 12.578 73.2789 12.6329 73.2978C12.6878 73.3168 12.7384 73.3467 12.7814 73.3859C12.8244 73.4251 12.8591 73.4727 12.8833 73.5258C12.9074 73.5789 12.9206 73.6364 12.9219 73.6948H11.979ZM14.3482 72.9795H13.9256L13.7043 74.7926H14.1247L14.237 73.8891C14.2395 73.7234 14.2904 73.5621 14.3834 73.4253C14.4108 73.3921 14.4452 73.3654 14.484 73.3469C14.5227 73.3284 14.5651 73.3187 14.608 73.3183C14.6949 73.3216 14.7772 73.3581 14.8382 73.4204L15.1081 73.0729C15.0648 73.0248 15.0113 72.9871 14.9515 72.9625C14.8918 72.938 14.8274 72.9272 14.763 72.931C14.68 72.9308 14.598 72.9492 14.5229 72.9847C14.4478 73.0203 14.3815 73.0721 14.3287 73.1365L14.3482 72.9795ZM17.3029 72.9208C17.1715 72.9147 17.0402 72.9356 16.9171 72.9821C16.794 73.0286 16.6815 73.0998 16.5866 73.1913C16.4916 73.2828 16.4162 73.3928 16.3648 73.5146C16.3134 73.6363 16.2872 73.7673 16.2877 73.8996C16.2864 74.0292 16.3118 74.1576 16.3622 74.2768C16.4125 74.3961 16.4869 74.5036 16.5805 74.5926C16.6741 74.6817 16.785 74.7503 16.9062 74.7942C17.0274 74.8381 17.1563 74.8564 17.2849 74.8479C17.4142 74.8508 17.5427 74.8276 17.6629 74.7796C17.783 74.7317 17.8924 74.6599 17.9845 74.5686C18.0765 74.4773 18.1494 74.3684 18.1988 74.2482C18.2482 74.128 18.2731 73.9991 18.2721 73.8691C18.2764 73.741 18.2541 73.6134 18.2065 73.4944C18.159 73.3755 18.0872 73.2679 17.9958 73.1785C17.9045 73.0891 17.7955 73.0199 17.676 72.9753C17.5565 72.9307 17.429 72.9118 17.3018 72.9197L17.3029 72.9208ZM17.3018 73.2762C17.3761 73.2728 17.4504 73.2854 17.5195 73.3132C17.5886 73.3409 17.6511 73.3832 17.7027 73.4371C17.7544 73.491 17.794 73.5554 17.819 73.6259C17.8439 73.6965 17.8537 73.7715 17.8475 73.8461C17.8548 73.9269 17.8456 74.0083 17.8204 74.0853C17.7952 74.1623 17.7545 74.2333 17.7009 74.2938C17.6474 74.3544 17.582 74.4033 17.5089 74.4375C17.4358 74.4717 17.3565 74.4904 17.2759 74.4925C17.1985 74.494 17.1215 74.4792 17.0501 74.449C16.9787 74.4188 16.9143 74.3739 16.8612 74.3171C16.8081 74.2604 16.7674 74.1931 16.7417 74.1195C16.716 74.046 16.706 73.9679 16.7122 73.8902C16.708 73.8102 16.7202 73.7302 16.7481 73.6551C16.776 73.5801 16.8189 73.5116 16.8742 73.4539C16.9294 73.3962 16.9959 73.3506 17.0695 73.3198C17.143 73.289 17.2221 73.2738 17.3018 73.2751V73.2762ZM19.2483 73.3729H19.6339L19.683 72.9773H19.2948L19.3797 72.2868C19.4153 72.0011 19.4774 71.9104 19.6272 71.9104C19.7111 71.9132 19.7907 71.9483 19.8495 72.0086L19.8945 71.6344C19.7843 71.5734 19.6612 71.5397 19.5355 71.5362C19.3966 71.5344 19.2621 71.5854 19.1589 71.6789C19.043 71.8142 18.9769 71.9856 18.9717 72.1641L18.8747 72.9754H18.5996L18.5506 73.371H18.8253L18.6531 74.7884H19.0731L19.2483 73.3729ZM22.1375 73.5382C22.3159 73.5096 22.482 73.4289 22.6152 73.3063C22.7004 73.2236 22.7677 73.124 22.8128 73.0139C22.8579 72.9037 22.8798 72.7854 22.8772 72.6663C22.8801 72.5411 22.8563 72.4168 22.8075 72.3016C22.7587 72.1865 22.686 72.0831 22.5942 71.9985C22.397 71.8551 22.1534 71.7916 21.9118 71.8204H21.3316L20.9688 74.7918H21.4072L21.5528 73.5702H21.7119L22.4112 74.7918H22.8757L22.1375 73.5382ZM21.7164 72.2285H21.9036C22.0089 72.2255 22.1139 72.2405 22.2143 72.2729C22.2855 72.3081 22.3449 72.3637 22.3848 72.4327C22.4248 72.5016 22.4436 72.581 22.4389 72.6607C22.4386 72.7963 22.39 72.9273 22.3019 73.03C22.2357 73.0908 22.1567 73.1359 22.0709 73.162C21.985 73.1881 21.8945 73.1944 21.8059 73.1806H21.5996L21.7164 72.2285ZM25.215 72.9773H24.7927L24.7617 73.2126C24.6897 73.1209 24.5971 73.0478 24.4916 72.9993C24.386 72.9507 24.2705 72.9281 24.1545 72.9332C24.0248 72.9336 23.8967 72.961 23.7781 73.0137C23.6596 73.0665 23.5532 73.1434 23.4658 73.2397C23.3784 73.336 23.3118 73.4495 23.2703 73.573C23.2288 73.6965 23.2132 73.8273 23.2246 73.9572C23.2182 74.0771 23.237 74.1971 23.2798 74.3092C23.3226 74.4213 23.3885 74.523 23.4732 74.6077C23.6245 74.7528 23.8256 74.8337 24.0347 74.8336C24.1391 74.8346 24.2426 74.8138 24.3386 74.7725C24.4346 74.7313 24.521 74.6704 24.5925 74.5938L24.5708 74.7903H24.9911L25.215 72.9773ZM24.2091 73.2879C24.278 73.2882 24.346 73.3029 24.4089 73.3311C24.4718 73.3593 24.5282 73.4003 24.5745 73.4516C24.6207 73.5028 24.6559 73.5632 24.6778 73.6288C24.6996 73.6945 24.7077 73.764 24.7014 73.833C24.7084 73.9942 24.6527 74.1519 24.5459 74.2725C24.4392 74.393 24.2899 74.467 24.1298 74.4786C24.0619 74.4772 23.9951 74.4616 23.9335 74.4329C23.8719 74.4043 23.8169 74.363 23.7719 74.3119C23.727 74.2607 23.693 74.2008 23.6723 74.1358C23.6515 74.0708 23.6444 74.0021 23.6514 73.9342C23.6449 73.8548 23.6543 73.7748 23.6789 73.6991C23.7036 73.6233 23.7431 73.5533 23.795 73.493C23.847 73.4328 23.9104 73.3837 23.9815 73.3484C24.0526 73.3132 24.13 73.2926 24.2091 73.2879ZM26.1183 71.8765C26.059 71.8773 26.0023 71.9013 25.9603 71.9435C25.9184 71.9857 25.8945 72.0427 25.8937 72.1024C25.894 72.1642 25.9182 72.2234 25.9613 72.2675C26.0044 72.3116 26.0628 72.337 26.1243 72.3384C26.1841 72.338 26.2415 72.3143 26.2843 72.2721C26.327 72.23 26.3518 72.1727 26.3534 72.1125C26.3516 72.0508 26.3265 71.992 26.2832 71.9481C26.2399 71.9043 26.1816 71.8787 26.1202 71.8765H26.1183ZM26.2171 72.9773H25.7922L25.5714 74.7903H25.9921L26.2171 72.9773ZM27.1953 73.3729H27.5808L27.6303 72.9773H27.2428L27.327 72.2876C27.3622 72.0019 27.4251 71.9111 27.5745 71.9111C27.6585 71.9139 27.7383 71.9491 27.7972 72.0094L27.8414 71.6352C27.7314 71.574 27.6084 71.5403 27.4828 71.5369C27.3438 71.5356 27.2094 71.5865 27.1058 71.6796C26.9899 71.815 26.9238 71.9863 26.9186 72.1649L26.8213 72.9761H26.5473L26.4979 73.3718H26.7723L26.6001 74.7892H27.0216L27.1953 73.3729ZM28.5111 73.3729H28.8967L28.9457 72.9773H28.5571L28.6421 72.2868C28.6773 72.0011 28.7394 71.9104 28.8895 71.9104C28.9734 71.9132 29.0529 71.9484 29.1115 72.0086L29.1565 71.6344C29.0462 71.5734 28.9229 71.5397 28.7971 71.5362C28.6581 71.5348 28.5237 71.5857 28.4201 71.6789C28.3044 71.8143 28.2383 71.9856 28.2329 72.1641L28.1345 72.9754H27.8612L27.8137 73.3726H28.0884L27.9159 74.7899H28.3378L28.5111 73.3729ZM30.9215 74.0363L30.9263 73.8857C30.9415 73.7629 30.9303 73.6383 30.8933 73.5203C30.8563 73.4024 30.7945 73.2938 30.712 73.202C30.6296 73.1102 30.5285 73.0373 30.4155 72.9883C30.3026 72.9394 30.1805 72.9154 30.0575 72.9182C29.9271 72.9184 29.7981 72.9453 29.6783 72.9971C29.5585 73.0489 29.4504 73.1246 29.3605 73.2196C29.2706 73.3146 29.2008 73.4269 29.1553 73.5498C29.1098 73.6727 29.0896 73.8036 29.0958 73.9346C29.1001 74.1318 29.1664 74.3225 29.2851 74.4796C29.4038 74.6366 29.5688 74.7518 29.7565 74.8088C29.9443 74.8658 30.1452 74.8616 30.3304 74.7968C30.5156 74.732 30.6758 74.61 30.7878 74.4481L30.4741 74.2685C30.4235 74.3408 30.3557 74.3992 30.2768 74.4382C30.1979 74.4772 30.1105 74.4956 30.0227 74.4918C29.9597 74.4977 29.8962 74.4903 29.8362 74.4701C29.7762 74.45 29.7211 74.4174 29.6743 74.3746C29.6276 74.3317 29.5902 74.2795 29.5647 74.2214C29.5391 74.1632 29.5259 74.1002 29.5259 74.0366L30.9215 74.0363ZM29.5521 73.6941C29.5647 73.5755 29.6217 73.4661 29.7115 73.3883C29.8014 73.3105 29.9173 73.27 30.0358 73.2751C30.0937 73.2706 30.1519 73.278 30.2069 73.2969C30.2619 73.3159 30.3125 73.3458 30.3556 73.385C30.3986 73.4242 30.4333 73.4719 30.4575 73.525C30.4817 73.5781 30.4949 73.6356 30.4962 73.6941H29.5521ZM31.8248 71.8765C31.7654 71.8771 31.7086 71.9011 31.6666 71.9433C31.6246 71.9855 31.6007 72.0426 31.6002 72.1024C31.6002 72.1639 31.6242 72.223 31.6669 72.2671C31.7096 72.3112 31.7677 72.3367 31.8289 72.3384C31.889 72.3383 31.9468 72.3147 31.9899 72.2726C32.033 72.2304 32.0581 72.173 32.0599 72.1125C32.0581 72.0505 32.0328 71.9915 31.9891 71.9476C31.9455 71.9037 31.8868 71.8783 31.8251 71.8765H31.8248ZM31.9225 72.9773H31.4998L31.2779 74.7903H31.699L31.9225 72.9773ZM33.5744 73.1775C33.5056 73.0951 33.4197 73.0288 33.3227 72.9832C33.2257 72.9377 33.12 72.9141 33.0129 72.914C32.9334 72.9072 32.8534 72.9167 32.7777 72.9421C32.702 72.9674 32.6322 73.008 32.5726 73.0614C32.513 73.1148 32.4649 73.1798 32.4312 73.2525C32.3975 73.3253 32.3789 73.4042 32.3765 73.4844C32.3765 73.7023 32.4683 73.8364 32.734 73.9832C33.0317 74.1439 33.0672 74.1797 33.0672 74.2904C33.0656 74.32 33.058 74.349 33.0449 74.3756C33.0318 74.4022 33.0134 74.4258 32.9909 74.4451C32.9685 74.4643 32.9423 74.4787 32.9141 74.4874C32.8859 74.4962 32.8562 74.4991 32.8269 74.4959C32.7536 74.4944 32.6819 74.4748 32.6179 74.439C32.5539 74.4032 32.4996 74.3521 32.4597 74.2904L32.1856 74.4865C32.2516 74.601 32.3476 74.6951 32.463 74.7587C32.5784 74.8223 32.7089 74.8529 32.8404 74.8472C32.9212 74.8575 33.0034 74.8505 33.0814 74.8268C33.1594 74.803 33.2316 74.7629 33.2932 74.7091C33.3547 74.6553 33.4043 74.5891 33.4386 74.5147C33.473 74.4404 33.4913 74.3596 33.4925 74.2776C33.4925 74.0404 33.3948 73.9165 33.0807 73.7332C32.8493 73.6082 32.8014 73.5555 32.8014 73.4524C32.8037 73.4249 32.8114 73.3981 32.8241 73.3736C32.8368 73.3491 32.8541 73.3273 32.8752 73.3096C32.8962 73.2919 32.9206 73.2786 32.9468 73.2704C32.973 73.2622 33.0006 73.2593 33.0279 73.2619C33.1474 73.2709 33.2587 73.3265 33.3379 73.417L33.5744 73.1775ZM35.6745 74.0363L35.6783 73.8857C35.6936 73.763 35.6825 73.6383 35.6456 73.5203C35.6088 73.4023 35.547 73.2937 35.4646 73.2019C35.3822 73.1101 35.2811 73.0372 35.1682 72.9882C35.0552 72.9392 34.9331 72.9154 34.8102 72.9182C34.6798 72.9186 34.551 72.9455 34.4313 72.9974C34.3116 73.0493 34.2037 73.125 34.1139 73.22C34.0241 73.315 33.9544 73.4273 33.909 73.5501C33.8636 73.6729 33.8434 73.8037 33.8496 73.9346C33.8541 74.1318 33.9204 74.3225 34.0391 74.4794C34.1579 74.6364 34.3229 74.7516 34.5106 74.8086C34.6984 74.8655 34.8992 74.8613 35.0845 74.7966C35.2697 74.7319 35.4298 74.6099 35.542 74.4481L35.2272 74.2685C35.1765 74.341 35.1084 74.3994 35.0293 74.4385C34.9502 74.4775 34.8626 74.4958 34.7746 74.4918C34.7117 74.4974 34.6484 74.4897 34.5886 74.4694C34.5288 74.4491 34.4738 74.4165 34.4272 74.3737C34.3806 74.331 34.3433 74.2789 34.3177 74.2209C34.2921 74.1628 34.2788 74.1001 34.2786 74.0366L35.6745 74.0363ZM34.3052 73.6941C34.3177 73.5755 34.3746 73.4663 34.4644 73.3884C34.5542 73.3106 34.67 73.2701 34.7884 73.2751C34.8464 73.2706 34.9046 73.2781 34.9596 73.2971C35.0146 73.316 35.0651 73.3459 35.1082 73.3851C35.1513 73.4243 35.1861 73.4719 35.2103 73.525C35.2345 73.5781 35.2478 73.6356 35.2493 73.6941H34.3052ZM36.6751 72.9788H36.2518L36.0316 74.7918H36.4524L36.558 73.9188C36.5566 73.7328 36.6247 73.553 36.7489 73.4151C36.7888 73.3747 36.8364 73.3428 36.8888 73.3212C36.9412 73.2996 36.9973 73.2888 37.054 73.2894C37.2273 73.2894 37.3201 73.3744 37.3201 73.5348C37.3201 73.5702 37.3104 73.6511 37.3025 73.7272L37.1738 74.7918H37.5945L37.7132 73.8205C37.7287 73.7095 37.7378 73.5976 37.7405 73.4855C37.747 73.419 37.7397 73.352 37.7192 73.2885C37.6986 73.225 37.6652 73.1665 37.6211 73.1166C37.5604 73.0564 37.4882 73.0093 37.4088 72.9781C37.3295 72.9468 37.2447 72.9321 37.1595 72.9347C37.0659 72.9351 36.9733 72.954 36.8869 72.9904C36.8006 73.0269 36.7222 73.0801 36.6564 73.1471L36.6751 72.9788ZM39.6927 71.8204L39.3296 74.7918H40.109C40.3381 74.8154 40.5693 74.7764 40.7783 74.6789C40.9077 74.5986 41.0138 74.4855 41.0861 74.351C41.1583 74.2165 41.1942 74.0652 41.1901 73.9124C41.1937 73.8193 41.1778 73.7265 41.1435 73.64C41.1091 73.5534 41.057 73.4751 40.9906 73.4102C40.8966 73.3316 40.7836 73.2796 40.663 73.2596C40.7945 73.2014 40.9056 73.1049 40.982 72.9826C41.0585 72.8603 41.0968 72.7177 41.092 72.5733C41.0941 72.3658 41.0148 72.1659 40.8711 72.0169C40.7853 71.9401 40.6841 71.8829 40.5742 71.849C40.4644 71.8152 40.3486 71.8055 40.2348 71.8208L39.6927 71.8204ZM40.0783 72.23H40.228C40.5275 72.23 40.6574 72.3429 40.6574 72.5959C40.6596 72.7351 40.6129 72.8707 40.5256 72.9788C40.4688 73.033 40.4007 73.0738 40.3262 73.0984C40.2518 73.1231 40.1729 73.1308 40.0951 73.1211H39.9716L40.0783 72.23ZM39.9267 73.4723H40.194C40.5915 73.4723 40.7514 73.5883 40.7514 73.8819C40.7559 73.9621 40.7409 74.0423 40.7078 74.1154C40.6747 74.1885 40.6244 74.2524 40.5612 74.3017C40.4212 74.3714 40.2642 74.3991 40.109 74.3815H39.8162L39.9267 73.4723ZM43.5234 72.9784H43.1022L43.0719 73.2137C43 73.1221 42.9075 73.0489 42.802 73.0004C42.6965 72.9518 42.581 72.9292 42.4651 72.9344C42.3354 72.9346 42.2072 72.962 42.0886 73.0147C41.97 73.0675 41.8636 73.1444 41.7762 73.2407C41.6887 73.337 41.6221 73.4505 41.5805 73.574C41.539 73.6976 41.5234 73.8284 41.5349 73.9583C41.5283 74.0782 41.5469 74.1981 41.5897 74.3102C41.6324 74.4223 41.6981 74.5241 41.7827 74.6089C41.9342 74.7537 42.1352 74.8345 42.3442 74.8347C42.4486 74.8357 42.5521 74.8149 42.6481 74.7737C42.7441 74.7324 42.8305 74.6715 42.902 74.5949L42.8806 74.7914H43.3018L43.5234 72.9784ZM42.519 73.289C42.5877 73.2895 42.6556 73.3043 42.7184 73.3326C42.7811 73.3608 42.8373 73.4019 42.8835 73.4531C42.9296 73.5044 42.9646 73.5647 42.9864 73.6303C43.0081 73.6959 43.0161 73.7653 43.0098 73.8341C43.0167 73.9953 42.961 74.1529 42.8543 74.2734C42.7477 74.3939 42.5985 74.4679 42.4385 74.4797C42.3706 74.4784 42.3037 74.4629 42.2421 74.4342C42.1804 74.4055 42.1253 74.3643 42.0803 74.3132C42.0353 74.262 42.0013 74.202 41.9805 74.137C41.9596 74.072 41.9525 74.0033 41.9594 73.9354C41.953 73.8558 41.9625 73.7757 41.9873 73.6999C42.0122 73.624 42.0518 73.554 42.1039 73.4937C42.1561 73.4335 42.2196 73.3844 42.2909 73.3492C42.3622 73.3141 42.4397 73.2936 42.519 73.289ZM44.5251 72.9784H44.1013L43.8797 74.7914H44.3009L44.4072 73.9184C44.4054 73.7323 44.4737 73.5523 44.5985 73.4147C44.6384 73.3743 44.6859 73.3423 44.7383 73.3207C44.7907 73.2991 44.8469 73.2883 44.9036 73.289C45.0769 73.289 45.1697 73.3741 45.1697 73.5344C45.1697 73.5698 45.1607 73.6508 45.1506 73.7268L45.0234 74.7914H45.4452L45.5643 73.8202C45.5797 73.7091 45.5887 73.5972 45.5912 73.4851C45.5979 73.4186 45.5907 73.3514 45.57 73.2878C45.5493 73.2243 45.5156 73.1658 45.4711 73.1162C45.4107 73.0561 45.3388 73.009 45.2598 72.9778C45.1808 72.9465 45.0963 72.9317 45.0114 72.9344C44.8217 72.935 44.6401 73.0114 44.5064 73.1467L44.5251 72.9784ZM46.846 71.5441H46.4223L46.0247 74.7914H46.4447L46.5507 73.9256L47.2069 74.7914H47.7205L46.9583 73.8066L47.9024 72.9784H47.3409L46.584 73.6816L46.846 71.5441ZM49.9875 71.82H49.548L49.1849 74.7914H49.6237L49.9875 71.82ZM50.9039 72.9784H50.4835L50.2608 74.7914H50.6823L50.7886 73.9184C50.7868 73.7323 50.8552 73.5523 50.9799 73.4147C51.0198 73.3742 51.0674 73.3421 51.1199 73.3205C51.1724 73.2989 51.2287 73.2882 51.2854 73.289C51.4572 73.289 51.55 73.3741 51.55 73.5344C51.55 73.5698 51.5422 73.6508 51.5324 73.7268L51.4044 74.7914H51.8252L51.9442 73.8202C51.9595 73.7091 51.9684 73.5972 51.9708 73.4851C51.9772 73.4187 51.97 73.3516 51.9495 73.2882C51.929 73.2247 51.8957 73.1661 51.8517 73.1162C51.7913 73.0563 51.7194 73.0093 51.6404 72.978C51.5614 72.9468 51.4769 72.9319 51.392 72.9344C51.2981 72.9346 51.2052 72.9534 51.1185 72.9899C51.0318 73.0263 50.9532 73.0796 50.8871 73.1467L50.9039 72.9784ZM53.0261 73.3741H53.4157L53.464 72.9784H53.0743L53.1762 72.1411H52.7524L52.651 72.9784H52.411L52.3631 73.3741H52.6023L52.429 74.7914H52.8501L53.0261 73.3741ZM55.4091 74.0374L55.4129 73.8868C55.4281 73.7641 55.4169 73.6395 55.38 73.5216C55.3431 73.4036 55.2813 73.2951 55.199 73.2033C55.1166 73.1115 55.0155 73.0386 54.9026 72.9896C54.7898 72.9406 54.6677 72.9166 54.5448 72.9193C54.4144 72.9195 54.2854 72.9464 54.1656 72.9982C54.0459 73.05 53.9378 73.1257 53.8479 73.2207C53.758 73.3157 53.6883 73.4281 53.6428 73.551C53.5974 73.6739 53.5772 73.8048 53.5835 73.9357C53.5879 74.1329 53.6543 74.3236 53.773 74.4806C53.8917 74.6375 54.0567 74.7527 54.2445 74.8097C54.4322 74.8666 54.6331 74.8625 54.8183 74.7977C55.0036 74.733 55.1637 74.611 55.2759 74.4492L54.9614 74.2697C54.9107 74.3421 54.8428 74.4005 54.7637 74.4395C54.6847 74.4785 54.5972 74.4969 54.5092 74.4929C54.4463 74.4986 54.383 74.4911 54.3231 74.4708C54.2633 74.4505 54.2083 74.4179 54.1617 74.3751C54.1151 74.3323 54.0778 74.2802 54.0523 74.2221C54.0268 74.164 54.0136 74.1013 54.0136 74.0378L55.4091 74.0374ZM54.0394 73.6952C54.052 73.5768 54.1089 73.4676 54.1986 73.3898C54.2883 73.312 54.404 73.2714 54.5223 73.2762C54.5803 73.2718 54.6385 73.2793 54.6935 73.2982C54.7485 73.3171 54.7991 73.3471 54.8422 73.3862C54.8854 73.4254 54.9201 73.473 54.9444 73.5261C54.9687 73.5792 54.982 73.6367 54.9835 73.6952H54.0394ZM56.409 72.9799H55.9879L55.7677 74.7929H56.1889L56.3012 73.8894C56.3032 73.7237 56.354 73.5623 56.4472 73.4256C56.4746 73.3925 56.509 73.3657 56.5478 73.3473C56.5865 73.3288 56.6289 73.3191 56.6718 73.3187C56.7589 73.322 56.8415 73.3585 56.9028 73.4207L57.1719 73.0733C57.1286 73.0252 57.0751 72.9875 57.0153 72.9629C56.9556 72.9384 56.8912 72.9276 56.8268 72.9313C56.7438 72.931 56.6618 72.9493 56.5868 72.9849C56.5117 73.0205 56.4455 73.0724 56.3929 73.1369L56.409 72.9799ZM57.9296 72.9799H57.5084L57.2876 74.7929H57.7076L57.8135 73.9199C57.8117 73.7338 57.8801 73.5538 58.0048 73.4162C58.0448 73.3758 58.0924 73.3438 58.1449 73.3222C58.1973 73.3006 58.2536 73.2898 58.3103 73.2905C58.4829 73.2905 58.5768 73.3756 58.5768 73.5359C58.5768 73.5713 58.5667 73.6523 58.5588 73.7283L58.4304 74.7929H58.8497L58.9699 73.8217C58.9849 73.7106 58.9939 73.5987 58.9968 73.4866C59.0034 73.42 58.9961 73.3528 58.9752 73.2892C58.9543 73.2256 58.9203 73.1672 58.8755 73.1177C58.8154 73.0576 58.7438 73.0105 58.6649 72.9792C58.5861 72.9479 58.5017 72.9332 58.417 72.9359C58.323 72.9361 58.2301 72.955 58.1434 72.9914C58.0568 73.0278 57.9781 73.0811 57.912 73.1482L57.9296 72.9799ZM61.4147 72.9799H60.9947L60.9633 73.2152C60.8913 73.1236 60.7987 73.0506 60.6931 73.002C60.5875 72.9534 60.472 72.9308 60.3561 72.9359C60.2265 72.9363 60.0985 72.9639 59.9801 73.0167C59.8616 73.0695 59.7554 73.1465 59.6681 73.2428C59.5808 73.339 59.5143 73.4525 59.4729 73.5759C59.4314 73.6993 59.4159 73.8301 59.4273 73.9598C59.4208 74.0796 59.4394 74.1994 59.4819 74.3115C59.5244 74.4235 59.5899 74.5254 59.674 74.6104C59.8255 74.7553 60.0265 74.8362 60.2355 74.8362C60.34 74.8371 60.4436 74.8162 60.5397 74.7749C60.6358 74.7337 60.7224 74.6729 60.794 74.5964L60.7723 74.7929H61.1931L61.4147 72.9799ZM60.4089 73.2905C60.4777 73.2908 60.5457 73.3055 60.6086 73.3337C60.6715 73.3619 60.7279 73.4029 60.7742 73.4542C60.8205 73.5054 60.8556 73.5658 60.8775 73.6315C60.8993 73.6971 60.9074 73.7667 60.9011 73.8356C60.9081 73.9967 60.8524 74.1542 60.7458 74.2748C60.6392 74.3953 60.4902 74.4693 60.3302 74.4812C60.2623 74.4799 60.1955 74.4644 60.1339 74.4357C60.0722 74.407 60.0172 74.3658 59.9722 74.3146C59.9273 74.2635 59.8934 74.2035 59.8726 74.1385C59.8519 74.0734 59.8448 74.0048 59.8518 73.9369C59.8454 73.8575 59.8547 73.7776 59.8793 73.7019C59.904 73.6261 59.9434 73.5561 59.9952 73.4959C60.0471 73.4357 60.1104 73.3866 60.1814 73.3513C60.2525 73.316 60.3298 73.2953 60.4089 73.2905ZM62.3929 73.3756H62.7833L62.8312 72.9799H62.4404L62.5419 72.1427H62.1222L62.0189 72.9799H61.7804L61.7292 73.3726H61.9695L61.7962 74.7899H62.2173L62.3929 73.3756ZM63.4508 71.8791C63.3914 71.8799 63.3348 71.904 63.2928 71.9461C63.2508 71.9883 63.2269 72.0453 63.2262 72.105C63.2266 72.1668 63.2509 72.2259 63.294 72.2699C63.337 72.314 63.3954 72.3395 63.4567 72.3411C63.5168 72.3409 63.5744 72.3172 63.6174 72.275C63.6604 72.2329 63.6853 72.1755 63.687 72.1152C63.6851 72.053 63.6596 71.994 63.6159 71.9501C63.5721 71.9062 63.5133 71.8808 63.4515 71.8791H63.4508ZM63.5503 72.9799H63.1292L62.9083 74.7929H63.3284L63.5503 72.9799ZM64.9283 72.9212C64.7967 72.9151 64.6653 72.936 64.5421 72.9826C64.4188 73.0293 64.3063 73.1007 64.2113 73.1925C64.1164 73.2842 64.041 73.3945 63.9898 73.5165C63.9386 73.6386 63.9126 73.7698 63.9134 73.9022C63.9122 74.0317 63.9375 74.16 63.9879 74.2792C64.0382 74.3984 64.1124 74.5058 64.2059 74.5948C64.2994 74.6838 64.4101 74.7525 64.5312 74.7965C64.6523 74.8405 64.7811 74.8589 64.9096 74.8505C65.0389 74.8536 65.1676 74.8304 65.2879 74.7825C65.4082 74.7346 65.5177 74.6629 65.6099 74.5716C65.7021 74.4803 65.7751 74.3713 65.8247 74.2511C65.8742 74.1309 65.8992 74.0019 65.8982 73.8717C65.9025 73.7437 65.8802 73.6161 65.8326 73.4972C65.785 73.3783 65.7133 73.2708 65.622 73.1814C65.5307 73.092 65.4218 73.0228 65.3023 72.9782C65.1829 72.9336 65.0555 72.9145 64.9283 72.9223V72.9212ZM64.9283 73.2788C65.0025 73.2757 65.0766 73.2885 65.1456 73.3163C65.2145 73.3441 65.2768 73.3864 65.3283 73.4403C65.3798 73.4942 65.4192 73.5585 65.4441 73.6289C65.469 73.6994 65.4787 73.7743 65.4726 73.8488C65.4799 73.9296 65.4707 74.011 65.4455 74.0881C65.4203 74.1651 65.3796 74.2361 65.326 74.2967C65.2724 74.3573 65.2069 74.4062 65.1338 74.4403C65.0606 74.4745 64.9812 74.4931 64.9006 74.4952C64.8233 74.4965 64.7465 74.4815 64.6753 74.4512C64.6041 74.4209 64.54 74.3759 64.4871 74.3191C64.4342 74.2624 64.3937 74.1952 64.3682 74.1217C64.3427 74.0483 64.3328 73.9703 64.3391 73.8928C64.3349 73.8128 64.3471 73.7327 64.3749 73.6576C64.4028 73.5825 64.4457 73.514 64.5011 73.4563C64.5564 73.3986 64.623 73.3529 64.6966 73.3222C64.7702 73.2915 64.8493 73.2763 64.929 73.2777L64.9283 73.2788ZM66.8955 72.9799H66.4747L66.2527 74.7929H66.6705L66.7779 73.9199C66.7762 73.734 66.8441 73.5542 66.9681 73.4162C67.0081 73.3758 67.0558 73.3438 67.1083 73.3222C67.1609 73.3006 67.2172 73.2898 67.2739 73.2905C67.4465 73.2905 67.539 73.3756 67.539 73.5359C67.539 73.5713 67.5311 73.6523 67.5225 73.7283L67.3945 74.7929H67.8145L67.9331 73.8217C67.9488 73.7106 67.9579 73.5988 67.9605 73.4866C67.967 73.4201 67.9597 73.353 67.939 73.2894C67.9183 73.2259 67.8847 73.1674 67.8403 73.1177C67.7798 73.0577 67.7079 73.0106 67.6288 72.9794C67.5497 72.9481 67.4652 72.9333 67.3802 72.9359C67.1904 72.9367 67.0086 73.013 66.8745 73.1482L66.8955 72.9799ZM70.381 72.9799H69.9598L69.9291 73.2152C69.8571 73.1236 69.7645 73.0506 69.659 73.002C69.5534 72.9534 69.4379 72.9308 69.322 72.9359C69.1923 72.9361 69.0641 72.9635 68.9455 73.0162C68.8269 73.069 68.7205 73.1459 68.633 73.2422C68.5456 73.3385 68.4789 73.452 68.4374 73.5755C68.3959 73.6991 68.3803 73.8299 68.3917 73.9598C68.3853 74.0797 68.4042 74.1997 68.447 74.3117C68.4899 74.4238 68.5557 74.5256 68.6403 74.6104C68.7916 74.7555 68.9927 74.8364 69.2018 74.8362C69.3068 74.8375 69.4109 74.8168 69.5075 74.7755C69.6042 74.7342 69.6913 74.6733 69.7633 74.5964L69.7405 74.7929H70.1612L70.381 72.9799ZM69.3747 73.2905C69.4436 73.2908 69.5117 73.3055 69.5746 73.3336C69.6375 73.3618 69.6939 73.4028 69.7402 73.4541C69.7865 73.5053 69.8217 73.5657 69.8435 73.6314C69.8653 73.6971 69.8733 73.7666 69.867 73.8356C69.8742 73.9968 69.8185 74.1544 69.7119 74.275C69.6053 74.3955 69.4561 74.4695 69.2961 74.4812C69.2282 74.4799 69.1613 74.4644 69.0997 74.4357C69.0381 74.407 68.983 74.3658 68.938 74.3146C68.893 74.2635 68.8591 74.2035 68.8383 74.1385C68.8175 74.0735 68.8104 74.0048 68.8173 73.9369C68.8109 73.8575 68.8203 73.7776 68.845 73.7018C68.8697 73.6261 68.9091 73.5561 68.961 73.4959C69.0129 73.4357 69.0762 73.3865 69.1473 73.3513C69.2183 73.316 69.2957 73.2953 69.3747 73.2905ZM71.5594 71.5456H71.1383L70.7396 74.7929H71.1607L71.5594 71.5456Z" fill="#1D1D1B"/>
<path d="M0.0194702 61.2705V62.5768H2.22323V68.6469H3.76664V62.5768H5.96067V61.2705H0.0194702Z" fill="#1D1D1B"/>
<path d="M8.06526 65.8595H9.94371L9.01721 62.9573L8.06526 65.8595ZM8.1667 61.2708H9.90066L12.4956 68.6468H10.8339L10.3499 67.1308H7.64824L7.14999 68.6468H5.54742L8.1667 61.2708Z" fill="#1D1D1B"/>
<path d="M18.0059 61.2708V62.5767H15.8108V68.6468H14.2685V62.5767H12.0643V61.2708H18.0059Z" fill="#1D1D1B"/>
<path d="M20.4242 62.5524V64.5337H22.0739C22.3255 64.5474 22.577 64.5063 22.8114 64.4133C22.9587 64.3355 23.0791 64.2148 23.1568 64.0668C23.2345 63.9189 23.2659 63.7508 23.2467 63.5847C23.2683 63.4098 23.2402 63.2325 23.1655 63.0731C23.0909 62.9137 22.9729 62.7788 22.8252 62.6842C22.6028 62.5844 22.3597 62.5399 22.1166 62.5543L20.4242 62.5524ZM23.5922 61.4607C23.8587 61.5753 24.0942 61.752 24.2795 61.976C24.4341 62.1623 24.5584 62.3719 24.6479 62.5972C24.7421 62.8445 24.7881 63.1076 24.7834 63.3723C24.7817 63.7333 24.6917 64.0883 24.5214 64.4061C24.3369 64.7517 24.0238 65.0099 23.6506 65.124C23.9501 65.2289 24.2042 65.4348 24.3698 65.7068C24.533 66.0681 24.6058 66.4641 24.5816 66.8603V67.3564C24.574 67.5855 24.5875 67.8147 24.6217 68.0412C24.6365 68.1277 24.6694 68.21 24.7183 68.2827C24.7673 68.3553 24.8311 68.4166 24.9054 68.4625V68.6473H23.2115C23.1651 68.4836 23.1314 68.3518 23.1116 68.2517C23.0717 68.0422 23.0501 67.8295 23.0472 67.6162L23.0371 66.931C23.0715 66.5982 22.9854 66.264 22.7945 65.9899C22.5434 65.804 22.2318 65.7202 21.9219 65.7554H20.4246V68.6473H18.9272V61.2709H22.4359C22.8297 61.2615 23.2219 61.3253 23.5926 61.4592" fill="#1D1D1B"/>
<path d="M28.288 65.8595H30.1664L29.2399 62.9573L28.288 65.8595ZM28.3894 61.2708H30.1237L32.7176 68.6468H31.0566L30.5726 67.1308H27.871L27.3735 68.6468H25.7701L28.3894 61.2708Z" fill="#1D1D1B"/>
<path d="M37.9711 65.3987V67.3664H39.7522C40.0062 67.3783 40.2597 67.3337 40.4945 67.2358C40.6572 67.1483 40.7901 67.0139 40.8761 66.8498C40.9621 66.6856 40.9973 66.4994 40.9771 66.315C40.9909 66.1506 40.9532 65.986 40.8694 65.8443C40.7855 65.7025 40.6597 65.5907 40.5095 65.5244C40.2761 65.4331 40.0268 65.3902 39.7765 65.3983L37.9711 65.3987ZM37.9711 62.5522V64.1782H39.7552C40.0255 64.1899 40.2937 64.1269 40.5308 63.996C40.6342 63.925 40.7165 63.8274 40.7693 63.7133C40.822 63.5992 40.8431 63.4729 40.8303 63.3477C40.846 63.2067 40.8162 63.0644 40.7452 62.9418C40.6742 62.8192 40.5658 62.7229 40.4361 62.6671C40.155 62.5827 39.8624 62.5439 39.5692 62.5522H37.9711ZM41.9537 62.0561C42.1832 62.3853 42.3013 62.7801 42.2906 63.182C42.3095 63.5732 42.189 63.9583 41.9507 64.2681C41.7935 64.4447 41.6025 64.5877 41.3892 64.6887C41.7361 64.8039 42.0345 65.0328 42.2367 65.3388C42.4345 65.6638 42.5336 66.0399 42.522 66.4208C42.5281 66.836 42.4147 67.2441 42.1956 67.5961C42.0499 67.8408 41.8546 68.052 41.6224 68.2158C41.3902 68.3795 41.1263 68.4923 40.8479 68.5466C40.5069 68.6162 40.1597 68.6497 39.8117 68.6468H36.5063V61.2708H40.0509C40.9451 61.2843 41.5789 61.5461 41.9522 62.0561" fill="#1D1D1B"/>
<path d="M45.6107 65.8595H47.4892L46.5627 62.9573L45.6107 65.8595ZM45.7122 61.2708H47.4461L50.0411 68.6468H48.3794L47.8953 67.1308H45.1937L44.6962 68.6468H43.0929L45.7122 61.2708Z" fill="#1D1D1B"/>
<path d="M50.9496 61.2708H52.5563L55.4679 66.4136V61.2708H56.896V68.6468H55.3635L52.3773 63.4136V68.6468H50.9496V61.2708Z" fill="#1D1D1B"/>
<path d="M58.177 61.2708H59.6845V64.3096L62.519 61.2708H64.4993L61.4892 64.3043L64.6539 68.6468H62.683L60.4227 65.4273L59.6845 66.1798V68.6468H58.177V61.2708Z" fill="#1D1D1B"/>
<path d="M68.5212 62.9574L69.4481 65.8596H67.5689L68.5212 62.9574ZM67.6703 61.2705L65.0499 68.6469H66.6532L67.1507 67.1309H69.8524L70.3368 68.6469H71.9989L69.4039 61.2705H67.6703Z" fill="#1D1D1B"/>
<path d="M57.2112 39.6931L56.7193 41.9982H52.8468L50.5899 52.7101H47.8676L50.1245 41.9982H46.2344L46.7259 39.6931H57.2112Z" fill="#1D1D1B"/>
<path d="M60.4115 41.9538L59.8054 44.8243H62.9843C63.4878 44.8389 63.987 44.728 64.4375 44.5017C64.6447 44.3826 64.8224 44.2178 64.9572 44.0197C65.0919 43.8216 65.1802 43.5954 65.2154 43.358C65.3377 42.7519 65.188 42.3516 64.7662 42.1571C64.2771 42.0061 63.7667 41.9374 63.2553 41.9538H60.4115ZM59.3487 46.9788L58.6199 50.4494H61.7988C62.2661 50.4674 62.7322 50.3893 63.1685 50.2198C63.4894 50.0723 63.7685 49.8464 63.9803 49.5625C64.192 49.2787 64.3296 48.946 64.3806 48.5949C64.5214 47.9173 64.3399 47.4523 63.8363 47.1998C63.4356 47.0352 63.0042 46.9598 62.5718 46.9788H59.3487ZM67.6737 41.0796C67.9618 41.7006 68.027 42.4027 67.8583 43.0666C67.7241 43.7943 67.3713 44.4632 66.8475 44.9832C66.5141 45.2926 66.1312 45.5432 65.7148 45.7244C65.9901 45.8201 66.2432 45.9713 66.4584 46.1688C66.6736 46.3663 66.8464 46.606 66.9662 46.873C67.1973 47.4825 67.2327 48.1495 67.0673 48.7802C66.9055 49.5468 66.555 50.2604 66.0479 50.8556C65.7229 51.2546 65.338 51.6001 64.9069 51.8796C64.4201 52.2004 63.8756 52.4224 63.304 52.5331C62.6864 52.6542 62.0585 52.7135 61.4293 52.7101H55.5637L58.3125 39.6931H64.6015C66.182 39.7167 67.2065 40.1789 67.6752 41.0796" fill="#1D1D1B"/>
<path d="M62.3165 12.1101V12.4068V12.7027H70.9567V56.9491H0.608649V12.7027H35.0029V12.1101H0.0183105V57.5412H71.5489V12.1101H62.3165Z" fill="#1D1D1B"/>
<path d="M12.1298 52.7094L32.5641 16.9458H22.8349L2.40063 52.7094H12.1298Z" fill="#1D1D1B"/>
<path d="M44.8118 0L14.6862 52.7093H24.4371L54.5391 0H44.8118Z" fill="#1D1D1B"/>
<path d="M36.722 52.7085L62.0713 8.34619H52.3448L26.9909 52.7085H36.722Z" fill="#1D1D1B"/>
</svg>
