<svg width="98" height="40" viewBox="0 0 98 40" fill="none" xmlns="http://www.w3.org/2000/svg">
<path d="M72.0024 0C71.9935 0.230274 71.9763 0.459897 71.9763 0.689521C71.9763 6.33535 71.9763 11.9812 71.9763 17.627V18.366H67.8558V6.50491L67.6784 6.46393C67.5094 6.96091 67.3283 7.45398 67.1733 7.95551C66.4117 10.4217 65.6543 12.8888 64.9012 15.3568C64.6423 16.2024 64.398 17.0565 64.1518 17.908C64.0555 18.243 63.9317 18.4551 63.5024 18.4284C62.6407 18.3796 61.7745 18.4141 60.8955 18.4141L57.196 6.38002L57.0684 6.40278V18.3757H52.9224V17.6843C52.9224 12.0193 52.9224 6.35443 52.9224 0.689521C52.9224 0.459897 52.9052 0.230274 52.8956 0H59.0011C59.0043 0.168039 59.0223 0.335449 59.0547 0.500228C59.2894 1.31378 59.532 2.12537 59.7825 2.93502C60.5054 5.2937 61.2317 7.65194 61.9614 10.0098C62.0947 10.4397 62.2535 10.8612 62.4009 11.2867L62.5284 11.2724L66.0117 0H72.0024Z" fill="#0032A0"/>
<path d="M4.97527 39.9999C4.11885 36.7774 3.26201 33.5547 2.40474 30.3317C1.6644 27.5485 0.926623 24.7646 0.191393 21.98C0.1674 21.8498 0.151423 21.7181 0.143555 21.5858C1.61827 21.5858 3.06427 21.578 4.509 21.6015C4.61999 21.6015 4.79412 21.8116 4.82793 21.9508C5.51872 24.9053 6.19229 27.8637 6.87415 30.8202C6.96041 31.2382 7.11111 31.6395 7.32065 32.0093L9.88034 21.6132H13.7444L16.2793 31.9911L16.4292 32.0113L18.86 21.5657H23.5048C22.779 24.3212 22.0805 26.9758 21.3802 29.6318C20.6492 32.3972 19.9184 35.1629 19.1879 37.9288C19.0061 38.6183 18.8294 39.3098 18.6508 39.9999H14.5813C14.5875 39.8882 14.5817 39.7761 14.5641 39.6656C13.7655 36.6855 12.9637 33.7064 12.1587 30.7285C12.0701 30.4032 11.9674 30.078 11.8398 29.6539C11.7574 29.7867 11.6857 29.9261 11.6255 30.0708C10.9143 32.6657 10.1999 35.2598 9.50593 37.8598C9.31776 38.5637 9.19465 39.2857 9.04157 39.9999H4.97527Z" fill="#0032A0"/>
<path d="M98 18.444C96.834 18.4349 95.6674 18.4167 94.5014 18.4219C94.3756 18.4345 94.249 18.4087 94.1376 18.3478C94.0261 18.2869 93.935 18.1936 93.8757 18.0798C92.3378 15.7029 90.7764 13.3422 89.2194 10.9783C88.6254 10.0463 87.9792 9.14998 87.2841 8.29376V18.3764H82.883V17.7324C82.883 12.0514 82.883 6.37048 82.883 0.689521C82.883 0.459897 82.8664 0.230274 82.8568 0.000650491H86.9263C87.2982 0.643336 87.6471 1.30163 88.047 1.92545C89.5706 4.30105 91.1038 6.67057 92.6465 9.03402C92.9164 9.45033 93.204 9.85559 93.4834 10.2654C93.5767 10.1444 93.6255 9.99386 93.6212 9.83998C93.6114 6.55977 93.6016 3.27978 93.5918 0H98V18.444Z" fill="#0032A0"/>
<path d="M44.7612 0C45.5797 2.18565 46.3972 4.37087 47.2137 6.55565C48.2279 9.25389 49.2442 11.9521 50.2626 14.6504C50.7244 15.8798 51.1722 17.1144 51.6417 18.39H46.8922C46.6466 17.6706 46.3819 16.9498 46.1593 16.2148C46.1508 16.1459 46.1289 16.0795 46.0951 16.0193C46.0612 15.959 46.016 15.9062 45.962 15.8639C45.9081 15.8216 45.8465 15.7906 45.7807 15.7726C45.7149 15.7547 45.6463 15.7502 45.5789 15.7594C43.8282 15.7755 42.0771 15.7755 40.3255 15.7594C40.1981 15.7388 40.0678 15.7697 39.9625 15.8457C39.8571 15.9216 39.7851 16.0366 39.7617 16.166C39.5888 16.7436 39.363 17.3063 39.2068 17.8885C39.1975 17.9718 39.1717 18.0524 39.1309 18.1252C39.0902 18.198 39.0353 18.2616 38.9696 18.3121C38.904 18.3626 38.829 18.399 38.7491 18.419C38.6692 18.439 38.5862 18.4422 38.5051 18.4284C37.1318 18.4004 35.7585 18.418 34.3062 18.418C34.6806 17.4169 35.0352 16.4665 35.3905 15.5194C36.3162 13.0476 37.2422 10.5772 38.1683 8.10837C39.1094 5.60225 40.053 3.09764 40.9991 0.594549C41.0595 0.399588 41.108 0.201032 41.1445 0L44.7612 0ZM41.1107 11.9762H44.8243L43.0549 6.11462L42.9101 6.09966L41.1107 11.9762Z" fill="#0032A0"/>
<path d="M16.0509 0C15.6682 1.17869 15.2695 2.35218 14.9066 3.53672C13.6632 7.58971 12.427 11.6444 11.1981 15.7009C10.957 16.4926 10.7414 17.2933 10.4786 18.0771C10.4405 18.16 10.3835 18.2324 10.3124 18.2883C10.2412 18.3442 10.1581 18.382 10.0697 18.3985C8.71431 18.4226 7.35824 18.4245 6.00281 18.3985C5.90773 18.3791 5.81859 18.3367 5.7429 18.2749C5.6672 18.2131 5.60715 18.1337 5.5678 18.0433C4.64547 15.0563 3.74992 12.0588 2.84035 9.06655C2.14892 6.7972 1.45005 4.52915 0.743734 2.26241C0.517935 1.53971 0.2494 0.830677 0 0.115787C0.0873333 0.0627982 0.182895 0.0254 0.282568 0.00520393C1.73304 0 3.18351 0 4.63462 0C4.79153 0.692773 4.92421 1.3927 5.1111 2.07702C5.85802 4.81559 6.62153 7.5496 7.37929 10.2849C7.57065 10.9764 7.76647 11.6666 7.95974 12.358L8.10134 12.3535L11.5291 0H16.0509Z" fill="#0032A0"/>
<path d="M25.2065 40.0001C25.2155 39.7705 25.2327 39.5408 25.2327 39.3112C25.2327 33.6645 25.2327 28.0178 25.2327 22.3711V21.6328H34.9727V25.5546H29.6275V28.5892H34.9759V32.5721H29.6262V35.9722H35.0403V39.9994L25.2065 40.0001Z" fill="#0032A0"/>
<path d="M35.4926 0V4.21778H32.096V18.3712H27.7382V4.25877H24.3021V0H35.4926Z" fill="#0032A0"/>
<path d="M37.9795 40C37.9884 39.7704 38.0056 39.5407 38.0056 39.3118C38.0056 33.6508 38.0056 27.99 38.0056 22.3294V21.6184H42.3335V35.9773H47.5862V40H37.9795Z" fill="#0032A0"/>
<path d="M49.3958 40C49.4047 39.7704 49.4219 39.5407 49.4219 39.3118C49.4219 33.6512 49.4219 27.9904 49.4219 22.3294V21.6184H53.6375V35.9773H58.8895V40H49.3958Z" fill="#0032A0"/>
<path d="M22.1545 0C22.1455 0.229623 22.1283 0.459247 22.1283 0.68887C22.1283 6.34944 22.1283 12.0102 22.1283 17.6712V18.3822H17.7737V17.7317C17.7737 12.0508 17.7737 6.37091 17.7737 0.692123C17.7737 0.462499 17.7565 0.232876 17.7476 0.00325246L22.1545 0Z" fill="#0032A0"/>
<path d="M79.6886 0C79.6797 0.229623 79.6624 0.459247 79.6624 0.68887C79.6624 6.34944 79.6624 12.0102 79.6624 17.6712V18.3822H75.3091V17.7317C75.3091 12.0508 75.3091 6.37091 75.3091 0.692123C75.3091 0.462499 75.2919 0.232876 75.283 0.00325246L79.6886 0Z" fill="#0032A0"/>
</svg>
