<svg xmlns="http://www.w3.org/2000/svg" viewBox="0 0 623.025 159.588"><path d="M159.383,50.265a15.831,15.831,0,0,0-5.668-8.388,16.249,16.249,0,0,0-10.091-3.047,17.415,17.415,0,0,0-9.634,2.719,18.288,18.288,0,0,0-6.651,7.962,30.758,30.758,0,0,0-2.391,12.811q0,11.4,5.242,17.53a17.261,17.261,0,0,0,13.695,6.094q7.569,0,12.057-4.227t4.621-11.4H145.1v-9.5h27.227v8.06a29.142,29.142,0,0,1-3.669,14.941,25.149,25.149,0,0,1-10.091,9.666,33.854,33.854,0,0,1-31-.786A28.719,28.719,0,0,1,116.625,80.8a40.311,40.311,0,0,1-3.9-18.349q0-10.812,4.03-18.545a29.027,29.027,0,0,1,10.976-11.861,30.192,30.192,0,0,1,15.727-4.128,31.119,31.119,0,0,1,13.467,2.85,26.824,26.824,0,0,1,9.928,7.9,24.681,24.681,0,0,1,4.915,11.6Z" transform="translate(78.822 11.21)"/><path d="M205.508,96.922a24.373,24.373,0,0,1-12.778-3.243,22.034,22.034,0,0,1-8.388-9.076,29.966,29.966,0,0,1-2.948-13.631,29.835,29.835,0,0,1,2.948-13.63,21.988,21.988,0,0,1,8.388-9.109,26.56,26.56,0,0,1,25.557,0,21.7,21.7,0,0,1,8.388,9.109,29.835,29.835,0,0,1,2.948,13.63A29.966,29.966,0,0,1,226.675,84.6a21.743,21.743,0,0,1-8.388,9.076A24.374,24.374,0,0,1,205.508,96.922Zm.066-9.5a10.132,10.132,0,0,0,6.684-2.2,13.01,13.01,0,0,0,4-5.93,26.645,26.645,0,0,0,0-16.711,13.233,13.233,0,0,0-4-6,10.04,10.04,0,0,0-6.684-2.228,10.35,10.35,0,0,0-6.782,2.228,13.464,13.464,0,0,0-4.03,6,26.645,26.645,0,0,0,0,16.711,13.237,13.237,0,0,0,4.03,5.93A10.446,10.446,0,0,0,205.574,87.42Z" transform="translate(78.822 11.21)"/><path d="M262.954,95.939H240.215v-67.1h23.2a34.533,34.533,0,0,1,17.168,4.03,26.948,26.948,0,0,1,11.076,11.5q3.865,7.5,3.866,17.955,0,10.485-3.9,18.021A26.948,26.948,0,0,1,280.45,91.909Q273.178,95.94,262.954,95.939ZM252.371,85.422h9.993q21.1,0,21.1-23.1,0-22.968-20.74-22.968H252.371Z" transform="translate(78.822 11.21)"/><path d="M328.828,96.922a25.7,25.7,0,0,1-13.073-3.178,21.3,21.3,0,0,1-8.42-8.977,29.865,29.865,0,0,1-2.95-13.7,29.966,29.966,0,0,1,2.95-13.631,22.072,22.072,0,0,1,8.289-9.174,23.507,23.507,0,0,1,12.582-3.309,24.691,24.691,0,0,1,11.435,2.687,19.771,19.771,0,0,1,8.387,8.289q3.178,5.6,3.179,14.45v3.636H316.148q.1,6.456,3.572,10.059a12.346,12.346,0,0,0,9.273,3.605,12.825,12.825,0,0,0,6.618-1.639,9.317,9.317,0,0,0,4.03-4.849l11.074,1.245a17.322,17.322,0,0,1-7.339,10.518Q337.642,96.923,328.828,96.922Zm-12.647-30.9h23.657a11.935,11.935,0,0,0-3.212-8.486A10.809,10.809,0,0,0,328.37,54.2a11.31,11.31,0,0,0-8.618,3.5A12.787,12.787,0,0,0,316.181,66.025Z" transform="translate(78.822 11.21)"/><path d="M373.1,28.836v67.1h-11.86v-67.1Z" transform="translate(78.822 11.21)"/><path d="M385.3,95.939V45.612h11.86V95.939Zm5.963-57.47A6.965,6.965,0,0,1,386.38,36.6a6.066,6.066,0,0,1-2-4.555,6,6,0,0,1,2-4.554,6.9,6.9,0,0,1,4.883-1.9,6.738,6.738,0,0,1,4.816,1.9,5.951,5.951,0,0,1,2.032,4.554,6.019,6.019,0,0,1-2.032,4.555A6.8,6.8,0,0,1,391.263,38.469Z" transform="translate(78.822 11.21)"/><path d="M454.311,45.612,436.388,95.939H423.282L405.36,45.612h12.647L429.574,83h.524l11.6-37.385Z" transform="translate(78.822 11.21)"/><path d="M483.087,96.922a25.708,25.708,0,0,1-13.074-3.178,21.308,21.308,0,0,1-8.42-8.977,29.865,29.865,0,0,1-2.949-13.7,29.966,29.966,0,0,1,2.949-13.631,22.079,22.079,0,0,1,8.289-9.174,23.513,23.513,0,0,1,12.583-3.309A24.7,24.7,0,0,1,493.9,47.644a19.782,19.782,0,0,1,8.387,8.289q3.179,5.6,3.178,14.45v3.636H470.407q.1,6.456,3.571,10.059a12.348,12.348,0,0,0,9.272,3.605,12.83,12.83,0,0,0,6.62-1.639,9.322,9.322,0,0,0,4.03-4.849l11.074,1.245a17.328,17.328,0,0,1-7.34,10.518Q491.9,96.923,483.087,96.922Zm-12.647-30.9H494.1a11.929,11.929,0,0,0-3.21-8.486,10.815,10.815,0,0,0-8.257-3.342,11.309,11.309,0,0,0-8.617,3.5A12.777,12.777,0,0,0,470.44,66.025Z" transform="translate(78.822 11.21)"/><path d="M515.5,95.939V45.612H527V54h.524a12.564,12.564,0,0,1,4.718-6.75,13.119,13.119,0,0,1,7.7-2.359q.982,0,2.2.1a14.741,14.741,0,0,1,2.064.229V56.13a12.442,12.442,0,0,0-2.392-.459,21.988,21.988,0,0,0-3.112-.229,11.334,11.334,0,0,0-8.126,3.08,10.313,10.313,0,0,0-3.211,7.83V95.939Z" transform="translate(78.822 11.21)"/><path d="M-9.123-9.4Q57.949,29.155,57.95,31.351V54.967" transform="translate(78.822 11.21)" style="fill:none;stroke:#000;stroke-linecap:round;stroke-width:3.614039897918701px"/><path d="M-34.607,7.073C-9.477,22.451,2.348,29.408,3.087,30.14c1.109,1.1,13.858-8.413,15.521-7.689s26.608,14.28,26.608,16.477V77.372c0,1.1,12.2-8.787,12.2-7.689v38.445" transform="translate(78.822 11.21)" style="fill:none;stroke:#000;stroke-linecap:round;stroke-width:3.614039897918701px"/><path d="M45.763,91.651v23.068" transform="translate(78.822 11.21)" style="fill:none;stroke:#000;stroke-linecap:round;stroke-width:3.614039897918701px"/><path d="M-20.195,31.239Q19.194,53.654,19.194,54.505V93.123" transform="translate(78.822 11.21)" style="fill:none;stroke:#000;stroke-linecap:round;stroke-width:3.614039897918701px"/><path d="M-33.451,22.742l-13.318-7.611" transform="translate(78.822 11.21)" style="fill:none;stroke:#000;stroke-linecap:round;stroke-width:3.614039897918701px"/><path d="M-21.309,47.715Q4.7,62.072,4.7,62.621V101.26c0,1.453,13.858,6.9,13.858,8.043v21.969" transform="translate(78.822 11.21)" style="fill:none;stroke:#000;stroke-linecap:round;stroke-width:3.614039897918701px"/><path d="M4.743,116.366v21.968" transform="translate(78.822 11.21)" style="fill:none;stroke:#000;stroke-linecap:round;stroke-width:3.614039897918701px"/><path d="M-62.338,23.55q27.162,15.378,28.27,15.927c.74.366-13.858,7.14-13.042,7.612.636.367,37.987,21.376,37.987,22.108V83.963" transform="translate(78.822 11.21)" style="fill:none;stroke:#000;stroke-linecap:round;stroke-width:3.614039897918701px"/><path d="M-21.3,76.273v24.165q0,.549-13.3,7.14v25.263" transform="translate(78.822 11.21)" style="fill:none;stroke:#000;stroke-linecap:round;stroke-width:3.614039897918701px"/><path d="M-9.659,100.438v46.134" transform="translate(78.822 11.21)" style="fill:none;stroke:#000;stroke-linecap:round;stroke-width:3.614039897918701px"/><path d="M-76.74,32.337l19.4,10.71" transform="translate(78.822 11.21)" style="fill:none;stroke:#000;stroke-linecap:round;stroke-linejoin:round;stroke-width:3.614039897918701px"/><path d="M-21.309,139.433V116.366" transform="translate(78.822 11.21)" style="fill:none;stroke:#000;stroke-linecap:round;stroke-width:3.614039897918701px"/><path d="M-76.74,45.518-34.611,69.2" transform="translate(78.822 11.21)" style="fill:none;stroke:#000;stroke-linecap:round;stroke-width:3.614039897918701px"/><path d="M-76.74,60.9q42.683,21.969,42.683,23.067V92.75" transform="translate(78.822 11.21)" style="fill:none;stroke:#000;stroke-linecap:round;stroke-width:3.614039897918701px"/><path d="M-76.74,75.175q29.379,15.2,29.379,16.476v32.4" transform="translate(78.822 11.21)" style="fill:none;stroke:#000;stroke-linecap:round;stroke-width:3.614039897918701px"/><path d="M-76.74,91.651q14.412,7.14,14.413,8.788v14.28" transform="translate(78.822 11.21)" style="fill:none;stroke:#000;stroke-linecap:round;stroke-width:3.614039897918701px"/><path d="M18.6,38.927q13.859,6.591,13.858,8.238v8.541" transform="translate(78.822 11.21)" style="fill:none;stroke:#000;stroke-linecap:round;stroke-width:3.614039897918701px"/><path d="M32.454,69.958v53.548" transform="translate(78.822 11.21)" style="fill:none;stroke:#000;stroke-linecap:round;stroke-width:3.614039897918701px"/><path d="M-20.761-.066l25.5,15.378" transform="translate(78.822 11.21)" style="fill:none;stroke:#000;stroke-linecap:round;stroke-width:3.614039897918701px"/><path d="M-76.673,105.4h0l1.127.019a1.648,1.648,0,0,1,1.62,1.676l-.019,1.1a1.649,1.649,0,0,1-1.678,1.618l-1.127-.018a1.649,1.649,0,0,1-1.62-1.677l.02-1.1A1.648,1.648,0,0,1-76.673,105.4Z" transform="translate(78.822 11.21)" style="stroke:#000;stroke-width:0.9035099744796753px;fill-rule:evenodd"/></svg>