<svg xmlns="http://www.w3.org/2000/svg" viewBox="0 0 627.848 155"><path d="M263.96,249.554a6.06,6.06,0,0,0-2.922-5.419c-4.5-3.2-9.725-4.438-15.063-5.732-.718-6.571.475-13.132-.738-19.522-9.382-.9-18,.607-27.245,1.739V199.612a20.2,20.2,0,0,0-12.91,1.83,46.452,46.452,0,0,0-12.415,9.059c-7.744,7.693-13.688,16.7-19.056,26.113-1.315,2.294-2.75,3.76-5.6,2.5V353.48c3.3.89,3.306.89,6.217-.424a104.342,104.342,0,0,1,33.3-9.059c17.631-1.658,34.262,1.931,50.275,9.119,1.749.789,3.508,1.668,5.449.708.849-1.051.647-2.254.647-3.387Q263.914,299.986,263.96,249.554Zm-91.472,93.008v-4.408q0-41.716-.03-83.454a24.237,24.237,0,0,1,3.094-12.172c6.45-11.475,13.334-22.615,23.373-31.421,5.115-4.478,9.786-6.753,14.426-6.976v99.135C192.516,308.745,183.387,325.922,172.488,342.562Zm45.635-35.151V225.857a85.691,85.691,0,0,1,22.787-2.548V322.4c-23.4-4.175-42.986,4.519-61.213,18.117C189.26,325.871,197.793,310.141,218.123,307.411Zm40.964,41.126c-24.445-10.767-49.244-12.829-75.235-4.246,11.413-10.029,33.139-23.111,59.909-16.59,2.446-.91,1.992-3.023,1.992-4.9q.03-37.32.03-74.619c0-1.517-.344-3.094.526-4.812a26.665,26.665,0,0,1,12.778,5.125Z" transform="translate(-76.875 -199.244)" style="fill:#4369bb"/><path d="M390.241,280.986v11.8h27.747c.8,3.386.385,6.423.352,9.725H378.459V250.947H417.1c.733,3.112.367,6.119.257,9.453H390.421c-.648,3.714-.339,7.125-.237,11.019h23.6c.779,3.323.227,6.223.424,9.567Z" transform="translate(-76.875 -199.244)" style="fill:#4369bb"/><path d="M447.969,267.483,459.655,250.8h12.927l-17.955,25.043,19.143,26.729H459.986c-3.931-5.589-8.054-11.449-12.475-17.733L435.3,302.588H421.547l19-26.282-17.939-25.282h13.585Z" transform="translate(-76.875 -199.244)" style="fill:#4369bb"/><path d="M361.954,250.887h11.938c-7.517,17.421-14.867,34.454-22.293,51.661H339.565l-22.174-51.46h12.981l15.646,36.632C351.515,275.014,356.739,262.942,361.954,250.887Z" transform="translate(-76.875 -199.244)" style="fill:#4369bb"/><path d="M616.627,302.091a7.77,7.77,0,0,1-5.44.371V251.206c1.286-.879,2.668-.486,4.347-.215l33.154,41.754V251.4a6.167,6.167,0,0,1,5.337-.237v51.052c-2.767,1.39-4.648.35-6.472-1.984-10.066-12.879-20.232-25.681-30.926-39.222Z" transform="translate(-76.875 -199.244)" style="fill:#4469bc"/><path d="M563.921,285.089c9.159-4.559,12.637-10.534,11.515-19.249-.94-7.3-6.106-12.849-14.143-14.355-8.513-1.587-17.156-.617-25.942-.758V302.7c1.82-.041,3.337.445,5.177-.566V286.353h18.116c3.791,5.287,7.8,10.9,11.646,16.256h5.965C571.958,296.513,567.955,290.821,563.921,285.089Zm-5.9-3.821c-5.611.384-11.272.07-17.338.07v-25.6c6.551.01,13.082-.809,19.491.546,6.915,1.466,10.413,6.622,9.857,13.557C569.512,276.132,564.932,280.792,558.017,281.268Z" transform="translate(-76.875 -199.244)" style="fill:#4369bc"/><path d="M508.783,251.454c-8.5-1.536-17.135-.647-25.88-.687v51.741a9.144,9.144,0,0,0,5.267-.213V286.029c6.389,0,12.3.283,18.187-.06,9.321-.557,16.085-6.976,16.59-15.215C523.574,260.24,518.671,253.244,508.783,251.454Zm8.715,18.3c-.253,6.44-5.156,10.948-12.647,11.585-1.153.1-2.315.061-3.478.061H488.3V255.9c6.217,0,12.272-.435,18.237.111C513.879,256.691,517.8,262.049,517.5,269.753Z" transform="translate(-76.875 -199.244)" style="fill:#4369bb"/><path d="M300.217,302.477v-51.5h11.726v51.5Z" transform="translate(-76.875 -199.244)" style="fill:#4469bc"/><path d="M95.407,219.2a3.955,3.955,0,0,1,3.766-.257V326.991c-2.55,1.482-4.073.832-4.414-2.195a34.71,34.71,0,0,1-.123-3.86q-.009-48.318.005-96.638C94.642,222.647,94.343,220.933,95.407,219.2Z" transform="translate(-76.875 -199.244)" style="fill:#4a6ebe"/><path d="M686.834,302.216a9.17,9.17,0,0,1-5.773.217V255.681H663.425a7.334,7.334,0,0,1-.241-4.757H704.3c.638,1.486.444,2.864.115,4.654H686.834Z" transform="translate(-76.875 -199.244)" style="fill:#476cbd"/><path d="M76.875,246.511c1-1.087,1.977-2.448,4-2.881V353.589c-1.227.85-2.439.765-4,.122Z" transform="translate(-76.875 -199.244)" style="fill:#4369bb"/><path d="M126.629,307.9a3.543,3.543,0,0,1-4.217-1.115V200.2c1.265-1.248,2.632-1.039,4.217-.657Z" transform="translate(-76.875 -199.244)" style="fill:#4369bb"/><path d="M593.8,302.455a8.832,8.832,0,0,1-4.994-.023V251.18c1.522-.923,3.149-.293,4.994-.457Z" transform="translate(-76.875 -199.244)" style="fill:#4369bb"/><path d="M160.816,340.157c-2.79-3.14-2.309-6.91-1.958-11.015,7.085,6.45,3.521,14.569,4.6,21.944-1.966.492-3.145-.619-4.636-1.239v-9.268C159.219,339.79,160.163,341.005,160.816,340.157Z" transform="translate(-76.875 -199.244)" style="fill:#486dbd"/><path d="M163.043,238.533c-4.6-5.843-4.877-6.8-4.068-13.758C163.327,228.368,164,233.023,163.043,238.533Z" transform="translate(-76.875 -199.244)" style="fill:#4b70be"/><path d="M149.762,213.1c4.654,3.818,4.973,4.695,4.008,11.03C150.047,221.292,148.689,217.8,149.762,213.1Z" transform="translate(-76.875 -199.244)" style="fill:#4e72bf"/><path d="M150.165,318.008c4.072,2.538,4.618,6.326,3.793,10.616C149.764,325.774,148.357,322.563,150.165,318.008Z" transform="translate(-76.875 -199.244)" style="fill:#5073c0"/><path d="M140.672,314.99v-5.277c2.046.41,3.061,1.925,4.454,3.024V318.3C143.018,317.764,142.08,316.03,140.672,314.99Z" transform="translate(-76.875 -199.244)" style="fill:#5073c0"/><path d="M140.674,210.484v-5.415a8.766,8.766,0,0,1,4.377,3.125v5.852Z" transform="translate(-76.875 -199.244)" style="fill:#5073c0"/><path d="M154.088,341.425a11.457,11.457,0,0,1-4.328-2.893,6.683,6.683,0,0,1,.162-4.538c1.744-.008,2.63,1.428,3.81,1.917C154.5,337.783,154.125,339.406,154.088,341.425Z" transform="translate(-76.875 -199.244)" style="fill:#5073c0"/><path d="M99.5,346.7c-1.723.8-2.953,1.518-4.42,1.16-.815-1.411-.386-2.77-.228-4.34l3.856-1.112C100.031,343.883,99.226,345.284,99.5,346.7Z" transform="translate(-76.875 -199.244)" style="fill:#5174c0"/><path d="M131.673,304.6l4.216,1.74v5.042l-4.077-1.709A8.492,8.492,0,0,1,131.673,304.6Z" transform="translate(-76.875 -199.244)" style="fill:#4f72c0"/><path d="M131.577,204.789v-4.465a6.7,6.7,0,0,1,4.089,1.479c.627,1.445.354,2.952.219,4.633C134.2,206.567,133.114,205.371,131.577,204.789Z" transform="translate(-76.875 -199.244)" style="fill:#4c70bf"/><path d="M144.862,335.3c-1.72-.1-2.741-1.339-4.027-1.832A7.278,7.278,0,0,1,141,328.64l3.733,1.741A6.592,6.592,0,0,1,144.862,335.3Z" transform="translate(-76.875 -199.244)" style="fill:#4e72bf"/><path d="M86.02,351.438a8.454,8.454,0,0,1-.182-4.395,5.806,5.806,0,0,1,3.932-1.512c.878,1.359.38,2.641.529,3.858C89.212,350.694,87.763,351.044,86.02,351.438Z" transform="translate(-76.875 -199.244)" style="fill:#5073c0"/><path d="M89.855,239.778a5.717,5.717,0,0,1,.241,4.083,8.214,8.214,0,0,1-3.98,1.546c-.91-1.443-.3-2.923-.352-4.344A6.335,6.335,0,0,1,89.855,239.778Z" transform="translate(-76.875 -199.244)" style="fill:#5174c1"/><path d="M153.808,347.847a6.075,6.075,0,0,1-3.974-.975,5.589,5.589,0,0,1-.019-4.059c1.541-.684,2.7.333,4,.73A6.028,6.028,0,0,1,153.808,347.847Z" transform="translate(-76.875 -199.244)" style="fill:#5073c0"/><path d="M131.627,329.286a8.13,8.13,0,0,1,.048-4.335,6.8,6.8,0,0,1,4.126,1.61,7.133,7.133,0,0,1-.076,4.1C134.246,330.739,133.06,330.046,131.627,329.286Z" transform="translate(-76.875 -199.244)" style="fill:#4e71bf"/><path d="M112.886,219.834a6.946,6.946,0,0,1,4.172.176c.926,1.536.448,2.984.329,4.634l-3.951-.594C112.458,222.734,113.169,221.342,112.886,219.834Z" transform="translate(-76.875 -199.244)" style="fill:#4a6fbe"/><path d="M140.972,340.333l3.875.836a5.588,5.588,0,0,1,.037,4.165,4.188,4.188,0,0,1-3.994-.591A5.991,5.991,0,0,1,140.972,340.333Z" transform="translate(-76.875 -199.244)" style="fill:#5174c0"/><path d="M103.839,341.26l4.1-.878c.846,1.515.406,2.87.405,4.09a4.428,4.428,0,0,1-4.122.967C103.37,344.118,103.916,342.76,103.839,341.26Z" transform="translate(-76.875 -199.244)" style="fill:#4c70bf"/><path d="M103.94,326.067v-3.875c1.334-.915,2.676-.652,4.067-.428a5.006,5.006,0,0,1,.093,4.012C106.88,326.468,105.634,326.284,103.94,326.067Z" transform="translate(-76.875 -199.244)" style="fill:#4c70bf"/><path d="M113.4,321.629a7.24,7.24,0,0,1,3.841.268c.671,1.235.2,2.5.316,3.73-1.379.972-2.718.407-4.182.23A4.672,4.672,0,0,1,113.4,321.629Z" transform="translate(-76.875 -199.244)" style="fill:#4a6fbe"/><path d="M126.655,327.973l-4.18-1.168a6.845,6.845,0,0,1,.005-4.174c1.538-.547,2.677.649,4,.592C127.085,324.8,126.79,326.156,126.655,327.973Z" transform="translate(-76.875 -199.244)" style="fill:#486dbd"/><path d="M122.221,339.169a6.453,6.453,0,0,1,4.2-.048c.786,1.35.29,2.684.294,3.931a6.359,6.359,0,0,1-4,.315C121.732,342.087,122.362,340.694,122.221,339.169Z" transform="translate(-76.875 -199.244)" style="fill:#4c70bf"/><path d="M104,219.008a6.053,6.053,0,0,1,3.994.074c.8,1.332.328,2.662.3,4.162h-3.948C103.412,221.95,103.761,220.594,104,219.008Z" transform="translate(-76.875 -199.244)" style="fill:#4c70bf"/><path d="M117.142,343.985h-3.671c-1.012-1.278-.341-2.661-.456-3.944a5.29,5.29,0,0,1,4.2-.455A5.786,5.786,0,0,1,117.142,343.985Z" transform="translate(-76.875 -199.244)" style="fill:#476cbd"/><path d="M135.791,339.8c.249,1.5.458,2.736-.117,3.951-1.253.64-2.484.163-3.641.208-1.077-1.384-.446-2.769-.6-4.084C132.915,339.067,134.226,339.329,135.791,339.8Z" transform="translate(-76.875 -199.244)" style="fill:#4a6ebe"/></svg>