<svg xmlns="http://www.w3.org/2000/svg" viewBox="0 0 291.15 330"><path d="M278.747,305.33c.394.586.192,1.1.2,1.725-4.055,2.618-8.355,4.928-12.794,7.44V280.9c.639-.064.99.362,1.469.692v29.921C271.488,309.365,275.107,307.353,278.747,305.33Z" transform="translate(-211.721 -119.431)" style="fill:#101010"/><path d="M315.129,313.154a4.279,4.279,0,0,1,.095,2.065c-7.291-4.162-14.422-8.228-21.735-12.4,3.183-1.745,6.131-3.363,9.271-5.087-3.087-1.672-5.95-3.226-9.324-5.056,7.462-4.247,14.54-8.282,21.661-12.337a3.07,3.07,0,0,1,.1,1.9c-6.068,3.4-12.188,6.834-18.415,10.325,2.587,1.469,5.014,2.842,7.5,4.247q5.349-3.1,10.8-6.237a1.623,1.623,0,0,1-.756,2.331c-2.767,1.564-5.5,3.182-8.44,4.885,1.554.863,3,1.661,4.438,2.47,1.32.745,2.608,1.533,3.928,2.256a1.619,1.619,0,0,1,.862,2.289c-3.64-2.022-7.27-4.034-10.931-6.067-2.449,1.362-4.843,2.693-7.515,4.172C302.984,306.416,309.061,309.79,315.129,313.154Z" transform="translate(-211.721 -119.431)" style="fill:#101010"/><path d="M351.627,313.165a3.278,3.278,0,0,1,0,2l-21.65-12.348,9.271-5.087c-3.1-1.682-5.982-3.236-9.335-5.056,7.451-4.247,14.508-8.26,21.651-12.326.34.6.17,1.149.2,1.841q-9.182,5.157-18.51,10.389c2.639,1.479,5.119,2.874,7.525,4.226,3.651-2.108,7.164-4.141,10.783-6.227.415,1.053.266,1.745-.682,2.278-2.309,1.309-4.609,2.661-6.908,3.991l-1.586.916c2.864,1.639,5.557,3.193,8.281,4.715a1.686,1.686,0,0,1,.948,2.331c-3.63-2.012-7.228-4.013-10.942-6.067-2.47,1.373-4.843,2.682-7.515,4.162C339.461,306.416,345.571,309.8,351.627,313.165Z" transform="translate(-211.721 -119.431)" style="fill:#101010"/><path d="M371.713,281.828V313.25a2.156,2.156,0,0,0,1.586-.894V299.327c4.023,2.267,7.855,4.439,11.7,6.61,4.779-2.725,9.473-5.407,14.433-8.228C390.117,292.377,381.048,287.172,371.713,281.828Zm1.554,15.285V284.841c7.6,4.268,15.04,8.451,22.821,12.815-3.832,2.161-7.355,4.151-10.974,6.195A135.137,135.137,0,0,1,373.267,297.113Z" transform="translate(-211.721 -119.431)" style="fill:#101010"/><path d="M429.947,281.573c-5.631,9.984-11.091,19.67-16.637,29.5h33.55C441.134,301.179,435.865,291.323,429.947,281.573Zm.106,3.182c4.7,8.367,9.3,16.52,14.029,24.918H416C420.708,301.318,425.327,293.132,430.053,284.755Z" transform="translate(-211.721 -119.431)" style="fill:#101010"/><path d="M502.327,332.665a2.722,2.722,0,0,0,.436-2.321c-2.171-.362-4.034.852-6.184,1.171-.021-2.161.852-4.023,1.214-5.961.372-1.979,1.277-3.874,1.362-5.939.16-.351.405-.639.543-.99.011-.213.011-.415.011-.628-.224-.224-.277-.436.063-.607a5.571,5.571,0,0,0,.884-3.7c-1.033-.585-1.033-.585-3.715.277-.436.2-.862.426-1.256-.075a4.941,4.941,0,0,0,.256-2.192,2.745,2.745,0,0,1-.064-1.618c-.022.191,0,.308.117.394a45.189,45.189,0,0,0,1.522-9.154c-.075-.415-.436-.841.053-1.224,1.011-.671.49-1.672.575-2.544-.394-.277-.245-1-.841-1.075.277-.054.511.3.841.138-.532-1.586-1.544-.735-2.374-.415-1.171.447-2.139,1.447-3.534,1.352-.362-5.759-.191-11.517-.074-17.276-.49-1.3-1.288-.585-2.033-.34-1.171.383-2.14,1.351-3.491,1.245-.32-1.543-.639-2.97-.916-4.417-.479-2.449-.873-4.907-1.394-7.345a33.69,33.69,0,0,0-1.544-6.471c-.117.095-.255.266-.159.361.138.128-.224.181-.117,0a1.764,1.764,0,0,1,.223-1.287c-.489-1.555-.085-3.46-1.682-4.631a14.2,14.2,0,0,0-3.6,2.6c-.543.532-1.373.894-1.512-.118-.223-1.639-.915-3.14-1.086-4.768a4.554,4.554,0,0,0-.542-1c-.1-.606-.054-1.213-.171-1.83-.4-2.076-1.139-4.067-1.532-6.153a16.13,16.13,0,0,0-1.459-5.2c-.553-.138-.149-.394-.063-.6a1.475,1.475,0,0,0-.831-.862c-2.224.937-3.576,3.129-5.971,3.789-2.714-6.876-5.343-13.55-7.983-20.224-.16-.351-.394-.649-.543-1-.383-1.49-1.128-1.81-2.1-.788a41.3,41.3,0,0,0-2.672,3.236c-.436.543-.787,1.171-1.628,1.086-.8-.682-.809-1.82-1.49-2.565a.393.393,0,0,0-.192.361c0,.011-.085.064-.085.075a1.52,1.52,0,0,1,.223-.724c-1.575-3.64-3.139-7.291-4.949-10.836-.852-1.671-1.533-3.427-2.363-5.1-.607-1.214-1.437-1.224-2.2-.1a14.6,14.6,0,0,0-.788,1.309c-.617,1.16-1.224,2.321-2.022,3.843-4.5-6.461-8.271-13.018-12.656-19.011-1.639.33-1.171,2.406-2.683,2.608-1.4-2.735-2.735-5.418-4.13-8.079-1.788-3.4-3.587-6.78-5.428-10.154a1.173,1.173,0,0,0-2.182.021c-.713,1.15-1.288,2.4-1.959,3.683a7.062,7.062,0,0,1-.745-.894q-3.48-6.227-6.929-12.464c-.277-.49-.522-1.1-1.245-1.107-.671,0-.958.468-1.256.989a13.06,13.06,0,0,1-1.054,1.406c-2.321-5.174-4.237-10.315-6.876-15.158-1.725.6-2.438,2.055-3.8,2.693-.139-.128-.362-.223-.426-.394-1.309-3.406-2.512-6.865-3.938-10.229-.682-1.618-.895-3.459-2.14-4.832a3.652,3.652,0,0,1-1.256-.234c-1.128.543-1.33,2.129-2.767,2.576a4.355,4.355,0,0,0-.128-1.065c-1.554-3.853-3.108-7.695-4.7-11.527-.34-.831-.756-1.682-1.873-1.586-1.128.149-.915,1.98-2.342,1.809-2.8-3.48-4.534-7.706-7.6-11.442-2.991,3.832-4.864,8.015-7.738,11.676-.894-.8-1.65-1.479-2.363-2.128-1.543.021-1.5,1.394-1.873,2.192-1.182,2.534-2.193,5.163-3.162,7.792-.372,1.032-1.16,1.969-1.021,3.172-.192.34-.277.745-.639.968-.82-.1-1.15-.873-1.437-1.383a1.984,1.984,0,0,0-2.555-1.022q-3.081,7.791-6.227,15.764c-.574-.415-.979-.713-1.383-1-.394.16-.618.053-.618-.394a4.282,4.282,0,0,0-1.713-1.479c-3.076,4.694-4.386,10.208-7.1,15.125a9.267,9.267,0,0,1-1.767-2.193,1.172,1.172,0,0,0-1.6.671c-1.426,2.6-2.788,5.216-4.215,7.813-1.1,1.99-2.245,3.959-3.395,5.971-1.341-1.479-1.65-3.534-3.353-4.641a5.853,5.853,0,0,0-2.054,2.927c-.171.33-.383.639-.564.98-2.779,5.13-5.152,10.484-8.175,15.561-.979-.979-.99-2.395-2.533-3.044-4.3,6.025-7.973,12.592-12.411,18.67-1.384-1.235-1.821-2.959-2.768-4.353-.362-.533-.585-1.2-1.309-1.225-.809-.031-1.128.746-1.341,1.267-1.98,4.843-4.364,9.5-6.536,14.242-.681,1.5-1.107,3.151-2.32,4.524-.49-.575-.926-1.086-1.352-1.6-.926-1.075-1.788-2.214-2.789-3.2-.585-.564-1.426-.926-1.905.256-1.054,2.6-2.108,5.194-3.13,7.812-1.809,4.652-3.587,9.314-5.385,13.976-.309.405-.618.213-.927,0a33,33,0,0,0-4.066-3.14,1.563,1.563,0,0,1-.34-.309c-.468-.351-.7.064-1,.3-.149.043-.4.054-.425.128-1.108,4.109-2.214,8.207-3.279,12.326-.692,2.672-1.32,5.365-2.012,8.2-1.447-.968-2.714-1.809-3.98-2.65a1.554,1.554,0,0,1-1.267-.085c-.458,0-.554.234-.639.67-.351,2-.894,3.981-1.149,6-.32,2.534-1.192,4.961-1.3,7.526a1.506,1.506,0,0,1,.107.756,1.075,1.075,0,0,0-.16-.469c-1.065,2.853-1.1,5.95-1.959,8.941-1.756-.266-3.033-1.469-4.64-1.7-.2.383-.267.99-.958.607-.586.8-.256,1.7-.256,2.555-.043,4.906-.021,9.824-.021,14.944-1.863-.394-3.1-1.831-5.248-2.1a22.4,22.4,0,0,0,.809,9.175c.2-.127.149-.394.309-.6-.149.415.149.884-.245,1.214a6.758,6.758,0,0,0,.564,3.8.99.99,0,0,0,.16-.469,2.319,2.319,0,0,1-.1,1.065c-.319,1.362.66,2.693.181,4.055-.979.341-1.8-.426-2.725-.277a1.622,1.622,0,0,0-1.628,0c-.543.33-.224.831-.224,1.267a6.957,6.957,0,0,0,.553,1.6c.022.415.043.819.064,1.224.171.351.405.649.554,1,.362,3.2,1.554,6.206,2.32,9.314.288,1.139.405,2.32.618,3.629-2.193-.521-3.971-1.628-6.621-1.17,2.406,5.9,5.758,11.07,8.388,16.519-1.257,1.395-3.662.2-4.748,2.278q4.472,6.563,9.027,13.263c-1.98.521-3.95-.49-5.738,1.341,3.5,4.428,8.069,7.919,11.794,12.251-1.288,1.32-3.151,1.586-4.162,3.14,2.086,2.278,4.758,3.534,7.1,5.2a52.921,52.921,0,0,1,6.9,5.514c-1.479,1.384-3.906.915-5.247,3.055,5.375,3.417,11.272,5.726,16.828,8.952-1.054.681-1.873,1.192-2.682,1.735a1.213,1.213,0,0,0-.7,1.287,1.3,1.3,0,0,0,1.182,1.054c1.607.277,3.161.82,4.758,1.15,2.565.532,5.056,1.458,7.568,2.214.362,1.469-1.8,2.246-1.022,4,4.172.724,8.366,1.682,12.656,2.1,1.309.958,3.065.33,4.481,1.192a26.729,26.729,0,0,1-1.959,3.853c.277.383.564.788.809,1.118,3.64.479,7.2,1.245,10.825,1.022,2.619-.171,5.237,0,7.856,0a24.974,24.974,0,0,0,8.824-.894.943.943,0,0,0-.2-.213c.245-.171.362.021.511.159a8.175,8.175,0,0,0,1.7-.064,102.326,102.326,0,0,0,10.1-2.937,60.686,60.686,0,0,0,14.784-7.685,71.87,71.87,0,0,0,13.667-12.379,86.407,86.407,0,0,0,10.357-14.53c.309-.575.543-.394.979-.308v32.581q0,15.487-.01,30.975c0,.915-.043,1.809,1.085,2.033,1.107-.437,1.118-1.3,1.107-2.246q-.015-30.9.011-61.789c0-.543-.287-1.214.341-1.746,1.277,1.639,2.278,3.406,3.363,5.077a86.645,86.645,0,0,0,8.558,11.177,71.686,71.686,0,0,0,13.156,11.57,62.13,62.13,0,0,0,10.229,5.652,66.34,66.34,0,0,0,8.909,3.214,38.1,38.1,0,0,0,6.706,1.405.635.635,0,0,1,.852-.053.182.182,0,0,0-.245.117c1.778.99,3.8.745,5.695.852a76.367,76.367,0,0,0,10.686.1c2.374-.213,4.758-.256,7.143-.373a3.443,3.443,0,0,0,1.681-.585c.171-.341.383-.288.618-.054,2.224.064,2.48-.489,1.735-2.533-.32-.894-1.459-1.5-1.043-2.746,5.726-1.022,11.453-2.033,16.988-3.023.809-1.884-1.182-2.661-1.033-4.151,4.535-1.214,9.048-2.416,13.507-3.609a3.7,3.7,0,0,0-.074-1.639c-1.1-.713-2.1-1.362-3.3-2.139,1.267-.692,2.331-1.278,3.406-1.852.33-.181.639-.394.98-.575a17.571,17.571,0,0,0,3.523-1.682c2.437-1.139,4.811-2.395,7.185-3.651.606-.319,1.288-.734,1.16-1.6s-.926-1.021-1.575-1.213a7.217,7.217,0,0,1-3.13-1.458c.49-.479.916-.937,1.384-1.352,3.449-2.98,7.419-5.226,11.1-7.866.841-.607,1.277-1.128,1-2.076-1.277-.787-2.5-1.554-3.576-2.214,2.4-2.512,4.736-4.981,7.1-7.45,1.246-1.31,2.555-2.587,3.758-3.928.426-.479,1.16-1.128.032-1.7a1.294,1.294,0,0,1-.564.159,1.961,1.961,0,0,0,.564-.159c-.288-.681-.894-.586-1.458-.586h-3.279c.032-.425-.032-.681.064-.819q3.847-5.493,7.717-10.953a2.385,2.385,0,0,0,.585-2.448c-1.288-.852-2.98-.575-4.279-1.437a8.647,8.647,0,0,1,.9-1.831C497.878,341.042,500.028,336.805,502.327,332.665ZM218.512,307.8c.011-.021.043-.032.085-.021-.011,0-.021.01-.032.01A.11.11,0,0,1,218.512,307.8Zm.213.383c-.021-.1-.043-.2-.064-.3v-.011a.158.158,0,0,0-.021-.074c.021,0,.032.011.042.032a.23.23,0,0,1,.054.17A.517.517,0,0,0,218.725,308.183Zm54.711,106.835a.741.741,0,0,1,.212.234C273.6,415.167,273.5,415.1,273.436,415.018ZM491.9,347.545c-.309.224-.351.447-.011.681.032.245-.053.533.319.607.447.8,1.193.617,1.906.564.564.192,1.139.383,1.937.649-3.012,4.673-6.429,9-9.1,13.8.756.479,1.192.862,1.82.66a.566.566,0,0,0,.3.053c.639.575,1.7-.063,2.268.9-.288,1.128-1.437,1.7-2.182,2.512-2.246,2.426-4.726,4.64-7.089,6.971-1.565,1.533-1.352,2.438.723,3.247.66.255,1.395.394,1.65,1.288-1.745,1.66-3.9,2.778-5.833,4.194-2.448,1.788-4.992,3.459-6.865,5.918-.916,1.181-.82,1.639.628,2.043.245.32.447.735.99.554.67.021,1.011.6,1.607.873-5.077,3.119-10.761,5.056-15.721,8.494a16.11,16.11,0,0,0,3.076,2.757c-1.512.425-2.832.83-4.183,1.139-.479.106-.9.17-1.161.617l-.606.064a32.233,32.233,0,0,0-6.174,1.671,1.1,1.1,0,0,0-.458,1.809c.426.607,1.086,1.139,1,2.055-1.394.255-2.757.511-4.119.755a2.053,2.053,0,0,0-1.927.554,33.662,33.662,0,0,0-8.781,1.6c-.309.01-.618.032-.926.053-1.629-.213-1.437,1.011-1.182,1.809a12.45,12.45,0,0,0,1.533,2.534c-.021.308-.053.628-.085.936a.518.518,0,0,0-.277.075c-.745.021-1.522-.266-2.2.255l-1.256.064a20.279,20.279,0,0,0-6.3.564c-1.043.011-2.086.032-3.129.043-.319.01-.628.01-.947.01-.213-.021-.415-.032-.628-.053a23.009,23.009,0,0,0-5.184-.628,50.084,50.084,0,0,1-8.526-1.373,58.06,58.06,0,0,1-8.473-2.576,58.956,58.956,0,0,1-13.912-7.387,69.817,69.817,0,0,1-10.942-9.462c-2.161-2.363-4.172-4.865-6.142-7.4a130.254,130.254,0,0,1-8.781-13.657,1.606,1.606,0,0,1,.405-1.149Q366.63,364.4,374.31,351.59c.149-.245.181-.745.788-.617.032.564.053,1.128.106,1.692.17,1.927.362,3.842.511,5.769.064.766.351,1.011,1.118.6-.32-3.725-.639-7.429-.958-11.219-3.768,1.48-7.281,2.863-10.8,4.247.2.894.543.948,1.267.66,2.3-.937,4.651-1.767,6.982-2.64.011.118.022.224.032.341-5.184,8.675-10.378,17.35-15.679,26.227-.064-.011-.117-.021-.17-.032-5.354-8.962-10.591-17.712-16.009-26.738a.292.292,0,0,1,.032-.128c2.8,1.075,5.237,1.98,7.632,2.96.692.276,1.086.329,1.256-.66-3.523-1.384-7.068-2.779-10.878-4.269a65.448,65.448,0,0,0-.852,11.453c1.512-2.544.948-5.513,1.565-8.611a.078.078,0,0,1,.053.011c5.471,9.122,10.772,17.967,16.083,26.812-.99,2.842-2.756,5.259-4.236,7.835-.256.436-.564.851-.841,1.287-.383.2-.7.448-.585.948a119.521,119.521,0,0,1-9.229,11.623,70.487,70.487,0,0,1-16.53,13.21,55.045,55.045,0,0,1-10.761,4.789c-.522-.159-.745.2-1,.543-.191.022-.383.053-.575.075a1.844,1.844,0,0,0-1.607.564l-1.852.383a2.025,2.025,0,0,0-1.927.564c-4.034.862-8.206.713-12.24,1.586H289.04a19.192,19.192,0,0,0-5.5-.638c-1.32-.054-2.629-.288-4.141-.469a18.477,18.477,0,0,1,2.044-3.938,1.235,1.235,0,0,0-.9-1.192c-3.14-.575-6.3-1.086-9.441-1.618a1.124,1.124,0,0,0-.319.042c-.2-.021-.4-.032-.607-.053-.883-1.064-2.1-.426-3.14-.628-.841-.681-1.916-.489-2.9-.734a.033.033,0,0,1-.011-.021c.021-.32.032-.575.043-.82.425-.66.851-1.331,1.351-2.086-1.373-1.65-3.3-1.672-5.1-2a2.114,2.114,0,0,0-1.895-.575.489.489,0,0,0-.3-.064,2.878,2.878,0,0,0-2.224-.617c-.863-.863-2.236-.405-3.172-1.161.372-.958,1.777-.851,1.926-1.958.873-.522.5-1.011-.01-1.512a.367.367,0,0,0-.288-.095,1.279,1.279,0,0,0-1.277-.639,40.514,40.514,0,0,0-6.9-3.459c-.234-.352-.457-.714-.979-.565a5.631,5.631,0,0,0-2.171-1c-.224-.362-.437-.735-.969-.575-.617-.617-1.639-.617-2.192-1.426,1.075-1.107,3.1-.83,3.8-2.651-3.63-4.779-8.952-7.514-13.763-11.038,1.16-.936,2.5-1.17,3.682-2.352.405-1.022-.713-1.65-1.468-2.416-2.885-2.906-5.78-5.791-8.665-8.686a.561.561,0,0,1-.223-.638c1.192-.628,2.639-.416,3.928-.873a2.165,2.165,0,0,0-.2-2.161c-2.437-3.491-4.832-7.014-7.259-10.516-.309-.458-.649-.905-.979-1.363.489-.915,1.415-.734,2.086-.873,2.565-.5,2.906-1.171,1.426-3.278-.117-.17-.223-.351-.34-.522.149-.521-.213-.745-.575-.968-1.565-3.055-3.108-6.131-4.716-9.165a5.043,5.043,0,0,0-1.256-2.033c2.1-.468,3.662,1.214,5.546.277.117-1.043.351-2.2-.532-3.215-.011-.213-.022-.415-.043-.617a2.085,2.085,0,0,0-.564-1.927c-.17-2.544-1.213-4.885-1.735-7.344-.319-1.469-.809-2.917-1.245-4.481,1.607-.256,2.7,1.458,4.555.521a20.748,20.748,0,0,0-.958-7.557c-.021-.2-.042-.4-.053-.607.213-2.235-.67-4.342-.809-6.535a24.872,24.872,0,0,1-.074-2.97c.894.234,1.373.99,2.161,1.022.234.362.468.7.979.553,1.7.267,2.129-.085,2.129-1.809.01-5.311,0-10.612,0-15.988,1.266-.212,2.054,1.075,3.214.82.618.287,1.224,1.224,1.874.032,1.011-.639.51-1.639.574-2.5a.47.47,0,0,0,.064-.3c.937-.788.564-1.938.724-2.906.734-4.4,1.98-8.686,2.427-13.125a3.589,3.589,0,0,0,.564-2.841.533.533,0,0,0,.064-.309c.309-.213.33-.852.937-.639,1.064.884,2.118,1.778,3.214,2.619.468.351,1.064.777,1.512-.086a1,1,0,0,0,.574-1.287c.022-.3.043-.6.075-.895a1.025,1.025,0,0,0,.543-1.309,38.34,38.34,0,0,1,1.447-5.769c.383-1.213.5-2.491.894-3.725.756-2.427,1.288-4.929,1.948-7.568,2.363.7,3.7,3.629,6.44,3.331,1.309-3.385,2.576-6.535,3.725-9.718.469-1.277,1.278-2.448,1.352-3.864.33-.244.724-.468.554-.99.873-2.394,2.129-4.64,2.6-7.184.4,0,.8.01,1.2.01.787,1.682,2.3,2.842,3.278,4.407.49.8,1.895.373,2.342-.66.394-.915.692-1.884,1.032-2.831.351-.224.713-.447.564-.969,2.012-4.353,4-8.707,6.057-13.039.223-.49.3-1.32,1.32-1.15,1.139,1.374,1.6,3.279,3.1,4.663.926.287,1.352-.522,1.788-1.2,2.651-4.045,5.259-8.122,7.92-12.166a46.44,46.44,0,0,0,2.586-4.077,1.081,1.081,0,0,1,1.054-.692c.128,1.032.915,1.778,1.245,2.682a1.472,1.472,0,0,0,2-.8q2.076-4.071,4.13-8.164c.362-.224.692-.468.564-.979.458-1.182,1.405-2.129,1.64-3.417.34-.245.734-.447.564-.979,1.064-1.512,1.426-3.449,2.8-4.865,1.192,1.491,1.416,3.449,3.257,4.694a69.944,69.944,0,0,0,6.589-11.442c.362-.224.724-.447.564-.969a9.188,9.188,0,0,1,1.82-2.544c.682.735.777,1.746,1.554,2.331a1.269,1.269,0,0,0,1.906-.745c1.234-3.406,2.895-6.642,4.183-10.016a1.964,1.964,0,0,0,.042-.617c.7-.011.607-.532.628-.979.586-.852.458-2.363,1.5-2.608s1.671,1.043,2.48,1.65c.841.649,1.746.479,2.087-.362,1.713-4.237,3.3-8.526,4.928-12.8a1.515,1.515,0,0,0,.021-.308c.671-.064.66-.511.564-1,.767-.926,1.182-.021,1.512.405.564.724.979,1.767,2,1.713,1.2-.074,1.383-1.351,1.681-2.224,1.278-3.747,2.874-7.366,4.237-11.081.191-.489.511-.553.841-.734.479.4.947.8,1.415,1.2a.785.785,0,0,0,1.246.021.931.931,0,0,0,.639-.937c.606-.032.606-.489.627-.915,1.352-1.139,2-2.778,2.949-4.194.479-.734.777-1.586,1.607-2.033.681-.319,1.65.362,2.193-.713,2.022,2.533,3.321,5.514,5.407,7.962,1.15,1.351,1.384,1.437,2.619.17a9.148,9.148,0,0,1,1.053-.756,10.562,10.562,0,0,0,1.192,2.672c-.074.49-.117.947.564,1a20.9,20.9,0,0,0,1.608,4.62c.755,1.969,1.49,3.938,2.235,5.886,2.257.575,2.3-1.894,3.96-2.469,1.532,3.012,2.48,6.376,3.906,9.526-.117.5.213.745.564.99a11.168,11.168,0,0,0,1.033,3.1c-.149.511.17.755.543.979.638,1.086,1.383.692,2.107.138s1.235-1.437,2.214-1.724c1.107.873,1.416,2.3,1.905,3.481,1.2,2.959,2.523,5.875,3.8,8.8a15.533,15.533,0,0,0,.884,2.267c.766,1.2,1.415,1.054,2.161.128.447-.553.83-1.16,1.319-1.841,3.013,4.9,5.376,10.154,8.644,14.933,1.947-1.138,2.15-3.214,3.512-4.757,3.47,6.524,6.887,12.932,10.325,19.393.575-.16,1.32.5,1.533-.553.7-.032.649-.511.564-.99.245-.394.3-.894.851-1.256,4.151,6.088,7.92,12.453,12.315,18.5,2.193-1.426,2.576-3.757,4.1-5.322a23.308,23.308,0,0,1,2.331,4.439c-.149.521.223.734.574.968,1.448,3.417,2.885,6.834,4.577,10.155.405.788.692,1.692,1.065,2.544.649,1.49,1.628,1.671,2.7.426,1.022-1.182,1.98-2.406,2.981-3.609a5.379,5.379,0,0,1,.681-.585,27.909,27.909,0,0,1,1.863,4.353c1.554,3.768,2.991,7.579,4.566,11.347.692,1.671,1.448,3.342,2.033,5.066.5,1.5,1.032,1.672,2.32.756a23.655,23.655,0,0,0,3.651-2.767c.309,0,.618,0,.926-.011.618,2.651,1.235,5.29,1.874,7.93.628,2.618,1.288,5.237,1.937,7.855a25.811,25.811,0,0,1,.969,4.194c.042.649.894.468,1.032,1.054,1.873-.671,2.874-2.48,4.854-3.2.543,2.693,1.086,5.333,1.618,7.973.468,2.267.947,4.523,1.394,6.79.394,2.055.788,4.12,1.139,6.185a2.587,2.587,0,0,0,1.639,2.373c1.022-.809,2.363-.819,3.428-1.511.383-.256.947-.1.936.607V298.5a4.7,4.7,0,0,0,.011,2.076c1.735.6,2.831-.692,4.162-1.214.585-.223,1.064-.585,1.171.405-.022.308-.032.617-.054.926-.883,1.043-.585,2.278-.574,3.47a.573.573,0,0,0-.054.3c-.968,2.033-.585,4.321-1.213,6.407a12.563,12.563,0,0,0-.362,3.673,1.65,1.65,0,0,0-.436,1.075,2.161,2.161,0,0,0,.6,1.362c1.405.49,2.533-.575,3.97-.777.021,2.076-.82,3.97-1.245,5.94-.7,3.14-1.735,6.194-2.268,9.377h.011v.011c-.692.8-.873,1.6-.1,2.373,1.778.7,3.311-.851,5.269-.415-1.043,1.905-2.076,3.715-3.023,5.567C494.812,341.882,492.992,344.533,491.9,347.545Z" transform="translate(-211.721 -119.431)" style="fill:#101010"/><path d="M492.241,297.548c-.364-.238-.338-.613-.338-.976q0-7.719,0-15.437a1.082,1.082,0,0,1,.256-.866Z" transform="translate(-211.721 -119.431)"/><path d="M287.777,422.691a23.7,23.7,0,0,1,7.851,0A36.471,36.471,0,0,1,287.777,422.691Z" transform="translate(-211.721 -119.431)" style="fill:#0e0e0e"/><path d="M498.14,297.555c-1.106.476-.191-1.911-1.689-.895a1.33,1.33,0,0,1,1.689-.052Z" transform="translate(-211.721 -119.431)" style="fill:#010101"/><path d="M482.786,262.942l-.1,1.231c-.6-.913-.819-1.563.041-2.15Z" transform="translate(-211.721 -119.431)"/><path d="M223.611,279.619c.377.638-.232.775-.557.978-.364.229-.35-.151-.4-.371C222.649,279.514,223.073,279.477,223.611,279.619Z" transform="translate(-211.721 -119.431)" style="fill:#080707"/><path d="M304.457,421.8l-1.37-.119c.823-.461,1.318-1,1.672.06A.617.617,0,0,1,304.457,421.8Z" transform="translate(-211.721 -119.431)"/><path d="M234.615,257.973c-.451.436-.909.967-1.267-.079C233.811,257.273,234.2,257.806,234.615,257.973Z" transform="translate(-211.721 -119.431)" style="fill:#090909"/><path d="M217.941,304.8l.084-1.107c.655,1.449.655,1.449-.025,1.724Z" transform="translate(-211.721 -119.431)"/><path d="M409.81,421.746c.427-1.082,1.119-.009,1.9-.547-.51.8-.956.5-1.3.6Z" transform="translate(-211.721 -119.431)" style="fill:#0d0d0d"/><path d="M495.938,311.7a2.177,2.177,0,0,1-.146-2.227c.335.31.108.686.206,1Z" transform="translate(-211.721 -119.431)"/><path d="M218.568,309.21c.111-.519-.144-1.081.291-1.8-.025.958.24,1.7-.231,2.4Z" transform="translate(-211.721 -119.431)"/><path d="M328.972,155.456c-.155.731-.509.507-.852.161s-.186-.52.243-.55Z" transform="translate(-211.721 -119.431)" style="fill:#070707"/><path d="M378.051,140.9c-.534.536-.918.258-1.263-.232C377.222,140.672,377.719,140.336,378.051,140.9Z" transform="translate(-211.721 -119.431)"/><path d="M230.266,272.086c.492.591.144,1.236.013,1.867l-.071-1.573A.586.586,0,0,1,230.266,272.086Z" transform="translate(-211.721 -119.431)"/><path d="M216.087,313.586h-1.626C215,312.614,215.545,313.175,216.087,313.586Z" transform="translate(-211.721 -119.431)" style="fill:#101010"/><path d="M214.232,314.859a1.98,1.98,0,0,1,.558,1.6C214.12,316.094,214.136,315.491,214.232,314.859Z" transform="translate(-211.721 -119.431)" style="fill:#101010"/><path d="M435.616,421.8c-.343-.3-.281-.527.144-.609s.747-.006.473.549Z" transform="translate(-211.721 -119.431)"/><path d="M499.712,318c-.558.281-.631-.052-.549-.471s.316-.486.61-.141Z" transform="translate(-211.721 -119.431)"/><path d="M471.152,240.914c-.032.182-.022.455-.275.405-.133-.027-.278-.275-.312-.445-.079-.389.2-.514.525-.563Z" transform="translate(-211.721 -119.431)" style="fill:#0d0d0d"/><path d="M497.511,301.321c-.573-.5-.441-1.052-.137-1.637-.1-.164.328.035.13.1-.172.062-.157.107.04.155.019,0,.018.095.027.145Z" transform="translate(-211.721 -119.431)"/><path d="M496.939,313.963c-.448.472-.909,1.147-1.25-.079Z" transform="translate(-211.721 -119.431)" style="fill:#323232"/><path d="M447.877,222.987l-.007.966,0,0c-.721-.39-.767-.806-.051-1.253A.45.45,0,0,1,447.877,222.987Z" transform="translate(-211.721 -119.431)" style="fill:#0b0b0b"/><path d="M341.22,142.136c.017.475.034.951-.642.968A1.081,1.081,0,0,1,341.22,142.136Z" transform="translate(-211.721 -119.431)" style="fill:#333"/><path d="M474.86,255.1a.968.968,0,0,1-.548-1C475.022,254.142,474.946,254.617,474.86,255.1Z" transform="translate(-211.721 -119.431)" style="fill:#2c2c2c"/><path d="M456.306,223.017a.967.967,0,0,1-.551-1C456.108,222.26,456.451,222.5,456.306,223.017Z" transform="translate(-211.721 -119.431)" style="fill:#343434"/><path d="M245.311,239.681l-.993.292C244.45,239.2,244.812,239.208,245.311,239.681Z" transform="translate(-211.721 -119.431)" style="fill:#363636"/><path d="M214.855,317.68a.963.963,0,0,1,.552.994C215.052,318.438,214.705,318.2,214.855,317.68Z" transform="translate(-211.721 -119.431)" style="fill:#303030"/><path d="M499.16,319.615a.95.95,0,0,1,.543-.991C499.879,319.15,499.5,319.372,499.16,319.615Z" transform="translate(-211.721 -119.431)" style="fill:#363636"/><path d="M303.17,179.263a.978.978,0,0,1-.565.975C302.455,179.717,302.814,179.491,303.17,179.263Z" transform="translate(-211.721 -119.431)" style="fill:#323232"/><path d="M250.65,243.124c-.311.988-.62.263-.93,0Z" transform="translate(-211.721 -119.431)" style="fill:#2f2f2f"/><path d="M466.421,400.048a.968.968,0,0,1,.981-.569C467.168,399.83,466.946,400.2,466.421,400.048Z" transform="translate(-211.721 -119.431)" style="fill:#303030"/><path d="M245.655,239.981l-.344-.3Z" transform="translate(-211.721 -119.431)" style="fill:#363636"/><path d="M220.417,329.961c.021.2.032.4.043.617a.781.781,0,0,1-.149-.628v-.01a.224.224,0,0,0-.011-.085,5.924,5.924,0,0,0-.447-1.821A2.085,2.085,0,0,1,220.417,329.961Z" transform="translate(-211.721 -119.431)" style="fill:#fefefe"/><path d="M220.417,308.566c.011.2.032.405.053.607A.437.437,0,0,1,220.417,308.566Z" transform="translate(-211.721 -119.431)" style="fill:#fefefe"/><path d="M221.993,345.682c-.171-.34-.373-.649-.575-.968C221.78,344.937,222.142,345.161,221.993,345.682Z" transform="translate(-211.721 -119.431)" style="fill:#fefefe"/><path d="M221.7,300.083a6.218,6.218,0,0,0,.979.553C222.163,300.785,221.929,300.445,221.7,300.083Z" transform="translate(-211.721 -119.431)" style="fill:#fefefe"/><path d="M229.891,283.691c-.65,1.192-1.256.255-1.874-.032C228.645,283.68,229.262,284.01,229.891,283.691Z" transform="translate(-211.721 -119.431)" style="fill:#fefefe"/><path d="M230.529,280.892a.47.47,0,0,1-.064.3A.211.211,0,0,1,230.529,280.892Z" transform="translate(-211.721 -119.431)" style="fill:#fefefe"/><path d="M234.244,262.02a3.589,3.589,0,0,1-.564,2.841A17.376,17.376,0,0,0,234.244,262.02Z" transform="translate(-211.721 -119.431)" style="fill:#fefefe"/><path d="M235.245,261.072c-.607-.213-.628.426-.937.639C234.574,261.434,234.457,260.583,235.245,261.072Z" transform="translate(-211.721 -119.431)" style="fill:#fefefe"/><path d="M240.545,262.318a1,1,0,0,1-.574,1.287A3.206,3.206,0,0,0,240.545,262.318Z" transform="translate(-211.721 -119.431)" style="fill:#fefefe"/><path d="M241.163,260.114a1.025,1.025,0,0,1-.543,1.309A11.867,11.867,0,0,0,241.163,260.114Z" transform="translate(-211.721 -119.431)" style="fill:#fefefe"/><path d="M243.132,395.05a9.044,9.044,0,0,0-.969-.575C242.7,394.315,242.908,394.688,243.132,395.05Z" transform="translate(-211.721 -119.431)" style="fill:#fefefe"/><path d="M246.282,396.615a11.009,11.009,0,0,0-.979-.565C245.825,395.9,246.048,396.263,246.282,396.615Z" transform="translate(-211.721 -119.431)" style="fill:#fefefe"/><path d="M254.457,400.713a7.891,7.891,0,0,0-1.277-.639A1.279,1.279,0,0,1,254.457,400.713Z" transform="translate(-211.721 -119.431)" style="fill:#fefefe"/><path d="M254.745,400.808c.51.5.883.99.01,1.512A1.2,1.2,0,0,0,254.745,400.808Z" transform="translate(-211.721 -119.431)" style="fill:#fefefe"/><path d="M256,405.439a2.878,2.878,0,0,1,2.224.617A17.423,17.423,0,0,0,256,405.439Z" transform="translate(-211.721 -119.431)" style="fill:#fefefe"/><path d="M256.969,232.8c.171-.34.415-.638.554-.99C257.693,232.333,257.3,232.557,256.969,232.8Z" transform="translate(-211.721 -119.431)" style="fill:#fefefe"/><path d="M260.418,406.7a14.29,14.29,0,0,0-1.895-.575A2.114,2.114,0,0,1,260.418,406.7Z" transform="translate(-211.721 -119.431)" style="fill:#fefefe"/><path d="M261.323,224.637c-.4,0-.8-.01-1.2-.01A.78.78,0,0,1,261.323,224.637Z" transform="translate(-211.721 -119.431)" style="fill:#fefefe"/><path d="M264.165,410.782c-.011.245-.022.5-.043.82A.81.81,0,0,1,264.165,410.782Z" transform="translate(-211.721 -119.431)" style="fill:#fefefe"/><path d="M264.133,411.623c.979.245,2.054.053,2.9.734a12.778,12.778,0,0,0-2.767-.543A.966.966,0,0,1,264.133,411.623Z" transform="translate(-211.721 -119.431)" style="fill:#fefefe"/><path d="M267.975,225.553c.181-.32.4-.628.564-.969C268.688,225.106,268.326,225.329,267.975,225.553Z" transform="translate(-211.721 -119.431)" style="fill:#fefefe"/><path d="M270.168,412.985c.2.021.4.032.607.053A.468.468,0,0,1,270.168,412.985Z" transform="translate(-211.721 -119.431)" style="fill:#fefefe"/><path d="M278.747,305.33c.394.586.192,1.1.2,1.725-4.055,2.618-8.355,4.928-12.794,7.44V280.9c.639-.064.99.362,1.469.692v29.921C271.488,309.365,275.107,307.353,278.747,305.33Z" transform="translate(-211.721 -119.431)" style="fill:#fefefe"/><path d="M289.04,420.851H295A11.781,11.781,0,0,1,289.04,420.851Z" transform="translate(-211.721 -119.431)" style="fill:#fefefe"/><path d="M299.737,190.64a8.922,8.922,0,0,0,.564-.979C300.429,190.172,300.1,190.416,299.737,190.64Z" transform="translate(-211.721 -119.431)" style="fill:#fefefe"/><path d="M301.941,186.244c.181-.33.415-.639.564-.979C302.675,185.8,302.281,186,301.941,186.244Z" transform="translate(-211.721 -119.431)" style="fill:#fefefe"/><path d="M309.168,418.7a6.817,6.817,0,0,0-1.927.564A2.025,2.025,0,0,1,309.168,418.7Z" transform="translate(-211.721 -119.431)" style="fill:#fefefe"/><path d="M312.627,417.754c-.5.287-1.1.308-1.607.564A1.844,1.844,0,0,1,312.627,417.754Z" transform="translate(-211.721 -119.431)" style="fill:#fefefe"/><path d="M314.2,417.136c-.362.128-.65.384-1,.543C313.458,417.339,313.681,416.977,314.2,417.136Z" transform="translate(-211.721 -119.431)" style="fill:#fefefe"/><path d="M315.129,313.154a4.279,4.279,0,0,1,.095,2.065c-7.291-4.162-14.422-8.228-21.735-12.4,3.183-1.745,6.131-3.363,9.271-5.087-3.087-1.672-5.95-3.226-9.324-5.056,7.462-4.247,14.54-8.282,21.661-12.337a3.07,3.07,0,0,1,.1,1.9c-6.068,3.4-12.188,6.834-18.415,10.325,2.587,1.469,5.014,2.842,7.5,4.247q5.349-3.1,10.8-6.237a1.623,1.623,0,0,1-.756,2.331c-2.767,1.564-5.5,3.182-8.44,4.885,1.554.863,3,1.661,4.438,2.47,1.32.745,2.608,1.533,3.928,2.256a1.619,1.619,0,0,1,.862,2.289c-3.64-2.022-7.27-4.034-10.931-6.067-2.449,1.362-4.843,2.693-7.515,4.172C302.984,306.416,309.061,309.79,315.129,313.154Z" transform="translate(-211.721 -119.431)" style="fill:#fefefe"/><path d="M315.714,172.683c.16.522-.2.745-.564.969A8.7,8.7,0,0,0,315.714,172.683Z" transform="translate(-211.721 -119.431)" style="fill:#fefefe"/><path d="M325.219,161.092c.288-.287.373-.681.628-.979C325.826,160.56,325.922,161.081,325.219,161.092Z" transform="translate(-211.721 -119.431)" style="fill:#fefefe"/><path d="M336.864,145.69a1.644,1.644,0,0,0,.564-1C337.524,145.179,337.535,145.626,336.864,145.69Z" transform="translate(-211.721 -119.431)" style="fill:#fefefe"/><path d="M339.9,350.664a1.423,1.423,0,0,1,.351-.043c-.617,3.1-.053,6.067-1.565,8.611a65.448,65.448,0,0,1,.852-11.453c3.81,1.49,7.355,2.885,10.878,4.269-.17.989-.564.936-1.256.66-2.4-.98-4.832-1.885-7.632-2.96a.128.128,0,0,1,.011-.063c1.437-.213,2.608.713,3.885,1.149s2.512.916,3.8,1.3c-2.981-1.235-5.95-2.5-9.218-3.672-1.011,3.257-.564,6.482-1.043,9.59C339.44,355.592,339.323,353.037,339.9,350.664Z" transform="translate(-211.721 -119.431)" style="fill:#fefefe"/><path d="M349.115,133.971a4.069,4.069,0,0,1,1.246.021A.785.785,0,0,1,349.115,133.971Z" transform="translate(-211.721 -119.431)" style="fill:#fefefe"/><path d="M351.308,386.566a5.817,5.817,0,0,0-.585.948C350.606,387.014,350.925,386.769,351.308,386.566Z" transform="translate(-211.721 -119.431)" style="fill:#fefefe"/><path d="M351,133.055a1.713,1.713,0,0,1,.627-.915C351.606,132.566,351.606,133.023,351,133.055Z" transform="translate(-211.721 -119.431)" style="fill:#fefefe"/><path d="M329.977,302.818l9.271-5.087c-3.1-1.682-5.982-3.236-9.335-5.056,7.451-4.247,14.508-8.26,21.651-12.326.34.6.17,1.149.2,1.841q-9.182,5.157-18.51,10.389c2.639,1.479,5.119,2.874,7.525,4.226,3.651-2.108,7.164-4.141,10.783-6.227.415,1.053.266,1.745-.682,2.278-2.309,1.309-4.609,2.661-6.908,3.991l-1.586.916c2.864,1.639,5.557,3.193,8.281,4.715a1.686,1.686,0,0,1,.948,2.331c-3.63-2.012-7.228-4.013-10.942-6.067-2.47,1.373-4.843,2.682-7.515,4.162,6.3,3.512,12.411,6.9,18.467,10.261a3.278,3.278,0,0,1,0,2Z" transform="translate(-211.721 -119.431)" style="fill:#fefefe"/><path d="M341.494,349.876c5.418,9.026,10.655,17.776,16.009,26.738-.671-.17-.926-.777-1.235-1.3q-7.12-11.863-14.231-23.726A2.128,2.128,0,0,1,341.494,349.876Z" transform="translate(-211.721 -119.431)" style="fill:#fefefe"/><path d="M356.119,376.263a1.316,1.316,0,0,1,.266,1.181c-5.311-8.845-10.612-17.69-16.083-26.812.554.021.756.458.969.809C346.252,359.7,351.138,368.014,356.119,376.263Z" transform="translate(-211.721 -119.431)" style="fill:#fefefe"/><path d="M368.647,135.248a1.591,1.591,0,0,0,.564,1C368.53,136.2,368.573,135.738,368.647,135.248Z" transform="translate(-211.721 -119.431)" style="fill:#fefefe"/><path d="M375.875,347.811c.319,3.79.638,7.494.958,11.219-.767.415-1.054.17-1.118-.6-.149-1.927-.341-3.842-.511-5.769-.053-.564-.074-1.128-.106-1.692-.607-.128-.639.372-.788.617q-7.695,12.8-15.359,25.631a1.606,1.606,0,0,0-.405,1.149c-.458-.745.053-1.319.394-1.873,4.939-8.2,9.8-16.456,14.731-24.662.309-.511.522-1.182,1.565-1.278.713,2.438.447,5.046.979,7.526-.244-3.119-.33-6.248-.734-9.58-3.246,1.118-6.184,2.384-9.143,3.6,1.7-.49,3.342-1.128,4.992-1.778a2.609,2.609,0,0,1,1.948-.351.109.109,0,0,1,.053.074c.042.022.053.032.053.054a.256.256,0,0,1,.074.127.312.312,0,0,1,.043.107.037.037,0,0,1,.011.032,3.8,3.8,0,0,1-.82,2q-6.786,11.335-13.582,22.651c-.372.617-.649,1.33-1.415,1.628h-.022c5.3-8.877,10.5-17.552,15.679-26.227-.01-.117-.021-.223-.032-.341-2.331.873-4.683,1.7-6.982,2.64-.724.288-1.065.234-1.267-.66C368.594,350.674,372.107,349.291,375.875,347.811Z" transform="translate(-211.721 -119.431)" style="fill:#fefefe"/><path d="M380.92,153.811c.16.341.394.65.564.99C381.133,154.556,380.8,154.312,380.92,153.811Z" transform="translate(-211.721 -119.431)" style="fill:#fefefe"/><path d="M382.517,157.9a7.288,7.288,0,0,0,.543.979C382.687,158.654,382.368,158.41,382.517,157.9Z" transform="translate(-211.721 -119.431)" style="fill:#fefefe"/><path d="M371.713,281.828V313.25a2.156,2.156,0,0,0,1.586-.894V299.327c4.023,2.267,7.855,4.439,11.7,6.61,4.779-2.725,9.473-5.407,14.433-8.228C390.117,292.377,381.048,287.172,371.713,281.828Zm1.554,15.285V284.841c7.6,4.268,15.04,8.451,22.821,12.815-3.832,2.161-7.355,4.151-10.974,6.195A135.137,135.137,0,0,1,373.267,297.113Z" transform="translate(-211.721 -119.431)" style="fill:#fefefe"/><path d="M420.506,420.851c.213.021.415.032.628.053A.472.472,0,0,1,420.506,420.851Z" transform="translate(-211.721 -119.431)" style="fill:#fefefe"/><path d="M421.464,199.145a1.483,1.483,0,0,0,.564-.99C422.113,198.634,422.166,199.113,421.464,199.145Z" transform="translate(-211.721 -119.431)" style="fill:#fefefe"/><path d="M431.512,420.287c-1.043.075-2.076.213-3.108.373-.447.063-.884.127-1.331.191-.639.107-1.267.192-1.9.277-1.033-.032-2.1.266-3.087-.234,1.043-.011,2.086-.032,3.129-.043A20.279,20.279,0,0,1,431.512,420.287Z" transform="translate(-211.721 -119.431)" style="fill:#fefefe"/><path d="M434.971,419.968c-.713.277-1.5-.139-2.2.255C433.449,419.7,434.226,419.989,434.971,419.968Z" transform="translate(-211.721 -119.431)" style="fill:#fefefe"/><path d="M435.333,418.957c.149.33.245.649-.085.936C435.28,419.585,435.312,419.265,435.333,418.957Z" transform="translate(-211.721 -119.431)" style="fill:#fefefe"/><path d="M434.982,414.614c.308-.021.617-.043.926-.053A.881.881,0,0,1,434.982,414.614Z" transform="translate(-211.721 -119.431)" style="fill:#fefefe"/><path d="M441.624,214.515a8.86,8.86,0,0,0,.574.968C441.847,215.249,441.475,215.036,441.624,214.515Z" transform="translate(-211.721 -119.431)" style="fill:#fefefe"/><path d="M446.616,412.41c-.639.2-1.31.288-1.927.554A2.053,2.053,0,0,1,446.616,412.41Z" transform="translate(-211.721 -119.431)" style="fill:#fefefe"/><path d="M429.947,281.573c-5.631,9.984-11.091,19.67-16.637,29.5h33.55C441.134,301.179,435.865,291.323,429.947,281.573Zm.106,3.182c4.7,8.367,9.3,16.52,14.029,24.918H416C420.708,301.318,425.327,293.132,430.053,284.755Z" transform="translate(-211.721 -119.431)" style="fill:#fefefe"/><path d="M456.366,406.12l.606-.064A.447.447,0,0,1,456.366,406.12Z" transform="translate(-211.721 -119.431)" style="fill:#fefefe"/><path d="M469.564,243.158c-.308.011-.617.011-.926.011A.628.628,0,0,1,469.564,243.158Z" transform="translate(-211.721 -119.431)" style="fill:#fefefe"/><path d="M472.364,391.622c.34.171.638.4.99.554C472.811,392.357,472.609,391.942,472.364,391.622Z" transform="translate(-211.721 -119.431)" style="fill:#fefefe"/><path d="M489.064,364.554a.566.566,0,0,1-.3-.053.228.228,0,0,1,.107-.042C488.947,364.437,489.011,364.469,489.064,364.554Z" transform="translate(-211.721 -119.431)" style="fill:#fefefe"/><path d="M490.384,284.66V283.4A1.021,1.021,0,0,1,490.384,284.66Z" transform="translate(-211.721 -119.431)" style="fill:#fefefe"/><path d="M490.384,296.932a1.378,1.378,0,0,1,0,1.565Z" transform="translate(-211.721 -119.431)" style="fill:#fefefe"/><path d="M490.64,287.278q.015,3.832,0,7.664a2.79,2.79,0,0,1-.256,1.66V285.288A3.554,3.554,0,0,1,490.64,287.278Z" transform="translate(-211.721 -119.431)" style="fill:#fefefe"/><path d="M491.9,347.545a.5.5,0,0,0-.011.681C491.545,347.992,491.587,347.769,491.9,347.545Z" transform="translate(-211.721 -119.431)" style="fill:#fefefe"/><path d="M492.2,348.833c.554.447,1.278.351,1.906.564C493.4,349.45,492.651,349.631,492.2,348.833Z" transform="translate(-211.721 -119.431)" style="fill:#fefefe"/><path d="M495.1,304.16a.218.218,0,0,1-.054.3A.573.573,0,0,1,495.1,304.16Z" transform="translate(-211.721 -119.431)" style="fill:#fefefe"/><path d="M495.674,300.69c.022-.309.032-.618.054-.926A.859.859,0,0,1,495.674,300.69Z" transform="translate(-211.721 -119.431)" style="fill:#fefefe"/><path d="M376.833,359.03c-.767.415-1.054.17-1.118-.6-.149-1.927-.341-3.842-.511-5.769-.053-.564-.074-1.128-.106-1.692-.607-.128-.639.372-.788.617q-7.695,12.8-15.359,25.631a1.606,1.606,0,0,0-.405,1.149c-.021.586-.479.735-.851.873-1.129-.159-.852-1.234-1.31-1.8-5.311-8.845-10.612-17.69-16.083-26.812-.011-.021-.032-.053-.042-.075,0,.022-.011.043-.011.064-.617,3.1-.053,6.067-1.565,8.611a65.448,65.448,0,0,1,.852-11.453c3.81,1.49,7.355,2.885,10.878,4.269-.17.989-.564.936-1.256.66-2.4-.98-4.832-1.885-7.632-2.96-.042-.021-.1-.031-.138-.053.032.064.074.117.106.181,5.418,9.026,10.655,17.776,16.009,26.738.032.053.064.1.1.149a.73.73,0,0,1,.074-.117c5.3-8.877,10.5-17.552,15.679-26.227.011-.064.075-.128.106-.192.022-.042.022-.085-.074-.127-.021-.011-.042-.011-.064-.022-2.331.873-4.683,1.7-6.982,2.64-.724.288-1.065.234-1.267-.66,3.523-1.384,7.036-2.767,10.8-4.247C376.194,351.6,376.513,355.305,376.833,359.03Z" transform="translate(-211.721 -119.431)"/><path d="M356.7,448.111V383.838h.154v64.337Z" transform="translate(-211.721 -119.431)"/><path d="M222.879,296.64v-12.7l.24-.006v12.7Z" transform="translate(-211.721 -119.431)"/><path d="M490.959,286.235v9.431c0,.436-.01.862-.575.936V285.288C490.949,285.373,490.959,285.8,490.959,286.235Z" transform="translate(-211.721 -119.431)"/><path d="M297.449,421.266H286.741c.7-.585,1.533-.33,2.3-.415H295A4.967,4.967,0,0,1,297.449,421.266Z" transform="translate(-211.721 -119.431)" style="fill:#0c0c0c"/><path d="M428.989,420.862a.544.544,0,0,1-.032.149c-.9.756-6.046.67-6.876-.117,1.043-.011,2.086-.032,3.129-.043a11.528,11.528,0,0,1,3.194-.191A2.7,2.7,0,0,1,428.989,420.862Z" transform="translate(-211.721 -119.431)" style="fill:#090909"/><path d="M431.512,420.287l-2.523.575c-.639-.011-1.277-.011-1.916-.011H425.21A20.279,20.279,0,0,1,431.512,420.287Z" transform="translate(-211.721 -119.431)" style="fill:#111"/><path d="M229.891,283.691c-.65,1.192-1.256.255-1.874-.032.49-.543,1.331.085,1.788-.937C229.859,283.3,229.869,283.5,229.891,283.691Z" transform="translate(-211.721 -119.431)"/><path d="M267.028,412.357c-1.054.16-1.98-.383-2.927-.383-.3-.5-.309-.873.064-1.192-.011.245-.022.5-.043.82v.021h.011C265.112,411.868,266.187,411.676,267.028,412.357Z" transform="translate(-211.721 -119.431)" style="fill:#151515"/><path d="M233.68,264.861a4.339,4.339,0,0,1,.564-2.841A3.589,3.589,0,0,1,233.68,264.861Z" transform="translate(-211.721 -119.431)" style="fill:#171717"/><path d="M432.733,422.042h-3.012l-.011-.136h2.962Z" transform="translate(-211.721 -119.431)"/><path d="M301.291,422.027l-2.544.24-.024-.326h2.55Z" transform="translate(-211.721 -119.431)" style="fill:#0e0e0e"/><path d="M419.35,421.088c-.466.5-.964.437-1.587.188C418.28,420.61,418.845,420.992,419.35,421.088Z" transform="translate(-211.721 -119.431)"/><path d="M351.627,132.14c-.021.426-.021.883-.627.915-.661-.543-.1-.851.244-1.171C351.627,131.523,351.553,131.959,351.627,132.14Z" transform="translate(-211.721 -119.431)"/><path d="M350.361,133.992a.785.785,0,0,1-1.246-.021C349.552,132.81,349.956,133.46,350.361,133.992Z" transform="translate(-211.721 -119.431)"/><path d="M490.384,298.5v-1.565C491.193,297.677,491.193,298.21,490.384,298.5Z" transform="translate(-211.721 -119.431)" style="fill:#010101"/><path d="M220.47,309.173V310.4c-.276-.617-1.266-1.235-.053-1.831C220.428,308.769,220.449,308.971,220.47,309.173Z" transform="translate(-211.721 -119.431)" style="fill:#0b0b0b"/><path d="M490.949,284.032c0,.33.212.958-.565.628V283.4C491.161,283.074,490.949,283.691,490.949,284.032Z" transform="translate(-211.721 -119.431)" style="fill:#010101"/><path d="M495.5,305.245c-.607-.021-.362-.5-.458-.787a.573.573,0,0,1,.054-.3c.149-.117.287-.235.479-.394A1.913,1.913,0,0,1,495.5,305.245Z" transform="translate(-211.721 -119.431)"/><path d="M413.022,421.85h2.387l0,.156h-2.39Z" transform="translate(-211.721 -119.431)"/><path d="M491.566,364.554h-2.5a.566.566,0,0,1-.3-.053.228.228,0,0,1,.107-.042A3.691,3.691,0,0,1,491.566,364.554Z" transform="translate(-211.721 -119.431)"/><path d="M495.973,302.85c-.469-.883-.171-1.543-.3-2.16.022-.309.032-.618.054-.926C496.228,300.679,495.919,301.626,495.973,302.85Z" transform="translate(-211.721 -119.431)"/><path d="M223.244,281.231a2.832,2.832,0,0,1-.267,1.982A2.408,2.408,0,0,1,223.244,281.231Z" transform="translate(-211.721 -119.431)" style="fill:#020202"/><path d="M217.681,301.9l-.129-2.175C218.139,300.416,217.827,301.179,217.681,301.9Z" transform="translate(-211.721 -119.431)"/><path d="M258.225,406.056a3.041,3.041,0,0,1-2.224-.617A2.878,2.878,0,0,1,258.225,406.056Z" transform="translate(-211.721 -119.431)" style="fill:#1a1a1a"/><path d="M447.594,412.871c.432-.236.825-.645,1.431-.267C448.613,413.2,448.066,412.922,447.594,412.871Z" transform="translate(-211.721 -119.431)"/><path d="M421.134,420.9c-.022,1.022-.65.458-1.065.5-.106-.479.2-.479.437-.554C420.719,420.872,420.921,420.883,421.134,420.9Z" transform="translate(-211.721 -119.431)"/><path d="M219.574,307.247v-2.079l.149,0v2.077Z" transform="translate(-211.721 -119.431)"/><path d="M220.141,331.739c-.405-.639,0-1.235.01-1.821.053-.053.107-.085.149-.063.053-.011.085.031.117.106.021.2.032.4.043.617C220.364,330.94,220.62,331.4,220.141,331.739Z" transform="translate(-211.721 -119.431)"/><path d="M494.7,333.612c-.969-.49-.436-1.384-.6-2.086C494.78,332.09,494.025,333.048,494.7,333.612Z" transform="translate(-211.721 -119.431)" style="fill:#0e0e0e"/><path d="M302.48,420.793h-2.206A2.738,2.738,0,0,1,302.48,420.793Z" transform="translate(-211.721 -119.431)"/><path d="M437.3,414.859c-.873-.054-1.628.244-2.32-.245.308-.021.617-.043.926-.053C436.312,414.667,436.791,414.4,437.3,414.859Z" transform="translate(-211.721 -119.431)"/><path d="M494.11,349.4c-.713.053-1.459.234-1.906-.564a2.321,2.321,0,0,1,1.3.287.412.412,0,0,1,.6.022A1.978,1.978,0,0,0,494.11,349.4Z" transform="translate(-211.721 -119.431)" style="fill:#191919"/><path d="M230.529,280.892a.47.47,0,0,1-.064.3c-.99-.309-.4-.809-.17-1.32C230.678,280.189,230.423,280.583,230.529,280.892Z" transform="translate(-211.721 -119.431)"/><path d="M493.474,314.539l.527-.4c.124.473.226.872-.17,1.209-.45-.17-.275-.538-.357-.806Z" transform="translate(-211.721 -119.431)"/><path d="M494.8,308.8v-1.777A1.906,1.906,0,0,1,494.8,308.8Z" transform="translate(-211.721 -119.431)"/><path d="M495.366,363.284c-.675.583-1.433.233-2.173,0h2.176Z" transform="translate(-211.721 -119.431)"/><path d="M458.005,406.173c-.8.319-1.288,1.022-1.639-.053l.606-.064C457.207,406.088,457.441,406.109,458.005,406.173Z" transform="translate(-211.721 -119.431)"/><path d="M414.512,420.651a3.087,3.087,0,0,1-2.114,0Z" transform="translate(-211.721 -119.431)"/><path d="M220.417,329.961a.493.493,0,0,1-.106-.021.8.8,0,0,1-.16-.022,4.738,4.738,0,0,1-.3-1.884A2.085,2.085,0,0,1,220.417,329.961Z" transform="translate(-211.721 -119.431)" style="fill:#323232"/><path d="M446.616,412.41a2.235,2.235,0,0,1-1.927.554A2.053,2.053,0,0,1,446.616,412.41Z" transform="translate(-211.721 -119.431)" style="fill:#3a3a3a"/><path d="M260.418,406.7a2.259,2.259,0,0,1-1.895-.575A2.114,2.114,0,0,1,260.418,406.7Z" transform="translate(-211.721 -119.431)" style="fill:#1a1a1a"/><path d="M254.755,402.32c0-.511-.01-1.011-.01-1.512C255.255,401.309,255.628,401.8,254.755,402.32Z" transform="translate(-211.721 -119.431)" style="fill:#1e1e1e"/><path d="M483.551,269.344a2.418,2.418,0,0,1,.026-1.767A2.418,2.418,0,0,1,483.551,269.344Z" transform="translate(-211.721 -119.431)"/><path d="M270.775,413.038c-.586.447-1.224.256-1.938.181.448-.383.916-.127,1.331-.234C270.37,413.006,270.572,413.017,270.775,413.038Z" transform="translate(-211.721 -119.431)"/><path d="M271.789,413.852a3.766,3.766,0,0,1,2.092-.153A3.726,3.726,0,0,1,271.789,413.852Z" transform="translate(-211.721 -119.431)"/><path d="M446.3,413.973c.917-.016,1.418-.165,1.952.133A2.5,2.5,0,0,1,446.3,413.973Z" transform="translate(-211.721 -119.431)"/><path d="M273.615,415.51c-.181-.411-.667-.211-.967-.486a1.934,1.934,0,0,1,1.3-.1c.15.36-.124.453-.336.584Z" transform="translate(-211.721 -119.431)"/><path d="M277.656,415.605a1.507,1.507,0,0,1-1.479,0Z" transform="translate(-211.721 -119.431)"/><path d="M312.627,417.754c-.372.66-.99.6-1.607.564A1.844,1.844,0,0,1,312.627,417.754Z" transform="translate(-211.721 -119.431)" style="fill:#333"/><path d="M309.168,418.7a3.1,3.1,0,0,1-1.927.564A2.025,2.025,0,0,1,309.168,418.7Z" transform="translate(-211.721 -119.431)" style="fill:#363636"/><path d="M462.689,405.233a2.352,2.352,0,0,1-1.868,0Z" transform="translate(-211.721 -119.431)"/><path d="M261.323,224.637c-.4,0-.8-.01-1.2-.01.01-.32.064-.628.468-.628A.752.752,0,0,1,261.323,224.637Z" transform="translate(-211.721 -119.431)" style="fill:#343434"/><path d="M434.971,419.968c-.692.489-1.469.159-2.2.255C433.449,419.7,434.226,419.989,434.971,419.968Z" transform="translate(-211.721 -119.431)" style="fill:#111"/><path d="M235.245,261.072c-.607-.213-.628.426-.937.639.021-.351.042-.7.053-1.022C234.9,260.412,235.063,260.764,235.245,261.072Z" transform="translate(-211.721 -119.431)" style="fill:#232323"/><path d="M219.316,311.047a2.357,2.357,0,0,1,0,1.861Z" transform="translate(-211.721 -119.431)"/><path d="M220.67,314.27a2.351,2.351,0,0,1,0-1.877Z" transform="translate(-211.721 -119.431)"/><path d="M494.1,349.142l-.6-.022c.568-.565,1.228-.158,2.129-.392C494.98,349.3,494.515,349.061,494.1,349.142Z" transform="translate(-211.721 -119.431)"/><path d="M240.62,261.423a1.259,1.259,0,0,1,.543-1.309A1.025,1.025,0,0,1,240.62,261.423Z" transform="translate(-211.721 -119.431)" style="fill:#4e4e4e"/><path d="M254.457,400.713a1.559,1.559,0,0,1-1.277-.639A1.279,1.279,0,0,1,254.457,400.713Z" transform="translate(-211.721 -119.431)" style="fill:#1e1e1e"/><path d="M469.564,243.158c-.308.011-.617.011-.926.011.107-.277.256-.543.586-.532S469.532,242.935,469.564,243.158Z" transform="translate(-211.721 -119.431)" style="fill:#2a2a2a"/><path d="M435.833,419.436c-.064.425-.33.436-.585.457.032-.308.064-.628.085-.936C435.514,419.127,435.7,419.3,435.833,419.436Z" transform="translate(-211.721 -119.431)" style="fill:#292929"/><path d="M325.847,160.113c-.021.447.075.968-.628.979A.949.949,0,0,1,325.847,160.113Z" transform="translate(-211.721 -119.431)" style="fill:#353535"/><path d="M239.971,263.605a2.017,2.017,0,0,1,.574-1.287A1,1,0,0,1,239.971,263.605Z" transform="translate(-211.721 -119.431)" style="fill:#3b3b3b"/><path d="M336.864,145.69c.192-.341.373-.671.564-1C337.524,145.179,337.535,145.626,336.864,145.69Z" transform="translate(-211.721 -119.431)" style="fill:#3b3b3b"/><path d="M381.484,154.8c-.351-.245-.681-.489-.564-.99A.974.974,0,0,1,381.484,154.8Z" transform="translate(-211.721 -119.431)" style="fill:#3a3a3a"/><path d="M383.06,158.878c-.373-.224-.692-.468-.543-.979A.991.991,0,0,1,383.06,158.878Z" transform="translate(-211.721 -119.431)" style="fill:#3e3e3e"/><path d="M315.15,173.652a.96.96,0,0,1,.564-.969C315.874,173.205,315.512,173.428,315.15,173.652Z" transform="translate(-211.721 -119.431)" style="fill:#363636"/><path d="M301.941,186.244a.95.95,0,0,1,.564-.979C302.675,185.8,302.281,186,301.941,186.244Z" transform="translate(-211.721 -119.431)" style="fill:#393939"/><path d="M299.737,190.64a.984.984,0,0,1,.564-.979C300.429,190.172,300.1,190.416,299.737,190.64Z" transform="translate(-211.721 -119.431)" style="fill:#3d3d3d"/><path d="M421.464,199.145c.191-.33.383-.66.564-.99C422.113,198.634,422.166,199.113,421.464,199.145Z" transform="translate(-211.721 -119.431)" style="fill:#3e3e3e"/><path d="M267.975,225.553a.96.96,0,0,1,.564-.969C268.688,225.106,268.326,225.329,267.975,225.553Z" transform="translate(-211.721 -119.431)" style="fill:#343333"/><path d="M256.969,232.8a.967.967,0,0,1,.554-.99C257.693,232.333,257.3,232.557,256.969,232.8Z" transform="translate(-211.721 -119.431)" style="fill:#383838"/><path d="M473.354,392.176c-.543.181-.745-.234-.99-.554A.96.96,0,0,1,473.354,392.176Z" transform="translate(-211.721 -119.431)" style="fill:#323232"/><path d="M222.674,300.636c-.511.149-.745-.191-.979-.553A.99.99,0,0,1,222.674,300.636Z" transform="translate(-211.721 -119.431)" style="fill:#454545"/><path d="M221.993,345.682a.966.966,0,0,1-.575-.968C221.78,344.937,222.142,345.161,221.993,345.682Z" transform="translate(-211.721 -119.431)" style="fill:#343434"/><path d="M442.2,215.483c-.351-.234-.723-.447-.574-.968A.983.983,0,0,1,442.2,215.483Z" transform="translate(-211.721 -119.431)" style="fill:#3d3d3d"/><path d="M246.282,396.615a.969.969,0,0,1-.979-.565C245.825,395.9,246.048,396.263,246.282,396.615Z" transform="translate(-211.721 -119.431)" style="fill:#393939"/><path d="M314.2,417.136a.942.942,0,0,1-1,.543C313.458,417.339,313.681,416.977,314.2,417.136Z" transform="translate(-211.721 -119.431)" style="fill:#454545"/><path d="M243.132,395.05a.984.984,0,0,1-.969-.575C242.7,394.315,242.908,394.688,243.132,395.05Z" transform="translate(-211.721 -119.431)" style="fill:#303030"/><path d="M351.308,386.566a.979.979,0,0,1-.585.948C350.606,387.014,350.925,386.769,351.308,386.566Z" transform="translate(-211.721 -119.431)" style="fill:#424242"/><path d="M369.211,136.248c-.681-.053-.638-.51-.564-1C368.839,135.589,369.02,135.919,369.211,136.248Z" transform="translate(-211.721 -119.431)" style="fill:#3a3a3a"/><path d="M447.87,223.953l.323.364c-.392.022-.282-.225-.328-.36Z" transform="translate(-211.721 -119.431)" style="fill:#0b0b0b"/><path d="M491.9,347.545c0,.224,0,.447-.011.681C491.545,347.992,491.587,347.769,491.9,347.545Z" transform="translate(-211.721 -119.431)" style="fill:#191919"/><path d="M351.627,315.166l-21.65-12.348,9.271-5.087c-3.1-1.682-5.982-3.236-9.335-5.056,7.451-4.247,14.508-8.26,21.651-12.326.34.6.17,1.149.2,1.841q-9.182,5.157-18.51,10.389c2.639,1.479,5.119,2.874,7.525,4.226,3.651-2.108,7.164-4.141,10.783-6.227.415,1.053.266,1.745-.682,2.278-2.309,1.309-4.609,2.661-6.908,3.991l-1.586.916c2.864,1.639,5.557,3.193,8.281,4.715a1.686,1.686,0,0,1,.948,2.331c-3.63-2.012-7.228-4.013-10.942-6.067-2.47,1.373-4.843,2.682-7.515,4.162,6.3,3.512,12.411,6.9,18.467,10.261A3.278,3.278,0,0,1,351.627,315.166Z" transform="translate(-211.721 -119.431)"/><path d="M315.224,315.219c-7.291-4.162-14.422-8.228-21.735-12.4,3.183-1.745,6.131-3.363,9.271-5.087-3.087-1.672-5.95-3.226-9.324-5.056,7.462-4.247,14.54-8.282,21.661-12.337a3.07,3.07,0,0,1,.1,1.9c-6.068,3.4-12.188,6.834-18.415,10.325,2.587,1.469,5.014,2.842,7.5,4.247q5.349-3.1,10.8-6.237a1.623,1.623,0,0,1-.756,2.331c-2.767,1.564-5.5,3.182-8.44,4.885,1.554.863,3,1.661,4.438,2.47,1.32.745,2.608,1.533,3.928,2.256a1.619,1.619,0,0,1,.862,2.289c-3.64-2.022-7.27-4.034-10.931-6.067-2.449,1.362-4.843,2.693-7.515,4.172,6.312,3.5,12.389,6.876,18.457,10.24A4.279,4.279,0,0,1,315.224,315.219Z" transform="translate(-211.721 -119.431)"/><path d="M371.713,281.828V313.25a2.156,2.156,0,0,0,1.586-.894V299.327c4.023,2.267,7.855,4.439,11.7,6.61,4.779-2.725,9.473-5.407,14.433-8.228C390.117,292.377,381.048,287.172,371.713,281.828Zm1.554,15.285V284.841c7.6,4.268,15.04,8.451,22.821,12.815-3.832,2.161-7.355,4.151-10.974,6.195A135.137,135.137,0,0,1,373.267,297.113Z" transform="translate(-211.721 -119.431)" style="fill:#010101"/><path d="M429.947,281.573c-5.631,9.984-11.091,19.67-16.637,29.5h33.55C441.134,301.179,435.865,291.323,429.947,281.573Zm.106,3.182c4.7,8.367,9.3,16.52,14.029,24.918H416C420.708,301.318,425.327,293.132,430.053,284.755Z" transform="translate(-211.721 -119.431)"/><path d="M278.949,307.055c-4.055,2.618-8.355,4.928-12.794,7.44V280.9c.639-.064.99.362,1.469.692v29.921c3.864-2.15,7.483-4.162,11.123-6.185C279.141,305.916,278.939,306.427,278.949,307.055Z" transform="translate(-211.721 -119.431)"/><path d="M373.5,350.334a.427.427,0,0,1-.149.085c-.01-.117-.021-.223-.032-.341,0-.01.011-.021.011-.032.053-.127.138-.244.245-.063A.245.245,0,0,1,373.5,350.334Z" transform="translate(-211.721 -119.431)" style="fill:#838383"/></svg>