<svg xmlns="http://www.w3.org/2000/svg" xmlns:xlink="http://www.w3.org/1999/xlink" viewBox="0 0 697.972 155"><defs><mask id="a" x="-0.078" y="1.995" width="202.614" height="134.572" maskUnits="userSpaceOnUse"><g transform="translate(293.166 156.754)"><path d="M-217.548-154.731l-.96,12.281a.185.185,0,0,0-.01.1c-.24,2.315-.356,8.224-.336,8.821-.01.084.114,3.267.318,5.867.255,1.516-27.558,11.836-44.847,30.646-18.56,20.193-26.762,51.357-28.836,62.235-.439,2.315-1.024,13.542-1.024,13.542h37.05s2.387-16.31,8.606-22.659c.083-.084,3.764-5.655,12.253-9.5a42.12,42.12,0,0,1,25.018-3.554c9.824,1.6.816,36.765.816,36.765h38.179v-1.048h.141c-.031-.766-.041-1.54-.041-2.316A68.015,68.015,0,0,1-166-49.774a67.3,67.3,0,0,1,10.744-17.621c.139-.169.289-.333.433-.5a.179.179,0,0,1,.084-.013,13.263,13.263,0,0,1,1.119-1.369l.06-.064a15.837,15.837,0,0,1,11.689-4.6c.772,0,5.426.251,8.554,2.307a19.1,19.1,0,0,1,5.732,6.7c.009,0-.459-12.149-.355-14.561a8.393,8.393,0,0,1,.4-3.219,2.9,2.9,0,0,1,1.9-1.817,6.273,6.273,0,0,1,2.149-.233c.032.041,5.111-.012,9.781,6.379,1.493,1.909,5.859,8.065,6.7,13.651a28.5,28.5,0,0,1-2.238,14.993A15.566,15.566,0,0,1-112.912-45a28.776,28.776,0,0,1-3.358,2.259c-.065.034-.968.454-1.369.607a15.615,15.615,0,0,1-5.6,1.031,15.654,15.654,0,0,1-4.776-.744c-2.267-.724-6.4-4.044-8.078-5.646a5.853,5.853,0,0,0-.48,4.054c1.076,7.637,7.581,10.684,15.335,11.5A17.627,17.627,0,0,0-114-32.639c5.174-1.549,10.436-5.909,14.052-10.589A48.828,48.828,0,0,0-93.52-54.522c2.61-8.384,3.216-12.9,2.746-18.78-.369-4.61-1.151-15.148-4.384-24.431a85.877,85.877,0,0,0-8.307-16.735,130.352,130.352,0,0,0-10.691-14.164c-19.487-22.89-102.142-26.127-113.55-26.127" style="fill:#fff;fill-rule:evenodd"/></g></mask><linearGradient id="b" x1="-317.448" y1="315.22" x2="-312.945" y2="315.22" gradientTransform="matrix(44.975, 0, 0, -29.872, 13984.202, 9328.664)" gradientUnits="userSpaceOnUse"><stop offset="0" stop-color="#fff"/><stop offset="0.001" stop-color="#5c21a2"/></linearGradient><mask id="c" x="-0.078" y="1.995" width="202.614" height="143.531" maskUnits="userSpaceOnUse"><g transform="translate(293.166 156.754)"><path d="M-217.548-154.731l-.96,12.281a.185.185,0,0,0-.01.1c-.24,2.315-.356,8.224-.336,8.821-.01.084.114,3.267.318,5.867.255,1.516-27.558,11.836-44.847,30.646-18.56,20.193-26.762,51.357-28.836,62.235-.439,2.315-1.024,13.542-1.024,13.542h37.05s2.387-16.31,8.606-22.659c.083-.084,3.764-5.655,12.253-9.5a42.12,42.12,0,0,1,25.018-3.554c9.824,1.6.816,36.765.816,36.765h38.179v-1.048h.141c-.031-.766-.041-1.54-.041-2.316A68.015,68.015,0,0,1-166-49.774a67.3,67.3,0,0,1,10.744-17.621c.139-.169.289-.333.433-.5a.179.179,0,0,1,.084-.013,13.263,13.263,0,0,1,1.119-1.369l.06-.064a15.837,15.837,0,0,1,11.689-4.6c.772,0,5.426.251,8.554,2.307a19.1,19.1,0,0,1,5.732,6.7c.009,0-.459-12.149-.355-14.561a8.393,8.393,0,0,1,.4-3.219,2.9,2.9,0,0,1,1.9-1.817,6.273,6.273,0,0,1,2.149-.233c.032.041,5.111-.012,9.781,6.379,1.493,1.909,5.859,8.065,6.7,13.651a28.5,28.5,0,0,1-2.238,14.993A15.566,15.566,0,0,1-112.912-45a28.776,28.776,0,0,1-3.358,2.259c-.065.034-.968.454-1.369.607a15.615,15.615,0,0,1-5.6,1.031,15.654,15.654,0,0,1-4.776-.744c-2.267-.724-6.4-4.044-8.078-5.646a5.853,5.853,0,0,0-.48,4.054c1.076,7.637,7.581,10.684,15.335,11.5A17.627,17.627,0,0,0-114-32.639c5.174-1.549,10.436-5.909,14.052-10.589A48.828,48.828,0,0,0-93.52-54.522c2.61-8.384,3.216-12.9,2.746-18.78-.369-4.61-1.151-15.148-4.384-24.431a85.877,85.877,0,0,0-8.307-16.735,130.352,130.352,0,0,0-10.691-14.164c-19.487-22.89-102.142-26.127-113.55-26.127" style="fill:#fff;fill-rule:evenodd"/></g></mask><linearGradient id="d" x1="-313.904" y1="313.712" x2="-313.904" y2="309.207" gradientTransform="matrix(28.804, 0, 0, -20.938, 8849.734, 6462.904)" gradientUnits="userSpaceOnUse"><stop offset="0" stop-color="#eee"/><stop offset="1" stop-color="#3c3636"/></linearGradient><mask id="e" x="-0.078" y="0.448" width="236.821" height="154.552" maskUnits="userSpaceOnUse"><g transform="translate(293.166 156.754)"><path d="M-217.548-154.731l-.96,12.281a.185.185,0,0,0-.01.1c-.24,2.315-.356,8.224-.336,8.821-.01.084.114,3.267.318,5.867.255,1.516-27.558,11.836-44.847,30.646-18.56,20.193-26.762,51.357-28.836,62.235-.439,2.315-1.024,13.542-1.024,13.542h37.05s2.387-16.31,8.606-22.659c.083-.084,3.764-5.655,12.253-9.5a42.12,42.12,0,0,1,25.018-3.554c9.824,1.6.816,36.765.816,36.765h38.179v-1.048h.141c-.031-.766-.041-1.54-.041-2.316A68.015,68.015,0,0,1-166-49.774a67.3,67.3,0,0,1,10.744-17.621c.139-.169.289-.333.433-.5a.179.179,0,0,1,.084-.013,13.263,13.263,0,0,1,1.119-1.369l.06-.064a15.837,15.837,0,0,1,11.689-4.6c.772,0,5.426.251,8.554,2.307a19.1,19.1,0,0,1,5.732,6.7c.009,0-.459-12.149-.355-14.561a8.393,8.393,0,0,1,.4-3.219,2.9,2.9,0,0,1,1.9-1.817,6.273,6.273,0,0,1,2.149-.233c.032.041,5.111-.012,9.781,6.379,1.493,1.909,5.859,8.065,6.7,13.651a28.5,28.5,0,0,1-2.238,14.993A15.566,15.566,0,0,1-112.912-45a28.776,28.776,0,0,1-3.358,2.259c-.065.034-.968.454-1.369.607a15.615,15.615,0,0,1-5.6,1.031,15.654,15.654,0,0,1-4.776-.744c-2.267-.724-6.4-4.044-8.078-5.646a5.853,5.853,0,0,0-.48,4.054c1.076,7.637,7.581,10.684,15.335,11.5A17.627,17.627,0,0,0-114-32.639c5.174-1.549,10.436-5.909,14.052-10.589A48.828,48.828,0,0,0-93.52-54.522c2.61-8.384,3.216-12.9,2.746-18.78-.369-4.61-1.151-15.148-4.384-24.431a85.877,85.877,0,0,0-8.307-16.735,130.352,130.352,0,0,0-10.691-14.164c-19.487-22.89-102.142-26.127-113.55-26.127" style="fill:#fff;fill-rule:evenodd"/></g></mask><linearGradient id="f" x1="-316.055" y1="316.586" x2="-313.553" y2="315.713" gradientTransform="matrix(37.74, -1.978, -1.866, -35.607, 12298.006, 10546.216)" gradientUnits="userSpaceOnUse"><stop offset="0" stop-color="#fff" stop-opacity="0.052"/><stop offset="1" stop-color="#8653a0"/></linearGradient><mask id="g" x="-0.078" y="0" width="234.811" height="151.429" maskUnits="userSpaceOnUse"><g transform="translate(293.166 156.754)"><path d="M-217.548-154.731l-.96,12.281a.185.185,0,0,0-.01.1c-.24,2.315-.356,8.224-.336,8.821-.01.084.114,3.267.318,5.867.255,1.516-27.558,11.836-44.847,30.646-18.56,20.193-26.762,51.357-28.836,62.235-.439,2.315-1.024,13.542-1.024,13.542h37.05s2.387-16.31,8.606-22.659c.083-.084,3.764-5.655,12.253-9.5a42.12,42.12,0,0,1,25.018-3.554c9.824,1.6.816,36.765.816,36.765h38.179v-1.048h.141c-.031-.766-.041-1.54-.041-2.316A68.015,68.015,0,0,1-166-49.774a67.3,67.3,0,0,1,10.744-17.621c.139-.169.289-.333.433-.5a.179.179,0,0,1,.084-.013,13.263,13.263,0,0,1,1.119-1.369l.06-.064a15.837,15.837,0,0,1,11.689-4.6c.772,0,5.426.251,8.554,2.307a19.1,19.1,0,0,1,5.732,6.7c.009,0-.459-12.149-.355-14.561a8.393,8.393,0,0,1,.4-3.219,2.9,2.9,0,0,1,1.9-1.817,6.273,6.273,0,0,1,2.149-.233c.032.041,5.111-.012,9.781,6.379,1.493,1.909,5.859,8.065,6.7,13.651a28.5,28.5,0,0,1-2.238,14.993A15.566,15.566,0,0,1-112.912-45a28.776,28.776,0,0,1-3.358,2.259c-.065.034-.968.454-1.369.607a15.615,15.615,0,0,1-5.6,1.031,15.654,15.654,0,0,1-4.776-.744c-2.267-.724-6.4-4.044-8.078-5.646a5.853,5.853,0,0,0-.48,4.054c1.076,7.637,7.581,10.684,15.335,11.5A17.627,17.627,0,0,0-114-32.639c5.174-1.549,10.436-5.909,14.052-10.589A48.828,48.828,0,0,0-93.52-54.522c2.61-8.384,3.216-12.9,2.746-18.78-.369-4.61-1.151-15.148-4.384-24.431a85.877,85.877,0,0,0-8.307-16.735,130.352,130.352,0,0,0-10.691-14.164c-19.487-22.89-102.142-26.127-113.55-26.127" style="fill:#fff;fill-rule:evenodd"/></g></mask><linearGradient id="j" x1="-313.187" y1="302.854" x2="-310.21" y2="302.294" gradientTransform="matrix(20.111, 0, 0, -9.82, 6095.677, 2882.265)" gradientUnits="userSpaceOnUse"><stop offset="0" stop-color="#fff" stop-opacity="0"/><stop offset="1" stop-color="#fff" stop-opacity="0.585"/></linearGradient></defs><g style="mask:url(#a)"><path d="M-218.518-142.346c-.24,2.315-.356,8.224-.336,8.821-.009.078.1,2.808.274,5.276a1.373,1.373,0,0,1-.607,1.259c-4.273,2.881-28.546,12.951-44.2,29.978-18.56,20.193-26.762,51.357-28.836,62.235-.341,1.8-.769,8.96-.944,12.079a1.387,1.387,0,0,0,1.393,1.463h34.394A1.385,1.385,0,0,0-256-22.382c.673-3.821,3.193-16.18,8.416-21.512.083-.084,3.764-5.655,12.253-9.5,11.443-5.187,23.442,26.535,25.519,32.317a1.354,1.354,0,0,0,1.3.894h37.192v-1.048h.141c-.031-.766-.041-1.54-.041-2.316A68.015,68.015,0,0,1-166-49.774a67.3,67.3,0,0,1,10.744-17.621c.139-.169.289-.333.433-.5a.179.179,0,0,1,.084-.013,13.263,13.263,0,0,1,1.119-1.369l.06-.064a15.837,15.837,0,0,1,11.689-4.6c.772,0,5.426.251,8.554,2.307a19.1,19.1,0,0,1,5.732,6.7c.009,0-.459-12.149-.355-14.561a8.393,8.393,0,0,1,.4-3.219,2.9,2.9,0,0,1,1.9-1.817,6.273,6.273,0,0,1,2.149-.233c.032.041,5.111-.012,9.781,6.379,1.493,1.909,5.859,8.065,6.7,13.651a28.5,28.5,0,0,1-2.238,14.993A15.566,15.566,0,0,1-112.912-45a28.776,28.776,0,0,1-3.358,2.259c-.065.034-.968.454-1.369.607a15.615,15.615,0,0,1-5.6,1.031,15.654,15.654,0,0,1-4.776-.744c-2.267-.724-6.4-4.044-8.078-5.646a5.853,5.853,0,0,0-.48,4.054c1.076,7.637,7.581,10.684,15.335,11.5A17.627,17.627,0,0,0-114-32.639c5.174-1.549,10.436-5.909,14.052-10.589A48.914,48.914,0,0,0-93.529-54.5a.675.675,0,0,0,.025-.076c2.6-8.35,3.2-12.857,2.73-18.726-.369-4.61-1.151-15.148-4.384-24.431a85.877,85.877,0,0,0-8.307-16.735,130.352,130.352,0,0,0-10.691-14.164c-19.487-22.89-90.647-26.127-102.055-26.127-.642,0-1.095.01-1.337.028Q-218.529-142.377-218.518-142.346Z" transform="translate(293.166 156.754)" style="fill-rule:evenodd;fill:url(#b)"/></g><g style="mask:url(#c)"><path d="M-252.314-36.184q10.681-45.851,41.748-63.962t76.81,24.445l6.687,10.766q-6.068-11.08-18.525-8.507t-11.99,26.491l-14.632,35.723L-228.6-13.915l-28.225-4.517Z" transform="translate(293.166 156.754)" style="fill-rule:evenodd;isolation:isolate;opacity:0.1221633180975914;fill:url(#d)"/></g><g style="mask:url(#e)"><path d="M-229.346-110.646q13.7,27.9,47.7,22.633,32.748-4.225,56.171,27.474l-16.794,22.062,34.036,36.723,51.813-62.414-23.328-67.84-148.67-24.3Z" transform="translate(293.166 156.754)" style="fill-rule:evenodd;fill:url(#f)"/></g><g style="mask:url(#g)"><path d="M-218.688-119.736q3.028,31.35,37.252,27.869,32.924-2.5,53.854,26.932L-145.5-43.783l32.072,38.458,55-59.61-19.754-68.971-133.262-22.75a6.745,6.745,0,0,0-7.878,6.792Z" transform="translate(293.166 156.754)" style="fill:#3badca;fill-rule:evenodd"/></g><g style="mask:url(#a)"><ellipse cx="-132.116" cy="-113.376" rx="4.714" ry="5.426" transform="translate(295.645 -67.044) rotate(-80)" style="fill:#fff"/></g><g style="mask:url(#a)"><path d="M-119.966-75.135q-28.683-36.6-60.235-33.848-20.874,1.9-30.365,8.837,5.978,6.185,10.911,7.552t15.562.846q36.114-3.778,56.511,26.813-.168-.318-.355-8.275" transform="translate(293.166 156.754)" style="fill-rule:evenodd;fill:url(#j)"/></g><path d="M19.494-117.728a6.659,6.659,0,0,1,5.027,2.027,7.294,7.294,0,0,1,1.947,5.271v44.113a6.575,6.575,0,0,1-1.784,4.865,6.357,6.357,0,0,1-4.7,1.784,6.387,6.387,0,0,1-4.662-1.784,6.489,6.489,0,0,1-1.825-4.865v-23.84L4.249-73.129a10.464,10.464,0,0,1-2.919,3.69,6.135,6.135,0,0,1-3.649,1.095,6.133,6.133,0,0,1-3.649-1.095,10.454,10.454,0,0,1-2.92-3.69l-9.163-16.542v23.354a6.524,6.524,0,0,1-1.824,4.825,6.42,6.42,0,0,1-4.744,1.824,6.391,6.391,0,0,1-4.663-1.784,6.492,6.492,0,0,1-1.824-4.865V-110.43A7.213,7.213,0,0,1-29.12-115.7a6.8,6.8,0,0,1,5.069-2.027,6.74,6.74,0,0,1,3.973,1.257,9.816,9.816,0,0,1,3,3.608L-2.157-84.8l14.839-28.058Q15.2-117.727,19.494-117.728ZM47.956-60.154a6.913,6.913,0,0,1-5.108-1.784,6.91,6.91,0,0,1-1.784-5.109V-110.43a6.913,6.913,0,0,1,1.784-5.109,6.913,6.913,0,0,1,5.108-1.784H76.014a8.168,8.168,0,0,1,5.27,1.46,5.133,5.133,0,0,1,1.784,4.217q0,5.838-7.054,5.838H55.579v10.866H74.392q7.055,0,7.055,5.758a5.134,5.134,0,0,1-1.784,4.216,8.173,8.173,0,0,1-5.271,1.46H55.579v11.839H76.014q7.055,0,7.054,5.839a5.131,5.131,0,0,1-1.784,4.216,8.168,8.168,0,0,1-5.27,1.46Zm89.524-57.574a6.794,6.794,0,0,1,5.068,2.027,7.214,7.214,0,0,1,1.987,5.271v43.383a7.4,7.4,0,0,1-1.947,5.352,6.656,6.656,0,0,1-5.027,2.027,6.516,6.516,0,0,1-5.514-2.432L107.4-92.833v25.786a7.589,7.589,0,0,1-1.865,5.352,6.5,6.5,0,0,1-5.027,2.027,6.658,6.658,0,0,1-5.028-2.027,7.4,7.4,0,0,1-1.946-5.352V-110.43a7.3,7.3,0,0,1,1.946-5.271,6.661,6.661,0,0,1,5.028-2.027,6.568,6.568,0,0,1,5.433,2.433l24.651,30.652V-110.43a7.348,7.348,0,0,1,1.906-5.311A6.593,6.593,0,0,1,137.48-117.728ZM179.4-59.749a7.569,7.569,0,0,1-5.473-1.986,7.023,7.023,0,0,1-2.068-5.312V-105.24H160.428a7.985,7.985,0,0,1-5.311-1.5,5.72,5.72,0,0,1-1.744-4.582,5.593,5.593,0,0,1,1.744-4.541,8.142,8.142,0,0,1,5.311-1.46h37.95a8.145,8.145,0,0,1,5.312,1.46,5.592,5.592,0,0,1,1.743,4.541,5.72,5.72,0,0,1-1.743,4.582,7.988,7.988,0,0,1-5.312,1.5H186.945v38.193a7.027,7.027,0,0,1-2.068,5.312A7.571,7.571,0,0,1,179.4-59.749Zm41.762-.405a6.914,6.914,0,0,1-5.109-1.784,6.914,6.914,0,0,1-1.784-5.109V-110.43a6.917,6.917,0,0,1,1.784-5.109,6.914,6.914,0,0,1,5.109-1.784h28.057a8.173,8.173,0,0,1,5.271,1.46,5.136,5.136,0,0,1,1.784,4.217q0,5.838-7.055,5.838H228.787v10.866H247.6q7.054,0,7.055,5.758a5.134,5.134,0,0,1-1.784,4.216,8.171,8.171,0,0,1-5.271,1.46H228.787v11.839h20.435q7.054,0,7.055,5.839a5.134,5.134,0,0,1-1.784,4.216,8.173,8.173,0,0,1-5.271,1.46Zm52.465,0a6.914,6.914,0,0,1-5.109-1.784,6.914,6.914,0,0,1-1.784-5.109V-110.43a6.917,6.917,0,0,1,1.784-5.109,6.914,6.914,0,0,1,5.109-1.784h16.38a35.982,35.982,0,0,1,16.34,3.447,24.369,24.369,0,0,1,10.5,9.852A30.313,30.313,0,0,1,320.5-88.779a30.979,30.979,0,0,1-3.609,15.367,23.815,23.815,0,0,1-10.46,9.852,36.541,36.541,0,0,1-16.421,3.406Zm15.326-12q8.352,0,12.528-4.1t4.176-12.528q0-8.433-4.176-12.488t-12.528-4.054h-7.3v33.166Zm76.873-43.221a6.372,6.372,0,0,1,4.947-2.433,6.788,6.788,0,0,1,4.824,2.068A6.407,6.407,0,0,1,377.749-111a6.805,6.805,0,0,1-1.784,4.46l-17.029,19.7v19.786a7.075,7.075,0,0,1-2.067,5.474,7.533,7.533,0,0,1-5.312,1.905,7.8,7.8,0,0,1-5.433-1.905,7,7,0,0,1-2.108-5.474V-86.833l-16.867-19.7a6.74,6.74,0,0,1-1.865-4.541,6.339,6.339,0,0,1,2.108-4.7,6.726,6.726,0,0,1,4.785-2.027,6.368,6.368,0,0,1,4.946,2.433l14.353,17.028Z" transform="translate(293.166 156.754)" style="fill:#5c21a2"/><path d="M396.472-59.478A7.994,7.994,0,0,1,390.5-61.9a8.28,8.28,0,0,1-2.365-6.025,8.282,8.282,0,0,1,2.365-6.026,7.994,7.994,0,0,1,5.969-2.421,7.994,7.994,0,0,1,5.969,2.421,8.282,8.282,0,0,1,2.365,6.026,8.28,8.28,0,0,1-2.365,6.025A7.994,7.994,0,0,1,396.472-59.478Z" transform="translate(293.166 156.754)" style="fill:#3badcc"/></svg>