<svg xmlns="http://www.w3.org/2000/svg" viewBox="0 0 965.073 155.957"><path d="M59.747,261.807c3.958,2.453,7.392,5.146,4.987,11.268-4.9,5.6-13.068,7.607-19.408,12.509.186,2.962,3.012,3.012,4.739,4.132,9.5,6.161,15.227,14.645,15.408,26.1q.386,24.424,0,48.861c-.183,11.758-5.664,20.855-15.906,26.584-15.554,8.7-30.333,18.936-47.308,24.9l-12.578,1.4c-23.218-2.969-41.138-16.6-59.527-28.968a21.771,21.771,0,0,1-9.6-21.043V339.5c0-15.611-.092-16.541.444-24.944,1.556-13.112,5.79-21.213,15.86-27.809-5.685-6.682-15.217-7.287-16.933-16.713l.338-2.317a13.114,13.114,0,0,1,5.721-5.86l.819-.163c11.517.994,19.942,9.04,30.043,13.126C-32.369,270.939-23.917,262.5-12.278,262H-.222c11.033,1.4,19.65,8.63,29.091,12.781,10.969-3.642,18.933-11.7,29.967-13.172Z" transform="translate(80.073 -261.609)"/><path d="M885,355l-.711.29-.768-.024c-3.194-3.658-3.229-7.3.068-10.913a.839.839,0,0,1,1.411.314Z" transform="translate(80.073 -261.609)" style="fill:#5e5e5e"/><path d="M697.019,335.091c12.314-9.11,15.277-21.338,11.608-34.737-3.754-13.709-14.673-20.064-28.072-21.855-13.382-1.808-26.918-.878-40.352-.482-5.855.172-8.817,4.512-8.8,10.643q.076,48.178-.017,96.341c-.018,7.216,3.892,10.833,10.488,10.833,14.019-.017,28.072,1.2,42.057-.792,15.947-2.291,26.453-11.109,29.536-24.68C716.911,355.31,712.623,345.786,697.019,335.091Zm-44.76-39.49c8.439-.534,16.378-.948,24.232.723,8.593,1.808,12.951,7.319,12.71,15.62-.242,8.543-5.443,14.519-14.278,15.208-7.336.568-14.742.12-22.664.12Zm41.385,66.581c-.637,9.007-6.424,14.656-16.378,15.155-7.957.414-15.948.086-24.8.086V345.132c8.99,0,17.825-.706,26.5.189C688.581,346.32,694.264,353.639,693.644,362.182Z" transform="translate(80.073 -261.609)"/><path d="M516.966,326.625c16.451-14.825,31.771-14.142,45.128,1.952,7.2-7.908,15.665-12.82,26.906-12.2,13.607.75,23.552,9.359,24.1,23.028.616,15.47.282,30.982.185,46.474-.039,6.348-3.223,10.476-9.874,10.376-6.851-.1-9.351-4.745-9.408-10.931-.11-12.05.077-24.1-.123-36.15-.182-10.912-4.083-15.268-13.072-15.26-9.492.01-15.92,6.434-15.975,16.128-.066,11.476-.042,22.953-.01,34.429.018,6.54-2.239,11.607-9.5,11.757-7.873.162-9.97-5.2-9.922-12.085.081-11.763.155-23.529-.025-35.289-.16-10.5-4.468-15.093-13.476-14.935-9.081.159-15.5,6.528-15.586,15.707-.1,11.476-.017,22.953-.051,34.43-.019,6.724-1.984,12.275-9.926,12.19-8.023-.087-9.6-5.847-9.6-12.483,0-16.928.07-33.857-.031-50.784-.039-6.531-.213-13.326,7.69-15.328C511.258,315.91,514.481,321.19,516.966,326.625Z" transform="translate(80.073 -261.609)"/><path d="M185.571,287.9c.2,11.253-4.069,14.494-14.25,10.873-7.346-2.613-14.6-4.96-22.573-3.834-6.848.967-12.206,4.057-13.733,11s2.837,11.54,8.485,14.411c8.384,4.262,17.209,7.655,25.6,11.908,16.266,8.247,22.9,20.761,20.068,36.914-2.55,14.548-15.507,25.425-32.423,27.194-14.674,1.535-28.5-.682-40.881-9.276-5.529-3.838-8.995-8.939-4.776-15.17,4.026-5.945,9.774-4.378,15.2-1.041,9.713,5.979,19.818,10.332,31.61,6.726,5.919-1.811,10.072-5.15,11.03-11.689.976-6.654-2.154-11.279-7.6-14.1-8.872-4.6-18.216-8.3-27.04-12.978-16.763-8.894-22.642-20.7-19.117-37.059,3.134-14.549,15.1-23.894,32.82-24.986C161.88,275.935,175.513,276.619,185.571,287.9Z" transform="translate(80.073 -261.609)"/><path d="M392.031,360.546c9.576-.087,12.348-3.118,11.694-12.538A32.046,32.046,0,0,0,401,336.434c-6.906-14.776-20.96-21.837-39.215-19.53-16.172,2.067-29.157,14.57-31.93,31.4-2.773,16.86,1.36,31.585,16.154,41.367,15.638,10.316,32.378,9.869,49.049,2.274,4.116-1.878,5.632-5.753,4.134-10.127-1.447-4.185-5.029-5.391-9.042-4.753-3.634.585-7.147,1.877-10.781,2.6-15.741,3.135-28.141-4.46-30.139-19.082C363.563,360.58,377.806,360.666,392.031,360.546Zm-22.2-29.106c9.162.964,14.776,6.6,15.672,16.154H349.527C352.575,336.348,360.291,330.441,369.832,331.44Z" transform="translate(80.073 -261.609)"/><path d="M789.727,360.6c7.939.035,11.556-3.634,10.936-11.694-.706-9.214-3.91-17.153-10.8-23.508-12.4-11.453-33.945-12.09-48.532-1.395-14.673,10.764-19.736,33.273-11.694,50.513,11.091,23.766,41.816,27.676,62.534,17.463,2.721-1.343,3.892-4.1,4.65-7.7-.895-2.962-2.032-5.511-5.511-7.165-8.869-1.291-17.567,5.081-27.28,2.773-10.4-2.445-16.7-8.525-18.049-19.306C760.6,360.58,775.174,360.528,789.727,360.6Zm-24.37-29.278c9.317.173,15.431,5.546,17.705,16.43H746.688C748.755,337.123,755.661,331.13,765.357,331.319Z" transform="translate(80.073 -261.609)"/><path d="M871.463,323.4c-15.224-11.573-39.146-8.611-52.2,6.2-13.313,15.087-12.4,41.557,1.894,55.7,13.434,13.3,43.693,16.482,55.972,5.907,2.894-2.514,3.927-5.7,2.739-9.283-1.24-3.754-4.2-5.476-8.06-4.891-3.651.551-7.2,1.654-10.816,2.446-16.085,3.548-29.346-4.289-30.9-18.91,14.328,0,28.588.017,42.866,0,4.357-.017,8.783-.052,10.557-5.305.017-3.634.052-7.267.069-10.9C882.675,335.556,878.318,328.616,871.463,323.4Zm-41.109,24.284c1.946-10.368,9.334-16.654,18.789-16.362,9.524.31,15.345,5.563,17.274,16.362Z" transform="translate(80.073 -261.609)"/><path d="M478.728,338.9c-.086-6.389-3.049-11.521-7.75-15.638-10.179-8.938-38.406-9.076-48.653-.327a11.481,11.481,0,0,0-3.823,7.079c4.081,8.2,5.7,9.041,13.175,6.423,5.442-1.928,10.987-3.272,16.757-2.893,9.937.655,12.968,5.081,10.919,15.586-5.27.741-10.626,1.378-15.948,2.256-5.632.93-11.246,1.86-16.551,4.237-12.193,5.459-17.1,15.035-13.64,26.918,3.014,10.3,14.984,16.62,26.9,14.588,7.474-1.292,13.588-5.357,20.081-9.628,1.739,6.39,5.27,9.869,11.366,8.663,6.218-1.223,7.63-6.183,7.6-11.745C479.038,369.243,478.934,354.07,478.728,338.9Zm-19.2,35.461a28.223,28.223,0,0,1-18.807,7.078c-4.667.017-8.749-1.6-9.524-6.768-.723-4.754,2.429-7.475,6.545-8.852a75.826,75.826,0,0,1,21.752-3.979A32.579,32.579,0,0,1,459.525,374.358Z" transform="translate(80.073 -261.609)"/><path d="M208.85,335.057l-10.406-.98c-4.483-8.276,15.213-28.69,26.93-28.5,4.084,3.063,2.531,7.88,3.848,12.841,6.589,0,13.364.076,20.136-.024,5.581-.082,9.956,1.653,9.952,7.926,0,6.058-4.065,8.35-9.75,8.316-6.565-.039-13.131-.009-20.766-.009,0,12.82-.41,25.3.193,37.722.256,5.282,4.836,7.214,10.028,7.362,4.176.118,7.713-1.987,11.618-2.755,4.11-.807,7.468.1,9.161,4.236,1.578,3.86.977,7.8-2.51,10-11.157,7.026-23.269,7.78-35.416,3.226-10.816-4.055-13.151-13.346-13.045-23.788C208.941,358.925,208.85,347.223,208.85,335.057Z" transform="translate(80.073 -261.609)" style="fill:#010101"/><path d="M294.263,347.615c0,11.958-.069,23.691.025,35.423.056,7.046-1.88,12.633-9.948,13.237-6.558.491-9.894-4.007-9.935-13.025-.08-17.176.1-34.354-.086-51.528-.072-6.881.964-13.444,8.919-14.194,7.728-.728,10.8,5.028,11.477,12.635,5.357-7.129,11.132-12.831,20.245-13.369,5.989-.354,10.364,1.861,11.035,8.084.7,6.484-2.935,10.548-9.351,10.9C307.512,336.283,299.994,339.324,294.263,347.615Z" transform="translate(80.073 -261.609)" style="fill:#010101"/><path d="M1.5,365.417a17.257,17.257,0,0,1-17.061.14c-16.569-8.829-32.763-18.362-49.09-27.616V318.753c20.092,8.127,36.169,23.482,57.516,27.475,3.729,4.037,1.5,9.427,3.169,13.932C-3.016,362.82.1,363.227,1.5,365.417Z" transform="translate(80.073 -261.609)" style="fill:#f6ac07"/><path d="M1.5,365.417l-7.622-.461c-1.93-6.434-.561-12.642-1.013-18.728a.957.957,0,0,1,1.281-.113c1.737-.9,3.82-.115,5.532-1.138,15.209-4.751,27.733-14.668,41.753-21.709,2.972-1.493,5.884-3.1,9.594-5.07v19.817C34.744,346.714,18.893,357.41,1.5,365.417Z" transform="translate(80.073 -261.609)" style="fill:#fdd900"/><path d="M-1.877,401.609c-7.03,2.422-13.487.489-19.591-2.9-10.97-6.087-21.908-12.242-32.7-18.632-9.693-5.738-12.114-12.258-9.563-25.468,11.027,6.348,21.925,12.357,32.549,18.815,9.545,5.8,19.481,9.409,30.82,7.841C-5.448,387.708-6.936,394.415-1.877,401.609Z" transform="translate(80.073 -261.609)" style="fill:#f6ac07"/><path d="M-1.877,401.609c-1.578-.45-3.507.061-4.926-2.117V384.608c1.17-2.9,4.9-1.044,6.438-3.341,15.08-4.145,27.143-14.142,40.79-21.068,3.243-1.646,6.364-3.531,9.678-5.382,3.112,13.54.693,19.465-10.373,25.857C29.38,386.652,18.957,392.5,8.6,398.471,5.333,400.356,1.969,401.739-1.877,401.609Z" transform="translate(80.073 -261.609)" style="fill:#fdd800"/><path d="M-7.121,330.933a9.62,9.62,0,0,1-6.685-.913c-14.974-8.264-29.9-16.613-45.972-25.565l16.516-9.755c14.032,5.361,24.764,18.009,41.147,16.1C-6.021,316.951-3.027,324.823-7.121,330.933Z" transform="translate(80.073 -261.609)" style="fill:#f6ac07"/><path d="M-7.121,330.933V313.787c1.76-1.052,3.385-2.022,5.008-2.993,11.271-3.5,20.481-11.033,31.694-16.262L46.207,304.1C31.179,312.749,17.4,320.809,3.476,328.609.315,330.379-3.213,331.893-7.121,330.933Z" transform="translate(80.073 -261.609)" style="fill:#fcd800"/><path d="M-7.109,296.392c-8-.175-13.032-6.579-22.1-9.912,9.522-4.32,15.525-11.966,25.823-9.205C-5.523,283.474-3,290.577-7.109,296.392Z" transform="translate(80.073 -261.609)" style="fill:#f3a907"/><path d="M-7.109,296.392c-.006-4.235.018-8.47-.028-12.7-.032-2.915-.133-5.812,3.748-6.413,6.893.5,11.255,5.8,19.032,8.47C6.923,290.282,1.424,296.374-7.109,296.392Z" transform="translate(80.073 -261.609)" style="fill:#f8d400"/><path d="M-.32,344.977c-1.554,1.792-3.53,1.533-5.533,1.138A7.006,7.006,0,0,1-.32,344.977Z" transform="translate(80.073 -261.609)" style="fill:#f6ac07"/></svg>