<svg xmlns="http://www.w3.org/2000/svg" viewBox="0 0 502.194 155"><path d="M431.222,343.556c-8.984-14.5-18.27-28.764-29.889-42.889v42.666a28.346,28.346,0,0,1-7.9-.232V287.882c1.929-.994,4.012-.437,6.2-.373,11,12.082,20.534,25.349,30.243,40.02,0-13.811.182-27.542.182-40.071,4.23-.02,4.847.119,7.512-.034,0,18.455.093,37.722.093,56.3A45.81,45.81,0,0,1,431.222,343.556Z" transform="translate(-139.943 -241.589)" style="fill:#2e2e2e"/><path d="M619.769,287.57h-7.494c-8.528,17.9-15.813,37.082-22.386,56.208a61.412,61.412,0,0,0,8.417-.084c1.627-4.352,3.5-9.861,5.113-14.163h24.79c1.779,4.706,3.47,9.184,5.2,13.751h8.73C635.287,324.081,628.361,305.535,619.769,287.57Zm-13.638,34.77c2.347-8.453,5.665-16.186,9.589-24.917,4.264,8.44,7,16.439,9.991,24.917Z" transform="translate(-139.943 -241.589)" style="fill:#2e2e2e"/><path d="M475,287.482h-7.329c-8.68,18.154-15.646,37.046-22.282,55.907a54.325,54.325,0,0,0,8.444.111c1.64-4.491,3.291-9.642,4.842-13.906h24.93c1.791,4.794,3.6,9.975,5.353,14.656,2.889-.328,4.542-.208,8.459-.333C490.554,324.98,483.718,305.233,475,287.482Zm-13.574,34.77c2.472-8.541,5.816-16.288,9.588-24.879,4.39,8.238,6.749,16.375,10.206,24.879Z" transform="translate(-139.943 -241.589)" style="fill:#2d2d2d"/><path d="M532.479,288.756c-9.02-2.738-18.192-1.943-27.427-.58V343.6a36.255,36.255,0,0,0,7.948-.015l.013-20.625c6.446-.643,12.578.215,18.507-1.564,7.873-2.347,12.175-7.469,12.465-15.341C544.325,297.057,540.692,291.267,532.479,288.756Zm1.565,21.561c-5.362,7.216-13.26,5.122-20.9,5.349V294.383c7.8-.568,15.3-1.855,20.7,4.781A8.922,8.922,0,0,1,534.044,310.317Z" transform="translate(-139.943 -241.589)" style="fill:#2d2d2d"/><path d="M298.882,340.806c-.325-2.753.874-4.688,1.968-6.718,5.992,2.724,12.054,4.324,18.482,3.2,3.587-.625,6.973-1.869,7.87-6.13.914-4.338-1.067-7.532-4.553-9.512a109.433,109.433,0,0,0-11.435-5.088c-9.324-3.959-13-9.6-11.481-17.7,1.469-7.827,7.4-12.266,17.113-12.679a31,31,0,0,1,16.3,3.266c.344,2.711-1.018,4.543-2.217,6.614a28.906,28.906,0,0,0-15.419-2.479c-3.64.441-6.466,2.23-7.434,5.842-1.013,3.78.922,6.652,4.146,8.331,4.26,2.218,8.751,3.987,13.107,6.027,8.853,4.146,12.076,10.191,10.337,19.24-1.209,6.294-7.112,10.581-15.634,11.23C312.67,344.816,305.434,344.54,298.882,340.806Z" transform="translate(-139.943 -241.589)" style="fill:#2e2e2e"/><path d="M549.307,340.513c.8-2.242,1.488-4.152,2.3-6.427,5.79,2.379,11.569,4.225,17.687,3.39,3.984-.544,8.023-1.553,8.976-6.435.961-4.927-1.717-8.083-5.727-10.082-3.911-1.951-8.129-3.278-12.11-5.1-7.382-3.382-10.841-9-9.928-15.75,1-7.43,5.595-12.044,13.531-13.6,6.077-1.195,13.727-.021,20.07,3.087.761,2.567-1.3,4.189-1.815,6.6a29.778,29.778,0,0,0-15.668-2.624c-3.667.4-6.438,2.214-7.47,5.764-1.094,3.764.835,6.695,4,8.39,4.222,2.261,8.734,3.977,13.083,6.009,8.917,4.167,12.1,10.013,10.5,19.117-1.139,6.485-7.188,10.8-16.06,11.462C561.711,344.978,557.377,344.251,549.307,340.513Z" transform="translate(-139.943 -241.589)" style="fill:#2e2e2e"/><path d="M366.792,343.208c-3.223.181-5.695.111-8.389.042a9.742,9.742,0,0,1,.082-1.093c2.424-15.734-3.464-28.891-12.392-41.263-2.771-3.84-4.7-8.291-7.364-13.1h9.4c4.543,8.252,8.5,17.267,14.542,25.4,5.657-8.274,9.9-16.9,14.432-25.588h9.169c-4.661,8.008-8.677,15.914-13.65,23.163-4.2,7.733-6.4,8.622-6.507,22.289A84.982,84.982,0,0,0,366.792,343.208Z" transform="translate(-139.943 -241.589)" style="fill:#2e2e2e"/><path d="M177.025,247.957c10.214,6.112,16.938,15.87,25.041,24.22a72.376,72.376,0,0,1,13,18.425c5.237,10.628,2.488,17.444-8.8,20.608-15.944,4.469-32.3,4.369-48.667,3.38a93.949,93.949,0,0,1-15.545-2c7.662,0,15.328.157,22.985-.039,9.854-.252,19.67-1.2,29.168-3.961,13.087-3.8,16.641-11.561,10.847-23.883-5.608-11.926-14.946-21.061-23.453-30.894a70.606,70.606,0,0,1-4.545-5.826Z" transform="translate(-139.943 -241.589)" style="fill:#6abe2a"/><path d="M250.529,245.526c1.879,14.568,1.929,39.2,10.06,39.622,1.191.7,11.952-4.987,17.584-9.781a27.293,27.293,0,0,1-5.667,8.94c-4.344,4.569-8.661,10.2-15.811,7.773-6.462-2.2-7.287-9.132-7.713-14.71C248.208,267.232,247.473,256.928,250.529,245.526Z" transform="translate(-139.943 -241.589)" style="fill:#6bbe2b"/><path d="M276.676,353.549c-5.193-4.269-8.989-7.927-15.2-9.665-10.185,10.185-9.69,23.76-10.931,38.21-2.572-13.264-3-25.2.4-37.01,2.258-7.829,6.855-9.332,13.738-5.071C268.867,342.6,273.236,347.332,276.676,353.549Z" transform="translate(-139.943 -241.589)" style="fill:#6dbf2e"/><path d="M279.8,281.179c-2.717,4.084-5.1,7.156-6.939,10.528-5.927,10.894-3.614,16.658,8.162,19.97.873.245,1.507.385,3.75,2.277-3.407,0-8.383.157-11.742-.167a10.234,10.234,0,0,1-8.775-12.709C265.84,294.1,271.947,286,279.8,281.179Z" transform="translate(-139.943 -241.589)" style="fill:#6dbf2e"/><path d="M242.427,255.844a37.008,37.008,0,0,1-2.64,13.38c-2.85,7.516-7.285,9.7-14.593,6.469a62.24,62.24,0,0,1-10.562-6.564c-8.593-6.108-15.266-14.189-22.941-22.6,8.054,14.459,18.664,27.99,32.166,37.64,8.565,6.123,17.593,2.618,19.64-7.709,1.517-7.654,1.412-15.353,1.133-23.07a20.483,20.483,0,0,0-.243-2.472,69.082,69.082,0,0,0-1.96-9.329v14.255" transform="translate(-139.943 -241.589)" style="fill:#6abe2a"/><path d="M274.817,317.319c-8.872.507-12.33,5.813-8.994,14.181,1.877,4.709,4.333,7.686,8.293,13.048a21.613,21.613,0,0,0,5.467,4.7c-3.224-4.591-2.307-3.31-3.61-5.011-.731-1.259-2.38-3.876-3.112-5.135-7.007-12.047-2.879-20.4,10.191-19.326a5.092,5.092,0,0,0,1.787-.245C282.018,316.568,277.27,317.179,274.817,317.319Z" transform="translate(-139.943 -241.589)" style="fill:#6abe2a"/><polygon points="106.064 67.138 106.064 67.201 106.014 67.201 106.064 67.138" style="fill:#addb89"/><path d="M250.829,314.522a7.627,7.627,0,0,0-3.545-5.749c-.074-.042-.034-.017-.178-.109a8.835,8.835,0,0,0-6.427-.734c-7.693,1.769-7.719,13.255-.021,15.006a9.369,9.369,0,0,0,6.292-.844C250.45,320.4,250.9,318.114,250.829,314.522Zm-3.64,5.106a7.835,7.835,0,0,1-3.268,1.1c-3.327.234-6.177-.354-6.641-5.06-.45-4.468,2.909-6.289,6.448-6.807A5.716,5.716,0,0,1,248.5,310.8a8.007,8.007,0,0,1,.963,1.379,5.03,5.03,0,0,1,.515,2.5A5.96,5.96,0,0,1,247.189,319.628Z" transform="translate(-139.943 -241.589)" style="fill:#6abe2a"/><path d="M242.868,359.812c-3.047-10.944-10.037-13.248-19.4-6.262-14.179,10.583-24.093,24.876-33.239,39.745h0c-.645,1-.662,1-1.994,3.293a22.267,22.267,0,0,0,2.385-3c1.387-1.546,2.794-3.073,4.156-4.641,8.115-9.349,15.935-19.078,26.862-25.37,10.426-6,16.393-3.361,19.489,8.253,2.03,7.616,1.9,15.442,2.25,23.254C244.98,383.305,246.114,371.473,242.868,359.812Z" transform="translate(-139.943 -241.589)" style="fill:#6abe2a"/><path d="M206.831,324.508A49.646,49.646,0,0,0,190.3,321.4c-14.258-.192-28.49-.083-42.547,2.764h0c-3.529.934-3.45.881-7.809,2.045,6.488-.428,11.534-.638,19.068-1h0c11.5-.02,22.986.528,34.064,3.85,14.134,4.237,17.858,13.587,11.483,27.031-4.573,9.646-12.3,16.821-19.315,24.532-3.364,3.276-4.433,4.363-8.5,8.851,5.278-3.665,6.75-4.734,10.075-7.456h0c1.9-1.615,3.917-3.119,5.693-4.865,9.111-8.957,18.606-17.632,23.961-29.614C221.2,336.964,217.716,328.507,206.831,324.508Z" transform="translate(-139.943 -241.589)" style="fill:#77c43d"/></svg>