<svg xmlns="http://www.w3.org/2000/svg" width="148" height="46" viewBox="0 0 148 46">
    <defs>
        <linearGradient id="jj3xb" x1="17.35" x2="25.62" y1="17.84" y2="17.84" gradientUnits="userSpaceOnUse">
            <stop offset="0" stop-color="#d6a828"/>
            <stop offset="1" stop-color="#e9d124"/>
        </linearGradient>
        <linearGradient id="jj3xd" x1="10.26" x2="26.46" y1="20.01" y2="20.01" gradientUnits="userSpaceOnUse">
            <stop offset="0" stop-color="#d6a828"/>
            <stop offset="1" stop-color="#e9d124"/>
        </linearGradient>
        <linearGradient id="jj3xf" x1="0" x2="30.11" y1="23.08" y2="23.08" gradientUnits="userSpaceOnUse">
            <stop offset="0" stop-color="#d6a828"/>
            <stop offset="1" stop-color="#e9d124"/>
        </linearGradient>
        <linearGradient id="jj3xh" x1="72.69" x2="147.41" y1="15.74" y2="15.74" gradientUnits="userSpaceOnUse">
            <stop offset="0" stop-color="#d6a828"/>
            <stop offset="1" stop-color="#e9d124"/>
        </linearGradient>
        <linearGradient id="jj3xj" x1="72.7" x2="147.39" y1="15.74" y2="15.74" gradientUnits="userSpaceOnUse">
            <stop offset="0" stop-color="#d6a828"/>
            <stop offset="1" stop-color="#e9d124"/>
        </linearGradient>
        <linearGradient id="jj3xl" x1="72.69" x2="147.39" y1="15.74" y2="15.74" gradientUnits="userSpaceOnUse">
            <stop offset="0" stop-color="#d6a828"/>
            <stop offset="1" stop-color="#e9d124"/>
        </linearGradient>
        <linearGradient id="jj3xn" x1="72.69" x2="147.39" y1="15.74" y2="15.74" gradientUnits="userSpaceOnUse">
            <stop offset="0" stop-color="#d6a828"/>
            <stop offset="1" stop-color="#e9d124"/>
        </linearGradient>
        <linearGradient id="jj3xp" x1="72.71" x2="147.38" y1="15.74" y2="15.74" gradientUnits="userSpaceOnUse">
            <stop offset="0" stop-color="#d6a828"/>
            <stop offset="1" stop-color="#e9d124"/>
        </linearGradient>
        <clipPath id="jj3xa">
            <path d="M19.251 13.95a4.243 4.243 0 0 0-1.901 3.534c0 .063.008.124.011.185.004.091.007.182.016.27v.003c.004.064.013.128.024.188.006.042.016.082.024.122l.03.153a4.516 4.516 0 0 0 .112.406l.018.063c.018.043.034.084.048.127l.032.079.04.097.019.043.006.014c.024.053.047.107.074.157l.035.063a4.466 4.466 0 0 0 .212.36c.025.038.052.075.078.112.03.042.057.087.089.128l.054.07.038.045.09.101c.042.049.084.1.127.144l.028.027c.05.05.1.098.152.146l.083.08.074.063.086.07.035.028c.054.047.11.09.171.127l.037.028.01.006.064.042.064.043.054.03c.118.071.24.138.364.199l.01.005.005.002.008.004c.237.114.486.205.745.273l.001.001.08.023.051.01c.066.016.134.03.202.041l.047.01.149.02c.055.008.11.016.165.02l.023.004h.03l.155.01h.075c.035.002.07.006.104.006.143 0 .284-.01.422-.023h.007l.018-.003c.127-.013.252-.032.376-.057l.027-.004.056-.013c.074-.016.148-.034.22-.054l.13-.037.01-.003a4.22 4.22 0 0 0 .77-.329l.008-.004.028-.017c.117-.065.23-.136.34-.213l.015-.01.007-.004a4.264 4.264 0 0 0 1.017-1.009l.002-.002c.04-.05.074-.104.111-.162l.003-.006.075-.12.007-.011c.023-.037.043-.074.064-.112l.004-.008c.12-.217.222-.444.303-.68h-.002l-.067.048a6.906 6.906 0 0 1-.439.298c-.037.024-.075.05-.113.072l-.054.032c-.073.043-.145.08-.218.118l-.148.074-.11.05a5.593 5.593 0 0 1-.32.129 4.14 4.14 0 0 1-.315.097l-.045.012a3.665 3.665 0 0 1-.36.073l-.015.001a3.43 3.43 0 0 1-.32.03l-.059.002c-.1.003-.198.002-.293-.004l-.027-.001a3.489 3.489 0 0 1-.578-.095 3.502 3.502 0 0 1-.41-.134c-.1-.04-.196-.086-.29-.131l-.077-.038-.024-.014a4.58 4.58 0 0 1-.352-.215 6.86 6.86 0 0 1-.115-.083l-.057-.042-.071-.056-.06-.047-.08-.068a4.5 4.5 0 0 1-.266-.246 3.669 3.669 0 0 1-.15-.157 3.095 3.095 0 0 1-.08-.09l-.013-.015c-.198-.228-.3-.391-.3-.391s.072-.058.168-.17l.011-.012.019-.024c.118-.144.26-.361.357-.655v-.004c.018-.047.031-.094.045-.148v-.005l.017-.083.006-.03a.748.748 0 0 0 .02-.127l.001-.01c.005-.042.007-.086.01-.13a2.675 2.675 0 0 0 0-.28v.001-.022l-.007-.042a2.68 2.68 0 0 0-.047-.314l-.004-.024a2.201 2.201 0 0 0-.056-.222c-.01-.034-.025-.07-.037-.105-.011-.033-.02-.066-.034-.1-.014-.034-.027-.07-.044-.107l-.006-.012a4.071 4.071 0 0 0-.132-.283c-.023-.044-.045-.088-.07-.133a4.632 4.632 0 0 0-.177-.294l-.036-.059c-.034-.057-.074-.111-.113-.167a4.872 4.872 0 0 0-.09-.122l-.052-.07a3.692 3.692 0 0 0-.125-.159c-.038-.051-.082-.1-.126-.152l-.037-.046z"/>
        </clipPath>
        <clipPath id="jj3xc">
            <path d="M13.472 10.023c-.525.562-.992 1.18-1.41 1.833a8.21 8.21 0 0 0-.221.374c-.054.09-.104.185-.155.279v.007l-.049.092-.003.005-.036.068c-.023.046-.046.09-.067.137l-.03.064c-.03.06-.06.118-.087.178-.05.108-.098.216-.145.327l-.001.003-.01.023a12.244 12.244 0 0 0-.295.75l-.01.03c-.038.11-.07.22-.107.331-.056.17-.116.34-.165.51l-.196.848c-.04.141-.057.283-.07.42l-.054.415-.054.413c-.023.131-.013.306-.023.458l-.024.89c.057 1.161.229 2.308.579 3.401.372 1.08.86 2.116 1.5 3.04.154.236.343.448.507.67.087.11.169.222.26.33l.285.302c.081.084.158.168.236.256l.036.036c.041.045.087.086.13.13.057.059.112.12.173.173.152.139.307.273.458.408l.049.042.11.099.03.023c.042.037.084.073.127.108l.158.114c.113.082.227.162.338.246l.024.017.011.01.128.094.162.121.35.205c.057.034.117.067.174.1.115.068.228.139.347.206.057.034.114.067.174.098.115.05.229.104.344.157.124.058.252.118.376.18.113.062.236.109.358.149.126.044.254.085.377.133.13.043.257.094.385.14.116.04.233.078.354.102.252.064.5.128.75.188l.065.012c.224.05.435.066.652.102l.054.01.07.014c.043.007.087.014.134.02l.06.007.068.009h.013l.064.006c.123.01.25.02.38.025l.173.008c.19.007.381.013.565.023l.105.006h.054l.164-.01.367-.02c.128-.01.258-.014.386-.02l.157-.007.182-.02c.27-.034.537-.082.8-.134.044-.008.087-.018.13-.027.107-.022.215-.042.32-.068.112-.027.22-.054.33-.084l.006-.001.152-.042.064-.018c.182-.05.36-.104.539-.164l.035-.013.16-.055c.031-.012.062-.022.094-.033.076-.028.15-.06.226-.088.112-.043.227-.082.337-.127l-.001-.004-.134-.238a30.781 30.781 0 0 1-1.409-2.897c-.189.09-.385.17-.585.247l-.121.045c-.065.024-.132.043-.197.066-.158.054-.315.108-.478.153a8.896 8.896 0 0 1-.564.14c-.054.01-.108.022-.161.033a9.228 9.228 0 0 1-.526.085c-.045.006-.089.014-.134.019-.08.014-.16.02-.24.028-.069.004-.138.01-.208.012-.044 0-.09.004-.134.004l-.292.013-.148.003h-.081l-.034-.003h-.065c-.36-.027-.686-.024-1.134-.108l-.212-.032-.13-.021a2.746 2.746 0 0 1-.283-.058c-.199-.05-.397-.104-.6-.158-.157-.037-.306-.097-.456-.154a2.51 2.51 0 0 0-.13-.051c-.047-.017-.097-.034-.148-.054l-.095-.034c-.04-.015-.08-.034-.12-.05-.074-.03-.15-.06-.219-.1l-.062-.03a7.94 7.94 0 0 1-.943-.517 10.22 10.22 0 0 1-.574-.394 4.43 4.43 0 0 1-.127-.096c-.032-.024-.063-.05-.094-.075-.1-.078-.201-.156-.3-.237l-.036-.031c-.065-.055-.125-.116-.188-.174a8.44 8.44 0 0 1-.633-.646 9.3 9.3 0 0 1-.43-.526c-.037-.05-.076-.099-.112-.15-.113-.153-.223-.309-.326-.468a9.681 9.681 0 0 1-1.077-2.401c-.107-.428-.216-.855-.259-1.296a4.868 4.868 0 0 1-.067-.659l-.02-.699.036-.602c.004-.192.041-.42.078-.65.057-.463.178-.884.293-1.304.275-.831.639-1.631 1.123-2.348.105-.15.214-.298.325-.443l.013-.018.086-.11c.102-.129.205-.255.312-.378l.06-.069c.12-.137.246-.27.375-.4.081-.08.167-.157.251-.236.08-.073.157-.15.24-.22l-.041-.02-.21-.11c-.037-.02-.074-.034-.111-.053a10.115 10.115 0 0 0-.278-.13c-.033-.015-.066-.032-.099-.046l-.238-.101c-.078-.034-.159-.06-.233-.087-.07-.024-.137-.05-.209-.075l-.023-.006c-.15-.044-.299-.091-.447-.128z"/>
        </clipPath>
        <clipPath id="jj3xe">
            <path d="M19.25 13.952l.037.046c.043.05.088.1.126.152.044.053.087.107.124.158l.054.07.089.123c.04.055.079.11.113.167l.036.059c.064.1.125.198.177.293l.07.134c.048.096.094.19.132.282l.005.012c.018.037.03.074.044.108.014.034.023.066.035.1.012.034.026.07.036.105.024.075.043.149.057.222l.004.024c.022.11.038.213.047.313l.006.043.001.022a2.675 2.675 0 0 1 0 .28c-.003.043-.005.087-.01.129v.01a.748.748 0 0 1-.021.127l-.006.03-.017.083v.005c-.014.054-.027.1-.044.148l-.002.003a2.035 2.035 0 0 1-.356.655l-.019.025-.011.012a1.47 1.47 0 0 1-.169.17s.103.163.3.39l.013.015a3.669 3.669 0 0 0 .365.375c.042.04.085.079.131.118l.08.069.06.047.072.056.057.042.115.083a4.58 4.58 0 0 0 .352.215l.023.013.077.038c.095.045.191.091.29.132a3.502 3.502 0 0 0 .411.134c.182.046.375.078.578.094l.027.001c.095.007.193.008.293.005l.058-.002a3.43 3.43 0 0 0 .321-.03l.015-.001c.118-.018.237-.042.36-.073l.045-.012a4.14 4.14 0 0 0 .634-.227 6.088 6.088 0 0 0 .477-.241l.054-.033c.038-.022.076-.047.114-.071a6.906 6.906 0 0 0 .438-.298l.067-.05v.002l.002-.001c-.081.237-.184.464-.304.68l-.004.01c-.02.036-.04.073-.064.11l-.006.011a3.61 3.61 0 0 1-.075.12l-.003.007c-.038.057-.07.111-.11.162l-.003.002c-.28.391-.624.732-1.017 1.008l-.007.005-.014.01c-.11.077-.224.147-.342.213l-.027.016-.01.005a4.22 4.22 0 0 1-.769.328l-.008.003-.13.037c-.073.02-.147.039-.221.055l-.056.013-.027.004a4.184 4.184 0 0 1-.376.057l-.018.002h-.007c-.138.014-.28.024-.422.024-.035 0-.069-.004-.104-.005l-.075-.001c-.05-.004-.105-.008-.155-.01h-.03l-.023-.004c-.056-.004-.11-.013-.166-.02-.049-.006-.098-.015-.148-.02l-.047-.01a3.95 3.95 0 0 1-.202-.041l-.05-.01-.08-.023-.002-.001a4.19 4.19 0 0 1-.745-.274l-.008-.003-.005-.002-.01-.006a4.257 4.257 0 0 1-.364-.2l-.054-.029-.065-.043-.063-.042-.01-.006-.037-.027a1.245 1.245 0 0 1-.171-.128l-.035-.027-.087-.07-.073-.064-.083-.08c-.051-.047-.103-.095-.152-.146l-.028-.026c-.044-.044-.085-.096-.127-.144l-.09-.101-.039-.045-.053-.07c-.032-.041-.06-.086-.09-.129a4.466 4.466 0 0 1-.29-.472l-.034-.062a2.108 2.108 0 0 1-.074-.158l-.007-.013-.018-.043-.04-.098-.032-.078c-.014-.043-.03-.084-.048-.128l-.018-.062a4.516 4.516 0 0 1-.112-.406l-.03-.153c-.008-.04-.019-.08-.024-.122-.01-.06-.02-.125-.024-.189v-.001c-.01-.09-.012-.18-.016-.271-.003-.062-.011-.122-.011-.185 0-1.473.757-2.774 1.9-3.534zm2.59 16.043c-.185-.01-.375-.016-.566-.023a9.867 9.867 0 0 1-.553-.033l-.063-.005-.014-.001-.068-.009-.06-.007-.134-.02-.069-.015-.054-.009c-.217-.036-.428-.052-.652-.102l-.065-.012c-.249-.06-.498-.124-.75-.189a2.38 2.38 0 0 1-.353-.102c-.128-.045-.254-.096-.385-.14-.123-.047-.25-.088-.376-.132a2.031 2.031 0 0 1-.358-.15 18.877 18.877 0 0 0-.376-.179c-.115-.053-.229-.107-.343-.157a3.085 3.085 0 0 1-.175-.098c-.118-.067-.232-.138-.346-.205l-.175-.101-.35-.205-.16-.121-.129-.094-.01-.01-.025-.017c-.11-.084-.225-.164-.338-.246l-.158-.114a3.837 3.837 0 0 1-.127-.108l-.03-.023-.11-.1-.049-.041c-.15-.135-.305-.27-.457-.408-.061-.053-.116-.114-.173-.173-.043-.044-.089-.085-.13-.13l-.036-.036a9.354 9.354 0 0 0-.235-.256l-.286-.302c-.09-.108-.172-.22-.26-.33-.164-.222-.352-.434-.507-.67-.639-.924-1.126-1.96-1.498-3.04-.35-1.093-.522-2.24-.579-3.4l.024-.891c.01-.152 0-.327.023-.458l.054-.413.054-.414c.013-.138.03-.28.07-.42l.195-.848c.05-.172.11-.34.166-.51.036-.112.068-.223.107-.333l.01-.028a12.26 12.26 0 0 1 .295-.75l.009-.024.001-.003c.047-.111.094-.219.145-.327.027-.06.057-.117.087-.178l.03-.064c.021-.047.044-.09.067-.137l.037-.068.002-.005c.017-.031.032-.063.05-.092v-.007c.05-.094.1-.189.154-.28.07-.127.144-.248.222-.373a12.67 12.67 0 0 1 1.408-1.833v-.003c.148.037.296.084.447.128l.023.006c.071.024.139.05.209.075.074.026.155.053.232.087l.238.1.1.047c.091.042.184.085.277.13.037.019.074.034.11.053.069.036.14.072.21.11l.041.02c-.082.07-.16.147-.239.22-.084.079-.17.155-.25.237a9.12 9.12 0 0 0-.376.4l-.059.068c-.107.123-.21.25-.312.378-.028.037-.058.072-.086.11l-.014.018c-.11.145-.22.292-.324.443-.484.717-.847 1.517-1.123 2.348-.114.42-.235.84-.292 1.305a4.98 4.98 0 0 0-.078.649l-.037.602.02.7c.004.222.035.44.068.658.043.441.151.868.259 1.296a9.684 9.684 0 0 0 1.076 2.4c.103.16.213.316.326.47a9.295 9.295 0 0 0 1.174 1.321c.063.058.123.119.188.174l.036.03c.099.082.2.16.3.238l.094.075a10.204 10.204 0 0 0 .7.49c.305.193.618.368.943.517l.062.03c.07.04.145.07.22.1.04.016.078.035.119.05l.094.034c.051.02.101.037.148.054.043.015.087.033.13.051.15.057.3.117.457.154.202.054.4.108.598.158.09.025.186.042.284.058l.13.021c.07.01.142.02.211.032.448.084.774.08 1.133.108h.066l.033.003h.081l.148-.003.292-.013c.044 0 .09-.003.134-.004.07-.003.14-.008.208-.012.08-.007.159-.014.24-.028.045-.005.09-.013.134-.019.177-.024.352-.052.525-.085.054-.01.107-.022.16-.034.19-.04.38-.087.564-.14.164-.044.32-.098.478-.152.065-.023.133-.042.197-.066l.122-.045c.199-.077.395-.158.584-.247.31.732.787 1.78 1.408 2.897l.134.238.001.004c-.11.045-.224.084-.337.127-.075.029-.15.06-.226.088l-.093.033-.16.055-.036.013c-.178.06-.356.114-.538.164l-.064.018-.152.042-.005.001c-.111.03-.219.057-.33.084-.105.026-.213.046-.32.068l-.13.027a11.565 11.565 0 0 1-.982.154l-.156.008c-.129.005-.258.008-.387.019l-.366.02-.165.01h-.053zM11.458.34c0 1.6.006 3.142.02 4.611L0 4.941l6.895 8.297s1.503-3 4.557-3.363c-.07.087-.141.188-.212.273-.195.269-.41.51-.592.79-.744 1.083-1.315 2.3-1.745 3.568l-.27.972c-.046.158-.08.327-.107.498l-.087.521-.088.512c-.03.181-.027.326-.044.48l-.067.99c0 1.358.145 2.71.505 4.029.38 1.294.908 2.555 1.628 3.7.726 1.136 1.59 2.182 2.592 3.05.243.228.519.417.774.63l.39.295.417.272c.242.148.478.303.723.444 2.688 5.715 7.218 10.033 14.802 14.92h.037v-2.818l-.02.013-.1-.067c-5.305-3.546-8.89-6.79-11.301-10.685.1.023.198.05.296.08.306.074.645.111.965.172.686.127 1.2.127 1.762.168h.101l.054.003h.023l.098.004h.01l.219-.007.454-.02c.302-.02.602-.02.898-.064a13.804 13.804 0 0 0 4.359-1.282c.033.044.067.088.1.128.387.522.808 1.002 1.249 1.44a.98.98 0 0 0 .712.299h.121v-2.366l-.006-.008-.014-.014v-.003l-.013-.016a10.675 10.675 0 0 1-.447-.553 18.294 18.294 0 0 1-1.38-2.082 26.843 26.843 0 0 1-1.863-3.965c.003-.208.014-.41.027-.61.064-.903.246-1.664.548-2.269.111-.229.24-.437.39-.623.037-.045.079-.083.117-.125.056-.062.112-.124.172-.18.036-.034.072-.07.112-.101l.114-.091.032-.022.012-.008.054-.037c.084-.058.171-.111.262-.162a3.65 3.65 0 0 1 .363-.165l.06-.017.015-.002.045-.014.057-.016c.04-.013.079-.027.12-.039.044-.012.093-.02.14-.03l.082-.02c.116-.023.235-.044.36-.06l.034-.003c.037-.005.074-.005.111-.008l.07-.006.075-.003c.042-.001.083-.005.125-.007H29.917l.088-.005.083-.008h.02v-4.492l-.035.025c-.195-.141-.397-.282-.602-.42l-.65-.387c-.205-.116-.405-.246-.623-.342l-.05-.022c-.034-.013-.064-.03-.098-.047-.323-.148-.639-.312-.975-.447a3.56 3.56 0 0 0-.373-.134l-.246-.091a35.139 35.139 0 0 0-.36-.131c-.054-.017-.108-.037-.158-.054-.263-.064-.528-.138-.797-.205-.031-.01-.064-.016-.096-.025-.497-.137-1.047-.193-1.584-.281l-.056-.007h-.003l-.057-.003-1.19-.965-1.056-.855-1.1-.888v-.003h1.703l.067-.004.108-.003h.057l.024-.003h.003l.06.003.135.007h.48l.05.023c.06.004.119.01.178.013.088.004.178.01.266.016.044.004.086.004.13.008.062.003.127.013.192.023l.009.001c.32.053.645.094.962.147l.11.018.075.016c.083.015.164.033.244.052l.09.019c.033.008.064.019.096.027.034.01.07.017.104.027.134.035.265.067.397.1h.002l.397.098c.057.02.114.044.172.064.12.047.242.09.363.132l.09.033.139.047c.063.02.127.044.188.068.04.014.078.03.116.046.302.119.591.259.88.396a25.177 25.177 0 0 1 .437.203c.031.017.06.036.092.053.136.076.27.157.407.233l.649.387c.205.138.406.279.601.42l.016-.013.01-.006.01-.006V7.6l-.02.01v.004l-.017.01a13.133 13.133 0 0 0-.601-.42c-.216-.125-.431-.253-.65-.388-.221-.12-.433-.265-.673-.37-.473-.208-.934-.46-1.445-.628a26.292 26.292 0 0 1-.764-.273c-.263-.064-.528-.127-.797-.205-.522-.155-1.11-.211-1.682-.302-.272-.041-.515-.041-.773-.06l-.05-.021h-.415l-.201-.007-.06-.01-.028.01h-.057l-.107.003c-.044 0-.092 0-.135.004l-7.8-.004c-.003-.736-.01-1.49-.013-2.26h16.288V.34z"/>
        </clipPath>
        <clipPath id="jj3xg">
            <path d="M72.13 8.12l2.164 3.252h3.364c1.683 0 2.54 1.174 2.54 2.556 0 .5-.108.962-.32 1.357l-.013.017c-.391.712-1.128 1.186-2.207 1.186H72.13v6.866h3.921V19.74h2.041c1.436 0 2.647-.37 3.593-1 1.423-.94 2.26-2.472 2.406-4.237l.004-.046c.017-.18.021-.355.021-.53 0-3.188-2.235-5.807-6.074-5.807z"/>
        </clipPath>
        <clipPath id="jj3xi">
            <path d="M88.71 8.12v15.236h11.99v-3.252h-8.07v-2.941h6.567V13.89H92.63v-2.519h8.07V8.12z"/>
        </clipPath>
        <clipPath id="jj3xk">
            <path d="M109.205 11.371h1.605c1.684 0 2.54 1.177 2.54 2.557 0 .502-.107.962-.32 1.358l-.012.016c-.39.711-1.128 1.187-2.208 1.187h-1.605zM105.28 8.12v15.236h3.925V19.74h2.038l2.412 3.615h4.305l-3.123-4.615c1.422-.941 2.262-2.471 2.406-4.236l.005-.048c.016-.177.022-.353.022-.53 0-3.187-2.236-5.807-6.075-5.807z"/>
        </clipPath>
        <clipPath id="jj3xm">
            <path d="M126.475 11.371h1.605c1.684 0 2.54 1.177 2.54 2.557 0 .502-.107.962-.321 1.358l-.011.016c-.39.711-1.128 1.187-2.208 1.187h-1.605zM122.55 8.12v15.236h3.925V19.74h2.038l2.411 3.615h4.305l-3.123-4.615c1.423-.941 2.263-2.471 2.407-4.236l.005-.048c.016-.177.021-.353.021-.53 0-3.187-2.235-5.807-6.074-5.807z"/>
        </clipPath>
        <clipPath id="jj3xo">
            <path d="M138.132 8.12h-.422l6.235 10.123v5.113h3.899v-5.648l-5.91-9.588z"/>
        </clipPath>
    </defs>
    <g>
        <g>
            <g>
                <g>
                    <path fill="#ffffff"
                          d="M48.722.34c0 1.6-.006 3.141-.02 4.611l11.443-.01-6.896 8.297s-1.503-3-4.557-3.363c.071.087.142.188.212.272.195.27.41.512.592.79.743 1.084 1.315 2.301 1.746 3.57l.269.971c.047.158.08.326.107.498l.088.521.087.511c.03.182.027.327.044.482l.067.988c0 1.359-.144 2.711-.504 4.03-.38 1.295-.908 2.556-1.628 3.7-.726 1.136-1.59 2.182-2.593 3.05-.242.229-.518.417-.774.629l-.39.296-.417.272c-.225.135-.444.283-.673.417-2.683 5.721-7.217 10.05-14.815 14.947v-2.818c5.354-3.569 8.966-6.831 11.392-10.753-.115.034-.226.06-.34.094-.306.074-.646.111-.966.172-.685.127-1.2.127-1.762.168h-.1l-.055.003h-.023l-.098.004h-.01l-.218-.007-.455-.02c-.302-.02-.601-.02-.897-.064a13.553 13.553 0 0 1-4.309-1.258c-.037.047-.07.1-.108.144-.386.505-.797.98-1.214 1.393a.997.997 0 0 1-.7.296l-.137.01v-2.367l.001.003c.152-.182.303-.367.455-.562.477-.616.944-1.315 1.392-2.089a27.301 27.301 0 0 0 1.517-3.067c.174-.417.296-.74.36-.922-.004-.178-.01-.363-.024-.555v-.02c-.057-.827-.212-1.537-.464-2.116l-.017-.05a3.22 3.22 0 0 0-.572-.894l-.001-.002v-.002l-.007-.005-.019-.019a2.542 2.542 0 0 0-.39-.343c-.052-.039-.101-.08-.156-.114-.062-.037-.131-.07-.198-.105a3.183 3.183 0 0 0-.48-.204l-.05-.017-.022-.006h-.003l-.027-.01a3.782 3.782 0 0 0-.296-.072 2.991 2.991 0 0 0-.29-.05l-.046-.006a4.885 4.885 0 0 0-.656-.045h-.007v-4.492h.001c.185-.132.374-.267.565-.394l.65-.387c.21-.119.414-.253.64-.35l.03-.013c.034-.014.065-.03.098-.048l.12-.057c.132-.061.264-.123.395-.186a8.78 8.78 0 0 1 .446-.197c.039-.016.08-.03.119-.044.088-.035.177-.07.269-.097l.245-.091.364-.131c.05-.017.1-.037.154-.054.232-.057.468-.12.705-.182l.094-.023c.521-.158 1.11-.212 1.682-.306l.055-.007.054-.004 1.685-1.355.053-.042 1.63-1.31h-.001v-.003h-1.717l-.068-.004-.107-.003h-.057l-.027-.003h-.003l-.058.003-.134.007h-.483l-.05.023c-.062.003-.125.01-.187.013-.082.004-.166.011-.25.016-.045.003-.09.003-.138.008-.064.004-.132.014-.199.024-.16.026-.324.05-.488.074a22.544 22.544 0 0 0-.585.09l-.092.02a6.42 6.42 0 0 0-.208.045c-.036.008-.074.014-.11.023-.04.01-.078.022-.117.034l-.08.02-.4.101-.042.01c-.121.03-.239.057-.357.087-.057.02-.114.044-.171.064-.148.058-.296.111-.444.162l-.148.05c-.064.02-.128.044-.188.067-.033.012-.063.027-.095.04a7.308 7.308 0 0 0-.351.148l-.095.041-.043.02-.409.192c-.087.04-.174.08-.265.12-.06.028-.118.055-.175.085-.039.02-.075.044-.112.066-.13.072-.256.148-.385.22-.16.097-.32.191-.479.286l-.171.1-.286.196-.192.139-.086.06h-.001V7.601c.185-.137.373-.269.565-.396.215-.125.43-.253.65-.387.221-.121.433-.266.672-.37.474-.209.935-.461 1.446-.63.252-.083.508-.177.763-.272.263-.064.529-.128.797-.205.522-.155 1.11-.212 1.682-.303.273-.04.515-.04.774-.06l.05-.02h.414l.202-.007.06-.01.027.01h.057l.108.003c.044 0 .09 0 .134.004l7.834-.004c.006-.736.013-1.49.017-2.26H30.11V.34zm-14.19 18.513l-.003-.001c.034.1.073.199.116.297.02.047.043.092.065.138.015.032.029.065.045.096l.043.087.017.034c.037.068.074.138.118.202l.01.014.028.046.032.051.044.06a4.297 4.297 0 0 0 .414.515l.023.027.021.02c.118.122.242.236.373.342l.013.011.025.02c.058.045.116.09.176.134l.028.021a4.208 4.208 0 0 0 .511.306c.038.02.078.037.117.055.079.037.158.073.24.105l.027.012c.04.017.084.034.128.047l.017.006.11.036.024.008.033.009c.111.034.225.062.34.087l.034.009.032.004c.266.052.54.083.82.083.036 0 .07-.004.106-.005l.071-.001.155-.01h.03l.017-.003c.084-.008.167-.02.25-.033l.066-.008.04-.008a4.294 4.294 0 0 0 .38-.083l.045-.014c.068-.02.135-.04.202-.063l.023-.007c.047-.014.09-.03.137-.05l.029-.012c.053-.022.107-.043.16-.066h.003l.06-.03c.044-.02.085-.04.125-.06l.007-.005a4.059 4.059 0 0 0 .356-.201l.017-.011a4.2 4.2 0 0 0 .486-.362l.005-.004.037-.03.063-.061a4.24 4.24 0 0 0 .197-.193l.01-.008.03-.035c.114-.123.221-.253.32-.39l.016-.02.01-.012c.04-.057.08-.115.117-.174l.058-.09c.027-.046.054-.09.08-.137l.003-.005.045-.083.02-.036.037-.078.021-.05a4.22 4.22 0 0 0 .14-.331l.027-.07.01-.029c.027-.08.052-.162.075-.244l.006-.02.033-.13c.023-.095.041-.19.057-.286l.01-.054.007-.056c.013-.09.023-.179.03-.269l.004-.042c.005-.058.005-.115.007-.173 0-.035.005-.07.005-.106a4.244 4.244 0 0 0-1.9-3.535h-.002a6.52 6.52 0 0 0-.693.95l-.023.045c-.075.131-.143.26-.199.382-.02.046-.033.089-.052.134-.033.083-.07.168-.096.248l-.004.014-.008.028c-.019.062-.038.123-.052.18l-.01.05-.008.055a2.522 2.522 0 0 0-.034.229c-.005.041-.015.087-.018.127v.034c-.005.123 0 .237.012.346l.001.03c.003.044.01.085.02.128.007.04.014.08.024.118.013.054.027.101.044.148l.01.026c.037.106.078.202.124.288l.004.009c.016.033.033.06.05.09l.015.025.021.033.015.023.05.074.024.032.004.005.06.078c.071.083.125.133.156.158l.014.013.004.004.007.005v.001s-.047.074-.141.195a4.774 4.774 0 0 1-.066.085l-.014.016a4.44 4.44 0 0 1-.117.138l-.05.056a4.314 4.314 0 0 1-.154.16c-.034.034-.066.067-.104.102l-.01.008-.063.058a5.383 5.383 0 0 1-.208.178 4.3 4.3 0 0 1-.223.17l-.01.007c-.135.094-.28.184-.435.265l-.02.01a3.535 3.535 0 0 1-.636.254l-.084.023c-.186.048-.384.081-.592.097l-.02.001a3.285 3.285 0 0 1-.296.005l-.063-.002a3.42 3.42 0 0 1-.304-.029l-.034-.003a3.732 3.732 0 0 1-.345-.07l-.084-.023a3.923 3.923 0 0 1-.567-.202 4.978 4.978 0 0 1-.178-.08l-.077-.039a5.614 5.614 0 0 1-.67-.402 7.54 7.54 0 0 1-.262-.187zm14.21-5.766a2.001 2.001 0 0 0-.08-.171c-.032-.069-.067-.137-.102-.205l-.06-.122-.006-.013v.003a10.738 10.738 0 0 0-.409-.72 12.689 12.689 0 0 0-1.41-1.833c-.143.036-.29.078-.438.125v-.004l-.01.007-.008.003a5.969 5.969 0 0 0-.224.075c-.057.02-.118.04-.175.067h-.003l-.014.006-.018.008-.092.039c-.077.03-.152.06-.23.095-.042.018-.083.039-.124.058l-.103.048-.031.015a6.817 6.817 0 0 0-.418.212c.159.134.31.276.458.424.164.16.321.33.472.504l.01.011a11.39 11.39 0 0 1 .724.934c.484.716.847 1.517 1.123 2.348.114.42.235.84.293 1.305.037.228.073.457.077.649l.037.602-.02.7a4.83 4.83 0 0 1-.068.659c-.043.44-.151.868-.259 1.295a9.68 9.68 0 0 1-1.076 2.4c-.478.73-1.036 1.407-1.692 1.968-.128.108-.26.21-.393.312-.091.07-.182.14-.276.204l-.141.1c-.082.057-.163.116-.246.17a8.463 8.463 0 0 1-.511.308l-.005.003-.013.007c-.149.082-.3.156-.453.227-.033.015-.065.031-.1.045-.09.054-.187.094-.285.131-.05.02-.1.037-.148.054-.05.02-.1.037-.148.054a2.332 2.332 0 0 0-.145.057l-.156.059c-.085.03-.17.059-.257.081l-.027.008-.073.02c-.176.047-.35.094-.524.138-.068.019-.141.03-.214.044-.083.015-.166.03-.252.043l-.16.024c-.442.083-.766.081-1.122.107h-.08l-.034.004h-.08l-.145-.003h-.008l-.288-.014-.128-.003c-.079-.003-.157-.01-.235-.015-.073-.006-.145-.013-.219-.025-.033-.004-.066-.01-.1-.013a9.208 9.208 0 0 1-.579-.094l-.05-.01a9.037 9.037 0 0 1-.66-.16l-.023-.007a9.114 9.114 0 0 1-.57-.186 9.281 9.281 0 0 1-.627-.25l-.092-.04v.003a5.22 5.22 0 0 0-.08.192l-.088.201-.114.256c-.044.1-.094.208-.145.316-.05.11-.104.225-.161.343-.04.084-.08.168-.124.253l-.128.258-.219.428c-.034.057-.064.12-.097.181a19.08 19.08 0 0 1-.39.7h.002l-.001.003.12.045c.081.032.162.065.245.096.057.022.116.038.173.06a12.686 12.686 0 0 0 1.127.343c.08.02.159.046.24.065.12.028.242.051.363.075l.062.013a12.245 12.245 0 0 0 .981.154l.163.008c.123.005.246.009.368.018h.014l.367.021h.004l.162.01h.054l.104-.006c.19-.01.386-.016.582-.024a10.59 10.59 0 0 0 .56-.034l.037-.003.008-.001.086-.01.047-.006.135-.02.06-.013.066-.01c.239-.041.467-.051.716-.115.25-.06.498-.124.75-.188l.025-.007c.107-.023.212-.055.315-.091.133-.047.265-.099.4-.144.129-.05.262-.093.393-.14a1.97 1.97 0 0 0 .339-.143c.124-.057.252-.118.377-.178l.011-.006c.112-.052.223-.103.333-.156.239-.12.461-.269.696-.403l.35-.205.326-.24c.216-.164.448-.309.653-.49.205-.182.41-.364.615-.549.209-.178.38-.396.575-.595l.286-.303c.091-.107.172-.218.26-.33.164-.221.353-.433.507-.668.64-.925 1.127-1.961 1.5-3.041.35-1.093.522-2.24.579-3.4l-.024-.891c-.01-.152 0-.327-.023-.458l-.054-.414-.054-.413a2.348 2.348 0 0 0-.07-.42l-.195-.848c-.048-.165-.104-.326-.158-.489-.027-.083-.051-.168-.08-.251l-.006-.018c-.025-.072-.053-.144-.08-.216-.033-.093-.069-.187-.105-.28-.015-.04-.034-.079-.05-.118a12.62 12.62 0 0 0-.196-.462c-.018-.039-.032-.079-.05-.117z"/>
                </g>
                <g>
                    <g/>
                    <g clip-path="url(#jj3xa)">
                        <path fill="url(#jj3xb)"
                              d="M19.251 13.95a4.243 4.243 0 0 0-1.901 3.534c0 .063.008.124.011.185.004.091.007.182.016.27v.003c.004.064.013.128.024.188.006.042.016.082.024.122l.03.153a4.516 4.516 0 0 0 .112.406l.018.063c.018.043.034.084.048.127l.032.079.04.097.019.043.006.014c.024.053.047.107.074.157l.035.063a4.466 4.466 0 0 0 .212.36c.025.038.052.075.078.112.03.042.057.087.089.128l.054.07.038.045.09.101c.042.049.084.1.127.144l.028.027c.05.05.1.098.152.146l.083.08.074.063.086.07.035.028c.054.047.11.09.171.127l.037.028.01.006.064.042.064.043.054.03c.118.071.24.138.364.199l.01.005.005.002.008.004c.237.114.486.205.745.273l.001.001.08.023.051.01c.066.016.134.03.202.041l.047.01.149.02c.055.008.11.016.165.02l.023.004h.03l.155.01h.075c.035.002.07.006.104.006.143 0 .284-.01.422-.023h.007l.018-.003c.127-.013.252-.032.376-.057l.027-.004.056-.013c.074-.016.148-.034.22-.054l.13-.037.01-.003a4.22 4.22 0 0 0 .77-.329l.008-.004.028-.017c.117-.065.23-.136.34-.213l.015-.01.007-.004a4.264 4.264 0 0 0 1.017-1.009l.002-.002c.04-.05.074-.104.111-.162l.003-.006.075-.12.007-.011c.023-.037.043-.074.064-.112l.004-.008c.12-.217.222-.444.303-.68h-.002l-.067.048a6.906 6.906 0 0 1-.439.298c-.037.024-.075.05-.113.072l-.054.032c-.073.043-.145.08-.218.118l-.148.074-.11.05a5.593 5.593 0 0 1-.32.129 4.14 4.14 0 0 1-.315.097l-.045.012a3.665 3.665 0 0 1-.36.073l-.015.001a3.43 3.43 0 0 1-.32.03l-.059.002c-.1.003-.198.002-.293-.004l-.027-.001a3.489 3.489 0 0 1-.578-.095 3.502 3.502 0 0 1-.41-.134c-.1-.04-.196-.086-.29-.131l-.077-.038-.024-.014a4.58 4.58 0 0 1-.352-.215 6.86 6.86 0 0 1-.115-.083l-.057-.042-.071-.056-.06-.047-.08-.068a4.5 4.5 0 0 1-.266-.246 3.669 3.669 0 0 1-.15-.157 3.095 3.095 0 0 1-.08-.09l-.013-.015c-.198-.228-.3-.391-.3-.391s.072-.058.168-.17l.011-.012.019-.024c.118-.144.26-.361.357-.655v-.004c.018-.047.031-.094.045-.148v-.005l.017-.083.006-.03a.748.748 0 0 0 .02-.127l.001-.01c.005-.042.007-.086.01-.13a2.675 2.675 0 0 0 0-.28v.001-.022l-.007-.042a2.68 2.68 0 0 0-.047-.314l-.004-.024a2.201 2.201 0 0 0-.056-.222c-.01-.034-.025-.07-.037-.105-.011-.033-.02-.066-.034-.1-.014-.034-.027-.07-.044-.107l-.006-.012a4.071 4.071 0 0 0-.132-.283c-.023-.044-.045-.088-.07-.133a4.632 4.632 0 0 0-.177-.294l-.036-.059c-.034-.057-.074-.111-.113-.167a4.872 4.872 0 0 0-.09-.122l-.052-.07a3.692 3.692 0 0 0-.125-.159c-.038-.051-.082-.1-.126-.152l-.037-.046z"/>
                    </g>
                </g>
                <g>
                    <g/>
                    <g clip-path="url(#jj3xc)">
                        <path fill="url(#jj3xd)"
                              d="M13.472 10.023c-.525.562-.992 1.18-1.41 1.833a8.21 8.21 0 0 0-.221.374c-.054.09-.104.185-.155.279v.007l-.049.092-.003.005-.036.068c-.023.046-.046.09-.067.137l-.03.064c-.03.06-.06.118-.087.178-.05.108-.098.216-.145.327l-.001.003-.01.023a12.244 12.244 0 0 0-.295.75l-.01.03c-.038.11-.07.22-.107.331-.056.17-.116.34-.165.51l-.196.848c-.04.141-.057.283-.07.42l-.054.415-.054.413c-.023.131-.013.306-.023.458l-.024.89c.057 1.161.229 2.308.579 3.401.372 1.08.86 2.116 1.5 3.04.154.236.343.448.507.67.087.11.169.222.26.33l.285.302c.081.084.158.168.236.256l.036.036c.041.045.087.086.13.13.057.059.112.12.173.173.152.139.307.273.458.408l.049.042.11.099.03.023c.042.037.084.073.127.108l.158.114c.113.082.227.162.338.246l.024.017.011.01.128.094.162.121.35.205c.057.034.117.067.174.1.115.068.228.139.347.206.057.034.114.067.174.098.115.05.229.104.344.157.124.058.252.118.376.18.113.062.236.109.358.149.126.044.254.085.377.133.13.043.257.094.385.14.116.04.233.078.354.102.252.064.5.128.75.188l.065.012c.224.05.435.066.652.102l.054.01.07.014c.043.007.087.014.134.02l.06.007.068.009h.013l.064.006c.123.01.25.02.38.025l.173.008c.19.007.381.013.565.023l.105.006h.054l.164-.01.367-.02c.128-.01.258-.014.386-.02l.157-.007.182-.02c.27-.034.537-.082.8-.134.044-.008.087-.018.13-.027.107-.022.215-.042.32-.068.112-.027.22-.054.33-.084l.006-.001.152-.042.064-.018c.182-.05.36-.104.539-.164l.035-.013.16-.055c.031-.012.062-.022.094-.033.076-.028.15-.06.226-.088.112-.043.227-.082.337-.127l-.001-.004-.134-.238a30.781 30.781 0 0 1-1.409-2.897c-.189.09-.385.17-.585.247l-.121.045c-.065.024-.132.043-.197.066-.158.054-.315.108-.478.153a8.896 8.896 0 0 1-.564.14c-.054.01-.108.022-.161.033a9.228 9.228 0 0 1-.526.085c-.045.006-.089.014-.134.019-.08.014-.16.02-.24.028-.069.004-.138.01-.208.012-.044 0-.09.004-.134.004l-.292.013-.148.003h-.081l-.034-.003h-.065c-.36-.027-.686-.024-1.134-.108l-.212-.032-.13-.021a2.746 2.746 0 0 1-.283-.058c-.199-.05-.397-.104-.6-.158-.157-.037-.306-.097-.456-.154a2.51 2.51 0 0 0-.13-.051c-.047-.017-.097-.034-.148-.054l-.095-.034c-.04-.015-.08-.034-.12-.05-.074-.03-.15-.06-.219-.1l-.062-.03a7.94 7.94 0 0 1-.943-.517 10.22 10.22 0 0 1-.574-.394 4.43 4.43 0 0 1-.127-.096c-.032-.024-.063-.05-.094-.075-.1-.078-.201-.156-.3-.237l-.036-.031c-.065-.055-.125-.116-.188-.174a8.44 8.44 0 0 1-.633-.646 9.3 9.3 0 0 1-.43-.526c-.037-.05-.076-.099-.112-.15-.113-.153-.223-.309-.326-.468a9.681 9.681 0 0 1-1.077-2.401c-.107-.428-.216-.855-.259-1.296a4.868 4.868 0 0 1-.067-.659l-.02-.699.036-.602c.004-.192.041-.42.078-.65.057-.463.178-.884.293-1.304.275-.831.639-1.631 1.123-2.348.105-.15.214-.298.325-.443l.013-.018.086-.11c.102-.129.205-.255.312-.378l.06-.069c.12-.137.246-.27.375-.4.081-.08.167-.157.251-.236.08-.073.157-.15.24-.22l-.041-.02-.21-.11c-.037-.02-.074-.034-.111-.053a10.115 10.115 0 0 0-.278-.13c-.033-.015-.066-.032-.099-.046l-.238-.101c-.078-.034-.159-.06-.233-.087-.07-.024-.137-.05-.209-.075l-.023-.006c-.15-.044-.299-.091-.447-.128z"/>
                    </g>
                </g>
                <g>
                    <g/>
                    <g clip-path="url(#jj3xe)">
                        <path fill="url(#jj3xf)"
                              d="M19.25 13.952l.037.046c.043.05.088.1.126.152.044.053.087.107.124.158l.054.07.089.123c.04.055.079.11.113.167l.036.059c.064.1.125.198.177.293l.07.134c.048.096.094.19.132.282l.005.012c.018.037.03.074.044.108.014.034.023.066.035.1.012.034.026.07.036.105.024.075.043.149.057.222l.004.024c.022.11.038.213.047.313l.006.043.001.022a2.675 2.675 0 0 1 0 .28c-.003.043-.005.087-.01.129v.01a.748.748 0 0 1-.021.127l-.006.03-.017.083v.005c-.014.054-.027.1-.044.148l-.002.003a2.035 2.035 0 0 1-.356.655l-.019.025-.011.012a1.47 1.47 0 0 1-.169.17s.103.163.3.39l.013.015a3.669 3.669 0 0 0 .365.375c.042.04.085.079.131.118l.08.069.06.047.072.056.057.042.115.083a4.58 4.58 0 0 0 .352.215l.023.013.077.038c.095.045.191.091.29.132a3.502 3.502 0 0 0 .411.134c.182.046.375.078.578.094l.027.001c.095.007.193.008.293.005l.058-.002a3.43 3.43 0 0 0 .321-.03l.015-.001c.118-.018.237-.042.36-.073l.045-.012a4.14 4.14 0 0 0 .634-.227 6.088 6.088 0 0 0 .477-.241l.054-.033c.038-.022.076-.047.114-.071a6.906 6.906 0 0 0 .438-.298l.067-.05v.002l.002-.001c-.081.237-.184.464-.304.68l-.004.01c-.02.036-.04.073-.064.11l-.006.011a3.61 3.61 0 0 1-.075.12l-.003.007c-.038.057-.07.111-.11.162l-.003.002c-.28.391-.624.732-1.017 1.008l-.007.005-.014.01c-.11.077-.224.147-.342.213l-.027.016-.01.005a4.22 4.22 0 0 1-.769.328l-.008.003-.13.037c-.073.02-.147.039-.221.055l-.056.013-.027.004a4.184 4.184 0 0 1-.376.057l-.018.002h-.007c-.138.014-.28.024-.422.024-.035 0-.069-.004-.104-.005l-.075-.001c-.05-.004-.105-.008-.155-.01h-.03l-.023-.004c-.056-.004-.11-.013-.166-.02-.049-.006-.098-.015-.148-.02l-.047-.01a3.95 3.95 0 0 1-.202-.041l-.05-.01-.08-.023-.002-.001a4.19 4.19 0 0 1-.745-.274l-.008-.003-.005-.002-.01-.006a4.257 4.257 0 0 1-.364-.2l-.054-.029-.065-.043-.063-.042-.01-.006-.037-.027a1.245 1.245 0 0 1-.171-.128l-.035-.027-.087-.07-.073-.064-.083-.08c-.051-.047-.103-.095-.152-.146l-.028-.026c-.044-.044-.085-.096-.127-.144l-.09-.101-.039-.045-.053-.07c-.032-.041-.06-.086-.09-.129a4.466 4.466 0 0 1-.29-.472l-.034-.062a2.108 2.108 0 0 1-.074-.158l-.007-.013-.018-.043-.04-.098-.032-.078c-.014-.043-.03-.084-.048-.128l-.018-.062a4.516 4.516 0 0 1-.112-.406l-.03-.153c-.008-.04-.019-.08-.024-.122-.01-.06-.02-.125-.024-.189v-.001c-.01-.09-.012-.18-.016-.271-.003-.062-.011-.122-.011-.185 0-1.473.757-2.774 1.9-3.534zm2.59 16.043c-.185-.01-.375-.016-.566-.023a9.867 9.867 0 0 1-.553-.033l-.063-.005-.014-.001-.068-.009-.06-.007-.134-.02-.069-.015-.054-.009c-.217-.036-.428-.052-.652-.102l-.065-.012c-.249-.06-.498-.124-.75-.189a2.38 2.38 0 0 1-.353-.102c-.128-.045-.254-.096-.385-.14-.123-.047-.25-.088-.376-.132a2.031 2.031 0 0 1-.358-.15 18.877 18.877 0 0 0-.376-.179c-.115-.053-.229-.107-.343-.157a3.085 3.085 0 0 1-.175-.098c-.118-.067-.232-.138-.346-.205l-.175-.101-.35-.205-.16-.121-.129-.094-.01-.01-.025-.017c-.11-.084-.225-.164-.338-.246l-.158-.114a3.837 3.837 0 0 1-.127-.108l-.03-.023-.11-.1-.049-.041c-.15-.135-.305-.27-.457-.408-.061-.053-.116-.114-.173-.173-.043-.044-.089-.085-.13-.13l-.036-.036a9.354 9.354 0 0 0-.235-.256l-.286-.302c-.09-.108-.172-.22-.26-.33-.164-.222-.352-.434-.507-.67-.639-.924-1.126-1.96-1.498-3.04-.35-1.093-.522-2.24-.579-3.4l.024-.891c.01-.152 0-.327.023-.458l.054-.413.054-.414c.013-.138.03-.28.07-.42l.195-.848c.05-.172.11-.34.166-.51.036-.112.068-.223.107-.333l.01-.028a12.26 12.26 0 0 1 .295-.75l.009-.024.001-.003c.047-.111.094-.219.145-.327.027-.06.057-.117.087-.178l.03-.064c.021-.047.044-.09.067-.137l.037-.068.002-.005c.017-.031.032-.063.05-.092v-.007c.05-.094.1-.189.154-.28.07-.127.144-.248.222-.373a12.67 12.67 0 0 1 1.408-1.833v-.003c.148.037.296.084.447.128l.023.006c.071.024.139.05.209.075.074.026.155.053.232.087l.238.1.1.047c.091.042.184.085.277.13.037.019.074.034.11.053.069.036.14.072.21.11l.041.02c-.082.07-.16.147-.239.22-.084.079-.17.155-.25.237a9.12 9.12 0 0 0-.376.4l-.059.068c-.107.123-.21.25-.312.378-.028.037-.058.072-.086.11l-.014.018c-.11.145-.22.292-.324.443-.484.717-.847 1.517-1.123 2.348-.114.42-.235.84-.292 1.305a4.98 4.98 0 0 0-.078.649l-.037.602.02.7c.004.222.035.44.068.658.043.441.151.868.259 1.296a9.684 9.684 0 0 0 1.076 2.4c.103.16.213.316.326.47a9.295 9.295 0 0 0 1.174 1.321c.063.058.123.119.188.174l.036.03c.099.082.2.16.3.238l.094.075a10.204 10.204 0 0 0 .7.49c.305.193.618.368.943.517l.062.03c.07.04.145.07.22.1.04.016.078.035.119.05l.094.034c.051.02.101.037.148.054.043.015.087.033.13.051.15.057.3.117.457.154.202.054.4.108.598.158.09.025.186.042.284.058l.13.021c.07.01.142.02.211.032.448.084.774.08 1.133.108h.066l.033.003h.081l.148-.003.292-.013c.044 0 .09-.003.134-.004.07-.003.14-.008.208-.012.08-.007.159-.014.24-.028.045-.005.09-.013.134-.019.177-.024.352-.052.525-.085.054-.01.107-.022.16-.034.19-.04.38-.087.564-.14.164-.044.32-.098.478-.152.065-.023.133-.042.197-.066l.122-.045c.199-.077.395-.158.584-.247.31.732.787 1.78 1.408 2.897l.134.238.001.004c-.11.045-.224.084-.337.127-.075.029-.15.06-.226.088l-.093.033-.16.055-.036.013c-.178.06-.356.114-.538.164l-.064.018-.152.042-.005.001c-.111.03-.219.057-.33.084-.105.026-.213.046-.32.068l-.13.027a11.565 11.565 0 0 1-.982.154l-.156.008c-.129.005-.258.008-.387.019l-.366.02-.165.01h-.053zM11.458.34c0 1.6.006 3.142.02 4.611L0 4.941l6.895 8.297s1.503-3 4.557-3.363c-.07.087-.141.188-.212.273-.195.269-.41.51-.592.79-.744 1.083-1.315 2.3-1.745 3.568l-.27.972c-.046.158-.08.327-.107.498l-.087.521-.088.512c-.03.181-.027.326-.044.48l-.067.99c0 1.358.145 2.71.505 4.029.38 1.294.908 2.555 1.628 3.7.726 1.136 1.59 2.182 2.592 3.05.243.228.519.417.774.63l.39.295.417.272c.242.148.478.303.723.444 2.688 5.715 7.218 10.033 14.802 14.92h.037v-2.818l-.02.013-.1-.067c-5.305-3.546-8.89-6.79-11.301-10.685.1.023.198.05.296.08.306.074.645.111.965.172.686.127 1.2.127 1.762.168h.101l.054.003h.023l.098.004h.01l.219-.007.454-.02c.302-.02.602-.02.898-.064a13.804 13.804 0 0 0 4.359-1.282c.033.044.067.088.1.128.387.522.808 1.002 1.249 1.44a.98.98 0 0 0 .712.299h.121v-2.366l-.006-.008-.014-.014v-.003l-.013-.016a10.675 10.675 0 0 1-.447-.553 18.294 18.294 0 0 1-1.38-2.082 26.843 26.843 0 0 1-1.863-3.965c.003-.208.014-.41.027-.61.064-.903.246-1.664.548-2.269.111-.229.24-.437.39-.623.037-.045.079-.083.117-.125.056-.062.112-.124.172-.18.036-.034.072-.07.112-.101l.114-.091.032-.022.012-.008.054-.037c.084-.058.171-.111.262-.162a3.65 3.65 0 0 1 .363-.165l.06-.017.015-.002.045-.014.057-.016c.04-.013.079-.027.12-.039.044-.012.093-.02.14-.03l.082-.02c.116-.023.235-.044.36-.06l.034-.003c.037-.005.074-.005.111-.008l.07-.006.075-.003c.042-.001.083-.005.125-.007H29.917l.088-.005.083-.008h.02v-4.492l-.035.025c-.195-.141-.397-.282-.602-.42l-.65-.387c-.205-.116-.405-.246-.623-.342l-.05-.022c-.034-.013-.064-.03-.098-.047-.323-.148-.639-.312-.975-.447a3.56 3.56 0 0 0-.373-.134l-.246-.091a35.139 35.139 0 0 0-.36-.131c-.054-.017-.108-.037-.158-.054-.263-.064-.528-.138-.797-.205-.031-.01-.064-.016-.096-.025-.497-.137-1.047-.193-1.584-.281l-.056-.007h-.003l-.057-.003-1.19-.965-1.056-.855-1.1-.888v-.003h1.703l.067-.004.108-.003h.057l.024-.003h.003l.06.003.135.007h.48l.05.023c.06.004.119.01.178.013.088.004.178.01.266.016.044.004.086.004.13.008.062.003.127.013.192.023l.009.001c.32.053.645.094.962.147l.11.018.075.016c.083.015.164.033.244.052l.09.019c.033.008.064.019.096.027.034.01.07.017.104.027.134.035.265.067.397.1h.002l.397.098c.057.02.114.044.172.064.12.047.242.09.363.132l.09.033.139.047c.063.02.127.044.188.068.04.014.078.03.116.046.302.119.591.259.88.396a25.177 25.177 0 0 1 .437.203c.031.017.06.036.092.053.136.076.27.157.407.233l.649.387c.205.138.406.279.601.42l.016-.013.01-.006.01-.006V7.6l-.02.01v.004l-.017.01a13.133 13.133 0 0 0-.601-.42c-.216-.125-.431-.253-.65-.388-.221-.12-.433-.265-.673-.37-.473-.208-.934-.46-1.445-.628a26.292 26.292 0 0 1-.764-.273c-.263-.064-.528-.127-.797-.205-.522-.155-1.11-.211-1.682-.302-.272-.041-.515-.041-.773-.06l-.05-.021h-.415l-.201-.007-.06-.01-.028.01h-.057l-.107.003c-.044 0-.092 0-.135.004l-7.8-.004c-.003-.736-.01-1.49-.013-2.26h16.288V.34z"/>
                    </g>
                </g>
                <g>
                    <g>
                        <path fill="#293c5c"
                              d="M13.834 4.95l7.8.004c.043-.004.09-.004.134-.004l.107-.003h.058l.026-.01.061.01.202.007h.413l.05.02c.26.02.502.02.774.06.572.091 1.16.148 1.682.303.27.077.535.141.797.205.256.094.511.189.764.273.51.168.972.42 1.446.629.239.104.45.248.672.37.22.134.434.262.65.386.205.135.407.276.602.42l.016-.01v-.003l.02-.01V2.69H13.82c.003.77.01 1.524.014 2.26"/>
                    </g>
                    <g>
                        <path fill="#293c5c"
                              d="M15.91 28.296c.236.135.458.283.697.404l.34.16.38.176c.113.063.234.11.356.153.126.045.253.085.377.133.13.044.257.094.385.14.116.042.233.08.355.102.252.064.5.128.75.189l.063.011c.224.05.435.066.653.103l.054.009c.083.017.17.03.262.042l.069.008.078.006c.123.011.249.02.38.026l.173.007c.19.008.38.014.565.023l.104.007h.054l.164-.01.367-.02c.129-.011.258-.014.387-.02.114-.005.228-.012.34-.03.27-.035.536-.08.799-.13l.13-.029a12.301 12.301 0 0 0 1.445-.389c.055-.018.107-.037.161-.056.108-.038.213-.08.32-.12.112-.043.227-.082.336-.128l-.001-.003a30.82 30.82 0 0 1-1.542-3.135c-.19.089-.386.17-.585.246l-.122.046c-.064.024-.132.043-.197.065a8.205 8.205 0 0 1-1.729.412c-.044.006-.087.016-.132.022-.08.014-.16.02-.241.024-.07.005-.139.01-.208.013l-.133.007-.292.01-.148.006h-.081l-.034-.003-.067-.004c-.36-.026-.686-.023-1.133-.107l-.212-.032-.13-.02a2.748 2.748 0 0 1-.284-.059c-.198-.05-.397-.104-.599-.158-.157-.037-.306-.097-.457-.154-.042-.016-.085-.033-.128-.048-.08-.032-.163-.061-.245-.092-.04-.015-.079-.033-.119-.05-.074-.03-.148-.059-.218-.097l-.063-.032a7.898 7.898 0 0 1-1.138-.644 10.336 10.336 0 0 1-.38-.267c-.043-.031-.085-.064-.127-.096l-.094-.075c-.1-.078-.201-.156-.299-.237l-.035-.028c-.066-.056-.126-.119-.19-.177a8.318 8.318 0 0 1-.813-.858 10.144 10.144 0 0 1-.25-.314l-.112-.15c-.112-.153-.222-.309-.326-.468a9.683 9.683 0 0 1-1.076-2.402c-.108-.427-.216-.854-.26-1.295a4.834 4.834 0 0 1-.067-.659l-.02-.7.037-.601c.003-.192.04-.42.078-.65.056-.464.178-.884.292-1.305.276-.83.639-1.63 1.123-2.347.105-.15.214-.298.325-.443l.014-.019.086-.109c.101-.129.205-.255.312-.378l.06-.069c.12-.137.246-.27.375-.4.08-.081.167-.158.251-.236.08-.073.156-.15.239-.22l-.041-.02a10.223 10.223 0 0 0-.598-.293 7.784 7.784 0 0 0-.779-.305 6.712 6.712 0 0 0-.469-.135c-.525.562-.992 1.18-1.41 1.833-.134.217-.258.44-.377.665l-.05.087-.002.004c-.131.255-.254.514-.367.778l-.01.023c-.109.256-.21.516-.304.78-.039.109-.071.22-.107.331-.056.17-.115.339-.165.51l-.195.848c-.04.141-.057.282-.07.42l-.054.414-.054.414c-.023.131-.013.306-.023.457l-.024.892c.057 1.16.229 2.307.578 3.4.374 1.08.861 2.115 1.5 3.04.155.236.344.448.508.67.088.11.168.222.26.33l.285.302c.08.082.157.167.233.251l.037.04c.042.046.088.087.13.13.058.06.113.12.175.174.168.152.337.3.505.45l.11.098.03.023c.092.08.188.152.285.223.114.082.228.161.338.245l.025.018.302.221z"/>
                    </g>
                    <g>
                        <path fill="#293c5c"
                              d="M19.68 14.499a7.188 7.188 0 0 0-.393-.502l-.037-.047a4.244 4.244 0 0 0-1.9 3.535c0 .062.007.123.01.184.003.091.006.182.015.271a4.16 4.16 0 0 0 .078.465 3.948 3.948 0 0 0 .112.407c.03.09.063.18.099.268l.04.097c.04.095.086.187.134.277a4.081 4.081 0 0 0 .212.36l.077.113c.059.082.118.164.182.242.029.035.06.067.09.101.05.059.1.116.155.171.049.05.1.099.152.147.051.048.102.096.156.142l.087.07c.082.066.165.13.252.189l.064.042c.038.025.079.048.118.072.118.073.24.14.365.2l.022.01c.238.115.486.206.745.275l.132.034a4.429 4.429 0 0 0 .398.07c.055.008.11.016.166.021.093.009.187.012.282.015.036 0 .07.005.105.005.143 0 .283-.01.422-.023l.024-.003c.127-.014.253-.033.376-.058l.083-.017a3.96 3.96 0 0 0 .221-.054l.139-.04c.27-.084.526-.195.77-.329l.036-.02c.117-.066.23-.137.341-.213l.021-.014a4.278 4.278 0 0 0 1.586-2.111h-.002l-.066.048a6.877 6.877 0 0 1-.439.299c-.038.023-.076.049-.113.07l-.055.034a5.096 5.096 0 0 1-.366.191c-.037.018-.074.034-.11.05a3.477 3.477 0 0 1-.321.129c-.107.037-.211.07-.314.097l-.045.013c-.122.03-.242.055-.36.072l-.014.002a3.44 3.44 0 0 1-.32.03l-.06.002a3.23 3.23 0 0 1-.293-.005h-.027a3.221 3.221 0 0 1-.988-.23c-.1-.04-.196-.085-.29-.13l-.077-.04-.023-.012a3.884 3.884 0 0 1-.468-.298l-.056-.042-.072-.057-.06-.047-.08-.068a5.21 5.21 0 0 1-.416-.402 5.501 5.501 0 0 1-.08-.09l-.013-.015a3.69 3.69 0 0 1-.3-.392s.072-.058.168-.17l.03-.036a2.028 2.028 0 0 0 .403-.812l.017-.083c.01-.053.02-.109.026-.167a2.197 2.197 0 0 0 .01-.41l-.007-.063a2.889 2.889 0 0 0-.108-.56c-.01-.034-.024-.07-.036-.105a3.745 3.745 0 0 0-.216-.501l-.07-.134a5.152 5.152 0 0 0-.177-.293c-.048-.075-.094-.15-.149-.227"/>
                    </g>
                    <g>
                        <path fill="#293c5c"
                              d="M30.073 12.44c-.196-.141-.397-.282-.602-.42l-.649-.386c-.136-.077-.27-.157-.407-.233-.087-.048-.173-.096-.266-.134-.088-.04-.176-.082-.263-.123-.289-.137-.578-.277-.88-.396-.1-.039-.2-.078-.303-.11l-.14-.05-.09-.033c-.177-.064-.355-.127-.533-.193-.132-.032-.268-.068-.401-.101-.132-.034-.263-.065-.397-.1-.033-.01-.07-.018-.104-.027a4.969 4.969 0 0 0-.43-.099c-.062-.012-.123-.023-.185-.033-.317-.053-.641-.095-.962-.148h-.009a3.231 3.231 0 0 0-.322-.031c-.088-.005-.178-.013-.266-.017-.059-.003-.117-.004-.177-.01l-.05-.022h-.414l-.067-.004-.135-.007-.06-.003h-.003l-.024.003h-.057l-.108.004-.067.003-.068.004H20l1.099.888 2.247 1.816.06.007.055.006c.537.088 1.087.144 1.584.281.032.01.066.015.097.025.27.07.535.138.798.202.255.094.51.185.763.276.511.161.972.417 1.446.629l.049.024c.218.097.418.227.624.342.219.132.434.26.649.387.205.138.407.28.602.42l.036-.025.001-.002v-2.636h-.001l-.01.008z"/>
                    </g>
                    <g>
                        <path fill="#293c5c"
                              d="M30.009 19.555l-.088.004-.036.001c-.042.002-.083.006-.125.007-.048.002-.096.006-.144.01-.037.002-.075.002-.112.007l-.033.003a4.487 4.487 0 0 0-.361.06l-.083.019c-.089.02-.175.044-.259.07l-.057.016-.044.013-.074.024a2.965 2.965 0 0 0-.68.36l-.012.007a2.747 2.747 0 0 0-.259.215c-.06.055-.116.118-.171.18-.039.042-.08.08-.116.125-.15.186-.279.394-.39.623-.302.605-.484 1.365-.548 2.27-.013.198-.024.4-.027.609a26.938 26.938 0 0 0 1.863 3.966c.438.763.902 1.462 1.38 2.081.143.19.293.374.445.552l.014.017.014.017.006.008.001.001V19.55c-.035.003-.07.003-.104.005"/>
                    </g>
                    <g>
                        <path fill="#293c5c"
                              d="M29.278 32.877c-.44-.437-.861-.918-1.248-1.439-.034-.04-.067-.084-.1-.128a13.798 13.798 0 0 1-4.36 1.282c-.296.043-.595.043-.898.064l-.454.02-.218.006h-.01l-.098-.003h-.024l-.053-.003h-.101c-.562-.04-1.076-.04-1.762-.168-.32-.061-.66-.098-.966-.172a4.224 4.224 0 0 0-.296-.08c2.412 3.894 5.997 7.14 11.3 10.684.035.024.068.044.102.068l.02-.014v-9.817h-.121a.984.984 0 0 1-.713-.3"/>
                    </g>
                    <g>
                        <path fill="#e5e6e7" fill-opacity="0.2"
                              d="M30.675 7.2c.215-.124.43-.252.65-.387.221-.12.433-.266.672-.37.474-.208.935-.46 1.446-.629.252-.084.508-.178.763-.272.263-.064.529-.128.797-.205.522-.155 1.11-.212 1.682-.303.273-.04.515-.04.774-.06l.05-.02h.414l.202-.007.06-.01.027.01h.057l.108.003c.044 0 .09 0 .134.003l7.834-.003c.006-.737.013-1.49.017-2.26H30.11v4.907c.185-.138.373-.27.565-.397"/>
                    </g>
                    <g>
                        <path fill="#e5e6e7" fill-opacity="0.2"
                              d="M48.496 12.593l-.006-.011a10.97 10.97 0 0 0-.41-.72 12.666 12.666 0 0 0-1.408-1.832c-.144.035-.29.077-.439.125l-.01.002-.008.004a7.394 7.394 0 0 0-.434.156c-.03.011-.061.026-.092.038a8.171 8.171 0 0 0-.457.202c-.147.07-.296.144-.447.226.332.283.64.596.928.928l.01.012a11.397 11.397 0 0 1 .723.934c.485.716.848 1.517 1.124 2.347.114.42.235.841.292 1.305.037.229.074.458.078.65l.037.601-.02.7c-.004.222-.034.44-.068.66-.043.44-.15.867-.259 1.294a9.705 9.705 0 0 1-1.076 2.401c-.477.73-1.036 1.407-1.691 1.968-.13.107-.26.21-.393.312-.092.07-.183.139-.277.204-.046.034-.094.067-.142.1-.081.056-.162.115-.245.17a8.575 8.575 0 0 1-.511.308l-.018.01a7.34 7.34 0 0 1-.453.226l-.097.05c-.185.1-.387.16-.582.238-.102.035-.202.075-.303.112-.084.032-.17.06-.257.082l-.026.008-.074.02c-.176.047-.35.094-.524.138-.068.018-.141.03-.214.044-.083.014-.166.03-.252.043-.054.007-.107.015-.16.024-.442.083-.766.08-1.122.107h-.011l-.067.004-.034.003h-.08l-.147-.007h-.008l-.286-.01-.13-.006c-.079-.004-.157-.01-.235-.015-.073-.006-.146-.01-.217-.022l-.101-.017a9.177 9.177 0 0 1-.58-.094l-.05-.01a8.984 8.984 0 0 1-.659-.16l-.024-.006a8.885 8.885 0 0 1-.57-.186c-.071-.025-.141-.053-.212-.08a9.62 9.62 0 0 1-.415-.17l-.09-.037c-.33.783-.854 1.925-1.546 3.129l-.001.002c.04.016.08.029.12.044a12.816 12.816 0 0 0 .8.285 12.989 12.989 0 0 0 1.348.355l.062.013c.263.052.53.096.801.13.113.02.228.026.343.031.123.006.246.01.368.019h.016l.366.02h.003l.162.01h.054l.104-.006c.19-.01.386-.016.582-.024a10.596 10.596 0 0 0 .56-.034l.045-.003.086-.01c.086-.01.165-.024.242-.04l.066-.01c.239-.04.467-.05.716-.114.25-.06.498-.125.75-.189l.025-.007a2.54 2.54 0 0 0 .315-.09c.133-.047.265-.099.4-.145.129-.05.262-.093.393-.14.116-.042.232-.086.34-.146l.387-.18c.111-.052.223-.103.333-.156.24-.121.46-.27.696-.404l.35-.205.327-.239c.215-.164.447-.31.652-.49.205-.182.41-.364.616-.549.208-.178.38-.397.575-.595l.285-.303c.091-.107.172-.219.26-.33.164-.221.352-.433.507-.669.64-.925 1.127-1.96 1.5-3.04.35-1.093.522-2.24.579-3.4l-.024-.892c-.01-.151 0-.326-.023-.457l-.054-.414-.054-.414a2.35 2.35 0 0 0-.07-.42l-.196-.848c-.047-.164-.104-.325-.156-.488-.03-.09-.056-.18-.087-.27-.025-.072-.053-.143-.08-.215-.048-.134-.102-.266-.155-.398a12.62 12.62 0 0 0-.43-.956c-.02-.04-.038-.081-.059-.12"/>
                    </g>
                    <g>
                        <path fill="#e5e6e7" fill-opacity="0.2"
                              d="M34.71 19.286c.019.042.038.085.06.126l.027.057c.046.085.094.168.144.25l.029.045c.024.038.05.074.076.112a4.289 4.289 0 0 0 .414.515l.044.047c.118.121.242.235.373.342l.039.03a4.209 4.209 0 0 0 .366.263c.113.071.229.138.348.2l.117.054a4.309 4.309 0 0 0 .523.206l.056.016c.112.034.225.063.34.088l.066.013c.266.052.54.083.82.083.036 0 .071-.005.107-.006.091-.002.182-.005.272-.014.085-.007.168-.02.25-.032l.106-.016a4.232 4.232 0 0 0 2.03-.965c.036-.03.07-.063.105-.095.068-.062.134-.126.198-.192l.039-.043c.114-.123.222-.254.321-.39l.025-.033a4.343 4.343 0 0 0 .258-.405l.045-.083c.028-.054.052-.11.079-.164a4.21 4.21 0 0 0 .14-.332l.036-.098a4.261 4.261 0 0 0 .229-1.274c0-.035.005-.07.005-.106a4.243 4.243 0 0 0-1.9-3.535c-.293.337-.52.654-.694.95l-.024.045c-.075.13-.143.26-.198.382-.021.046-.034.088-.052.133-.036.09-.074.179-.1.263l-.009.028a2.85 2.85 0 0 0-.103.513c-.006.054-.015.11-.018.162a2.253 2.253 0 0 0 .111.796 2.043 2.043 0 0 0 .193.412l.02.033c.03.046.06.09.089.128l.004.006c.094.123.176.2.216.236l.014.012.005.004.006.006h.002s-.074.115-.21.28l-.012.017c-.035.042-.075.09-.117.137l-.051.056a4.328 4.328 0 0 1-.154.16c-.034.034-.066.068-.103.103l-.074.066a4.61 4.61 0 0 1-.43.347l-.011.008c-.135.094-.28.183-.435.265l-.02.01a5.343 5.343 0 0 1-.328.148c-.1.039-.202.075-.308.106l-.084.023a3.22 3.22 0 0 1-.592.097l-.02.001a3.166 3.166 0 0 1-.296.004l-.063-.002a3.42 3.42 0 0 1-.304-.028l-.034-.004a3.62 3.62 0 0 1-.345-.069l-.084-.024a4.129 4.129 0 0 1-.567-.201c-.059-.026-.117-.051-.177-.08l-.078-.04a5.622 5.622 0 0 1-.67-.401 6.732 6.732 0 0 1-.262-.188v.002c.035.1.073.199.114.296.02.047.043.092.065.138"/>
                    </g>
                    <g>
                        <path fill="#e5e6e7" fill-opacity="0.2"
                              d="M30.675 14.657l.65-.387c.21-.118.414-.253.639-.35l.033-.016.216-.102c.132-.061.263-.123.395-.186.146-.068.294-.136.445-.197.04-.016.08-.029.12-.044.089-.035.177-.071.27-.1.252-.091.508-.182.763-.276.232-.056.467-.116.703-.178l.094-.024c.522-.158 1.11-.212 1.682-.306l.056-.007.055-.006 1.736-1.395 1.63-1.31h-1.65l-.068-.003-.067-.004-.108-.003h-.057l-.027-.003h-.003l-.057.003-.135.007-.067.003h-.414l-.05.024c-.064.005-.126.007-.189.01-.082.003-.166.01-.249.015-.11.006-.219.013-.336.032-.162.027-.326.05-.49.074a22.522 22.522 0 0 0-.677.11 6.62 6.62 0 0 0-.435.102l-.08.02c-.134.036-.266.068-.4.101-.132.034-.266.069-.397.1-.255.095-.51.186-.763.277-.097.03-.19.067-.285.103a7.157 7.157 0 0 0-.35.148l-.096.041-.042.02c-.226.106-.448.216-.673.317-.1.04-.195.093-.29.146-.128.072-.255.148-.383.22l-.48.286-.17.101c-.162.108-.32.222-.479.334l-.085.06v2.636c.185-.13.373-.265.565-.393"/>
                    </g>
                    <g>
                        <path fill="#e5e6e7" fill-opacity="0.2"
                              d="M30.11 19.55v11.27c.151-.181.303-.366.454-.561.478-.616.945-1.315 1.392-2.089a27.331 27.331 0 0 0 1.517-3.067c.175-.417.296-.74.36-.922a10.73 10.73 0 0 0-.023-.555v-.02c-.058-.827-.212-1.537-.464-2.115l-.017-.05a3.213 3.213 0 0 0-.572-.895l-.002-.002-.007-.007-.018-.018a2.545 2.545 0 0 0-.39-.344 3.144 3.144 0 0 0-.833-.423l-.052-.017-.022-.006-.028-.008a3.955 3.955 0 0 0-.588-.123l-.045-.007a5.197 5.197 0 0 0-.655-.041z"/>
                    </g>
                    <g>
                        <path fill="#e5e6e7" fill-opacity="0.2"
                              d="M41.502 32.248c-.115.034-.226.06-.34.094-.306.074-.646.111-.965.172-.686.128-1.201.128-1.763.168h-.1l-.055.003h-.023l-.097.004h-.01l-.22-.007-.453-.02c-.303-.02-.602-.02-.898-.064a13.548 13.548 0 0 1-4.309-1.258c-.037.047-.07.1-.107.145-.387.504-.798.978-1.214 1.392a.997.997 0 0 1-.7.296l-.138.01V43c5.354-3.568 8.967-6.83 11.392-10.752"/>
                    </g>
                    <g>
                        <path fill="#ffffff" d="M72.13 29.515h2.718v8.35h2.731v-8.35h2.69V27.25H72.13z"/>
                    </g>
                    <g>
                        <path fill="#ffffff"
                              d="M87.786 27.25l4.133 10.615h-2.604l-.693-1.712h-4.034l-.694 1.712H81.29l4.119-10.615zm-.085 6.648l-1.103-2.713-1.09 2.713z"/>
                    </g>
                    <g>
                        <path fill="#ffffff" d="M101.245 35.6h-3.864v-8.35H94.65v10.615h6.595z"/>
                    </g>
                    <g>
                        <path fill="#ffffff"
                              d="M107.262 33.548h4.034V31.27h-4.034v-1.754h4.925V27.25h-7.657v10.615h7.898v-2.264h-5.166z"/>
                    </g>
                    <g>
                        <path fill="#ffffff"
                              d="M122.556 33.293l-4.203-6.043h-2.633v10.615h2.732v-6.044l4.176 6.044h2.646V27.25h-2.718z"/>
                    </g>
                    <g>
                        <path fill="#ffffff" d="M128.49 29.515h2.718v8.35h2.731v-8.35h2.69V27.25h-8.139z"/>
                    </g>
                    <g>
                        <path fill="#ffffff"
                              d="M143.913 31.257c-1.628-.58-1.543-.948-1.543-1.16 0-.892 1.146-.723 1.118-.723 1.189 0 2.42.807 2.788 1.09l1.571-1.712c-.92-.906-2.59-1.642-4.458-1.642-1.613 0-3.737.694-3.737 2.958 0 1.684 1.94 2.562 2.958 3.029 1.231.566 2.42.75 2.42 1.698 0 .665-.622.977-1.316.963-1.246 0-2.25-.991-2.83-1.444l-1.784 1.755c1.231 1.302 2.916 1.953 4.855 1.968 2.052 0 3.793-1.076 3.793-3.17 0-1.855-1.416-2.747-3.835-3.61"/>
                    </g>
                </g>
                <g>
                    <g/>
                    <g clip-path="url(#jj3xg)">
                        <path fill="url(#jj3xh)"
                              d="M72.13 8.12l2.164 3.252h3.364c1.683 0 2.54 1.174 2.54 2.556 0 .5-.108.962-.32 1.357l-.013.017c-.391.712-1.128 1.186-2.207 1.186H72.13v6.866h3.921V19.74h2.041c1.436 0 2.647-.37 3.593-1 1.423-.94 2.26-2.472 2.406-4.237l.004-.046c.017-.18.021-.355.021-.53 0-3.188-2.235-5.807-6.074-5.807z"/>
                    </g>
                </g>
                <g>
                    <g/>
                    <g clip-path="url(#jj3xi)">
                        <path fill="url(#jj3xj)"
                              d="M88.71 8.12v15.236h11.99v-3.252h-8.07v-2.941h6.567V13.89H92.63v-2.519h8.07V8.12z"/>
                    </g>
                </g>
                <g>
                    <g/>
                    <g clip-path="url(#jj3xk)">
                        <path fill="url(#jj3xl)"
                              d="M109.205 11.371h1.605c1.684 0 2.54 1.177 2.54 2.557 0 .502-.107.962-.32 1.358l-.012.016c-.39.711-1.128 1.187-2.208 1.187h-1.605zM105.28 8.12v15.236h3.925V19.74h2.038l2.412 3.615h4.305l-3.123-4.615c1.422-.941 2.262-2.471 2.406-4.236l.005-.048c.016-.177.022-.353.022-.53 0-3.187-2.236-5.807-6.075-5.807z"/>
                    </g>
                </g>
                <g>
                    <g/>
                    <g clip-path="url(#jj3xm)">
                        <path fill="url(#jj3xn)"
                              d="M126.475 11.371h1.605c1.684 0 2.54 1.177 2.54 2.557 0 .502-.107.962-.321 1.358l-.011.016c-.39.711-1.128 1.187-2.208 1.187h-1.605zM122.55 8.12v15.236h3.925V19.74h2.038l2.411 3.615h4.305l-3.123-4.615c1.423-.941 2.263-2.471 2.407-4.236l.005-.048c.016-.177.021-.353.021-.53 0-3.187-2.235-5.807-6.074-5.807z"/>
                    </g>
                </g>
                <g>
                    <g/>
                    <g clip-path="url(#jj3xo)">
                        <path fill="url(#jj3xp)" d="M138.132 8.12h-.422l6.235 10.123v5.113h3.899v-5.648l-5.91-9.588z"/>
                    </g>
                </g>
            </g>
        </g>
    </g>
</svg>