<svg width="150" height="43" viewBox="0 0 150 43" fill="none" xmlns="http://www.w3.org/2000/svg">
<g clip-path="url(#clip0)">
<path d="M74.7985 27.8922H77.4858V36.1614H80.218V27.8922H82.8606V25.6572H74.7985V27.8922Z" fill="white"/>
<path d="M90.3402 25.6572H87.9664L83.891 36.1614H86.4885L87.1607 34.4629H91.1467L91.8189 36.1614H94.4164L90.3402 25.6572ZM88.1008 32.228L89.1762 29.546L90.2508 32.228H88.1008Z" fill="white"/>
<path d="M99.8804 25.6572H97.1484V36.1614H103.733V33.9265H99.8804V25.6572Z" fill="white"/>
<path d="M109.689 31.8704H113.72V29.6355H109.689V27.8922H114.571V25.6572H107.002V36.1614H114.84V33.9265H109.689V31.8704Z" fill="white"/>
<path d="M124.873 31.6469L120.707 25.6572H118.11V36.1614H120.798V30.1718L124.963 36.1614H127.605V25.6572H124.873V31.6469Z" fill="white"/>
<path d="M130.785 27.8922H133.473V36.1614H136.205V27.8922H138.893V25.6572H130.785V27.8922Z" fill="white"/>
<path d="M146.103 29.5908C144.491 29.0097 144.58 28.6522 144.58 28.4286C144.58 27.5347 145.7 27.7134 145.7 27.7134C146.865 27.7134 148.119 28.518 148.477 28.7862L150.045 27.0877C149.149 26.1937 147.492 25.4785 145.611 25.4785C143.998 25.4785 141.893 26.149 141.893 28.4286C141.893 30.0825 143.819 30.9765 144.849 31.4234C146.058 32.0045 147.268 32.1833 147.268 33.122C147.268 33.7925 146.641 34.1054 145.969 34.0607C144.715 34.0607 143.729 33.0773 143.148 32.6303L141.356 34.3736C142.565 35.6698 144.267 36.2956 146.193 36.3403C148.253 36.3403 149.955 35.2675 149.955 33.2114C149.911 31.334 148.522 30.4848 146.103 29.5908Z" fill="white"/>
<path d="M78.6951 21.7688H74.7985V14.9745H80.3076C81.3825 14.9745 82.0991 14.4828 82.5024 13.8124C82.7262 13.4101 82.8155 12.9631 82.8155 12.4714C82.8155 11.0858 81.9648 9.92361 80.3076 9.92361H76.9483L74.7985 6.70534H80.6658C84.4729 6.70534 86.7122 9.29788 86.7122 12.4714C86.7122 12.6502 86.7122 12.829 86.7122 13.0079V13.0525C86.5778 14.7958 85.727 16.3156 84.3385 17.2542C83.3983 17.88 82.1885 18.2376 80.7554 18.2376H78.7399V21.7688H78.6951ZM103.15 18.5505H95.1327V15.6451H101.672V12.382H95.1327V9.87895H103.15V6.66064H91.236V21.7688H103.15V18.5505ZM120.305 21.7688H116.05L113.631 18.1928H111.616V21.7688H107.719V6.66064H113.586C117.393 6.66064 119.633 9.25314 119.633 12.4268C119.633 12.6056 119.633 12.7843 119.588 12.9631V13.0079C119.453 14.7511 118.602 16.2708 117.214 17.2095L120.305 21.7688ZM115.736 12.4268C115.736 11.0411 114.885 9.87895 113.228 9.87895H111.616V14.9745H113.228C114.302 14.9745 115.02 14.4828 115.423 13.8124C115.647 13.3654 115.736 12.9185 115.736 12.4268ZM137.504 21.7688H133.204L130.83 18.1928H128.815V21.7688H124.918V6.66064H130.785C134.593 6.66064 136.832 9.25314 136.832 12.4268C136.832 12.6056 136.832 12.7843 136.832 12.9631V13.0079C136.697 14.7511 135.847 16.2708 134.458 17.2095L137.504 21.7688ZM132.89 12.4268C132.89 11.0411 132.039 9.87895 130.382 9.87895H128.77V14.9745H130.382C131.457 14.9745 132.174 14.4828 132.577 13.8124C132.801 13.3654 132.89 12.9185 132.89 12.4268ZM146.148 21.7688H150V16.1814L144.133 6.66064H139.922L146.103 16.7179V21.7688H146.148Z" fill="white"/>
<path d="M33.2338 14.9755V3.21979C26.0227 -2.18873 9.31623 1.07426 0 0.224988L6.94237 7.82374C6.94237 7.82374 8.64434 4.42665 12.138 4.02436C5.06121 11.9807 9.00271 23.2447 16.7065 27.8933C20.1552 33.3913 25.3957 37.9505 33.2338 43.0462V39.5597C28.2621 36.2073 24.4998 33.1231 21.6781 29.7707C24.5447 30.2624 27.6351 29.9048 30.7704 28.3404C31.6662 29.6813 32.4276 30.3965 33.2338 30.3965V27.7593C30.0538 24.2728 25.7988 15.5566 33.2338 14.9755ZM19.0803 6.79567L28.7548 12.4724C28.7548 12.6512 28.7997 12.7853 28.7997 12.9641C28.7997 16.7187 25.7539 19.7582 21.9916 19.7582C18.2293 19.7582 15.1836 16.7187 15.1836 12.9641C15.0941 10.2375 16.7065 7.86844 19.0803 6.79567ZM29.0684 25.7925C16.0347 31.9162 3.98626 12.8299 14.9149 4.33726L16.393 5.18652C7.79337 12.7853 16.6617 27.0888 27.3216 22.2167C27.8143 23.4682 28.3966 24.6304 29.0684 25.7925Z" fill="white"/>
<path d="M33.2339 3.2186V14.9743C40.6241 15.5554 36.414 24.2716 33.2339 27.7581V30.3953C34.0401 30.3953 34.8015 29.7249 35.6973 28.3392C38.8326 29.9036 41.9231 30.2612 44.7895 29.7695C41.9231 33.1219 38.1607 36.2061 33.2339 39.5138V43.0003C41.1168 37.9494 46.3124 33.3455 49.7612 27.8475C57.4649 23.1989 61.4064 11.9795 54.3297 3.97848C57.7785 4.38077 59.5253 7.77786 59.5253 7.77786L66.4677 0.179103C57.1514 1.07308 40.445 -2.18992 33.2339 3.2186ZM37.7128 12.4712L47.3873 6.79449C49.7164 7.86725 51.3736 10.2363 51.3736 12.9629C51.3736 16.7175 48.3279 19.757 44.5656 19.757C40.8033 19.757 37.7577 16.7175 37.7577 12.9629C37.6681 12.7841 37.7128 12.65 37.7128 12.4712ZM37.3545 25.7914C38.0263 24.6292 38.6086 23.467 39.1013 22.2601C49.7612 27.0876 58.6295 12.7841 50.0299 5.23004L51.508 4.38077C62.4366 12.8288 50.3882 31.915 37.3545 25.7914Z" fill="white"/>
</g>
<defs>
<clipPath id="clip0">
<rect width="150" height="43" fill="white"/>
</clipPath>
</defs>
</svg>
