<svg xmlns="http://www.w3.org/2000/svg" width="212" height="66" viewBox="0 0 212 66">
    <defs>
        <clipPath id="mttja">
            <path d="M0 .617h86.046V65.79H0z"/>
        </clipPath>
        <clipPath id="mttjb">
            <path d="M199.008 38.983h12.514v15.658h-12.514z"/>
        </clipPath>
    </defs>
    <g>
        <g opacity=".8">
            <g opacity=".8">
                <g opacity=".8">
                    <g opacity=".8"/>
                    <g clip-path="url(#mttja)" opacity=".1">
                        <path fill="#fefefe"
                              d="M86.046 7.21L76.182 19.1s-2.151-4.299-6.52-4.819c.1.125.202.27.303.39.279.386.587.733.847 1.133 1.063 1.552 1.881 3.296 2.497 5.114l.385 1.393c.067.226.116.467.154.713l.125.747.125.733c.044.26.039.467.063.689l.096 1.417c0 1.947-.207 3.885-.722 5.774-.544 1.856-1.299 3.663-2.329 5.302-1.039 1.629-2.276 3.128-3.71 4.371-.346.328-.74.598-1.106.901l-.559.425-.596.39c-.322.193-.635.405-.963.598-3.84 8.199-10.326 14.402-21.196 21.419h-.053c-10.85-7.003-17.332-13.192-21.177-21.38-.352-.203-.688-.425-1.035-.637l-.597-.39-.558-.425c-.365-.303-.76-.573-1.106-.9-1.435-1.244-2.67-2.743-3.71-4.372-1.03-1.639-1.786-3.446-2.33-5.302-.514-1.89-.72-3.827-.72-5.774l.095-1.417c.024-.222.02-.43.063-.69l.125-.732.125-.747c.038-.246.086-.487.154-.713l.385-1.393c.616-1.818 1.434-3.562 2.498-5.114.259-.4.567-.747.846-1.133.101-.12.202-.265.303-.39-4.369.52-6.52 4.82-6.52 4.82L0 7.21l16.423.014c-.02-2.107-.029-4.314-.029-6.608h53.311c0 2.294-.01 4.501-.029 6.608zM19.772 3.99c.005 1.106.014 2.188.019 3.246l11.16.005c.061-.005.129-.005.191-.005l.154-.004h.082l.039-.015.086.015.289.009h.592l.072.029c.37.029.717.029 1.107.087.818.13 1.66.213 2.406.435.384.11.765.202 1.14.294.366.135.731.27 1.092.391.732.242 1.39.604 2.07.903.341.15.644.358.962.532.313.193.62.376.929.555.293.193.582.396.861.604l.024-.015v-.004l.029-.015c.265-.198.534-.386.808-.57.308-.179.616-.362.93-.555.317-.174.62-.382.961-.532.679-.299 1.338-.661 2.07-.903.36-.12.726-.256 1.092-.39.375-.093.755-.184 1.14-.295.746-.222 1.588-.304 2.406-.435.39-.058.736-.058 1.107-.087l.072-.03h.592l.289-.008.086-.015.039.015h.081l.155.004c.062 0 .13 0 .192.005l11.207-.005c.01-1.058.02-2.14.024-3.245zm23.275 40.265v.005l.02.02.009.011.002.003c.217-.26.433-.525.65-.805a26.713 26.713 0 0 0 1.992-2.993 39.121 39.121 0 0 0 2.17-4.396c.25-.598.423-1.06.515-1.32-.005-.256-.014-.521-.034-.796v-.028c-.082-1.186-.303-2.203-.664-3.032l-.024-.072c-.226-.507-.49-.931-.818-1.282l-.002-.003v-.002l-.01-.008-.026-.026a3.694 3.694 0 0 0-.56-.493c-.073-.055-.144-.115-.222-.163-.089-.053-.188-.1-.283-.15a4.52 4.52 0 0 0-.687-.293l-.072-.025-.032-.008h-.004l-.038-.016a5.602 5.602 0 0 0-.424-.1 4.19 4.19 0 0 0-.415-.072l-.065-.01a7.08 7.08 0 0 0-.94-.063h-.038l-.119.012-.125.006-.045.001-.006.001c-.06.002-.12.008-.179.01l-.108.004-.1.009-.158.01-.048.005h-.002a7.801 7.801 0 0 0-.515.086l-.118.027c-.066.015-.135.028-.2.046-.058.016-.114.036-.17.055l-.083.022-.063.02-.02.004-.087.024c-.183.072-.356.15-.52.236a4.78 4.78 0 0 0-.375.231l-.077.054-.016.01-.047.033c-.057.044-.11.087-.163.13-.057.046-.109.096-.16.145-.086.08-.166.17-.246.258-.055.06-.115.115-.167.18-.217.266-.4.564-.558.892-.433.867-.693 1.957-.784 3.253-.02.284-.034.574-.04.873a38.468 38.468 0 0 0 2.666 5.682 26.177 26.177 0 0 0 1.974 2.983c.206.273.42.538.64.792zm5.149-25.227l.52-.187c.072-.025.144-.054.221-.078.331-.08.669-.173 1.007-.26l.135-.033c.746-.228 1.588-.304 2.407-.44l.078-.01.078-.004 2.411-1.942.075-.06 2.333-1.878h-.002v-.004h-2.457l-.096-.005-.154-.005h-.082l-.039-.005h-.004l-.082.005-.193.01h-.69l-.072.033c-.09.005-.178.014-.267.019-.118.005-.239.015-.357.022-.066.005-.13.006-.199.012a2.96 2.96 0 0 0-.284.034c-.23.038-.464.072-.698.106-.217.031-.432.065-.645.1l-.192.03-.132.028c-.1.02-.199.041-.297.064l-.158.033c-.057.015-.111.032-.167.048l-.115.03-.571.145-.061.014c-.173.043-.342.082-.51.125-.082.029-.164.063-.246.091-.211.082-.423.16-.635.232l-.212.072a4.333 4.333 0 0 0-.269.097l-.135.056c-.17.067-.338.137-.503.212l-.135.06-.061.028-.585.275c-.126.058-.25.116-.38.174a3.61 3.61 0 0 0-.25.12c-.056.03-.108.062-.162.094-.184.103-.365.213-.549.316-.23.139-.458.273-.685.409l-.246.145c-.135.091-.274.188-.409.28-.092.066-.183.133-.275.198l-.122.086-.002.001-.014.01-.015.008-.023.018a29.398 29.398 0 0 0-.86-.6l-.93-.555c-.193-.11-.386-.224-.582-.333l-.131-.077a21.822 21.822 0 0 0-.626-.292c-.412-.196-.826-.397-1.258-.567-.055-.022-.109-.046-.166-.066a4.347 4.347 0 0 0-.27-.097l-.198-.068-.129-.046c-.173-.06-.346-.122-.52-.19-.081-.028-.163-.062-.245-.091-.188-.048-.375-.091-.568-.14h-.003c-.189-.049-.376-.094-.567-.145l-.15-.037-.136-.04-.13-.027a8.789 8.789 0 0 0-.35-.075l-.107-.023-.157-.025c-.453-.075-.917-.135-1.376-.21l-.012-.002a2.752 2.752 0 0 0-.274-.033c-.064-.006-.125-.006-.187-.011-.126-.008-.255-.018-.38-.024-.086-.005-.17-.013-.256-.018l-.072-.033h-.686l-.192-.01-.087-.005h-.004l-.035.005H31.3l-.155.005-.096.005h-2.437v.004h.002l1.573 1.273 1.51 1.224 1.703 1.383.082.005h.005l.079.01c.769.127 1.556.207 2.267.403l.137.036c.384.096.765.201 1.14.293.072.024.15.053.226.078.174.062.347.125.515.187l.351.13c.183.053.362.121.535.194.48.192.933.428 1.395.64l.14.068.071.03c.313.139.598.325.893.49.313.188.621.371.93.555.292.197.581.4.86.602l.051-.037.002-.001c.265-.188.534-.38.808-.564l.929-.555c.303-.17.594-.362.916-.501l.044-.019.14-.068c.058-.026.115-.054.173-.082l.564-.266c.21-.1.42-.196.638-.283.055-.024.113-.041.17-.064.126-.049.253-.1.384-.139.116-.043.236-.086.352-.13zM28.74 26.582c-.282-.328-.43-.562-.43-.562s.104-.084.242-.243l.016-.018.027-.035a2.92 2.92 0 0 0 .51-.94l.002-.004c.024-.068.043-.135.062-.212l.002-.008.024-.12.008-.041c.015-.063.024-.121.029-.184l.001-.014a3.566 3.566 0 0 0 .02-.392c0-.064-.001-.128-.006-.196v-.03l-.01-.062a3.764 3.764 0 0 0-.067-.449l-.006-.035a3.108 3.108 0 0 0-.08-.318l-.053-.151-.05-.143-.062-.155-.008-.017a5.885 5.885 0 0 0-.19-.405c-.032-.064-.063-.127-.1-.192a7.28 7.28 0 0 0-.252-.42l-.051-.086c-.049-.081-.106-.16-.163-.24a12.376 12.376 0 0 0-.127-.175l-.076-.1c-.053-.073-.116-.15-.178-.228-.055-.073-.118-.145-.18-.217l-.054-.068v.001h-.002a6.092 6.092 0 0 0-2.719 5.072c0 .09.012.176.016.264.006.13.009.261.023.389v.003c.005.091.02.183.034.27.008.06.024.117.034.175.014.074.027.147.043.22.027.117.057.234.09.349.023.078.045.157.07.234l.027.089c.025.062.049.12.068.183l.046.112.058.14.025.062.01.02c.034.076.068.154.106.226l.05.09c.035.067.073.132.11.197.062.109.126.216.194.319l.111.16c.043.062.082.126.127.185l.077.101.056.063.128.146c.06.07.119.143.182.206l.04.038c.07.073.143.141.217.21l.118.114.106.09.124.101.05.04c.076.068.158.131.244.184l.053.038.014.01.091.06.093.061.077.043c.169.103.342.199.522.286l.013.008.007.003.011.005c.34.163.695.295 1.066.393h.002l.116.034.071.014c.096.023.192.042.29.059l.067.014c.07.008.141.02.212.03.079.01.157.021.237.029l.032.004h.043l.222.014.108.002.15.008a6.1 6.1 0 0 0 .603-.033h.01l.025-.005c.182-.019.36-.046.537-.082l.04-.006.08-.018c.106-.024.21-.05.315-.078.062-.018.124-.034.187-.053l.012-.005a6.03 6.03 0 0 0 1.101-.471l.013-.007.04-.023c.167-.095.33-.196.487-.306l.021-.014.01-.006a6.138 6.138 0 0 0 1.456-1.448l.002-.003c.058-.072.106-.15.159-.231l.004-.009c.037-.057.072-.116.106-.174l.01-.015.091-.16.007-.013c.17-.31.318-.635.434-.976l-.004.002.001-.002-.095.07a9.635 9.635 0 0 1-.628.429l-.162.101-.078.047a7.407 7.407 0 0 1-.524.275l-.158.072c-.11.046-.218.092-.325.135l-.135.05a5.727 5.727 0 0 1-.448.14l-.063.017a5.303 5.303 0 0 1-.516.104l-.02.003a4.991 4.991 0 0 1-.46.042l-.083.003a4.72 4.72 0 0 1-.42-.006l-.039-.002a4.938 4.938 0 0 1-.826-.135l-.156-.043a4.873 4.873 0 0 1-.847-.339l-.11-.054-.033-.019a5.474 5.474 0 0 1-.502-.309 7.248 7.248 0 0 1-.167-.119l-.08-.06-.104-.08-.085-.069-.114-.098a5.816 5.816 0 0 1-.38-.352 6.38 6.38 0 0 1-.215-.224l-.116-.13zm20.662.574l-.004-.002c.048.144.105.286.166.427.028.067.062.132.093.198l.064.137.022.044.04.08.024.05c.053.097.106.198.168.29l.013.02.041.065.048.074.061.086c.066.096.133.191.204.284l.123.154c.085.103.173.204.265.301l.033.039.03.03c.168.173.345.337.533.49l.02.016.035.027c.082.066.164.13.25.193l.04.03a6.315 6.315 0 0 0 .73.44c.056.028.112.052.168.078.112.054.227.104.343.151l.038.017c.058.024.12.048.183.067l.026.01.157.051.033.012.047.012c.16.048.322.09.487.125l.048.012.045.007c.38.075.771.119 1.173.119l.151-.008.102-.002.22-.014h.044l.024-.004c.12-.01.24-.029.358-.047l.094-.012.057-.011c.11-.02.22-.041.328-.067l.216-.053.063-.02c.097-.027.193-.057.288-.09l.033-.01c.067-.02.13-.043.197-.072l.04-.017c.077-.03.153-.061.229-.094h.005l.087-.044a6.96 6.96 0 0 0 .177-.086l.01-.006a5.924 5.924 0 0 0 .51-.289l.023-.016c.245-.157.477-.33.695-.519l.007-.005.053-.044.09-.088a6.3 6.3 0 0 0 .282-.276l.012-.012.043-.05c.164-.177.318-.364.46-.56l.022-.027.012-.019c.059-.082.115-.164.169-.249l.082-.128c.04-.068.078-.13.116-.198l.003-.006.064-.12.03-.053.052-.11.03-.071c.074-.156.14-.315.2-.477l.039-.099.013-.042c.04-.116.076-.232.108-.351l.009-.027c.017-.064.03-.128.047-.189.032-.134.058-.271.082-.409l.015-.078.009-.08a6.13 6.13 0 0 0 .042-.386l.007-.06c.006-.083.007-.166.008-.248l.008-.152a6.096 6.096 0 0 0-2.715-5.073l-.001.001h-.001c-.417.484-.74.938-.99 1.363l-.033.064a6.473 6.473 0 0 0-.285.549c-.029.066-.047.127-.073.19-.049.12-.101.243-.138.358l-.006.02-.012.04c-.027.088-.054.176-.073.258l-.015.072-.01.079a3.693 3.693 0 0 0-.05.327c-.007.06-.022.126-.026.183l.001.05c-.008.175 0 .34.016.495l.002.044c.005.063.014.12.03.184.008.057.018.115.032.169.02.077.039.144.063.212l.016.037a3 3 0 0 0 .175.413l.006.013.072.13.022.036.03.047.02.033.072.106.034.045.006.008.085.111c.103.12.18.191.223.228l.021.018.006.005h.001l.009.008v.002s-.068.106-.202.28l-.095.122-.018.023a6.94 6.94 0 0 1-.168.196l-.073.081c-.067.074-.138.15-.219.23l-.148.147-.015.011-.09.083c-.054.05-.11.1-.169.15l-.128.105a6.077 6.077 0 0 1-.318.243l-.016.012a5.718 5.718 0 0 1-.62.38l-.03.015a7.89 7.89 0 0 1-.468.212 4.931 4.931 0 0 1-.44.152l-.12.033c-.265.07-.549.116-.846.14h-.03c-.138.01-.279.011-.422.007l-.09-.003a4.904 4.904 0 0 1-.435-.04l-.047-.006a5.146 5.146 0 0 1-.493-.1l-.12-.034a5.852 5.852 0 0 1-.574-.19c-.078-.03-.157-.065-.237-.099a6.938 6.938 0 0 1-.254-.114l-.11-.056a7.982 7.982 0 0 1-.691-.4 9.89 9.89 0 0 1-.641-.446zM25.83 42.172c.186.064.368.136.55.201.166.06.333.113.506.147.36.091.716.183 1.073.27l.093.016c.32.073.621.095.933.148l.077.012.098.022.193.028.084.01.098.012.02.003.092.006c.175.016.356.029.543.037.082.004.164.008.247.01.272.011.545.02.808.033l.149.01h.077l.236-.015.524-.029c.184-.015.368-.02.553-.028l.224-.01.26-.03c.388-.048.768-.115 1.144-.19.063-.012.124-.027.186-.04.153-.032.307-.06.459-.097.158-.039.312-.077.47-.12l.008-.002.219-.06.091-.025c.26-.072.515-.15.77-.236l.05-.018.23-.08.133-.047c.109-.041.215-.085.323-.126.16-.062.325-.118.482-.183l-.003-.004h.001c-.066-.116-.127-.229-.19-.343a44.132 44.132 0 0 1-2.015-4.152c-.271.127-.552.243-.837.353-.057.022-.116.043-.173.066-.093.033-.189.061-.282.093-.225.078-.45.155-.684.22a13.179 13.179 0 0 1-1.787.37c-.064.009-.128.02-.192.027a4.12 4.12 0 0 1-.343.04c-.099.006-.198.013-.298.017-.062.001-.129.005-.191.005l-.418.02-.212.004h-.116l-.048-.005h-.094c-.514-.038-.98-.033-1.62-.154l-.303-.046-.186-.03a3.833 3.833 0 0 1-.405-.083c-.284-.073-.568-.15-.856-.227-.225-.052-.439-.139-.654-.22a3.76 3.76 0 0 0-.185-.074c-.068-.024-.14-.048-.212-.077l-.136-.05c-.058-.02-.114-.048-.17-.07-.107-.044-.215-.086-.314-.145l-.09-.041a11.393 11.393 0 0 1-1.626-.925c-.183-.123-.364-.25-.543-.382-.062-.044-.121-.091-.181-.138l-.135-.107c-.144-.112-.287-.223-.428-.34l-.051-.044c-.094-.079-.18-.168-.27-.25a11.917 11.917 0 0 1-1.163-1.23 14.139 14.139 0 0 1-.357-.45c-.053-.07-.108-.142-.16-.214-.16-.22-.318-.444-.467-.672-.673-1.061-1.174-2.233-1.539-3.444-.153-.612-.308-1.225-.37-1.856a6.962 6.962 0 0 1-.096-.945l-.029-1.003.053-.864c.005-.274.058-.603.11-.93.082-.666.255-1.268.419-1.871.394-1.192.913-2.339 1.606-3.366.15-.216.305-.427.464-.635l.02-.027.123-.156c.145-.185.293-.366.446-.543l.085-.098c.173-.197.353-.388.536-.573.117-.117.24-.227.36-.339.114-.105.224-.215.342-.315l-.059-.03c-.101-.055-.202-.106-.3-.158l-.158-.075a13.361 13.361 0 0 0-.397-.187l-.141-.066c-.116-.048-.226-.096-.342-.145-.111-.048-.226-.087-.332-.125-.1-.034-.197-.073-.298-.106l-.034-.01c-.216-.062-.428-.13-.64-.183v.005a18.236 18.236 0 0 0-2.015 2.628c-.11.179-.216.352-.316.535-.078.13-.15.266-.222.4v.01l-.07.133-.003.006-.052.097c-.034.068-.067.13-.096.198l-.043.092c-.044.086-.087.168-.125.255-.072.155-.14.309-.207.468l-.002.005-.014.033a7.081 7.081 0 0 0-.177.43c-.086.217-.168.429-.245.646l-.013.04c-.056.158-.102.319-.154.477-.08.244-.166.486-.237.732l-.279 1.215a3.398 3.398 0 0 0-.1.603l-.078.593-.076.593c-.034.188-.02.439-.034.656l-.034 1.278c.082 1.663.327 3.308.827 4.875.534 1.548 1.232 3.033 2.145 4.36.221.337.49.64.726.96.125.158.241.317.37.472l.41.434c.114.12.226.24.336.366l.051.051c.06.066.125.124.187.187.081.084.16.173.248.25.216.197.437.39.654.582l.069.06.159.143.042.033c.059.053.12.105.182.155l.225.164c.162.117.326.231.484.352l.035.026.015.013.183.135.23.173.501.295c.082.048.169.096.25.144.164.096.327.198.496.294.082.049.163.097.25.14.163.073.326.15.49.227.178.082.36.169.538.256.162.09.337.156.513.214.18.064.362.122.538.19zm17.246 19.579c7.66-5.114 12.829-9.789 16.298-15.408-.164.048-.322.086-.486.134-.438.106-.924.16-1.381.246-.982.183-1.718.183-2.522.241h-.144l-.077.004h-.034l-.14.005h-.014l-.313-.009-.65-.029c-.432-.029-.86-.029-1.284-.091a19.363 19.363 0 0 1-6.164-1.803c-.053.067-.1.144-.154.207a19.833 19.833 0 0 1-1.737 1.996c-.265.27-.625.419-1 .424l-.198.014h-.173c-.385 0-.751-.15-1.02-.43a18.063 18.063 0 0 1-1.785-2.062c-.049-.058-.097-.12-.145-.183a19.711 19.711 0 0 1-6.236 1.837c-.424.062-.852.062-1.285.091l-.65.03-.313.008h-.014l-.14-.005h-.033l-.077-.004h-.144c-.804-.058-1.54-.058-2.522-.241-.457-.087-.943-.14-1.38-.246a5.95 5.95 0 0 0-.424-.115c3.45 5.581 8.58 10.232 16.168 15.312l.144.096zm26.658-42.865a2.757 2.757 0 0 0-.116-.246c-.045-.098-.096-.196-.146-.293-.03-.058-.056-.117-.085-.174l-.01-.02v.004a15.75 15.75 0 0 0-.584-1.031 18.235 18.235 0 0 0-2.016-2.628c-.206.05-.415.11-.628.178v-.005l-.014.01-.013.004a9.76 9.76 0 0 0-.32.107c-.081.029-.168.058-.25.096h-.005l-.019.01-.025.01-.133.056c-.109.044-.217.088-.328.137-.06.025-.119.055-.178.083l-.147.07-.045.02c-.198.092-.395.193-.597.304.226.193.443.395.654.608.236.23.46.472.676.722l.014.017a16.382 16.382 0 0 1 1.035 1.339c.693 1.027 1.213 2.174 1.608 3.366.163.603.337 1.205.418 1.87.053.328.106.657.11.931l.054.864-.03 1.003a6.862 6.862 0 0 1-.096.945c-.062.631-.216 1.244-.37 1.856-.366 1.21-.866 2.383-1.54 3.444-.683 1.046-1.482 2.015-2.42 2.82-.184.155-.373.301-.562.447-.131.1-.261.2-.395.293l-.203.143c-.117.082-.232.166-.351.243-.24.156-.483.305-.732.443l-.007.003-.019.01c-.212.118-.43.224-.648.326l-.14.065c-.13.077-.27.135-.41.188-.072.029-.144.053-.211.077-.073.029-.145.053-.212.077-.068.024-.14.053-.207.082l-.225.084a3.49 3.49 0 0 1-.367.117l-.039.011-.104.029c-.252.067-.501.135-.75.198-.096.026-.202.044-.305.063-.12.02-.238.043-.362.061l-.228.035c-.633.12-1.097.116-1.605.153l-.019.001h-.096l-.048.005h-.116l-.207-.005h-.011l-.412-.019c-.06 0-.123-.003-.183-.004-.113-.005-.225-.014-.337-.022a3.906 3.906 0 0 1-.312-.036l-.143-.02c-.28-.037-.557-.08-.829-.134l-.072-.013c-.32-.066-.634-.143-.943-.23l-.034-.01c-.277-.08-.548-.17-.815-.267-.103-.036-.202-.075-.303-.114-.202-.078-.4-.158-.595-.245l-.13-.057v.004a7.112 7.112 0 0 0-.116.275c-.038.092-.081.189-.125.29-.053.115-.106.24-.164.366-.062.145-.134.3-.207.453-.072.16-.149.323-.23.492-.058.12-.116.242-.178.362-.058.12-.12.246-.183.371l-.313.613c-.048.082-.092.173-.14.26-.173.328-.36.665-.558 1.003l.004.002-.002.003c.056.023.116.042.172.064.116.047.231.093.35.138.082.031.167.055.249.085a17.283 17.283 0 0 0 1.612.493c.115.03.227.065.344.093.17.04.344.073.518.108l.088.019c.377.074.758.14 1.145.19l.26.03c.076.004.155.008.233.01.176.009.351.014.526.027l.02.001.525.03h.007l.23.014h.078l.149-.01c.27-.013.552-.023.832-.034l.212-.008c.203-.01.4-.023.589-.04l.054-.005h.011l.124-.016.067-.008.192-.029.086-.018.095-.015c.341-.058.668-.072 1.025-.164.356-.087.712-.179 1.073-.27l.035-.01c.153-.033.303-.079.45-.13.19-.068.38-.142.573-.208.184-.071.374-.133.563-.2.166-.055.332-.119.484-.204.178-.082.36-.17.539-.256l.016-.009c.16-.074.319-.147.477-.223.341-.173.659-.386.996-.578l.5-.295.467-.342c.308-.236.64-.444.934-.704.293-.26.587-.521.88-.786.299-.255.544-.569.823-.853l.409-.434c.13-.155.246-.314.37-.473.237-.318.506-.622.727-.96.914-1.326 1.612-2.811 2.146-4.36.5-1.566.746-3.21.828-4.875l-.034-1.277c-.014-.217 0-.468-.034-.656l-.076-.593-.077-.593c-.02-.198-.044-.4-.102-.603l-.279-1.215c-.068-.236-.148-.467-.224-.7-.04-.12-.074-.242-.115-.361l-.009-.025c-.036-.104-.076-.207-.114-.31a15.286 15.286 0 0 0-.15-.403c-.022-.056-.05-.111-.072-.168-.09-.223-.183-.443-.28-.663z"/>
                    </g>
                </g>
            </g>
        </g>
    </g>
</svg>