<svg width="138" height="40" viewBox="0 0 138 40" fill="none" xmlns="http://www.w3.org/2000/svg">
<path d="M68.8146 25.9459H71.287V33.6382H73.8006V25.9459H76.2317V23.8669H68.8146V25.9459Z" fill="#292A73"/>
<path d="M83.1132 23.8669H80.9292L77.1794 33.6382H79.5694L80.1875 32.0582H83.8549L84.473 33.6382H86.8629L83.1132 23.8669ZM81.0528 29.9792L82.0418 27.4844L83.0307 29.9792H81.0528Z" fill="#292A73"/>
<path d="M91.8902 23.8669H89.3766V33.6382H95.4339V31.5592H91.8902V23.8669Z" fill="#292A73"/>
<path d="M100.914 29.6465H104.623V27.5675H100.914V25.9459H105.406V23.8669H98.4419V33.6382H105.653V31.5592H100.914V29.6465Z" fill="#292A73"/>
<path d="M114.883 29.4386L111.051 23.8669H108.661V33.6382H111.134V28.0665L114.966 33.6382H117.397V23.8669H114.883V29.4386Z" fill="#292A73"/>
<path d="M120.323 25.9459H122.795V33.6382H125.308V25.9459H127.781V23.8669H120.323V25.9459Z" fill="#292A73"/>
<path d="M134.415 27.526C132.932 26.9854 133.014 26.6528 133.014 26.4449C133.014 25.6133 134.044 25.7796 134.044 25.7796C135.116 25.7796 136.269 26.528 136.599 26.7775L138.041 25.1975C137.217 24.3659 135.693 23.7006 133.962 23.7006C132.478 23.7006 130.542 24.3243 130.542 26.4449C130.542 27.9833 132.314 28.8149 133.261 29.2307C134.374 29.7713 135.486 29.9376 135.486 30.8108C135.486 31.4345 134.91 31.7255 134.291 31.684C133.138 31.684 132.231 30.7692 131.695 30.3534L130.047 31.975C131.16 33.1808 132.726 33.763 134.498 33.8045C136.393 33.8045 137.959 32.8066 137.959 30.8939C137.918 29.1476 136.64 28.3576 134.415 27.526Z" fill="#292A73"/>
<path d="M72.3995 20.2495H68.8146V13.9293H73.883C74.8719 13.9293 75.5312 13.4719 75.9021 12.8482C76.1081 12.474 76.1905 12.0582 76.1905 11.6008C76.1905 10.3118 75.4076 9.23075 73.883 9.23075H70.7925L68.8146 6.23698H74.2126C77.7151 6.23698 79.7755 8.64863 79.7755 11.6008C79.7755 11.7671 79.7755 11.9335 79.7755 12.0998V12.1414C79.6518 13.763 78.8689 15.1767 77.5915 16.0499C76.7262 16.632 75.6136 16.9646 74.295 16.9646H72.4407V20.2495H72.3995ZM94.8982 17.2557H87.5222V14.553H93.5384V11.5177H87.5222V9.18917H94.8982V6.1954H83.9373V20.2495H94.8982V17.2557ZM110.68 20.2495H106.766L104.54 16.9231H102.686V20.2495H99.1012V6.1954H104.499C108.002 6.1954 110.062 8.60705 110.062 11.5592C110.062 11.7255 110.062 11.8919 110.021 12.0582V12.0998C109.897 13.7214 109.114 15.1351 107.837 16.0083L110.68 20.2495ZM106.477 11.5592C106.477 10.2702 105.694 9.18917 104.17 9.18917H102.686V13.9293H104.17C105.159 13.9293 105.818 13.4719 106.189 12.8482C106.395 12.4324 106.477 12.0166 106.477 11.5592ZM126.503 20.2495H122.548L120.364 16.9231H118.509V20.2495H114.924V6.1954H120.322C123.825 6.1954 125.885 8.60705 125.885 11.5592C125.885 11.7255 125.885 11.8919 125.885 12.0582V12.0998C125.762 13.7214 124.979 15.1351 123.701 16.0083L126.503 20.2495ZM122.259 11.5592C122.259 10.2702 121.476 9.18917 119.952 9.18917H118.468V13.9293H119.952C120.941 13.9293 121.6 13.4719 121.971 12.8482C122.177 12.4324 122.259 12.0166 122.259 11.5592ZM134.456 20.2495H138V15.052L132.602 6.1954H128.729L134.415 15.5509V20.2495H134.456Z" fill="url(#paint0_linear)"/>
<path d="M30.5751 13.9307V2.99518C23.9409 -2.03601 8.57092 0.999334 0 0.209313L6.38698 7.27792C6.38698 7.27792 7.95282 4.11784 11.1669 3.74362C4.65632 11.1449 8.28247 21.623 15.37 25.9474C18.5428 31.0617 23.364 35.3029 30.5751 40.043V36.7998C26.0012 33.6812 22.5399 30.8122 19.9439 27.6937C22.5811 28.1511 25.4243 27.8185 28.3088 26.3632C29.1329 27.6106 29.8334 28.2758 30.5751 28.2758V25.8226C27.6494 22.5794 23.7348 14.4713 30.5751 13.9307ZM17.5539 6.32158L26.4545 11.6022C26.4545 11.7686 26.4957 11.8933 26.4957 12.0596C26.4957 15.5523 23.6936 18.3798 20.2323 18.3798C16.771 18.3798 13.9689 15.5523 13.9689 12.0596C13.8865 9.52324 15.37 7.3195 17.5539 6.32158ZM26.7429 23.9931C14.7519 29.6896 3.66736 11.9349 13.7217 4.03468L15.0815 4.8247C7.1699 11.8933 15.3288 25.1989 25.1359 20.6667C25.5891 21.8309 26.1248 22.912 26.7429 23.9931Z" fill="url(#paint1_linear)"/>
<path d="M30.5751 2.99375V13.9293C37.3741 14.4698 33.5007 22.5779 30.5751 25.8212V28.2744C31.3168 28.2744 32.0173 27.6507 32.8414 26.3617C35.7259 27.817 38.5691 28.1497 41.2063 27.6923C38.5691 30.8108 35.1078 33.6798 30.5751 36.7567V40C37.8274 35.3014 42.6073 31.0187 45.7802 25.9044C52.8677 21.58 56.4939 11.1434 49.9833 3.70061C53.1561 4.07483 54.7632 7.23492 54.7632 7.23492L61.1502 0.166308C52.5792 0.997909 37.2093 -2.03743 30.5751 2.99375ZM34.6957 11.6008L43.5963 6.32015C45.739 7.31808 47.2636 9.52182 47.2636 12.0582C47.2636 15.5509 44.4616 18.3784 41.0003 18.3784C37.5389 18.3784 34.7369 15.5509 34.7369 12.0582C34.6545 11.8919 34.6957 11.7671 34.6957 11.6008ZM34.3661 23.9917C34.9842 22.9106 35.5198 21.8295 35.9731 20.7068C45.7802 25.1975 53.9391 11.8919 46.0274 4.86485L47.3873 4.07483C57.4416 11.9335 46.3571 29.6881 34.3661 23.9917Z" fill="#292A73"/>
<defs>
<linearGradient id="paint0_linear" x1="68.8032" y1="13.2298" x2="138.019" y2="13.2298" gradientUnits="userSpaceOnUse">
<stop stop-color="#E9D024"/>
<stop offset="0.2547" stop-color="#E3C525"/>
<stop offset="1" stop-color="#D5A829"/>
</linearGradient>
<linearGradient id="paint1_linear" x1="0" y1="20.0002" x2="30.5587" y2="20.0002" gradientUnits="userSpaceOnUse">
<stop stop-color="#E9D024"/>
<stop offset="0.2547" stop-color="#E3C525"/>
<stop offset="1" stop-color="#D5A829"/>
</linearGradient>
</defs>
</svg>
