<?xml version="1.0" encoding="UTF-8"?>
<svg width="1217px" height="437px" viewBox="0 0 1217 437" version="1.1" xmlns="http://www.w3.org/2000/svg" xmlns:xlink="http://www.w3.org/1999/xlink">
    <!-- Generator: Sketch 59.1 (86144) - https://sketch.com -->
    <title>znak</title>
    <desc>Created with Sketch.</desc>
    <g id="CZ" stroke="none" stroke-width="1" fill="none" fill-rule="evenodd" opacity="0.0296456473">
        <g id="Faq_CZ" transform="translate(0.000000, -155.000000)" fill="#FEFEFE">
            <g id="hero" transform="translate(0.000000, -3.000000)">
                <g id="znak">
                    <g transform="translate(-169.000000, 158.000000)">
                        <path d="M1123.24715,294.016414 L1124.39532,296.711086 C1125.979,300.237935 1127.47361,303.784599 1128.91872,307.370889 C1129.28494,308.282322 1129.72046,309.164035 1130.06689,310.075468 C1130.90822,312.235168 1131.72975,314.394868 1132.5018,316.554568 C1133.11548,318.218924 1133.75885,319.863466 1134.33293,321.537729 L1134.4814,321.943911 C1135.14457,323.865846 1135.69886,325.817502 1136.33233,327.739437 C1137.54979,331.494145 1138.84643,335.219132 1139.94511,339.013467 L1144.43881,358.559743 C1145.36923,361.819107 1145.75525,365.078471 1146.07199,368.25858 L1147.30924,377.798906 L1148.54649,387.339233 C1149.09088,390.370738 1148.86323,394.402839 1149.09088,397.890061 L1149.63527,418.446839 C1148.31884,445.215231 1144.35963,471.666604 1136.30264,496.879616 C1127.70126,521.785515 1116.45711,545.680912 1101.73875,567.010426 C1098.16557,572.439397 1093.83023,577.333396 1090.02939,582.455254 C1088.0201,585.011229 1086.15927,587.567204 1084.06089,590.053831 L1077.4787,597.038183 C1072.9751,601.615162 1069.02579,606.657764 1064.22525,610.76912 C1059.494,615.029078 1054.76275,619.219689 1050.04139,623.4103 C1045.31014,627.60091 1039.96521,630.939529 1034.9964,634.733865 L1027.4838,640.242091 L1019.41692,644.97758 C1013.9928,648.078433 1008.87552,651.496307 1003.37223,654.290048 C1000.82843,655.508594 998.264847,656.677606 995.70126,657.876339 L995.434013,658.015035 C992.563587,659.411905 989.623875,660.808775 986.753449,662.126391 C984.29874,663.503447 981.626275,664.523856 978.953809,665.405568 C975.915117,666.495325 972.856629,667.486013 969.897121,668.635211 C966.769346,669.695248 963.730654,670.884073 960.672166,671.97383 C958.286743,672.806008 955.881524,673.539118 953.407019,674.064182 L952.842831,674.222692 C947.032693,675.698818 941.291842,677.174943 935.560888,678.571813 C929.820036,680.047938 924.554289,680.275797 919.05099,681.207043 L917.526695,681.454715 L916.140972,681.751922 C915.141272,681.900525 914.131674,682.059035 913.042891,682.217545 L911.964007,682.346335 L909.974505,682.5841 L909.786443,682.603914 L908.915417,682.663355 C905.876725,682.950654 902.709358,683.168606 899.443011,683.317209 C898.304739,683.366743 897.176365,683.416278 896.028194,683.455905 C891.514697,683.634229 886.981404,683.782832 882.616377,684.000784 L880.211158,684.159294 L878.973905,684.159294 L875.25225,683.921529 L875.143371,683.921529 L866.690462,683.455905 L866.373725,683.436092 C863.552789,683.21814 860.721956,683.138885 857.891122,683.010096 C856.634073,682.960561 855.357229,682.90112 854.139772,682.831772 C852.744151,682.683169 851.34853,682.524659 849.952909,682.366148 C843.717157,681.563691 837.580384,680.493748 831.512897,679.295015 L830.097481,678.997809 C827.296341,678.42321 824.485303,677.898145 821.743551,677.254198 C819.862927,676.808388 818.061488,676.233789 816.20066,675.758259 C813.706359,675.124218 811.231854,674.450551 808.777145,673.757069 C805.5009,672.825822 802.254349,671.854948 799.047391,670.814725 C796.077984,669.863665 793.14817,668.86307 790.238152,667.822847 C788.921716,667.347317 787.545891,666.960949 786.239352,666.465605 C784.319136,665.742402 782.468206,664.989479 780.597481,664.236556 C779.686863,663.879909 778.726755,663.572795 777.826035,663.206241 L777.855729,663.156706 L777.796341,663.126986 C780.973605,657.698015 783.992501,652.269044 786.783743,646.998583 C787.555789,645.601713 788.258548,644.125588 789.030594,642.807973 C790.733053,639.469354 792.445411,636.130735 794.068686,632.950626 C795.078284,630.939529 796.087882,628.918526 797.018296,626.976777 C798.017996,625.044935 798.94841,623.103186 799.878824,621.161438 C801.195261,618.446952 802.442412,615.811722 803.60048,613.24584 C804.768446,610.76912 805.926515,608.282492 806.936113,605.954375 C807.866527,603.943279 808.717756,601.922275 809.568986,600.059781 C810.271746,598.435053 810.964607,596.879672 811.588182,595.403547 C812.20186,593.858074 812.825435,592.381949 813.44901,590.985078 L813.44901,590.905823 L815.547391,591.83707 C818.685063,593.224033 821.882124,594.521835 825.128674,595.770102 C826.75195,596.394235 828.355429,597.028276 830.008398,597.612782 C834.314037,599.158255 838.669166,600.624473 843.143071,601.902461 L843.687463,602.051064 C848.656269,603.457841 853.724055,604.696202 858.871026,605.756238 L860.038992,605.974189 C864.423815,606.845995 868.887822,607.539476 873.391422,608.133889 L875.687762,608.441003 C877.380324,608.728302 879.043191,608.876905 880.715957,609.025509 C882.517397,609.154298 884.328734,609.302901 886.140072,609.382156 C887.110078,609.392063 888.129574,609.451504 889.089682,609.451504 L895.731254,609.748711 L895.869826,609.758618 L895.909418,609.758618 L899.245051,609.837873 L901.105879,609.837873 L901.887822,609.758618 L903.431914,609.758618 L903.728854,609.738804 C911.924415,609.144391 919.387522,609.193926 929.592382,607.271991 C930.79994,607.08376 932.037193,606.895529 933.264547,606.717205 C935.254049,606.419999 937.164367,606.063351 939.084583,605.726517 C940.757349,605.419404 942.44991,605.142011 944.003899,604.716015 C948.012597,603.695607 952.031194,602.60585 956.089382,601.526 L957.762148,601.070283 L958.385723,600.882052 C960.395021,600.376801 962.364727,599.732854 964.304739,599.009652 C965.512298,598.563842 966.719856,598.098219 967.917516,597.652409 C969.006299,597.186786 970.164367,596.721162 971.253149,596.334794 C972.341932,595.948426 973.5,595.562057 974.667966,595.096434 C975.746851,594.710066 976.914817,594.323697 978.072885,593.858074 C980.319736,593.006082 982.566587,592.074835 984.664967,590.826568 L986.931614,589.786346 C990.455309,588.141803 993.959208,586.43782 997.374025,584.555513 L997.680864,584.387096 L997.789742,584.337561 C1001.79844,582.11842 1005.70816,579.720955 1009.57828,577.204607 C1011.4886,575.966247 1013.34943,574.609004 1015.23005,573.301296 C1016.31884,572.538466 1017.41752,571.775636 1018.4964,571.002899 C1020.65417,569.497053 1022.75255,567.892139 1024.86083,566.287224 C1027.90942,563.939293 1030.95801,561.581456 1033.91752,559.104735 C1049.03179,546.146535 1061.89922,530.553104 1072.90582,513.721313 C1083.75405,496.651758 1091.81104,477.798963 1097.70036,458.322035 C1100.18476,448.474595 1102.66917,438.617249 1103.66887,428.462696 C1104.45081,423.420093 1105.14367,418.377491 1105.22286,413.255633 L1105.68806,397.117324 L1104.83683,383.227877 C1104.75765,378.809408 1103.90642,373.529041 1103.05519,368.25858 C1101.73875,357.549242 1098.94751,347.860312 1096.31464,338.161476 C1089.95021,318.991661 1081.58638,300.535142 1070.42142,284.010464 C1068.09538,280.652031 1065.65057,277.372854 1063.18596,274.133304 C1060.12747,270.150738 1056.9997,266.247426 1053.74325,262.472905 L1053.5156,262.195512 C1050.04139,258.173318 1046.42861,254.289821 1042.63767,250.574741 C1039.23275,247.156867 1035.73875,243.897503 1032.09628,240.796649 C1035.35273,239.013411 1038.52999,237.388682 1041.70726,235.912557 L1042.42981,235.575723 L1044.80534,234.456245 C1045.75555,234.010436 1046.70576,233.524999 1047.67576,233.118816 C1049.45741,232.336173 1051.19946,231.632784 1052.96131,230.919489 L1055.09928,230.02787 L1055.5051,229.859453 L1055.81194,229.700943 L1055.89112,229.700943 C1057.20756,229.086716 1058.60318,228.621092 1059.91962,228.155469 C1061.64187,227.551149 1063.36413,226.966643 1065.07648,226.431672 L1065.28434,226.362324 L1065.5021,226.21372 L1065.5021,226.292975 C1068.92681,225.203219 1072.30204,224.232344 1075.61788,223.41998 C1087.70336,236.37818 1098.4823,250.653996 1108.09328,265.702548 C1111.44871,271.101798 1114.56659,276.649652 1117.5063,282.286667 L1117.5063,282.227226 L1117.65477,282.544246 C1118.12987,283.465586 1118.55549,284.406739 1119.03059,285.337986 C1119.83233,286.91318 1120.65387,288.488374 1121.38632,290.063568 C1122.08908,291.381184 1122.70276,292.698799 1123.24715,294.016414 L1123.24715,294.016414 Z M693.85123,983.991047 L693.386023,984.29816 L691.059988,982.752687 C568.829334,900.981291 486.210558,826.124898 430.633173,736.289302 C432.959208,736.83418 435.206059,737.448407 437.452909,738.151795 C444.510198,739.855779 452.339532,740.707771 459.693761,742.104641 C475.510798,745.056891 487.368626,745.056891 500.315237,745.988138 L502.641272,745.988138 L503.878524,746.057486 L504.422915,746.057486 L506.669766,746.136741 L506.897421,746.136741 L511.935513,745.988138 L522.39772,745.522515 C529.375825,745.056891 536.274745,745.056891 543.094481,744.04639 C579.44991,739.697269 613.40012,729.077092 643.54949,714.484257 C644.321536,715.494759 645.093581,716.50526 645.875525,717.436507 C654.783743,729.463461 664.473905,740.549261 674.629274,750.634465 C678.964607,755.142096 684.863827,757.539561 691.059988,757.539561 L693.85123,757.539561 L697.028494,757.311703 C703.076185,757.232448 708.886323,754.825076 713.15237,750.485862 C722.763347,740.945536 732.215957,729.998432 741.134073,718.367754 C741.985303,717.357252 742.757349,716.118892 743.608578,715.029135 C773.530294,729.542716 807.015297,739.776524 842.895621,744.04639 C849.715357,745.056891 856.614277,745.056891 863.592382,745.522515 L874.054589,745.988138 L879.092681,746.136741 L879.330234,746.136741 L881.577085,746.057486 L882.121476,746.057486 L883.358728,745.988138 L885.684763,745.988138 C898.631374,745.056891 910.489202,745.056891 926.296341,742.104641 C933.660468,740.707771 941.489802,739.855779 948.547091,738.151795 C951.179964,737.369152 953.733653,736.754925 956.376425,735.982188 C900.492202,826.432012 817.239952,901.68468 693.85123,983.991047 L693.85123,983.991047 Z M416.172166,668.635211 C413.331434,667.535548 410.391722,666.604301 407.491602,665.573985 C404.660768,664.642738 401.839832,663.572795 399.236653,662.126391 C396.376125,660.72952 393.426515,659.33265 390.556089,658.015035 C387.923215,656.766768 385.290342,655.528408 382.657469,654.369303 C381.261848,653.665914 379.945411,652.893178 378.628974,652.110534 C375.907019,650.565061 373.274145,648.930425 370.641272,647.384952 C369.324835,646.612215 367.929214,645.829571 366.612777,645.056835 L358.545891,640.321346 L354.824235,637.527605 L351.884523,635.357998 L351.637073,635.159861 L351.062987,634.733865 C348.519196,632.792116 345.886323,630.949436 343.273245,629.067129 C342.055789,628.185416 340.828434,627.323518 339.640672,626.441805 C338.640972,625.629441 337.661068,624.797263 336.710858,623.945271 L336.027894,623.4103 L333.464307,621.12181 L332.355729,620.150936 C328.861728,617.050082 325.29844,613.949228 321.814337,610.76912 C320.389022,609.540666 319.131974,608.114076 317.815537,606.76674 C316.825735,605.746331 315.766647,604.815084 314.806539,603.755048 L313.985003,602.932777 C312.203359,600.911773 310.411818,598.970024 308.560888,597.038183 L301.968806,590.053831 C299.880324,587.567204 298.019496,585.011229 296.0003,582.455254 C292.19946,577.333396 287.864127,572.439397 284.30084,567.010426 C269.572585,545.680912 258.328434,521.785515 249.727055,496.879616 C241.670066,471.666604 237.710858,445.215231 236.394421,418.446839 L236.938812,397.890061 C237.166467,394.402839 236.938812,390.370738 237.483203,387.339233 L238.720456,377.798906 L239.957708,368.25858 C240.274445,365.078471 240.660468,361.819107 241.590882,358.559743 L246.084583,339.013467 C247.222855,335.060622 248.608578,331.157311 249.905219,327.234186 C250.736653,324.688117 251.479004,322.112328 252.379724,319.576167 L252.597481,318.922313 C253.834733,315.425184 255.15117,312.017217 256.546791,308.520088 C257.39802,306.172157 258.39772,303.893574 259.397421,301.614992 L259.615177,301.08002 L259.644871,301.000765 C260.733653,298.434883 261.822436,295.958163 262.980504,293.471535 C263.604079,292.074665 264.296941,290.75705 264.9997,289.36018 L265.692561,287.884055 C266.157768,286.804205 266.70216,285.793703 267.246551,284.703946 L268.077984,283.138659 L268.127475,283.03959 L269.255849,280.90961 L269.255849,280.7511 C270.423815,278.581493 271.581884,276.401979 272.829034,274.311628 C274.45231,271.359377 276.154769,268.575544 277.936413,265.702548 C287.547391,250.653996 298.326335,236.37818 310.411818,223.41998 L310.411818,223.340725 C313.826635,224.192717 317.241452,225.282474 320.725555,226.292975 L321.269946,226.441579 C322.893221,226.986457 324.447211,227.610591 326.070486,228.155469 C327.782843,228.769696 329.633773,229.393829 331.425315,230.166566 C333.286143,230.94921 335.067786,231.721946 336.928614,232.494683 L339.205159,233.564626 C341.323335,234.515687 343.45141,235.516282 345.59928,236.566411 L348.162867,237.775051 C349.726755,238.617135 351.359928,239.439407 352.993101,240.321119 L353.933413,240.796649 C352.042891,242.411471 350.261248,244.174896 348.430114,245.868972 C346.490102,247.672025 344.510498,249.435449 342.629874,251.317757 C339.670366,254.289821 336.780144,257.370861 333.979004,260.531156 L332.613077,262.116257 C330.14847,264.959532 327.763047,267.872155 325.427115,270.844219 L323.44751,273.360567 L323.130774,273.79647 C320.567187,277.144996 318.053089,280.533149 315.64787,284.010464 C304.482903,300.535142 296.109178,318.991661 289.754649,338.161476 C287.121776,347.860312 284.330534,357.549242 283.014097,368.25858 C282.162867,373.529041 281.311638,378.809408 281.232454,383.227877 L280.381224,397.117324 L280.846431,413.255633 C280.925615,418.377491 281.618476,423.420093 282.390522,428.462696 C283.40012,438.617249 285.884523,448.474595 288.359028,458.322035 C294.24835,477.798963 302.315237,496.651758 313.163467,513.721313 C315.568686,517.396766 318.102579,520.983057 320.685963,524.529721 C321.527295,525.698733 322.408218,526.838024 323.269346,527.977315 C325.140072,530.444129 327.070186,532.851501 329.029994,535.229152 C330.356329,536.883601 331.742052,538.50833 333.167367,540.103338 C337.760048,545.353984 342.64967,550.307425 347.757049,555.003287 C349.221956,556.330809 350.59778,557.757399 352.112178,559.02548 L352.943611,559.728869 C355.210258,561.611176 357.526395,563.404322 359.842531,565.207374 L362.010198,566.931171 C362.980204,567.674187 363.940312,568.437017 364.940012,569.150313 C367.810438,571.280292 370.730354,573.311203 373.679964,575.292579 C375.164667,576.303081 376.659268,577.273955 378.163767,578.225016 C385.191362,582.693019 392.426815,586.735026 399.89982,590.172714 L401.335033,590.826568 C402.938512,591.787536 404.680564,592.461204 406.392921,593.154685 C407.313437,593.52124 408.214157,593.957143 409.144571,594.303883 L411.332034,595.096434 C412.5,595.562057 413.658068,595.948426 414.746851,596.334794 C415.716857,596.681535 416.746251,597.107531 417.736053,597.52362 C421.20036,598.831328 424.644871,600.228198 428.267546,601.070283 C432.919616,602.308643 437.492501,603.547003 442.065387,604.716015 C444.134073,605.290614 446.35123,605.68689 448.59808,606.053444 C449.617576,606.221861 450.597481,606.380371 451.597181,606.538881 C453.230354,606.776647 454.873425,607.014412 456.476905,607.271991 C466.790642,609.213739 474.303239,609.134484 482.59778,609.758618 L484.112178,609.758618 L484.884223,609.837873 L486.745051,609.837873 L490.159868,609.758618 L496.90042,609.451504 C497.910018,609.451504 498.979004,609.382156 499.988602,609.372249 C501.592082,609.302901 503.195561,609.184019 504.789142,609.08495 C506.630174,608.92644 508.45141,608.758023 510.312238,608.441003 C511.35153,608.332027 512.371026,608.153703 513.40042,608.015007 C517.478404,607.460221 521.516797,606.826181 525.505699,606.043537 C526.752849,605.795865 527.980204,605.538286 529.217457,605.270801 C533.612178,604.31974 537.94751,603.269611 542.213557,602.060971 C545.984703,601.020749 549.607379,599.772482 553.230054,598.524215 C554.734553,598.009057 556.288542,597.563247 557.773245,597.018369 C558.703659,596.661721 559.643971,596.31498 560.574385,595.968239 C565.167067,594.194908 569.690462,592.332414 574.055489,590.28169 C581.211758,607.143201 592.188662,631.315991 606.520996,657.083788 C607.55039,658.916561 608.540192,660.739427 609.59928,662.592014 L609.589382,662.592014 L609.628974,662.661362 C607.104979,663.711492 604.45231,664.613018 601.868926,665.603706 C600.126875,666.267467 598.404619,666.970855 596.652669,667.634616 L594.504799,668.377633 C593.277445,668.813535 592.05009,669.259345 590.802939,669.675434 L589.991302,669.962734 C585.883623,671.359604 581.775945,672.597964 577.589082,673.757069 L576.114277,674.163251 C574.946311,674.490178 573.768446,674.817105 572.590582,675.124218 L572.471806,675.153939 C569.918116,675.857328 567.433713,676.471554 564.880024,677.095688 C562.445111,677.680194 559.960708,678.13591 557.496101,678.660975 C556.496401,678.86902 555.506599,679.096878 554.497001,679.295015 C548.429514,680.503655 542.302639,681.583505 536.047091,682.366148 C534.65147,682.524659 533.255849,682.683169 531.860228,682.831772 C530.692262,682.90112 529.455009,682.950654 528.247451,683.000189 C525.278044,683.138885 522.29874,683.208233 519.339232,683.455905 L510.886323,683.921529 L507.095381,684.159294 L505.84823,684.159294 L503.443011,684.000784 C499.206659,683.792739 494.811938,683.644136 490.427115,683.475719 C489.080984,683.426185 487.764547,683.366743 486.438212,683.307302 C483.429214,683.168606 480.519196,682.960561 477.688362,682.702982 L476.203659,682.603914 L475.886923,682.564286 L474.313137,682.376055 L472.947211,682.217545 C471.868326,682.059035 470.858728,681.900525 469.84913,681.751922 L468.265447,681.405181 L467.018296,681.207043 C462,680.355052 457.140072,679.998404 451.983203,678.839299 L450.478704,678.571813 C444.737852,677.174943 439.006899,675.698818 433.186863,674.222692 C430.395621,673.687721 427.713257,672.815915 425.040792,671.864855 C422.10108,670.814725 419.171266,669.65562 416.172166,668.635211 L416.172166,668.635211 Z M795.731554,426.98657 C797.770546,428.532044 799.769946,429.928914 801.769346,431.315877 C803.214457,432.306566 804.639772,433.237812 806.065087,434.149245 C809.846131,436.566524 813.567786,438.736131 817.210258,440.578811 L818.991902,441.480337 C820.377624,442.144098 821.733653,442.738511 823.089682,443.323017 C824.376425,443.867896 825.653269,444.412774 826.910318,444.918025 C827.969406,445.324207 829.018596,445.710576 830.067786,446.07713 C832.126575,446.790426 834.155669,447.424466 836.155069,447.969344 L838.095081,448.514223 C840.787343,449.187891 843.44991,449.732769 846.053089,450.119138 L846.815237,450.208299 C849.20066,450.535227 851.536593,450.743271 853.832933,450.852247 L855.278044,450.901781 C857.584283,450.971129 859.860828,450.941409 862.087882,450.802712 L862.562987,450.782899 C867.353629,450.406437 871.926515,449.653514 876.212358,448.543943 L878.142472,448.008972 C880.587283,447.305583 882.943011,446.463498 885.239352,445.561972 C887.822735,444.52175 890.336833,443.332924 892.791542,442.154005 L893.256749,441.91624 C896.839832,440.033933 900.175465,437.973301 903.273545,435.803695 L903.530894,435.615464 C905.342232,434.347383 907.014997,433.029768 908.658068,431.712153 L910.726755,430.008169 C911.667067,429.205712 912.567786,428.413161 913.44871,427.610704 L914.903719,426.283182 L915.141272,426.094951 L917.526695,423.727207 C918.823335,422.449219 919.981404,421.230673 921.060288,420.041847 L922.238152,418.744045 C923.218056,417.634475 924.138572,416.564532 924.940312,415.58375 L925.237253,415.217196 L926.761548,413.255633 C928.929214,410.461893 930.017996,408.757909 930.017996,408.757909 L930.017996,408.728189 L929.879424,408.609306 L929.859628,408.599399 L929.770546,408.510237 L929.434013,408.222938 C928.731254,407.638432 927.494001,406.489234 925.831134,404.567299 L924.465207,402.774153 L924.366227,402.645364 L923.821836,401.932068 L922.653869,400.218178 L922.327235,399.693113 L921.85213,398.930284 L921.495801,398.355684 L920.327834,396.265333 L920.238752,396.057288 C919.19946,394.066005 918.24925,391.866677 917.407918,389.419678 L917.15057,388.815358 C916.764547,387.725601 916.457708,386.645751 916.140972,385.407391 C915.913317,384.545492 915.754949,383.614246 915.606479,382.692906 C915.368926,381.682404 915.210558,380.751157 915.141272,379.740655 L915.111578,379.037266 C914.844331,376.530826 914.725555,373.885688 914.854229,371.062227 L914.824535,370.279584 C914.903719,369.358244 915.141272,368.298208 915.260048,367.33724 C915.44811,365.62335 915.675765,363.889645 916.041992,362.066779 L916.220156,360.808605 L916.457708,359.6495 C916.764547,358.321978 917.209958,356.915201 917.645471,355.498517 L917.833533,354.844663 L917.922615,354.527643 C918.516497,352.684963 919.367726,350.723401 920.14967,348.791559 C920.565387,347.761243 920.862328,346.780462 921.337433,345.720426 C922.614277,342.877151 924.188062,339.9249 925.920216,336.893395 L926.454709,335.872986 C930.483203,329.037238 935.69946,321.735867 942.420216,313.958965 L942.440012,313.968872 L942.44991,313.949058 C968.808338,331.484238 986.24865,361.511994 986.24865,395.492596 L986.119976,397.939595 C986.090282,399.257211 986.080384,400.584733 985.981404,401.932068 L985.872525,402.883129 C985.714157,404.973481 985.476605,407.034112 985.189562,409.084837 L985.05099,410.382638 L984.803539,411.640812 C984.427415,413.850046 984.0018,416.049374 983.487103,418.209074 C983.219856,419.189855 983.0021,420.210264 982.724955,421.240579 L982.586383,421.676482 C982.061788,423.58851 981.477804,425.460911 980.844331,427.323404 L980.626575,427.997072 L980.012897,429.59208 C979.032993,432.19759 977.964007,434.753565 976.776245,437.250099 L976.291242,438.38939 L975.440012,440.172629 L974.964907,441.014714 L973.935513,442.946556 L973.886023,443.045625 C973.272346,444.125475 972.64877,445.135976 972.025195,446.225733 L970.688962,448.286365 C969.817936,449.643607 968.917217,450.971129 967.976905,452.288744 L967.769046,452.585951 L967.412717,453.041667 C965.126275,456.182149 962.65177,459.183934 960.008998,462.037115 L959.316137,462.829666 L959.118176,463.017897 C957.653269,464.56337 956.119076,466.019682 954.565087,467.466086 L953.119976,468.872863 L952.258848,469.576252 L952.14997,469.665414 C948.626275,472.706826 944.884823,475.49066 940.945411,478.007008 L940.559388,478.264586 C939.35183,479.04723 938.074985,479.819967 936.79814,480.533262 C935.333233,481.375347 933.84853,482.148084 932.344031,482.910914 L932.185663,483.000076 C931.255249,483.465699 930.324835,483.921415 929.325135,484.387039 L927.929514,485.090427 L927.840432,485.090427 C926.622975,485.625399 925.395621,486.110836 924.14847,486.60618 L923.505099,486.873666 C922.426215,487.339289 921.416617,487.725658 920.327834,488.042678 L919.803239,488.201188 C918.269046,488.726253 916.724955,489.21169 915.161068,489.6575 L914.131674,489.97452 C913.003299,490.261819 911.825435,490.539212 910.64757,490.826512 C908.905519,491.232694 907.143671,491.579434 905.362028,491.896455 L904.441512,492.074779 L902.927115,492.272916 C901.016797,492.560216 899.106479,492.847515 897.156569,493.025839 L896.770546,493.08528 L896.226155,493.08528 L896.067786,493.08528 C894.830534,493.154629 893.662567,493.233884 892.504499,493.313139 L890.871326,493.342859 L888.436413,493.471649 C881.953209,493.471649 875.64817,492.76826 869.521296,491.559621 L868.788842,491.450645 L868.006899,491.252507 C865.354229,490.687815 862.731254,490.014147 860.167666,489.241411 L859.405519,489.043273 L858.871026,488.864949 L856.337133,488.022864 L855.921416,487.884168 C854.911818,487.577055 853.90222,487.180779 852.971806,486.794411 L852.34823,486.526925 C850.477504,485.774002 848.636473,484.961638 846.825135,484.099739 C845.924415,483.68365 845.013797,483.297282 844.132873,482.851472 C841.381224,481.444695 838.708758,479.889315 836.105579,478.244773 C834.838632,477.442315 833.591482,476.639858 832.354229,475.777959 L831.70096,475.282615 C830.315237,474.291927 828.988902,473.241798 827.662567,472.181762 L827.088482,471.745859 L826.771746,471.48828 C823.752849,469.031373 820.892322,466.40605 818.180264,463.612309 L817.705159,463.136779 L817.160768,462.512646 C815.685963,460.947358 814.260648,459.332537 812.884823,457.668181 L810.905219,455.191461 C809.766947,453.705428 808.678164,452.179769 807.619076,450.634295 L806.629274,449.247332 L805.867127,448.058506 L805.203959,447.018284 L804.996101,446.691357 C803.986503,445.215231 803.135273,443.590503 802.284043,442.035123 L801.888122,441.242572 L801.244751,439.944771 L800.888422,439.241382 L799.859028,437.032148 C799.354229,435.972112 798.819736,434.921982 798.354529,433.842132 C797.374625,431.583363 796.464007,429.304781 795.691962,426.98657 L795.741452,427.016291 L795.731554,426.98657 Z M462.940312,417.783078 L463.227355,418.119912 L465.088182,420.210264 C466.157169,421.369369 467.275645,422.558195 468.55249,423.816369 C469.522496,424.787243 470.55189,425.768024 471.630774,426.768619 C472.60078,427.670145 473.610378,428.581578 474.669466,429.483104 L476.510498,431.058299 L477.886323,432.148055 L479.54919,433.445857 L480.845831,434.416731 C481.726755,435.060678 482.607678,435.694719 483.528194,436.328759 C484.517996,437.012334 485.547391,437.676095 486.596581,438.329949 C488.219856,439.350358 489.882723,440.350953 491.624775,441.292107 L492.159268,441.59922 L493.921116,442.471025 C496.108578,443.521155 498.325735,444.571284 500.622076,445.502531 C502.859028,446.39415 505.175165,447.206515 507.570486,447.909903 L510.084583,448.603385 C514.271446,449.673328 518.725555,450.406437 523.387522,450.782899 L524.020996,450.812619 C526.218356,450.941409 528.475105,450.971129 530.771446,450.901781 L532.127475,450.862154 C534.542591,450.743271 536.997301,450.535227 539.511398,450.178579 L539.84793,450.138951 C542.559988,449.732769 545.331434,449.177984 548.15237,448.464688 L549.171866,448.177389 C551.547391,447.553255 553.952609,446.790426 556.397421,445.928527 L558.565087,445.135976 C560.287343,444.442495 562.039292,443.709386 563.80114,442.956463 L566.344931,441.807264 C567.483203,441.262386 568.631374,440.687787 569.769646,440.093374 C571.432513,439.231475 573.095381,438.369577 574.787942,437.388795 L576.035093,436.635873 L578.64817,435.001237 C580.796041,433.653901 582.943911,432.237217 585.131374,430.711558 C586.338932,429.869473 587.546491,429.017481 588.763947,428.115955 L590.29814,426.98657 L590.288242,427.016291 L590.337732,426.98657 C588.476905,432.465076 586.10138,437.686002 583.34973,442.67907 L583.240852,442.887114 L581.775945,445.452997 L581.617576,445.690762 C581.063287,446.631915 580.4991,447.573069 579.905219,448.494409 L579.835933,448.633105 C578.984703,449.950721 578.212657,451.189081 577.282244,452.348186 L577.242651,452.407627 C570.789142,461.422889 562.85093,469.298859 553.784343,475.678891 L553.635873,475.777959 L553.29934,476.005818 C550.765447,477.769242 548.142472,479.393971 545.440312,480.919631 L544.806839,481.286185 L544.59898,481.395161 C538.986803,484.476201 533.067786,487.032176 526.871626,488.973925 L526.663767,489.043273 C525.664067,489.350386 524.664367,489.617872 523.664667,489.895265 C521.982004,490.360888 520.289442,490.776977 518.577085,491.153439 L517.290342,491.450645 L516.656869,491.549714 C513.816137,492.114406 510.925915,492.560216 508.005999,492.867329 L507.60018,492.92677 L507.431914,492.936677 C504.224955,493.253697 500.9982,493.471649 497.712058,493.471649 L495.306839,493.342859 L493.564787,493.313139 C492.406719,493.233884 491.169466,493.154629 490.0015,493.08528 L489.853029,493.08528 L489.773845,493.08528 L489.308638,493.08528 L488.784043,493.015932 C487.497301,492.89705 486.240252,492.708819 484.963407,492.540402 C483.825135,492.391799 482.686863,492.203568 481.558488,492.074779 L480.459808,491.84692 C478.895921,491.569528 477.341932,491.262414 475.807738,490.905767 L474.659568,490.677908 L472.79874,490.13303 L472.759148,490.123123 C466.790642,488.547929 461.059688,486.427856 455.595981,483.802533 L455.407918,483.723278 L455.29904,483.673743 L455.081284,483.554861 C452.191062,482.148084 449.39982,480.612517 446.677864,478.948161 L445.440612,478.264586 L443.946011,477.273898 L442.471206,476.312931 L442.253449,476.164328 L441.40222,475.550101 C440.006599,474.698109 438.690162,473.687607 437.452909,472.597851 L436.661068,471.953903 L434.661668,470.329175 L432.959208,468.872863 L431.058788,467.049997 C429.871026,465.940426 428.683263,464.840763 427.554889,463.671751 L426.911518,463.057524 C425.90192,462.047022 424.95171,460.868103 423.981704,459.738719 L421.922915,457.400695 L421.022196,456.390193 L419.784943,454.755558 C419.05249,453.814404 418.428914,452.784089 417.736053,451.803307 L415.944511,449.217611 C414.845831,447.553255 413.826335,445.839365 412.826635,444.095754 C412.222855,443.045625 411.619076,441.995495 411.054889,440.915645 L410.243251,439.479147 C409.629574,438.310135 409.085183,437.071775 408.540792,435.833415 L408.382424,435.516395 L407.976605,434.525707 L407.046191,432.276845 L406.293941,430.473793 C405.987103,429.463291 405.60108,428.532044 405.205159,427.531449 L404.779544,426.094951 C404.363827,424.856591 404.007499,423.598417 403.641272,422.340243 C403.106779,420.487657 402.621776,418.615256 402.196161,416.723042 C401.938812,415.55403 401.721056,414.375111 401.503299,413.186285 C401.335033,412.255038 401.087582,411.333699 400.94901,410.382638 C400.711458,408.985768 400.483803,407.509642 400.404619,406.033517 L400.404619,405.983983 C400.176965,403.933258 400.127475,401.833 400.038392,399.742648 C399.969106,398.325964 399.781044,396.929094 399.781044,395.492596 C399.781044,361.511994 417.221356,331.484238 443.579784,313.958965 L443.589682,313.968872 L443.609478,313.949058 L444.470606,315.038815 C445.470306,316.19792 446.489802,317.347119 447.370726,318.526037 C448.380324,319.774304 449.389922,321.012665 450.241152,322.181677 L451.458608,323.806405 C452.161368,324.747559 452.854229,325.688712 453.517397,326.610052 C454.428014,327.907854 455.34853,329.166028 456.130474,330.473736 L456.95201,331.840885 C458.426815,334.139282 459.822436,336.407958 461.029994,338.607285 C461.613977,339.657415 462.118776,340.667916 462.633473,341.688325 C463.761848,343.907467 464.820936,346.096887 465.691962,348.197146 L465.820636,348.474539 L466.830234,350.961166 L467.622076,353.259562 L468.463407,355.686748 C468.9979,357.420452 469.443311,359.134343 469.769946,360.808605 L469.859028,361.373298 C470.383623,363.879739 470.739952,366.277204 470.937912,368.585507 L471.086383,369.576195 L471.106179,370.071539 C471.175465,371.151389 471.185363,372.191612 471.195261,373.221927 C471.195261,374.351312 471.175465,375.450976 471.106179,376.530826 C471.046791,377.541327 470.987403,378.551829 470.878524,379.522704 L470.858728,379.740655 C470.779544,380.751157 470.631074,381.682404 470.393521,382.692906 L470.254949,383.356667 L469.878824,385.278602 L469.84913,385.407391 C469.542292,386.645751 469.235453,387.725601 468.839532,388.815358 L468.809838,388.884706 C466.582783,395.661013 463.316437,400.693708 460.594481,404.002607 L460.158968,404.567299 L459.90162,404.844691 C457.684463,407.410574 456.011698,408.757909 456.011698,408.757909 C456.011698,408.757909 458.397121,412.522524 462.940312,417.783078 L462.940312,417.783078 Z M776.321536,296.344531 C774.460708,297.038013 772.520696,297.741401 770.659868,298.434883 C768.541692,299.049109 766.502699,299.881287 764.453809,300.673838 C763.553089,301.030486 762.612777,301.317785 761.721956,301.694247 C758.218056,303.101024 754.823035,304.656404 751.44781,306.251412 C748.409118,307.68791 745.380324,309.114501 742.361428,310.541091 C741.440912,310.976994 740.510498,311.432711 739.580084,311.858707 L737.333233,312.948463 L736.610678,313.24567 C731.424115,315.484625 726.742352,318.595386 721.862627,321.319778 C716.824535,324.351283 711.865627,327.293627 706.906719,330.245878 C702.492202,333.198128 698.146971,336.298982 693.880924,339.320581 L693.85123,339.350301 L693.029694,339.944714 C688.535993,336.68535 683.883923,333.425986 679.162567,330.245878 C674.203659,327.293627 669.234853,324.351283 664.196761,321.319778 C659.445711,318.654827 654.853029,315.662949 649.814937,313.433901 L648.666767,312.948463 L646.419916,311.858707 C638.976605,308.440833 631.691662,304.646497 623.941512,301.545643 C621.15027,300.376631 618.279844,299.286875 615.330234,298.434883 C613.469406,297.741401 611.539292,297.038013 609.678464,296.344531 C606.966407,295.334029 604.175165,294.323527 601.383923,293.322932 C600.146671,292.926657 598.89952,292.461034 597.741452,292.074665 C591.693761,290.59854 585.566887,288.894556 579.370726,287.349083 L577.163467,286.784391 C565.711458,283.614189 553.032094,282.326294 540.64967,280.285477 L539.372825,280.136874 L539.303539,280.126967 L537.977205,280.047712 L510.539892,257.78695 L486.220456,238.082164 L460.891422,217.604641 L460.861728,217.604641 L460.861728,217.525386 L500.117277,217.525386 L501.661368,217.446131 L504.145771,217.366876 L505.462208,217.366876 L506.016497,217.297528 L506.046191,217.287621 L506.065987,217.297528 L506.085783,217.287621 L507.481404,217.366876 L510.579484,217.525386 L521.625675,217.525386 L522.793641,218.070264 C524.159568,218.139612 525.525495,218.278309 526.90132,218.357564 C528.930414,218.446726 530.9991,218.615143 533.038092,218.734025 C534.037792,218.81328 535.017696,218.81328 536.047091,218.922256 C537.462507,218.991604 538.957109,219.219462 540.45171,219.447321 L540.64967,219.467134 C548.043491,220.685681 555.526395,221.646648 562.821236,222.865195 L565.345231,223.26147 L567.077385,223.637931 C568.987702,223.994579 570.858428,224.410668 572.719256,224.836664 L574.79784,225.282474 L577.005099,225.916514 L579.410318,226.520834 C582.488602,227.333198 585.4976,228.066307 588.546191,228.839044 L588.595681,228.848951 C591.693761,229.631594 594.712657,230.325076 597.741452,231.097813 C599.057888,231.563436 600.374325,232.108315 601.690762,232.573938 C604.482004,233.653788 607.273245,234.644476 610.064487,235.625257 L612.143071,236.368273 C613.221956,236.734828 614.241452,237.101383 615.330234,237.45803 C616.805039,237.923654 618.279844,238.468532 619.675465,239.013411 C620.595981,239.350245 621.467007,239.726706 622.34793,240.083354 C629.306239,242.817653 635.977504,246.057203 642.619076,249.217498 C644.687762,250.128931 646.677265,251.050271 648.666767,251.971611 C650.062388,252.585838 651.378824,253.209971 652.695261,253.91336 L654.813437,255.141813 C657.970906,256.895331 661.068986,258.747918 664.196761,260.501436 C669.234853,263.532941 674.203659,266.475285 679.162567,269.427535 C683.883923,272.597737 688.526095,275.857101 693.009898,279.106558 L693.386023,278.809352 L693.623575,278.690469 L693.85123,278.522052 L693.880924,278.502238 L695.85063,277.125182 C697.325435,276.065146 698.790342,274.995202 700.284943,273.925259 C702.452609,272.449134 704.69946,270.893754 706.867127,269.427535 C708.183563,268.644892 709.509898,267.862248 710.826335,267.089511 C714.488602,264.909998 718.15087,262.740391 721.862627,260.501436 C724.822136,258.846986 727.742052,257.083562 730.711458,255.419206 C731.582484,254.913955 732.413917,254.378983 733.304739,253.91336 C734.621176,253.209971 735.937612,252.585838 737.333233,251.971611 C739.421716,251.040364 741.440912,250.109117 743.460108,249.177871 C746.568086,247.711652 749.715657,246.22562 752.883023,244.749495 L753.862927,244.293778 L756.040492,243.332811 C758.703059,242.134078 761.405219,240.994787 764.146971,239.924844 L766.324535,239.013411 C767.720156,238.468532 769.185063,237.923654 770.659868,237.45803 C771.827834,237.071662 772.906719,236.685294 774.074685,236.298925 C777.479604,235.13982 780.894421,233.891553 784.29934,232.573938 C785.615777,232.108315 786.942112,231.563436 788.258548,231.097813 C790.970606,230.404331 793.682663,229.780198 796.473905,229.086716 L797.453809,228.858858 C800.522196,228.076214 803.55099,227.343105 806.658968,226.520834 L808.5,226.05521 C809.40072,225.797631 810.281644,225.510332 811.20216,225.282474 L813.736053,224.737595 C815.319736,224.380947 816.913317,224.034207 818.526695,223.717186 L820.654769,223.26147 C821.664367,223.10296 822.713557,222.94445 823.742951,222.776033 C827.177564,222.21134 830.641872,221.676369 834.135873,221.171118 C837.897121,220.616333 841.668266,220.071454 845.380024,219.467134 C846.934013,219.229369 848.478104,219.001511 849.952909,218.922256 C851.05159,218.81328 852.090882,218.803373 853.159868,218.724118 C855.060288,218.615143 857.0003,218.456633 858.90072,218.367471 C860.335933,218.288216 861.771146,218.139612 863.206359,218.070264 L864.364427,217.525386 L875.489802,217.525386 L878.587882,217.366876 L879.914217,217.297528 L879.943911,217.287621 L879.953809,217.297528 L879.983503,217.287621 L880.607079,217.366876 L881.923515,217.366876 L884.39802,217.446131 L885.95201,217.525386 L925.524295,217.525386 L925.524295,217.604641 L925.553989,217.604641 L887.981104,247.810721 L886.773545,248.791502 L847.933713,280.047712 L846.696461,280.126967 L846.686563,280.126967 L845.419616,280.285477 C832.235453,282.455084 818.675165,283.693444 806.658968,287.349083 L804.481404,287.893961 C799.027594,289.290832 793.593581,290.776864 788.258548,292.074665 C787.011398,292.461034 785.853329,292.926657 784.685363,293.322932 C781.904019,294.323527 779.112777,295.334029 776.321536,296.344531 L776.321536,296.344531 Z M693.089082,702.011493 C689.545591,697.929859 686.081284,693.650086 682.765447,689.271245 C671.758848,675.005336 661.068986,658.867027 650.992801,641.252592 C635.175765,613.869973 623.238752,587.497856 616.112178,570.26979 C612.232154,560.957322 609.520096,553.824368 608.045291,549.792267 C608.124475,544.977523 608.362028,540.321289 608.668866,535.74431 C610.143671,514.880419 614.330534,497.345239 621.29874,483.386444 C623.862328,478.106076 626.80204,473.301239 630.296041,469.031373 C631.127475,467.981244 632.097481,467.099532 632.988302,466.128657 C634.265147,464.702066 635.55189,463.265569 636.94751,461.977674 C637.769046,461.185124 638.60048,460.382666 639.520996,459.649557 C640.372226,458.946169 641.223455,458.252687 642.153869,457.549298 L642.906119,457.03414 L643.163467,456.855817 L644.40072,455.993918 C646.340732,454.676303 648.35003,453.437943 650.44841,452.278838 C653.081284,450.881967 655.872525,449.6337 658.812238,448.474595 L660.207858,448.088227 L660.544391,448.018879 L661.563887,447.701859 L662.890222,447.345211 C663.80084,447.038098 664.70156,446.721077 665.641872,446.453592 C666.671266,446.166292 667.789742,445.968154 668.858728,445.720482 L670.759148,445.28458 C673.431614,444.749608 676.183263,444.274078 679.043791,443.897616 L679.083383,443.897616 L679.855429,443.818361 L682.409118,443.659851 L684.002699,443.511248 L685.754649,443.4419 C686.714757,443.412179 687.674865,443.323017 688.634973,443.293297 L688.733953,443.273483 L689.446611,443.253669 L691.475705,443.1546 L693.386023,442.966369 L693.85123,442.966369 L694.009598,442.966369 C696.721656,442.966369 699.354529,443.045625 701.987403,443.273483 C704.442112,443.422086 706.817636,443.709386 709.143671,443.996685 L710.192861,444.145288 C712.479304,444.442495 714.716257,444.789236 716.874025,445.294487 C719.20006,445.76011 721.526095,446.304988 723.693761,446.919215 L724.307439,447.15698 L724.376725,447.176794 L724.891422,447.305583 L726.04949,447.701859 C730.028494,448.989753 733.641272,450.614482 737.115477,452.407627 C738.64967,453.210084 740.243251,453.982821 741.668566,454.834813 C742.935513,455.597643 744.073785,456.568517 745.261548,457.450229 C748.488302,459.817974 751.546791,462.383856 754.268746,465.385641 L754.684463,465.80173 L754.852729,465.93052 L754.852729,465.970147 L754.882424,466.009775 C760.158068,471.666604 764.414217,478.492445 768.056689,486.645808 L768.452609,487.804913 C774.262747,501.149482 777.826035,517.515649 779.142472,536.606209 L779.142472,537.071832 C779.459208,541.490301 779.607678,545.760167 779.686863,549.871522 C778.212058,554.052226 775.420816,561.5022 771.392322,571.121782 C764.186563,588.270593 752.328734,614.494107 736.442412,641.876726 C726.128674,659.719019 715.359628,675.857328 704.353029,690.053888 C700.859028,694.551612 697.374925,698.821478 693.880924,703.002182 L693.85123,702.962554 L693.712657,702.78423 L693.386023,702.46721 L693.386023,702.387955 L693.089082,702.011493 Z M693.85123,54.2996147 L1068.37253,54.2996147 C1068.29334,72.0626523 1068.13497,89.4393215 1067.9865,106.429622 L887.466407,106.508877 C886.456809,106.429622 885.377924,106.429622 884.368326,106.429622 L881.883923,106.360274 L880.567487,106.360274 L879.943911,106.122509 L878.558188,106.360274 L873.906119,106.508877 L864.364427,106.508877 L863.206359,106.974501 C857.237852,107.440124 851.655369,107.440124 845.380024,108.371371 C832.205759,110.47163 818.635573,111.789245 806.629274,115.355722 C800.423215,117.138961 794.306239,118.615086 788.258548,120.091211 C782.369226,122.260818 776.470006,124.430425 770.659868,126.372174 C758.881224,130.245764 748.260648,136.07101 737.333233,140.875848 C731.829934,143.28322 726.95021,146.621839 721.832933,149.415579 C716.794841,152.516433 711.835933,155.458776 706.867127,158.331772 C702.452609,161.284022 698.117277,164.305621 693.85123,167.48573 L693.386023,167.723495 L693.386023,167.792843 L693,168.030608 C688.506299,164.691989 683.854229,161.432626 679.122975,158.331772 C674.164067,155.458776 669.205159,152.516433 664.167067,149.415579 C659.04979,146.621839 654.170066,143.28322 648.666767,140.875848 C637.729454,136.07101 627.118776,130.245764 615.330234,126.372174 C609.520096,124.430425 603.630774,122.260818 597.741452,120.091211 C591.693761,118.615086 585.566887,117.138961 579.370726,115.355722 C567.354529,111.789245 553.794241,110.47163 540.619976,108.371371 C534.334733,107.440124 528.762148,107.440124 522.793641,106.974501 L521.625675,106.508877 L512.093881,106.508877 L507.441812,106.360274 L506.046191,106.122509 L505.422615,106.360274 L504.106179,106.360274 L501.631674,106.429622 C500.622076,106.429622 499.533293,106.429622 498.533593,106.508877 L318.785543,106.429622 C318.706359,89.4393215 318.557888,72.0626523 318.478704,54.2996147 L693.85123,54.2996147 Z M1122.31674,106.360274 C1122.62358,72.4490206 1122.78194,36.9229454 1122.78194,0 L693.85123,0 L693.386023,0 L264.069286,0 C264.069286,36.9229454 264.217756,72.4490206 264.534493,106.360274 L0,106.122509 L158.883023,297.503636 C158.883023,297.503636 193.535993,228.304072 263.910918,219.932758 C262.287642,221.943855 260.654469,224.271972 259.031194,226.21372 C254.537493,232.415428 249.568686,238.002909 245.391722,244.442381 C228.258248,269.427535 215.083983,297.503636 205.156269,326.758656 L198.960108,349.177927 C197.871326,352.823659 197.09928,356.69725 196.475705,360.660002 L194.466407,372.677049 L192.447211,384.476144 C191.754349,388.656848 191.823635,391.995467 191.437612,395.561944 L189.893521,418.377491 C189.893521,449.712955 193.219256,480.899817 201.513797,511.313941 C210.273545,541.183188 222.44811,570.26979 239.027295,596.651814 C255.774745,622.865421 275.689562,646.998583 298.791542,667.010483 C304.374025,672.280944 310.728554,676.630064 316.617876,681.514157 L325.605279,688.339998 L335.216257,694.630867 C340.79874,698.038834 346.222855,701.605311 351.884523,704.864675 C413.816437,836.675727 518.220756,936.279508 693,1049 L693.85123,1049 C868.937313,936.05165 973.420816,836.210103 1035.27355,704.250449 C1040.54919,701.139688 1045.58728,697.731721 1050.77385,694.630867 L1060.38482,688.339998 L1069.38212,681.514157 C1075.27145,676.630064 1081.62597,672.280944 1087.20846,667.010483 C1110.30054,646.998583 1130.22525,622.865421 1146.96281,596.651814 C1163.55189,570.26979 1175.71656,541.183188 1184.4763,511.313941 C1192.77085,480.899817 1196.10648,449.712955 1196.10648,418.377491 L1194.55249,395.561944 C1194.16647,391.995467 1194.24565,388.656848 1193.54289,384.476144 L1191.53359,372.677049 L1189.5144,360.660002 C1188.90072,356.69725 1188.11878,352.823659 1187.03989,349.177927 L1180.83383,326.758656 C1170.91602,297.503636 1157.74175,269.427535 1140.60828,244.442381 C1136.42142,238.002909 1131.46251,232.415428 1126.96881,226.21372 C1125.33563,224.271972 1123.71236,221.943855 1122.08908,219.932758 C1192.46401,228.304072 1227.10708,297.503636 1227.10708,297.503636 L1386,106.122509 L1122.31674,106.360274 Z"></path>
                    </g>
                </g>
            </g>
        </g>
    </g>
</svg>